#22.bmp.obj

v 0 0 0
v 0.1143 0 0
v 0.105156 0 0.04368803
v 0.08077191 0 0.08077201
v 0.04368793 0 0.105664
v 0 0 0.1143
v -0.04368803 0 0.105664
v -0.08077201 0 0.08077201
v -0.105664 0 0.04368803
v -0.1143 0 0
v -0.105664 0 -0.04368803
v -0.08077201 0 -0.08077201
v -0.04368803 0 -0.105664
v 0 0 -0.1143
v 0.04368793 0 -0.105664
v 0.08077191 0 -0.08077201
v 0.105156 0 -0.04368803

vn 0 1 0
vn 0 1 0
vn 0 1 0
vn 0 1 0
vn 0 1 0
vn 0 1 0
vn 0 1 0
vn 0 1 0
vn 0 1 0
vn 0 1 0
vn 0 1 0
vn 0 1 0
vn 0 1 0
vn 0 1 0
vn 0 1 0
vn 0 1 0
vn 0 1 0

vt 0.476563 0.5
vt 0.953125 0.5
vt 0.914063 0.679687
vt 0.8125 0.835937
vt 0.65625 0.9375
vt 0.476563 0.976562
vt 0.296875 0.9375
vt 0.140625 0.835937
vt 0.039063 0.679687
vt 0.007813 0.5
vt 0.039063 0.320312
vt 0.140625 0.164062
vt 0.296875 0.0625
vt 0.476563 0.03125
vt 0.65625 0.0625
vt 0.8125 0.164062
vt 0.914063 0.320312

g 22.bmp.obj
usemtl 22.bmp
usemap 22.bmp
f 1/1/1 3/3/3 2/2/2
f 1/1/1 4/4/4 3/3/3
f 1/1/1 5/5/5 4/4/4
f 1/1/1 6/6/6 5/5/5
f 1/1/1 7/7/7 6/6/6
f 1/1/1 8/8/8 7/7/7
f 1/1/1 9/9/9 8/8/8
f 1/1/1 10/10/10 9/9/9
f 1/1/1 11/11/11 10/10/10
f 1/1/1 12/12/12 11/11/11
f 1/1/1 13/13/13 12/12/12
f 1/1/1 14/14/14 13/13/13
f 1/1/1 15/15/15 14/14/14
f 1/1/1 16/16/16 15/15/15
f 1/1/1 17/17/17 16/16/16
f 1/1/1 2/2/2 17/17/17
