#Capboard01.obj

v -0.5352615 0.7501497 -1.639487E-08
v 0.5352615 0.7501497 -1.639487E-08
v -0.5352615 -8.114815E-06 -1.639487E-08
v 0.5352615 -8.114815E-06 -1.639487E-08
v 0.001545077 0.043162 -0.4129503
v 0.001545029 0.3761534 -0.4129503
v -0.4736549 0.04316209 -0.4129503
v -0.5352615 0.04316212 -0.4129503
v 0.001545077 0.3976763 -0.4129503
v -0.5352615 0.7501497 -0.4129503
v 0.001545077 0.7501497 -0.4129503
v -0.5352615 0.04316212 -0.3978805
v -0.5352615 -8.114815E-06 -0.3978805
v -0.4736549 0.04316209 -0.3978805
v 0.001545077 0.043162 -0.3978805
v 0.003509637 0.043162 -0.3978805
v 0.5352615 -8.114815E-06 -1.639487E-08
v 0.5352615 -8.114815E-06 -0.3978805
v -0.5352615 -8.114815E-06 -1.639487E-08
v -0.5352615 -8.114815E-06 -0.3978805
v 0.5352615 0.7501497 -1.639487E-08
v 0.5352615 0.7501497 -0.3978805
v 0.5352615 -8.114815E-06 -1.639487E-08
v 0.5352615 0.04316188 -0.3978805
v 0.5352615 -8.114815E-06 -0.3978805
v 0.5352615 0.04316188 -0.4129503
v 0.5352615 0.7501497 -0.4129503
v -0.5352615 0.7501497 -1.639487E-08
v -0.5352615 0.7501497 -0.3978805
v 0.5352615 0.7501497 -1.639487E-08
v 0.001545077 0.7501497 -0.3978805
v 0.003509637 0.7501497 -0.3978805
v 0.5352615 0.7501497 -0.3978805
v 0.5352615 0.7501497 -0.4129503
v 0.003509637 0.7501497 -0.4129504
v 0.001545077 0.7501497 -0.4129503
v -0.5352615 0.7501497 -0.4129503
v -0.5352615 -8.114815E-06 -1.639487E-08
v -0.5352615 -8.114815E-06 -0.3978805
v -0.5352615 0.7501497 -1.639487E-08
v -0.5352615 0.04316212 -0.3978805
v -0.5352615 0.7501497 -0.3978805
v -0.5352615 0.7501497 -0.4129503
v -0.5352615 0.04316212 -0.4129503
v 0.5352615 -8.114815E-06 -0.3978805
v 0.5352615 0.04316188 -0.3978805
v -0.5352615 -8.114815E-06 -0.3978805
v 0.003509637 0.043162 -0.3978805
v 0.003509637 0.3989737 -0.4129503
v 0.003509637 0.3775301 -0.4129503
v 0.5352615 0.7501497 -0.4129503
v 0.003509637 0.7501497 -0.4129504
v 0.5352615 0.04316188 -0.4129503
v 0.003509637 0.3749276 -0.4129503
v 0.003509637 0.043162 -0.4129503
v 0.003509637 0.3749276 -0.3978805
v 0.003509637 0.3775301 -0.3978805
v 0.001545029 0.3761534 -0.3978805
v 0.001545077 0.3976763 -0.3978805
v 0.003509637 0.3989737 -0.3978805
v 0.001545077 0.7501497 -0.3978805
v 0.003509637 0.7501497 -0.3978805
v 0.003509637 0.043162 -0.3978805
v 0.001545077 0.043162 -0.3978805
v 0.001545077 0.043162 -0.3978805
v -0.4736549 0.04316209 -0.4129503
v -0.4736549 0.04316209 -0.3978805
v 0.001545077 0.043162 -0.4129503
v -0.5352615 0.04316212 -0.4129503
v -0.5352615 0.04316212 -0.3978805
v 0.001545029 0.3761534 -0.3978805
v 0.001545077 0.043162 -0.4129503
v 0.001545077 0.043162 -0.3978805
v 0.001545029 0.3761534 -0.4129503
v 0.001545077 0.3976763 -0.3978805
v 0.001545077 0.3976763 -0.4129503
v 0.001545077 0.7501497 -0.3978805
v 0.001545077 0.7501497 -0.4129503
v 0.003509637 0.3775301 -0.3978805
v 0.003509637 0.3989737 -0.4129503
v 0.003509637 0.3989737 -0.3978805
v 0.003509637 0.3775301 -0.4129503
v 0.003509637 0.7501497 -0.4129504
v 0.003509637 0.7501497 -0.3978805
v 0.003509637 0.3749276 -0.3978805
v 0.003509637 0.3749276 -0.4129503
v 0.003509637 0.043162 -0.3978805
v 0.003509637 0.043162 -0.4129503
v 0.5352615 0.04316188 -0.3978805
v 0.003509637 0.043162 -0.4129503
v 0.003509637 0.043162 -0.3978805
v 0.5352615 0.04316188 -0.4129503
v 0.5352615 2.077617 -2.344048E-07
v 0.5201917 2.077617 -2.344048E-07
v 0.5352617 2.077617 -0.3018665
v 0.5201919 2.077617 -0.3018665
v -0.5201917 2.077617 -0.3018662
v -0.5201919 2.077617 -1.639487E-08
v -0.5352614 2.077617 -0.3018662
v -0.5352616 2.077617 8.049845E-08
v -0.5492551 2.077617 6.022386E-07
v 0.5201919 2.077617 -0.3018665
v 0.5201918 2.062617 -0.3018665
v 0.5352617 2.077617 -0.3018665
v 0.5352616 2.062617 -0.3018665
v 0.5201919 1.603289 -0.3018664
v 0.5352617 1.603289 -0.3018664
v 0.5201918 1.588289 -0.3018665
v 0.5352616 1.588289 -0.3018664
v 0.5201918 1.164077 -0.3018664
v 0.5352616 1.164077 -0.3018664
v 0.5201918 1.149077 -0.3018664
v 0.5352616 1.149077 -0.3018663
v 0.5201917 0.7501497 -0.3018663
v 0.5352615 0.7501497 -0.3018663
v -0.5201917 2.062617 -0.3018663
v -0.5201917 2.077617 -0.3018662
v -0.5201916 1.588289 -0.3018662
v -0.5201916 1.603289 -0.3018662
v -0.5201916 1.149077 -0.3018661
v -0.5201916 1.164077 -0.3018661
v -0.5352614 2.077617 -0.3018662
v -0.5352613 2.062617 -0.3018662
v -0.5352612 1.603289 -0.3018661
v -0.5352613 1.588289 -0.3018661
v -0.5352613 1.164077 -0.3018661
v -0.5352613 1.149077 -0.3018661
v -0.5201916 0.7501497 -0.301866
v -0.5352614 0.7501497 -0.301866
v 0.5201917 2.062617 -0.004840237
v 0.5201917 1.603288 -0.004840164
v 0.5201918 2.062617 -0.3018665
v 0.5201919 1.603289 -0.3018664
v 0.5201917 1.588288 -0.004840152
v 0.5201917 1.164077 -0.004840103
v 0.5201918 1.588289 -0.3018665
v 0.5201918 1.164077 -0.3018664
v 0.5201917 1.149077 -0.004840079
v 0.5201916 0.7501496 -0.004840031
v 0.5201918 1.149077 -0.3018664
v 0.5201917 0.7501497 -0.3018663
v 0.5352617 2.077617 -0.3018665
v 0.5352616 2.062617 -0.3018665
v 0.5352615 2.077617 -2.344048E-07
v 0.5352616 2.062617 -2.465165E-07
v 0.5352617 1.603289 -0.3018664
v 0.5352615 1.603288 -1.738465E-07
v 0.5352616 1.588289 -0.3018664
v 0.5352615 1.588288 -1.253998E-07
v 0.5352616 1.164077 -0.3018664
v 0.5352615 1.164077 -1.132882E-07
v 0.5352616 1.149077 -0.3018663
v 0.5352615 1.149077 -6.484152E-08
v 0.5352615 0.7501497 -0.3018663
v 0.5352614 0.7501496 -4.061819E-08
v 0.5201918 2.062617 -0.3018665
v -0.5201919 2.062617 -0.004839982
v 0.5201917 2.062617 -0.004840237
v -0.5201917 2.062617 -0.3018663
v 0.5201917 1.603288 -0.004840164
v -0.5201916 1.603289 -0.3018662
v 0.5201919 1.603289 -0.3018664
v -0.5201918 1.603288 -0.004839934
v 0.5201918 1.588289 -0.3018665
v -0.5201918 1.588288 -0.004839898
v 0.5201917 1.588288 -0.004840152
v -0.5201916 1.588289 -0.3018662
v 0.5201917 1.164077 -0.004840103
v -0.5201916 1.164077 -0.3018661
v 0.5201918 1.164077 -0.3018664
v -0.5201918 1.164077 -0.004839849
v 0.5201918 1.149077 -0.3018664
v -0.5201918 1.149077 -0.004839813
v 0.5201917 1.149077 -0.004840079
v -0.5201916 1.149077 -0.3018661
v -0.5201917 2.062617 -0.3018663
v -0.5201918 1.603288 -0.004839934
v -0.5201919 2.062617 -0.004839982
v -0.5201916 1.603289 -0.3018662
v -0.5201916 1.588289 -0.3018662
v -0.5201918 1.164077 -0.004839849
v -0.5201918 1.588288 -0.004839898
v -0.5201916 1.164077 -0.3018661
v -0.5201916 1.149077 -0.3018661
v -0.5201918 0.7501496 -0.004839704
v -0.5201918 1.149077 -0.004839813
v -0.5201916 0.7501497 -0.301866
v -0.5352616 2.077617 8.049845E-08
v -0.5352613 2.062617 -0.3018662
v -0.5352614 2.077617 -0.3018662
v -0.5352616 2.062617 9.261011E-08
v -0.5352612 1.603289 -0.3018661
v -0.5352615 1.603288 1.168334E-07
v -0.5352613 1.588289 -0.3018661
v -0.5352615 1.588288 1.410568E-07
v -0.5352613 1.164077 -0.3018661
v -0.5352616 1.164077 1.895034E-07
v -0.5352613 1.149077 -0.3018661
v -0.5352616 1.149077 2.016151E-07
v -0.5352614 0.7501497 -0.301866
v -0.5352616 0.7501496 2.621734E-07
v -0.5201918 1.603288 -0.004839994
v 0.5201917 1.603288 -0.004840164
v -0.5201917 2.062617 -0.004840068
v 0.5201917 2.062617 -0.004840237
v -0.5201919 1.164077 -0.004839934
v 0.5201917 1.164077 -0.004840103
v -0.5201918 1.588288 -0.004839982
v 0.5201917 1.588288 -0.004840152
v -0.5201919 0.7501495 -0.004839861
v 0.5201916 0.7501496 -0.004840031
v -0.5201917 1.149077 -0.004839898
v 0.5201917 1.149077 -0.004840079
v -0.5492551 2.077617 6.022386E-07
v 0.5352615 2.077617 -2.344048E-07
v -0.5341853 2.077617 6.022385E-07
v -0.5341853 2.077617 6.022385E-07
v 0.5352616 2.062617 -2.465165E-07
v -0.5341853 2.062617 5.901269E-07
v 0.5352615 2.077617 -2.344048E-07
v 0.5352615 1.603288 -1.738465E-07
v -0.5341853 1.603288 6.627969E-07
v 0.5352615 1.588288 -1.253998E-07
v -0.5341853 1.588288 7.112435E-07
v 0.5352615 1.164077 -1.132882E-07
v -0.5341853 1.164077 7.233552E-07
v 0.5352615 1.149077 -6.484152E-08
v -0.5341853 1.149077 7.718019E-07
v 0.5352614 0.7501496 -4.061819E-08
v -0.5341853 0.7501496 7.960252E-07

vn 0 0 1
vn 0 0 1
vn 0 0 1
vn 0 0 1
vn 0 0 -1
vn 0 0 -1
vn 0 0 -1
vn 0 0 -1
vn 0 0 -1
vn 0 0 -1
vn 0 0 -1
vn 0 0 -1
vn 0 0 -1
vn 0 0 -1
vn 0 0 -1
vn 0 0 -1
vn 0 -1 0
vn 0 -1 0
vn 0 -1 0
vn 0 -1 0
vn 1 0 0
vn 1 0 0
vn 1 0 0
vn 1 0 0
vn 1 0 0
vn 1 0 0
vn 1 0 0
vn 0 1 0
vn 0 1 0
vn 0 1 0
vn 0 1 0
vn 0 1 0
vn 0 1 0
vn 0 1 0
vn 0 1 0
vn 0 1 0
vn 0 1 0
vn -1 0 0
vn -1 0 0
vn -1 0 0
vn -1 0 0
vn -1 0 0
vn -1 0 0
vn -1 0 0
vn 0 0 -1
vn 0 0 -1
vn 0 0 -1
vn 0 0 -1
vn 0 0 -1
vn 0 0 -1
vn 0 0 -1
vn 0 0 -1
vn 0 0 -1
vn 0 0 -1
vn 0 0 -1
vn 0 0 -1
vn 0 0 -1
vn 0 0 -1
vn 0 0 -1
vn 0 0 -1
vn 0 0 -1
vn 0 0 -1
vn 0 0 -1
vn 0 0 -1
vn 0 -1 0
vn -2.98547E-07 -1 0
vn -2.985467E-07 -1 0
vn 0 -1 0
vn -3.931934E-07 -1 0
vn -3.931933E-07 -1 0
vn 1 -1.052725E-06 0
vn 1 0 0
vn 1 0 0
vn 1 -1.052725E-06 0
vn 1 -1.12547E-06 0
vn 1 -1.12547E-06 0
vn 1 0 0
vn 1 0 0
vn -1 0 0
vn -1 0 0
vn -1 0 0
vn -1 0 0
vn -1 0 0
vn -1 0 0
vn -1 0 0
vn -1 0 0
vn -1 0 0
vn -1 0 0
vn 0 -1 0
vn 0 -1 0
vn 0 -1 0
vn 0 -1 0
vn 0 1 0
vn 0 1 0
vn 0 1 0
vn 0 1 0
vn 0 1 -5.842565E-07
vn -6.132379E-06 1 -3.311769E-07
vn -4.083565E-07 1 -6.215764E-07
vn -1.285934E-05 1 0
vn 0 1 0
vn -1.723825E-06 1.614889E-06 -1
vn -6.149945E-07 4.87151E-07 -1
vn -1.602659E-06 0 -1
vn 0 -8.865468E-07 -1
vn 0 2.090559E-06 -1
vn 1.612154E-06 0 -1
vn 3.118514E-06 9.845977E-07 -1
vn 6.356959E-06 -1.755069E-06 -1
vn 0 1.055849E-06 -1
vn 8.060836E-07 0 -1
vn 1.528208E-06 4.589337E-07 -1
vn 3.176176E-06 -9.274408E-07 -1
vn 0 0 -1
vn 0 0 -1
vn -3.557987E-06 0 -1
vn -9.2012E-07 1.614886E-06 -1
vn -3.826814E-06 -5.839233E-07 -1
vn -2.243214E-06 0 -1
vn -4.095363E-06 6.86812E-07 -1
vn -3.304553E-06 1.03811E-06 -1
vn -4.025658E-06 -8.145897E-07 -1
vn -6.396129E-06 -1.692899E-06 -1
vn -4.020923E-06 -8.361875E-07 -1
vn -6.4115E-06 -1.699879E-06 -1
vn -5.225296E-06 3.454392E-07 -1
vn -6.352393E-06 0 -1
vn 0 0 -1
vn 0 0 -1
vn -1 0 -3.262113E-07
vn -1 0 -5.332146E-07
vn -1 0 -4.454193E-07
vn -1 0 -6.524228E-07
vn -1 0 -4.893167E-07
vn -1 0 -5.889941E-07
vn -1 0 -5.527452E-07
vn -1 0 -6.524226E-07
vn -1 0 -4.893167E-07
vn -1 0 -3.926676E-07
vn -1 0 -4.228603E-07
vn -1 0 -3.262112E-07
vn 1 -3.229764E-06 6.419618E-07
vn 1 -1.460059E-06 4.763986E-07
vn 1 3.02559E-06 3.311266E-07
vn 1 1.62858E-06 3.803847E-07
vn 1 -1.628575E-06 5.825542E-07
vn 1 0 5.642526E-07
vn 1 -1.563842E-06 5.59177E-07
vn 1 0 5.130663E-07
vn 1 -1.649521E-06 6.103661E-07
vn 1 0 5.642529E-07
vn 1 -1.685303E-06 5.591793E-07
vn 1 0 4.483794E-07
vn 1 0 3.871646E-07
vn 1 0 3.209809E-07
vn 0 -1 0
vn 0 -1 0
vn 0 -1 0
vn 0 -1 0
vn 0 1 2.167972E-06
vn 0 1 1.746563E-06
vn 0 1 2.283479E-06
vn 0 1 1.631057E-06
vn 0 -1 -1.247091E-06
vn 0 -1 -1.036387E-06
vn 0 -1 -1.304845E-06
vn 0 -1 -9.786337E-07
vn 0 1 5.369157E-07
vn 0 1 0
vn 0 1 6.524225E-07
vn 0 1 0
vn 0 -1 -5.369156E-07
vn 0 -1 0
vn 0 -1 -6.524225E-07
vn 0 -1 0
vn 1 0 7.716307E-07
vn 1 0 8.594261E-07
vn 1 0 6.524225E-07
vn 1 3.164187E-07 9.786344E-07
vn 1 0 9.152054E-07
vn 1 0 8.789565E-07
vn 1 0 9.786338E-07
vn 1 0 8.155282E-07
vn 1 0 6.524224E-07
vn 1 0 6.524224E-07
vn 1 0 6.524224E-07
vn 1 0 6.524224E-07
vn -1 3.025594E-06 -9.527974E-07
vn -1 -1.671009E-06 -8.075251E-07
vn -1 -3.229768E-06 -6.419618E-07
vn -1 1.456673E-06 -9.62943E-07
vn -1 1.456668E-06 -9.629402E-07
vn -1 0 -8.852342E-07
vn -1 1.563841E-06 -8.801587E-07
vn -1 0 -8.340472E-07
vn -1 1.649523E-06 -9.313482E-07
vn -1 0 -8.85234E-07
vn -1 1.685303E-06 -8.801613E-07
vn -1 0 -7.693605E-07
vn -1 0 -7.081456E-07
vn -1 0 -6.419618E-07
vn 0 0 -1
vn 0 0 -1
vn 0 0 -1
vn 0 0 -1
vn 0 0 -1
vn 0 0 -1
vn 0 0 -1
vn 0 0 -1
vn 0 0 -1
vn 0 0 -1
vn 0 0 -1
vn 0 0 -1
vn 0 1 0
vn 0 1 0
vn 0 1 0
vn 7.823141E-07 -8.074354E-07 1
vn 7.823141E-07 -3.246145E-07 1
vn 7.823141E-07 -3.246132E-07 1
vn 7.823141E-07 -8.074389E-07 1
vn 7.823142E-07 1.694019E-06 1
vn 7.823144E-07 1.694029E-06 1
vn 7.823142E-07 1.62919E-06 1
vn 7.823144E-07 1.6292E-06 1
vn 7.823143E-07 1.629179E-06 1
vn 7.823142E-07 1.629178E-06 1
vn 7.823143E-07 1.645264E-06 1
vn 7.823143E-07 1.645262E-06 1
vn 7.823143E-07 0 1
vn 7.823143E-07 0 1

vt 0.01356801 0.7657962
vt 0.9993167 0.7657964
vt 0.01356784 1.456549
vt 0.9993166 1.45655
vt 0.4921351 1.416798
vt 0.492135 1.110176
vt 0.9297041 1.416798
vt 0.9864321 1.416798
vt 0.492135 1.090358
vt 0.986432 0.7657962
vt 0.4921349 0.7657963
vt 0.9864321 1.416798
vt 0.9864322 1.456549
vt 0.9297041 1.416798
vt 0.4921351 1.416798
vt 0.4903261 1.416798
vt 0.9993166 0.3098759
vt 0.9993166 0.6762484
vt 0.01356784 0.3098759
vt 0.01356784 0.6762484
vt 0.2342035 0.3098759
vt 0.2342035 0.6762484
vt -0.4565495 0.3098759
vt -0.4167981 0.6762484
vt -0.4565495 0.6762484
vt -0.4167981 0.6901249
vt 0.2342035 0.6901249
vt 0.986432 0.3098759
vt 0.986432 0.6762484
vt 0.0006833076 0.3098759
vt 0.4921349 0.6762484
vt 0.4903259 0.6762484
vt 0.0006833076 0.6762484
vt 0.0006833076 0.6901249
vt 0.4903259 0.6901249
vt 0.4921349 0.6901249
vt 0.986432 0.6901248
vt 1.456549 0.3098759
vt 1.456549 0.6762484
vt 0.7657962 0.3098759
vt 1.416798 0.6762484
vt 0.7657962 0.6762484
vt 0.7657962 0.6901248
vt 1.416798 0.6901249
vt 0.0006834269 1.45655
vt 0.0006834269 1.416798
vt 0.9864322 1.456549
vt 0.4903261 1.416798
vt 0.490326 1.089163
vt 0.490326 1.108908
vt 0.0006833076 0.7657964
vt 0.4903259 0.7657963
vt 0.0006834269 1.416798
vt 0.490326 1.111305
vt 0.4903261 1.416798
vt 0.490326 1.111305
vt 0.490326 1.108908
vt 0.492135 1.110176
vt 0.492135 1.090358
vt 0.490326 1.089163
vt 0.4921349 0.7657963
vt 0.4903259 0.7657963
vt 0.4903261 1.416798
vt 0.4921351 1.416798
vt 0.5078649 0.6762484
vt 0.07029587 0.6901249
vt 0.07029593 0.6762484
vt 0.5078649 0.6901249
vt 0.01356786 0.6901249
vt 0.01356786 0.6762484
vt -0.110176 0.6762484
vt -0.4167979 0.6901249
vt -0.4167979 0.6762484
vt -0.110176 0.6901249
vt -0.09035748 0.6762484
vt -0.09035748 0.6901249
vt 0.2342037 0.6762484
vt 0.2342037 0.6901249
vt 1.108908 0.6762484
vt 1.089163 0.6901249
vt 1.089163 0.6762484
vt 1.108908 0.6901249
vt 0.7657963 0.6901249
vt 0.7657963 0.6762484
vt 1.111305 0.6762484
vt 1.111305 0.6901249
vt 1.416798 0.6762484
vt 1.416798 0.6901249
vt 0.9993166 0.6762484
vt 0.5096739 0.6901249
vt 0.5096739 0.6762484
vt 0.9993166 0.6901249
vt 0.00068295 0.3098761
vt 0.01455939 0.3098761
vt 0.0006828308 0.5878377
vt 0.01455927 0.5878377
vt 0.9725552 0.5878375
vt 0.9725554 0.3098759
vt 0.9864316 0.5878375
vt 0.9864318 0.3098758
vt 0.9993172 0.3098754
vt 0.01455927 -0.4565492
vt 0.01455933 -0.4427369
vt 0.0006828308 -0.4565492
vt 0.0006828904 -0.4427369
vt 0.01455939 -0.01978278
vt 0.00068295 -0.01978278
vt 0.01455939 -0.005970478
vt 0.00068295 -0.005970478
vt 0.01455951 0.3846478
vt 0.0006830692 0.3846478
vt 0.01455951 0.3984599
vt 0.0006830692 0.3984599
vt 0.01455975 0.7657964
vt 0.0006833076 0.7657964
vt 0.9725553 -0.4427371
vt 0.9725552 -0.4565494
vt 0.9725552 -0.005970716
vt 0.9725552 -0.01978302
vt 0.9725554 0.3984596
vt 0.9725553 0.3846475
vt 0.9864316 -0.4565494
vt 0.9864316 -0.4427371
vt 0.9864315 -0.01978302
vt 0.9864316 -0.005970716
vt 0.9864317 0.3846475
vt 0.9864317 0.3984596
vt 0.9725555 0.7657962
vt 0.9864319 0.7657962
vt -0.4427369 0.3143328
vt -0.01978207 0.3143328
vt -0.4427369 0.5878377
vt -0.01978278 0.5878376
vt -0.005970001 0.3143327
vt 0.384648 0.3143327
vt -0.005970478 0.5878377
vt 0.3846478 0.5878376
vt 0.39846 0.3143327
vt 0.7657965 0.3143326
vt 0.3984599 0.5878376
vt 0.7657964 0.5878375
vt 1.456549 0.5878377
vt 1.442737 0.5878377
vt 1.456549 0.3098761
vt 1.442737 0.3098761
vt 1.019783 0.5878376
vt 1.019782 0.3098761
vt 1.00597 0.5878376
vt 1.00597 0.309876
vt 0.6153522 0.5878376
vt 0.615352 0.309876
vt 0.6015401 0.5878376
vt 0.60154 0.309876
vt 0.2342036 0.5878375
vt 0.2342035 0.3098759
vt 0.9854407 0.5878377
vt 0.02744454 0.3143326
vt 0.9854406 0.3143328
vt 0.02744472 0.5878375
vt 0.01455951 0.3143328
vt 0.9725552 0.5878374
vt 0.01455939 0.5878376
vt 0.9725555 0.3143325
vt 0.9854406 0.5878377
vt 0.02744451 0.3143325
vt 0.9854405 0.3143327
vt 0.02744478 0.5878374
vt 0.01455969 0.3143327
vt 0.9725553 0.5878373
vt 0.01455951 0.5878376
vt 0.9725555 0.3143325
vt 0.9854405 0.5878376
vt 0.02744445 0.3143324
vt 0.9854403 0.3143327
vt 0.02744463 0.5878373
vt 1.442737 0.5878375
vt 1.019783 0.3143325
vt 1.442737 0.3143326
vt 1.019783 0.5878374
vt 1.005971 0.5878374
vt 0.6153525 0.3143325
vt 1.00597 0.3143325
vt 0.6153525 0.5878373
vt 0.6015404 0.5878373
vt 0.2342038 0.3143324
vt 0.6015404 0.3143324
vt 0.2342038 0.5878372
vt -0.4565494 0.3098758
vt -0.4427371 0.5878373
vt -0.4565494 0.5878375
vt -0.4427371 0.3098758
vt -0.01978302 0.5878373
vt -0.01978254 0.3098758
vt -0.005970716 0.5878373
vt -0.005970478 0.3098757
vt 0.3846475 0.5878373
vt 0.3846475 0.3098757
vt 0.3984596 0.5878373
vt 0.3984596 0.3098757
vt 0.7657962 0.5878372
vt 0.7657962 0.3098757
vt 0.9725555 -0.0197823
vt 0.01455951 -0.01978207
vt 0.9725552 -0.4427371
vt 0.01455939 -0.4427369
vt 0.9725556 0.3846477
vt 0.01455969 0.384648
vt 0.9725555 -0.00597024
vt 0.01455951 -0.005970001
vt 0.9725558 0.7657963
vt 0.01455981 0.7657965
vt 0.9725555 0.3984598
vt 0.01455969 0.39846
vt 0.9993172 0.3098754
vt 0.00068295 0.3098761
vt 0.9854407 0.3098754
vt 0.01455933 -0.4565494
vt 0.999317 -0.4427369
vt 0.0145593 -0.4427371
vt 0.999317 -0.4565492
vt 0.9993169 -0.01978207
vt 0.01455921 -0.0197823
vt 0.9993169 -0.005970001
vt 0.01455921 -0.005970478
vt 0.9993168 0.384648
vt 0.01455912 0.3846477
vt 0.9993168 0.39846
vt 0.01455912 0.3984598
vt 0.9993166 0.7657965
vt 0.01455894 0.7657962

g Capboard01.obj
usemtl Capboard01
usemap Capboard01
f 1/1/1 3/3/3 2/2/2
f 4/4/4 2/2/2 3/3/3
f 5/5/5 7/7/7 6/6/6
f 8/8/8 6/6/6 7/7/7
f 8/8/8 9/9/9 6/6/6
f 10/10/10 9/9/9 8/8/8
f 10/10/10 11/11/11 9/9/9
f 12/12/12 14/14/14 13/13/13
f 15/15/15 13/13/13 14/14/14
f 16/16/16 13/13/13 15/15/15
f 17/17/17 19/19/19 18/18/18
f 20/20/20 18/18/18 19/19/19
f 21/21/21 23/23/23 22/22/22
f 24/24/24 22/22/22 23/23/23
f 25/25/25 24/24/24 23/23/23
f 22/22/22 24/24/24 26/26/26
f 26/26/26 27/27/27 22/22/22
f 28/28/28 30/30/30 29/29/29
f 31/31/31 29/29/29 30/30/30
f 32/32/32 31/31/31 30/30/30
f 33/33/33 32/32/32 30/30/30
f 32/32/32 33/33/33 34/34/34
f 34/34/34 35/35/35 32/32/32
f 29/29/29 31/31/31 36/36/36
f 36/36/36 37/37/37 29/29/29
f 38/38/38 40/40/40 39/39/39
f 41/41/41 39/39/39 40/40/40
f 42/42/42 41/41/41 40/40/40
f 41/41/41 42/42/42 43/43/43
f 43/43/43 44/44/44 41/41/41
f 45/45/45 47/47/47 46/46/46
f 46/46/46 47/47/47 48/48/48
f 49/49/49 51/51/51 50/50/50
f 52/52/52 51/51/51 49/49/49
f 53/53/53 50/50/50 51/51/51
f 53/53/53 54/54/54 50/50/50
f 53/53/53 55/55/55 54/54/54
f 56/56/56 58/58/58 57/57/57
f 59/59/59 57/57/57 58/58/58
f 59/59/59 60/60/60 57/57/57
f 61/61/61 60/60/60 59/59/59
f 61/61/61 62/62/62 60/60/60
f 56/56/56 63/63/63 58/58/58
f 63/63/63 64/64/64 58/58/58
f 65/65/65 67/67/67 66/66/66
f 66/66/66 68/68/68 65/65/65
f 69/69/69 66/66/66 67/67/67
f 67/67/67 70/70/70 69/69/69
f 71/71/71 73/73/73 72/72/72
f 72/72/72 74/74/74 71/71/71
f 75/75/75 71/71/71 74/74/74
f 74/74/74 76/76/76 75/75/75
f 77/77/77 75/75/75 76/76/76
f 76/76/76 78/78/78 77/77/77
f 79/79/79 81/81/81 80/80/80
f 80/80/80 82/82/82 79/79/79
f 83/83/83 80/80/80 81/81/81
f 81/81/81 84/84/84 83/83/83
f 85/85/85 79/79/79 82/82/82
f 82/82/82 86/86/86 85/85/85
f 87/87/87 85/85/85 86/86/86
f 86/86/86 88/88/88 87/87/87
f 89/89/89 91/91/91 90/90/90
f 90/90/90 92/92/92 89/89/89
f 93/93/93 95/95/95 94/94/94
f 96/96/96 94/94/94 95/95/95
f 94/94/94 96/96/96 97/97/97
f 97/97/97 98/98/98 94/94/94
f 98/98/98 97/97/97 99/99/99
f 99/99/99 100/100/100 98/98/98
f 93/93/93 94/94/94 101/101/101
f 102/102/102 104/104/104 103/103/103
f 105/105/105 103/103/103 104/104/104
f 103/103/103 105/105/105 106/106/106
f 107/107/107 106/106/106 105/105/105
f 106/106/106 107/107/107 108/108/108
f 109/109/109 108/108/108 107/107/107
f 108/108/108 109/109/109 110/110/110
f 111/111/111 110/110/110 109/109/109
f 110/110/110 111/111/111 112/112/112
f 113/113/113 112/112/112 111/111/111
f 112/112/112 113/113/113 114/114/114
f 115/115/115 114/114/114 113/113/113
f 102/102/102 103/103/103 116/116/116
f 116/116/116 117/117/117 102/102/102
f 106/106/106 108/108/108 118/118/118
f 118/118/118 119/119/119 106/106/106
f 110/110/110 112/112/112 120/120/120
f 120/120/120 121/121/121 110/110/110
f 122/122/122 117/117/117 116/116/116
f 116/116/116 123/123/123 122/122/122
f 123/123/123 116/116/116 119/119/119
f 119/119/119 124/124/124 123/123/123
f 124/124/124 119/119/119 118/118/118
f 118/118/118 125/125/125 124/124/124
f 125/125/125 118/118/118 121/121/121
f 121/121/121 126/126/126 125/125/125
f 126/126/126 121/121/121 120/120/120
f 120/120/120 127/127/127 126/126/126
f 127/127/127 120/120/120 128/128/128
f 128/128/128 129/129/129 127/127/127
f 130/130/130 132/132/132 131/131/131
f 133/133/133 131/131/131 132/132/132
f 134/134/134 136/136/136 135/135/135
f 137/137/137 135/135/135 136/136/136
f 138/138/138 140/140/140 139/139/139
f 141/141/141 139/139/139 140/140/140
f 142/142/142 144/144/144 143/143/143
f 145/145/145 143/143/143 144/144/144
f 143/143/143 145/145/145 146/146/146
f 147/147/147 146/146/146 145/145/145
f 146/146/146 147/147/147 148/148/148
f 149/149/149 148/148/148 147/147/147
f 148/148/148 149/149/149 150/150/150
f 151/151/151 150/150/150 149/149/149
f 150/150/150 151/151/151 152/152/152
f 153/153/153 152/152/152 151/151/151
f 152/152/152 153/153/153 154/154/154
f 155/155/155 154/154/154 153/153/153
f 156/156/156 158/158/158 157/157/157
f 157/157/157 159/159/159 156/156/156
f 160/160/160 162/162/162 161/161/161
f 161/161/161 163/163/163 160/160/160
f 164/164/164 166/166/166 165/165/165
f 165/165/165 167/167/167 164/164/164
f 168/168/168 170/170/170 169/169/169
f 169/169/169 171/171/171 168/168/168
f 172/172/172 174/174/174 173/173/173
f 173/173/173 175/175/175 172/172/172
f 176/176/176 178/178/178 177/177/177
f 177/177/177 179/179/179 176/176/176
f 180/180/180 182/182/182 181/181/181
f 181/181/181 183/183/183 180/180/180
f 184/184/184 186/186/186 185/185/185
f 185/185/185 187/187/187 184/184/184
f 188/188/188 190/190/190 189/189/189
f 189/189/189 191/191/191 188/188/188
f 191/191/191 189/189/189 192/192/192
f 192/192/192 193/193/193 191/191/191
f 193/193/193 192/192/192 194/194/194
f 194/194/194 195/195/195 193/193/193
f 195/195/195 194/194/194 196/196/196
f 196/196/196 197/197/197 195/195/195
f 197/197/197 196/196/196 198/198/198
f 198/198/198 199/199/199 197/197/197
f 199/199/199 198/198/198 200/200/200
f 200/200/200 201/201/201 199/199/199
f 202/202/202 204/204/204 203/203/203
f 205/205/205 203/203/203 204/204/204
f 206/206/206 208/208/208 207/207/207
f 209/209/209 207/207/207 208/208/208
f 210/210/210 212/212/212 211/211/211
f 213/213/213 211/211/211 212/212/212
f 214/214/214 216/216/216 215/215/215
f 217/217/217 219/219/219 218/218/218
f 218/218/218 220/220/220 217/217/217
f 221/221/221 218/218/218 219/219/219
f 219/219/219 222/222/222 221/221/221
f 223/223/223 221/221/221 222/222/222
f 222/222/222 224/224/224 223/223/223
f 225/225/225 223/223/223 224/224/224
f 224/224/224 226/226/226 225/225/225
f 227/227/227 225/225/225 226/226/226
f 226/226/226 228/228/228 227/227/227
f 229/229/229 227/227/227 228/228/228
f 228/228/228 230/230/230 229/229/229
