#Capboard01.obj

v -0.5352615 0.7501497 -1.639487E-08
v 0.5352615 0.7501496 -2.850653E-08
v -0.5352615 -8.114815E-06 -1.639487E-08
v 0.5352615 -8.114815E-06 -1.639487E-08
v 0.001545077 0.043162 -0.4129503
v 0.001545029 0.3761534 -0.4129503
v -0.4736549 0.04316209 -0.4129503
v -0.5352615 0.04316212 -0.4129503
v 0.001545077 0.3976763 -0.4129503
v -0.5352615 0.7501497 -0.4129503
v 0.001545077 0.7501497 -0.4129503
v -0.5352615 0.04316212 -0.3978805
v -0.5352615 -8.114815E-06 -0.3978805
v -0.4736549 0.04316209 -0.3978805
v 0.001545077 0.043162 -0.3978805
v 0.003509637 0.043162 -0.3978805
v 0.5352615 -8.114815E-06 -1.639487E-08
v 0.5352615 -8.114815E-06 -0.3978805
v -0.5352615 -8.114815E-06 -1.639487E-08
v -0.5352615 -8.114815E-06 -0.3978805
v 0.5352615 0.7501496 -2.850653E-08
v 0.5352615 0.7501497 -0.3978805
v 0.5352615 -8.114815E-06 -1.639487E-08
v 0.5352615 0.04316188 -0.3978805
v 0.5352615 -8.114815E-06 -0.3978805
v 0.5352615 0.04316188 -0.4129503
v 0.5352615 0.7501497 -0.4129503
v 0.5352615 2.077617 -0.3978809
v 0.5352614 2.077617 -2.192065E-07
v -0.5352615 -8.114815E-06 -1.639487E-08
v -0.5352615 -8.114815E-06 -0.3978805
v -0.5352615 0.7501497 -1.639487E-08
v -0.5352615 0.04316212 -0.3978805
v -0.5352615 0.7501497 -0.3978805
v -0.5352615 0.7501497 -0.4129503
v -0.5352615 0.04316212 -0.4129503
v -0.5352616 2.077616 -2.344048E-07
v -0.5352616 2.077617 -0.3978807
v 0.5352615 -8.114815E-06 -0.3978805
v 0.5352615 0.04316188 -0.3978805
v -0.5352615 -8.114815E-06 -0.3978805
v 0.003509637 0.043162 -0.3978805
v 0.003509637 0.3989737 -0.4129503
v 0.003509637 0.3775301 -0.4129503
v 0.5352615 0.7501497 -0.4129503
v 0.003509637 0.7501497 -0.4129504
v 0.5352615 0.04316188 -0.4129503
v 0.003509637 0.3749276 -0.4129503
v 0.003509637 0.043162 -0.4129503
v 0.003509637 0.3749276 -0.3978805
v 0.003509637 0.3775301 -0.3978805
v 0.001545029 0.3761534 -0.3978805
v 0.001545077 0.3976763 -0.3978805
v 0.003509637 0.3989737 -0.3978805
v 0.001545077 0.7501497 -0.3978805
v 0.003509637 0.7501497 -0.3978805
v 0.003509637 0.043162 -0.3978805
v 0.001545077 0.043162 -0.3978805
v 0.001545081 0.7628069 -0.3978806
v 0.003509641 0.7628069 -0.3978806
v 0.5352615 0.7501497 -0.3978805
v 0.5352615 0.7628068 -0.3978806
v -0.5352615 0.7628069 -0.3978806
v -0.5352615 0.7501497 -0.3978805
v 0.001545029 1.095798 -0.3978806
v 0.003509637 1.094573 -0.3978806
v 0.003509637 1.097175 -0.3978806
v 0.001545077 1.117321 -0.3978806
v 0.003509637 1.118618 -0.3978806
v 0.001545077 2.077617 -0.3978807
v 0.003509637 2.077617 -0.3978807
v 0.001545077 0.043162 -0.3978805
v -0.4736549 0.04316209 -0.4129503
v -0.4736549 0.04316209 -0.3978805
v 0.001545077 0.043162 -0.4129503
v -0.5352615 0.04316212 -0.4129503
v -0.5352615 0.04316212 -0.3978805
v 0.001545029 0.3761534 -0.3978805
v 0.001545077 0.043162 -0.4129503
v 0.001545077 0.043162 -0.3978805
v 0.001545029 0.3761534 -0.4129503
v 0.001545077 0.3976763 -0.3978805
v 0.001545077 0.3976763 -0.4129503
v 0.001545077 0.7501497 -0.3978805
v 0.001545077 0.7501497 -0.4129503
v 0.003509637 0.7501497 -0.3978805
v 0.5352615 0.7501497 -0.4129503
v 0.5352615 0.7501497 -0.3978805
v 0.003509637 0.7501497 -0.4129504
v 0.003509637 0.3775301 -0.3978805
v 0.003509637 0.3989737 -0.4129503
v 0.003509637 0.3989737 -0.3978805
v 0.003509637 0.3775301 -0.4129503
v 0.003509637 0.7501497 -0.4129504
v 0.003509637 0.7501497 -0.3978805
v 0.003509637 0.3749276 -0.3978805
v 0.003509637 0.3749276 -0.4129503
v 0.003509637 0.043162 -0.3978805
v 0.003509637 0.043162 -0.4129503
v 0.5352615 0.04316188 -0.3978805
v 0.003509637 0.043162 -0.4129503
v 0.003509637 0.043162 -0.3978805
v 0.5352615 0.04316188 -0.4129503
v -0.5352615 0.7501497 -0.3978805
v 0.001545077 0.7501497 -0.4129503
v 0.001545077 0.7501497 -0.3978805
v -0.5352615 0.7501497 -0.4129503
v -0.5341852 2.077617 6.205235E-07
v 0.5352615 0.7501496 -2.850653E-08
v -0.5341853 0.7501496 7.960252E-07
v 0.5352614 2.077617 -2.192065E-07
v 0.001545076 0.7628069 -0.4129504
v 0.001545027 1.095798 -0.4129504
v -0.4736549 0.762807 -0.4129505
v -0.5352615 0.762807 -0.4129504
v 0.001545076 1.117321 -0.4129504
v -0.5352615 2.077617 -0.4129505
v 0.001545076 2.077617 -0.4129506
v 0.003509636 1.118618 -0.4129504
v 0.003509636 1.097175 -0.4129504
v 0.5352615 2.077617 -0.4129505
v 0.003509636 2.077617 -0.4129506
v 0.5352615 0.7628068 -0.4129504
v 0.003509636 1.094573 -0.4129504
v 0.003509636 0.7628069 -0.4129504
v 0.001545081 0.7628069 -0.3978806
v -0.4736549 0.762807 -0.4129505
v -0.4736549 0.762807 -0.3978806
v 0.001545076 0.7628069 -0.4129504
v -0.5352615 0.762807 -0.4129504
v -0.5352615 0.7628069 -0.3978806
v 0.001545029 1.095798 -0.3978806
v 0.001545076 0.7628069 -0.4129504
v 0.001545081 0.7628069 -0.3978806
v 0.001545027 1.095798 -0.4129504
v 0.001545077 1.117321 -0.3978806
v 0.001545076 1.117321 -0.4129504
v 0.001545077 2.077617 -0.3978807
v 0.001545076 2.077617 -0.4129506
v 0.003509637 2.077617 -0.3978807
v 0.5352615 2.077617 -0.4129505
v 0.5352615 2.077617 -0.3978809
v 0.003509636 2.077617 -0.4129506
v -0.5352615 0.7628069 -0.3978806
v -0.5352615 2.077617 -0.4129505
v -0.5352616 2.077617 -0.3978807
v -0.5352615 0.762807 -0.4129504
v 0.003509637 1.097175 -0.3978806
v 0.003509636 1.118618 -0.4129504
v 0.003509637 1.118618 -0.3978806
v 0.003509636 1.097175 -0.4129504
v 0.003509636 2.077617 -0.4129506
v 0.003509637 2.077617 -0.3978807
v 0.003509637 1.094573 -0.3978806
v 0.003509636 1.094573 -0.4129504
v 0.003509641 0.7628069 -0.3978806
v 0.003509636 0.7628069 -0.4129504
v 0.5352615 2.077617 -0.3978809
v 0.5352615 0.7628068 -0.4129504
v 0.5352615 0.7628068 -0.3978806
v 0.5352615 2.077617 -0.4129505
v 0.5352615 0.7628068 -0.3978806
v 0.003509636 0.7628069 -0.4129504
v 0.003509641 0.7628069 -0.3978806
v 0.5352615 0.7628068 -0.4129504
v -0.5352616 2.077617 -0.3978807
v 0.001545076 2.077617 -0.4129506
v 0.001545077 2.077617 -0.3978807
v -0.5352615 2.077617 -0.4129505
v 0.5352615 2.077617 -0.3978809
v -0.5341852 2.077617 6.205235E-07
v -0.5341852 2.077617 -0.3978802
v 0.5352614 2.077617 -2.192065E-07

vn 0 0 1
vn 3.907635E-07 0 1
vn 0 0 1
vn 0 0 1
vn 0 0 -1
vn 0 0 -1
vn 0 0 -1
vn 0 0 -1
vn 0 0 -1
vn 0 0 -1
vn 0 0 -1
vn 0 0 -1
vn 0 0 -1
vn 0 0 -1
vn 0 0 -1
vn 0 0 -1
vn 0 -1 0
vn 0 -1 0
vn 0 -1 0
vn 0 -1 0
vn 1 0 0
vn 1 0 0
vn 1 0 0
vn 1 0 0
vn 1 0 0
vn 1 0 0
vn 1 0 0
vn 1 0 1.656575E-06
vn 1 0 0
vn -1 0 0
vn -1 0 0
vn -1 0 0
vn -1 0 0
vn -1 0 0
vn -1 0 0
vn -1 0 0
vn -1 0 0
vn -1 0 -3.153933E-06
vn 0 0 -1
vn 0 0 -1
vn 0 0 -1
vn 0 0 -1
vn 0 0 -1
vn 0 0 -1
vn 0 0 -1
vn 0 0 -1
vn 0 0 -1
vn 0 0 -1
vn 0 0 -1
vn 0 0 -1
vn 0 0 -1
vn 0 0 -1
vn 0 0 -1
vn 0 0 -1
vn 0 -2.561301E-06 -1
vn 0 -2.551722E-06 -1
vn 0 0 -1
vn 0 0 -1
vn 0 -2.624467E-06 -1
vn 0 -2.643798E-06 -1
vn 0 -7.597204E-06 -1
vn 0 -7.655195E-06 -1
vn 0 -5.712627E-06 -1
vn 0 -5.741352E-06 -1
vn 0 0 -1
vn 0 0 -1
vn 0 0 -1
vn 0 0 -1
vn 0 0 -1
vn 0 0 -1
vn 0 0 -1
vn 0 -1 0
vn -2.98547E-07 -1 0
vn -2.985467E-07 -1 0
vn 0 -1 0
vn -3.931934E-07 -1 0
vn -3.931933E-07 -1 0
vn 1 -1.052725E-06 0
vn 1 0 0
vn 1 0 0
vn 1 -1.052725E-06 0
vn 1 -1.12547E-06 0
vn 1 -1.12547E-06 0
vn 1 0 0
vn 1 0 0
vn 0 1 0
vn 0 1 0
vn 0 1 0
vn 0 1 0
vn -1 0 0
vn -1 0 0
vn -1 0 0
vn -1 0 0
vn -1 0 0
vn -1 0 0
vn -1 0 0
vn -1 0 0
vn -1 0 0
vn -1 0 0
vn 0 -1 0
vn 0 -1 0
vn 0 -1 0
vn 0 -1 0
vn 0 1 0
vn 0 1 0
vn 0 1 0
vn 0 1 0
vn 7.790649E-07 0 1
vn 3.907635E-07 0 1
vn 7.70989E-07 0 1
vn 7.852004E-07 0 1
vn 0 0 -1
vn 0 0 -1
vn -6.135537E-07 1.02107E-06 -1
vn 0 4.017844E-07 -1
vn 0 0 -1
vn 0 0 -1
vn 0 0 -1
vn 0 0 -1
vn 0 0 -1
vn 0 0 -1
vn 0 0 -1
vn 0 0 -1
vn 0 0 -1
vn 0 0 -1
vn 0 -1 -3.149922E-06
vn -3.484931E-07 -1 0
vn 0 -1 -6.13734E-07
vn 0 -1 -3.214804E-06
vn 1.272514E-06 -1 -6.809551E-06
vn 1.572771E-06 -1 -8.037024E-06
vn 1 -1.052569E-06 0
vn 1 0 -3.321914E-07
vn 1 0 -3.390608E-07
vn 1 -1.052725E-06 0
vn 1 -1.12547E-06 0
vn 1 -1.125472E-06 0
vn 1 0 0
vn 1 0 0
vn 0 1 0
vn 0 1 0
vn 0 1 0
vn 0 1 0
vn -1 0 0
vn -1 0 -6.382713E-06
vn -1 0 -3.153933E-06
vn -1 0 0
vn -1 0 0
vn -1 0 0
vn -1 0 0
vn -1 0 0
vn -1 0 0
vn -1 0 0
vn -1 0 0
vn -1 0 0
vn -1 0 3.443614E-07
vn -1 0 3.516191E-07
vn 1 0 1.656575E-06
vn 1 0 0
vn 1 0 0
vn 1 0 3.214845E-06
vn 0 -1 1.520431E-06
vn 0 -1 -3.127827E-06
vn 0 -1 -3.214804E-06
vn 0 -1 1.607407E-06
vn 0 1 0
vn 0 1 0
vn 0 1 0
vn 0 1 0
vn 0 1 0
vn 0 1 0
vn 0 1 0
vn 0 1 0

vt 0.0006888807 0.7692674
vt 0.999311 0.7692676
vt 0.0006887615 1.469041
vt 0.999311 1.469042
vt 0.4985588 1.428771
vt 0.4985588 1.118145
vt 0.9418424 1.428771
vt 0.9993112 1.428771
vt 0.4985588 1.098067
vt 0.9993111 0.7692674
vt 0.4985587 0.7692675
vt 0.9993112 1.428771
vt 0.9993112 1.469041
vt 0.9418423 1.428771
vt 0.4985588 1.428771
vt 0.4967262 1.428771
vt 0.0006890297 0.6926072
vt 0.0006890297 0.32145
vt 0.9993112 0.6926071
vt 0.9993112 0.3214499
vt 0.3073928 0.7692676
vt 0.6785499 0.7692676
vt 0.3073928 1.469042
vt 0.67855 1.428771
vt 0.67855 1.469042
vt 0.6926076 1.428771
vt 0.6926076 0.7692676
vt 0.6785502 -0.4690413
vt 0.3073929 -0.4690413
vt 0.6926071 1.469041
vt 0.3214499 1.469041
vt 0.6926071 0.7692674
vt 0.3214499 1.428771
vt 0.3214499 0.7692674
vt 0.3073923 0.7692674
vt 0.3073922 1.428771
vt 0.692607 -0.4690413
vt 0.3214498 -0.4690416
vt 0.0006890297 1.469042
vt 0.0006890297 1.428771
vt 0.9993112 1.469041
vt 0.4967262 1.428771
vt 0.4967262 1.096857
vt 0.4967262 1.11686
vt 0.0006889105 0.7692676
vt 0.4967261 0.7692675
vt 0.0006890297 1.428771
vt 0.4967262 1.119288
vt 0.4967262 1.428771
vt 0.4967262 1.119288
vt 0.4967262 1.11686
vt 0.4985588 1.118145
vt 0.4985588 1.098067
vt 0.4967262 1.096857
vt 0.4985587 0.7692675
vt 0.4967261 0.7692675
vt 0.4967262 1.428771
vt 0.4985588 1.428771
vt 0.4985587 0.7574604
vt 0.4967261 0.7574604
vt 0.0006889105 0.7692676
vt 0.0006889105 0.7574605
vt 0.9993111 0.7574602
vt 0.9993111 0.7692674
vt 0.4985587 0.446834
vt 0.496726 0.4479775
vt 0.496726 0.4455498
vt 0.4985586 0.4267567
vt 0.496726 0.4255465
vt 0.4985585 -0.4690413
vt 0.4967259 -0.4690413
vt 0.4985588 0.32145
vt 0.9418424 0.3073922
vt 0.9418423 0.3214499
vt 0.4985588 0.3073923
vt 0.9993112 0.3073922
vt 0.9993112 0.3214499
vt 0.67855 1.118145
vt 0.6926077 1.428771
vt 0.67855 1.428771
vt 0.6926077 1.118145
vt 0.67855 1.098067
vt 0.6926077 1.098067
vt 0.67855 0.7692675
vt 0.6926076 0.7692675
vt 0.5032739 0.32145
vt 0.9993111 0.3073924
vt 0.9993111 0.3214501
vt 0.5032739 0.3073923
vt 0.32145 1.11686
vt 0.3073923 1.096857
vt 0.32145 1.096857
vt 0.3073923 1.11686
vt 0.3073923 0.7692675
vt 0.32145 0.7692675
vt 0.32145 1.119288
vt 0.3073923 1.119288
vt 0.32145 1.428771
vt 0.3073923 1.428771
vt 0.0006890297 0.32145
vt 0.4967262 0.3073923
vt 0.4967262 0.32145
vt 0.0006890297 0.3073924
vt 0.0006889105 0.3214499
vt 0.5014413 0.3073924
vt 0.5014413 0.32145
vt 0.0006889105 0.3073923
vt 0.00169304 -0.4690416
vt 0.999311 0.7692676
vt 0.001692742 0.7692674
vt 0.9993111 -0.4690413
vt 0.4985587 0.7574603
vt 0.4985587 0.446834
vt 0.9418423 0.7574601
vt 0.9993111 0.7574601
vt 0.4985586 0.4267567
vt 0.9993109 -0.4690416
vt 0.4985585 -0.4690413
vt 0.496726 0.4255465
vt 0.496726 0.4455498
vt 0.0006887317 -0.4690413
vt 0.4967259 -0.4690413
vt 0.0006889105 0.7574605
vt 0.496726 0.4479775
vt 0.4967261 0.7574603
vt 0.4985587 0.3214499
vt 0.9418423 0.3073921
vt 0.9418422 0.3214499
vt 0.4985587 0.3073922
vt 0.9993111 0.3073922
vt 0.9993111 0.3214499
vt 0.6785501 0.446834
vt 0.6926078 0.7574603
vt 0.6785501 0.7574604
vt 0.6926078 0.446834
vt 0.6785501 0.4267567
vt 0.6926078 0.4267567
vt 0.6785501 -0.4690413
vt 0.6926079 -0.4690413
vt 0.5032741 0.3214499
vt 0.9993113 0.3073922
vt 0.9993112 0.3214498
vt 0.5032741 0.3073921
vt 0.3214499 0.7574602
vt 0.3073922 -0.4690416
vt 0.3214498 -0.4690416
vt 0.3073922 0.7574601
vt 0.3214499 0.4455498
vt 0.3073922 0.4255465
vt 0.3214499 0.4255465
vt 0.3073922 0.4455498
vt 0.3073921 -0.4690413
vt 0.3214499 -0.4690413
vt 0.3214499 0.4479775
vt 0.3073922 0.4479775
vt 0.3214499 0.7574604
vt 0.3073922 0.7574603
vt 0.6785502 -0.4690413
vt 0.6926077 0.7574605
vt 0.6785501 0.7574605
vt 0.6926078 -0.4690413
vt 0.0006889105 0.3214499
vt 0.4967261 0.3073922
vt 0.4967261 0.3214499
vt 0.0006889105 0.3073923
vt 0.0006889999 0.3214498
vt 0.5014415 0.3073921
vt 0.5014415 0.3214499
vt 0.0006890893 0.3073922
vt 0.9993112 0.3214498
vt 0.00169304 0.6926078
vt 0.00169307 0.3214503
vt 0.9993111 0.692607

g Capboard01.obj
usemtl Capboard01
usemap Capboard01
f 1/1/1 3/3/3 2/2/2
f 4/4/4 2/2/2 3/3/3
f 5/5/5 7/7/7 6/6/6
f 8/8/8 6/6/6 7/7/7
f 8/8/8 9/9/9 6/6/6
f 10/10/10 9/9/9 8/8/8
f 10/10/10 11/11/11 9/9/9
f 12/12/12 14/14/14 13/13/13
f 15/15/15 13/13/13 14/14/14
f 16/16/16 13/13/13 15/15/15
f 17/17/17 19/19/19 18/18/18
f 20/20/20 18/18/18 19/19/19
f 21/21/21 23/23/23 22/22/22
f 24/24/24 22/22/22 23/23/23
f 25/25/25 24/24/24 23/23/23
f 22/22/22 24/24/24 26/26/26
f 26/26/26 27/27/27 22/22/22
f 21/21/21 22/22/22 28/28/28
f 28/28/28 29/29/29 21/21/21
f 30/30/30 32/32/32 31/31/31
f 33/33/33 31/31/31 32/32/32
f 34/34/34 33/33/33 32/32/32
f 33/33/33 34/34/34 35/35/35
f 35/35/35 36/36/36 33/33/33
f 34/34/34 32/32/32 37/37/37
f 37/37/37 38/38/38 34/34/34
f 39/39/39 41/41/41 40/40/40
f 40/40/40 41/41/41 42/42/42
f 43/43/43 45/45/45 44/44/44
f 46/46/46 45/45/45 43/43/43
f 47/47/47 44/44/44 45/45/45
f 47/47/47 48/48/48 44/44/44
f 47/47/47 49/49/49 48/48/48
f 50/50/50 52/52/52 51/51/51
f 53/53/53 51/51/51 52/52/52
f 53/53/53 54/54/54 51/51/51
f 55/55/55 54/54/54 53/53/53
f 55/55/55 56/56/56 54/54/54
f 50/50/50 57/57/57 52/52/52
f 57/57/57 58/58/58 52/52/52
f 56/56/56 55/55/55 59/59/59
f 59/59/59 60/60/60 56/56/56
f 61/61/61 56/56/56 60/60/60
f 60/60/60 62/62/62 61/61/61
f 63/63/63 59/59/59 55/55/55
f 55/55/55 64/64/64 63/63/63
f 60/60/60 59/59/59 65/65/65
f 66/66/66 60/60/60 65/65/65
f 66/66/66 65/65/65 67/67/67
f 68/68/68 67/67/67 65/65/65
f 68/68/68 69/69/69 67/67/67
f 70/70/70 69/69/69 68/68/68
f 70/70/70 71/71/71 69/69/69
f 72/72/72 74/74/74 73/73/73
f 73/73/73 75/75/75 72/72/72
f 76/76/76 73/73/73 74/74/74
f 74/74/74 77/77/77 76/76/76
f 78/78/78 80/80/80 79/79/79
f 79/79/79 81/81/81 78/78/78
f 82/82/82 78/78/78 81/81/81
f 81/81/81 83/83/83 82/82/82
f 84/84/84 82/82/82 83/83/83
f 83/83/83 85/85/85 84/84/84
f 86/86/86 88/88/88 87/87/87
f 87/87/87 89/89/89 86/86/86
f 90/90/90 92/92/92 91/91/91
f 91/91/91 93/93/93 90/90/90
f 94/94/94 91/91/91 92/92/92
f 92/92/92 95/95/95 94/94/94
f 96/96/96 90/90/90 93/93/93
f 93/93/93 97/97/97 96/96/96
f 98/98/98 96/96/96 97/97/97
f 97/97/97 99/99/99 98/98/98
f 100/100/100 102/102/102 101/101/101
f 101/101/101 103/103/103 100/100/100
f 104/104/104 106/106/106 105/105/105
f 105/105/105 107/107/107 104/104/104
f 108/108/108 110/110/110 109/109/109
f 109/109/109 111/111/111 108/108/108
f 112/112/112 114/114/114 113/113/113
f 115/115/115 113/113/113 114/114/114
f 115/115/115 116/116/116 113/113/113
f 117/117/117 116/116/116 115/115/115
f 117/117/117 118/118/118 116/116/116
f 119/119/119 121/121/121 120/120/120
f 122/122/122 121/121/121 119/119/119
f 123/123/123 120/120/120 121/121/121
f 123/123/123 124/124/124 120/120/120
f 123/123/123 125/125/125 124/124/124
f 126/126/126 128/128/128 127/127/127
f 127/127/127 129/129/129 126/126/126
f 130/130/130 127/127/127 128/128/128
f 128/128/128 131/131/131 130/130/130
f 132/132/132 134/134/134 133/133/133
f 133/133/133 135/135/135 132/132/132
f 136/136/136 132/132/132 135/135/135
f 135/135/135 137/137/137 136/136/136
f 138/138/138 136/136/136 137/137/137
f 137/137/137 139/139/139 138/138/138
f 140/140/140 142/142/142 141/141/141
f 141/141/141 143/143/143 140/140/140
f 144/144/144 146/146/146 145/145/145
f 145/145/145 147/147/147 144/144/144
f 148/148/148 150/150/150 149/149/149
f 149/149/149 151/151/151 148/148/148
f 152/152/152 149/149/149 150/150/150
f 150/150/150 153/153/153 152/152/152
f 154/154/154 148/148/148 151/151/151
f 151/151/151 155/155/155 154/154/154
f 156/156/156 154/154/154 155/155/155
f 155/155/155 157/157/157 156/156/156
f 158/158/158 160/160/160 159/159/159
f 159/159/159 161/161/161 158/158/158
f 162/162/162 164/164/164 163/163/163
f 163/163/163 165/165/165 162/162/162
f 166/166/166 168/168/168 167/167/167
f 167/167/167 169/169/169 166/166/166
f 170/170/170 172/172/172 171/171/171
f 171/171/171 173/173/173 170/170/170
