#Capboard01.obj

v -0.5352615 0.7501497 -1.639487E-08
v 0.5352615 0.7501497 -1.639487E-08
v -0.5352615 -8.114815E-06 -1.639487E-08
v 0.5352615 -8.114815E-06 -1.639487E-08
v 0.001545077 0.043162 -0.4129503
v 0.001545029 0.3761534 -0.4129503
v -0.4736549 0.04316209 -0.4129503
v -0.5352615 0.04316212 -0.4129503
v 0.001545077 0.3976763 -0.4129503
v -0.5352615 0.7501497 -0.4129503
v 0.001545077 0.7501497 -0.4129503
v -0.5352615 0.04316212 -0.3978805
v -0.5352615 -8.114815E-06 -0.3978805
v -0.4736549 0.04316209 -0.3978805
v 0.001545077 0.043162 -0.3978805
v 0.003509637 0.043162 -0.3978805
v 0.5352615 -8.114815E-06 -1.639487E-08
v 0.5352615 -8.114815E-06 -0.3978805
v -0.5352615 -8.114815E-06 -1.639487E-08
v -0.5352615 -8.114815E-06 -0.3978805
v 0.5352615 0.7501497 -1.639487E-08
v 0.5352615 0.7501497 -0.3978805
v 0.5352615 -8.114815E-06 -1.639487E-08
v 0.5352615 0.04316188 -0.3978805
v 0.5352615 -8.114815E-06 -0.3978805
v -0.5352615 0.7501497 -1.639487E-08
v -0.5352615 0.7501497 -0.3978805
v 0.5352615 0.7501497 -1.639487E-08
v 0.001545077 0.7501497 -0.3978805
v 0.003509637 0.7501497 -0.3978805
v 0.5352615 0.7501497 -0.3978805
v -0.5352615 -8.114815E-06 -1.639487E-08
v -0.5352615 -8.114815E-06 -0.3978805
v -0.5352615 0.7501497 -1.639487E-08
v -0.5352615 0.04316212 -0.3978805
v -0.5352615 0.7501497 -0.3978805
v 0.5352615 -8.114815E-06 -0.3978805
v 0.5352615 0.04316188 -0.3978805
v -0.5352615 -8.114815E-06 -0.3978805
v 0.003509637 0.043162 -0.3978805
v 0.003509637 0.3989737 -0.4129503
v 0.003509637 0.3775301 -0.4129503
v 0.5352615 0.7501497 -0.4129503
v 0.003509637 0.7501497 -0.4129504
v 0.5352615 0.04316188 -0.4129503
v 0.003509637 0.3749276 -0.4129503
v 0.003509637 0.043162 -0.4129503
v 0.003509637 0.3749276 -0.3978805
v 0.003509637 0.3775301 -0.3978805
v 0.001545029 0.3761534 -0.3978805
v 0.001545077 0.3976763 -0.3978805
v 0.003509637 0.3989737 -0.3978805
v 0.001545077 0.7501497 -0.3978805
v 0.003509637 0.7501497 -0.3978805
v 0.003509637 0.043162 -0.3978805
v 0.001545077 0.043162 -0.3978805
v 0.001545077 0.043162 -0.3978805
v -0.4736549 0.04316209 -0.4129503
v -0.4736549 0.04316209 -0.3978805
v 0.001545077 0.043162 -0.4129503
v -0.5352615 0.04316212 -0.4129503
v -0.5352615 0.04316212 -0.3978805
v 0.001545029 0.3761534 -0.3978805
v 0.001545077 0.043162 -0.4129503
v 0.001545077 0.043162 -0.3978805
v 0.001545029 0.3761534 -0.4129503
v 0.001545077 0.3976763 -0.3978805
v 0.001545077 0.3976763 -0.4129503
v 0.001545077 0.7501497 -0.3978805
v 0.001545077 0.7501497 -0.4129503
v 0.003509637 0.7501497 -0.3978805
v 0.5352615 0.7501497 -0.4129503
v 0.5352615 0.7501497 -0.3978805
v 0.003509637 0.7501497 -0.4129504
v -0.5352615 0.04316212 -0.3978805
v -0.5352615 0.7501497 -0.4129503
v -0.5352615 0.7501497 -0.3978805
v -0.5352615 0.04316212 -0.4129503
v 0.003509637 0.3775301 -0.3978805
v 0.003509637 0.3989737 -0.4129503
v 0.003509637 0.3989737 -0.3978805
v 0.003509637 0.3775301 -0.4129503
v 0.003509637 0.7501497 -0.4129504
v 0.003509637 0.7501497 -0.3978805
v 0.003509637 0.3749276 -0.3978805
v 0.003509637 0.3749276 -0.4129503
v 0.003509637 0.043162 -0.3978805
v 0.003509637 0.043162 -0.4129503
v 0.5352615 0.7501497 -0.3978805
v 0.5352615 0.04316188 -0.4129503
v 0.5352615 0.04316188 -0.3978805
v 0.5352615 0.7501497 -0.4129503
v 0.5352615 0.04316188 -0.3978805
v 0.003509637 0.043162 -0.4129503
v 0.003509637 0.043162 -0.3978805
v 0.5352615 0.04316188 -0.4129503
v -0.5352615 0.7501497 -0.3978805
v 0.001545077 0.7501497 -0.4129503
v 0.001545077 0.7501497 -0.3978805
v -0.5352615 0.7501497 -0.4129503

vn 0 0 1
vn 0 0 1
vn 0 0 1
vn 0 0 1
vn 0 0 -1
vn 0 0 -1
vn 0 0 -1
vn 0 0 -1
vn 0 0 -1
vn 0 0 -1
vn 0 0 -1
vn 0 0 -1
vn 0 0 -1
vn 0 0 -1
vn 0 0 -1
vn 0 0 -1
vn 0 -1 0
vn 0 -1 0
vn 0 -1 0
vn 0 -1 0
vn 1 0 0
vn 1 0 0
vn 1 0 0
vn 1 0 0
vn 1 0 0
vn 0 1 0
vn 0 1 0
vn 0 1 0
vn 0 1 0
vn 0 1 0
vn 0 1 0
vn -1 0 0
vn -1 0 0
vn -1 0 0
vn -1 0 0
vn -1 0 0
vn 0 0 -1
vn 0 0 -1
vn 0 0 -1
vn 0 0 -1
vn 0 0 -1
vn 0 0 -1
vn 0 0 -1
vn 0 0 -1
vn 0 0 -1
vn 0 0 -1
vn 0 0 -1
vn 0 0 -1
vn 0 0 -1
vn 0 0 -1
vn 0 0 -1
vn 0 0 -1
vn 0 0 -1
vn 0 0 -1
vn 0 0 -1
vn 0 0 -1
vn 0 -1 0
vn 0 -1 0
vn 0 -1 0
vn 0 -1 0
vn -3.931933E-07 -1 0
vn -3.931933E-07 -1 0
vn 1 0 0
vn 1 0 0
vn 1 0 0
vn 1 0 0
vn 1 -2.250939E-06 0
vn 1 -2.250939E-06 0
vn 1 0 0
vn 1 0 0
vn 0 1 0
vn 0 1 0
vn 0 1 0
vn 0 1 0
vn -1 0 0
vn -1 0 0
vn -1 0 0
vn -1 0 0
vn -1 0 0
vn -1 0 0
vn -1 0 0
vn -1 0 0
vn -1 0 0
vn -1 0 0
vn -1 0 0
vn -1 0 0
vn -1 0 0
vn -1 0 0
vn 1 0 0
vn 1 0 0
vn 1 0 0
vn 1 0 0
vn 0 -1 0
vn 0 -1 0
vn 0 -1 0
vn 0 -1 0
vn 0 1 0
vn 0 1 0
vn 0 1 0
vn 0 1 0

vt 0 0
vt 1 0
vt 0 1
vt 1 1
vt 0.1987021 0.9975762
vt 0.1987021 0.5313886
vt 0.9020107 0.9975762
vt 0.9931902 0.9975761
vt 0.1987021 0.5012566
vt 0.9931902 0.007793963
vt 0.1987021 0.007793963
vt 1.744743 -0.8480147
vt 1.848015 -0.8480147
vt 1.744743 -0.7385873
vt 1.744743 0.1054763
vt 1.744743 0.1089658
vt 1 1
vt 1 0
vt 0 1
vt 0 0
vt 1 1
vt 1 0
vt 0 1
vt 0.05754788 0
vt 0 0
vt 1.320871 0.9465216
vt 1.320871 0
vt 0 0.9465216
vt 0.6585289 0
vt 0.6561049 0
vt 0 0
vt 1 1
vt 1 0
vt 0 1
vt 0.9424518 0
vt 0 0
vt 1.848015 1.053479
vt 1.744743 1.053479
vt 1.848015 -0.8480147
vt 1.744743 0.1089658
vt 0.9857092 0.4994406
vt 0.9857092 0.5294616
vt 0.1987021 0.007794321
vt 0.9857092 0.007794321
vt 0.1987021 0.9975768
vt 0.9857092 0.5331049
vt 0.9857092 0.9975766
vt 0.9510888 0.1089658
vt 0.9448633 0.1089658
vt 0.9481566 0.1054761
vt 0.8966694 0.1054763
vt 0.8935657 0.1089658
vt 0.05347818 0.1054762
vt 0.05347818 0.1089657
vt 1.744743 0.1089658
vt 1.744743 0.1054763
vt 1.744743 0.1054763
vt 1.744743 -0.7385873
vt 1.744743 -0.7385873
vt 1.744743 0.1054763
vt 1.744743 -0.8480147
vt 1.744743 -0.8480147
vt 0.9481566 0.1054761
vt 1.744743 0.1054763
vt 1.744743 0.1054763
vt 0.9481566 0.1054761
vt 0.8966694 0.1054763
vt 0.8966694 0.1054763
vt 0.05347818 0.1054762
vt 0.05347818 0.1054762
vt 0.9882643 -0.02519512
vt -0.7897997 0.02519512
vt -0.7897997 -0.02519512
vt 0.9882643 0.02519524
vt 0.9748049 -1.182006
vt 1.025195 1.182008
vt 0.9748049 1.182008
vt 1.025195 -1.182006
vt 0.9448633 0.1089658
vt 0.8935657 0.1089658
vt 0.8935657 0.1089658
vt 0.9448633 0.1089658
vt 0.05347818 0.1089657
vt 0.05347818 0.1089657
vt 0.9510888 0.1089658
vt 0.9510888 0.1089658
vt 1.744743 0.1089658
vt 1.744743 0.1089658
vt 1.025195 1.182007
vt 0.9748049 -1.182008
vt 1.025195 -1.182008
vt 0.9748049 1.182007
vt 1.744743 1.053479
vt 1.744743 0.1089658
vt 1.744743 0.1089658
vt 1.744743 1.053479
vt 2.789799 -0.02519512
vt 0.9948334 0.02519512
vt 0.9948334 -0.02519512
vt 2.789799 0.02519488

g Capboard01.obj
usemtl Capboard01
usemap Capboard01
f 1/1/1 3/3/3 2/2/2
f 4/4/4 2/2/2 3/3/3
f 5/5/5 7/7/7 6/6/6
f 8/8/8 6/6/6 7/7/7
f 8/8/8 9/9/9 6/6/6
f 10/10/10 9/9/9 8/8/8
f 10/10/10 11/11/11 9/9/9
f 12/12/12 14/14/14 13/13/13
f 15/15/15 13/13/13 14/14/14
f 16/16/16 13/13/13 15/15/15
f 17/17/17 19/19/19 18/18/18
f 20/20/20 18/18/18 19/19/19
f 21/21/21 23/23/23 22/22/22
f 24/24/24 22/22/22 23/23/23
f 25/25/25 24/24/24 23/23/23
f 26/26/26 28/28/28 27/27/27
f 29/29/29 27/27/27 28/28/28
f 30/30/30 29/29/29 28/28/28
f 31/31/31 30/30/30 28/28/28
f 32/32/32 34/34/34 33/33/33
f 35/35/35 33/33/33 34/34/34
f 36/36/36 35/35/35 34/34/34
f 37/37/37 39/39/39 38/38/38
f 38/38/38 39/39/39 40/40/40
f 41/41/41 43/43/43 42/42/42
f 44/44/44 43/43/43 41/41/41
f 45/45/45 42/42/42 43/43/43
f 45/45/45 46/46/46 42/42/42
f 45/45/45 47/47/47 46/46/46
f 48/48/48 50/50/50 49/49/49
f 51/51/51 49/49/49 50/50/50
f 51/51/51 52/52/52 49/49/49
f 53/53/53 52/52/52 51/51/51
f 53/53/53 54/54/54 52/52/52
f 48/48/48 55/55/55 50/50/50
f 55/55/55 56/56/56 50/50/50
f 57/57/57 59/59/59 58/58/58
f 58/58/58 60/60/60 57/57/57
f 61/61/61 58/58/58 59/59/59
f 59/59/59 62/62/62 61/61/61
f 63/63/63 65/65/65 64/64/64
f 64/64/64 66/66/66 63/63/63
f 67/67/67 63/63/63 66/66/66
f 66/66/66 68/68/68 67/67/67
f 69/69/69 67/67/67 68/68/68
f 68/68/68 70/70/70 69/69/69
f 71/71/71 73/73/73 72/72/72
f 72/72/72 74/74/74 71/71/71
f 75/75/75 77/77/77 76/76/76
f 76/76/76 78/78/78 75/75/75
f 79/79/79 81/81/81 80/80/80
f 80/80/80 82/82/82 79/79/79
f 83/83/83 80/80/80 81/81/81
f 81/81/81 84/84/84 83/83/83
f 85/85/85 79/79/79 82/82/82
f 82/82/82 86/86/86 85/85/85
f 87/87/87 85/85/85 86/86/86
f 86/86/86 88/88/88 87/87/87
f 89/89/89 91/91/91 90/90/90
f 90/90/90 92/92/92 89/89/89
f 93/93/93 95/95/95 94/94/94
f 94/94/94 96/96/96 93/93/93
f 97/97/97 99/99/99 98/98/98
f 98/98/98 100/100/100 97/97/97
