#Capboard04.obj

v -0.5352615 0.7501497 -1.639487E-08
v 0.5352615 0.7501497 -1.639487E-08
v -0.5352615 -8.114815E-06 -1.639487E-08
v 0.5352615 -8.114815E-06 -1.639487E-08
v 0.001545077 0.043162 -0.4129503
v 0.001545029 0.3761534 -0.4129503
v -0.4736549 0.04316209 -0.4129503
v -0.5352615 0.04316212 -0.4129503
v 0.001545077 0.3976763 -0.4129503
v -0.5352615 0.7501497 -0.4129503
v 0.001545077 0.7501497 -0.4129503
v -0.5352615 0.04316212 -0.3978805
v -0.5352615 -8.114815E-06 -0.3978805
v -0.4736549 0.04316209 -0.3978805
v 0.001545077 0.043162 -0.3978805
v 0.003509637 0.043162 -0.3978805
v 0.5352615 -8.114815E-06 -1.639487E-08
v 0.5352615 -8.114815E-06 -0.3978805
v -0.5352615 -8.114815E-06 -1.639487E-08
v -0.5352615 -8.114815E-06 -0.3978805
v 0.5352615 0.7501497 -1.639487E-08
v 0.5352615 0.7501497 -0.3978805
v 0.5352615 -8.114815E-06 -1.639487E-08
v 0.5352615 0.04316188 -0.3978805
v 0.5352615 -8.114815E-06 -0.3978805
v 0.5352615 0.04316188 -0.4129503
v 0.5352615 0.7501497 -0.4129503
v -0.5352615 0.7501497 -1.639487E-08
v -0.5352615 0.7501497 -0.3978805
v 0.5352615 0.7501497 -1.639487E-08
v 0.001545077 0.7501497 -0.3978805
v 0.003509637 0.7501497 -0.3978805
v 0.5352615 0.7501497 -0.3978805
v 0.5352615 0.7501497 -0.4129503
v 0.003509637 0.7501497 -0.4129504
v 0.001545077 0.7501497 -0.4129503
v -0.5352615 0.7501497 -0.4129503
v -0.5352615 -8.114815E-06 -1.639487E-08
v -0.5352615 -8.114815E-06 -0.3978805
v -0.5352615 0.7501497 -1.639487E-08
v -0.5352615 0.04316212 -0.3978805
v -0.5352615 0.7501497 -0.3978805
v -0.5352615 0.7501497 -0.4129503
v -0.5352615 0.04316212 -0.4129503
v 0.5352615 -8.114815E-06 -0.3978805
v 0.5352615 0.04316188 -0.3978805
v -0.5352615 -8.114815E-06 -0.3978805
v 0.003509637 0.043162 -0.3978805
v 0.003509637 0.3989737 -0.4129503
v 0.003509637 0.3775301 -0.4129503
v 0.5352615 0.7501497 -0.4129503
v 0.003509637 0.7501497 -0.4129504
v 0.5352615 0.04316188 -0.4129503
v 0.003509637 0.3749276 -0.4129503
v 0.003509637 0.043162 -0.4129503
v 0.003509637 0.3749276 -0.3978805
v 0.003509637 0.3775301 -0.3978805
v 0.001545029 0.3761534 -0.3978805
v 0.001545077 0.3976763 -0.3978805
v 0.003509637 0.3989737 -0.3978805
v 0.001545077 0.7501497 -0.3978805
v 0.003509637 0.7501497 -0.3978805
v 0.003509637 0.043162 -0.3978805
v 0.001545077 0.043162 -0.3978805
v 0.001545077 0.043162 -0.3978805
v -0.4736549 0.04316209 -0.4129503
v -0.4736549 0.04316209 -0.3978805
v 0.001545077 0.043162 -0.4129503
v -0.5352615 0.04316212 -0.4129503
v -0.5352615 0.04316212 -0.3978805
v 0.001545029 0.3761534 -0.3978805
v 0.001545077 0.043162 -0.4129503
v 0.001545077 0.043162 -0.3978805
v 0.001545029 0.3761534 -0.4129503
v 0.001545077 0.3976763 -0.3978805
v 0.001545077 0.3976763 -0.4129503
v 0.001545077 0.7501497 -0.3978805
v 0.001545077 0.7501497 -0.4129503
v 0.003509637 0.3775301 -0.3978805
v 0.003509637 0.3989737 -0.4129503
v 0.003509637 0.3989737 -0.3978805
v 0.003509637 0.3775301 -0.4129503
v 0.003509637 0.7501497 -0.4129504
v 0.003509637 0.7501497 -0.3978805
v 0.003509637 0.3749276 -0.3978805
v 0.003509637 0.3749276 -0.4129503
v 0.003509637 0.043162 -0.3978805
v 0.003509637 0.043162 -0.4129503
v 0.5352615 0.04316188 -0.3978805
v 0.003509637 0.043162 -0.4129503
v 0.003509637 0.043162 -0.3978805
v 0.5352615 0.04316188 -0.4129503
v 0.5352615 2.077617 -2.344048E-07
v 0.5201917 2.077617 -2.344048E-07
v 0.5352616 2.077617 -0.3978808
v 0.5201918 2.077617 -0.3978807
v -0.5201917 2.077617 -0.3978805
v -0.5201919 2.077617 -1.639487E-08
v -0.5352615 2.077617 -0.3978804
v -0.5352616 2.077617 8.049845E-08
v -0.5492551 2.077617 6.022386E-07
v 0.5201918 2.077617 -0.3978807
v 0.5201918 2.062617 -0.3978807
v 0.5352616 2.077617 -0.3978808
v 0.5352616 2.062617 -0.3978807
v 0.5201919 1.603289 -0.3978806
v 0.5352617 1.603289 -0.3978806
v 0.5201918 1.588289 -0.3978807
v 0.5352616 1.588289 -0.3978806
v 0.5201918 1.164077 -0.3978806
v 0.5352616 1.164077 -0.3978806
v 0.5201917 1.149077 -0.3978806
v 0.5352616 1.149077 -0.3978806
v 0.5201917 0.7501497 -0.3978805
v 0.5352615 0.7501497 -0.3978805
v -0.5201917 2.062617 -0.3978805
v -0.5201917 2.077617 -0.3978805
v -0.5201916 1.588289 -0.3978804
v -0.5201916 1.603289 -0.3978804
v -0.5201917 1.149077 -0.3978803
v -0.5201916 1.164077 -0.3978803
v -0.5352615 2.077617 -0.3978804
v -0.5352614 2.062617 -0.3978804
v -0.5352612 1.603289 -0.3978803
v -0.5352613 1.588289 -0.3978803
v -0.5352613 1.164077 -0.3978803
v -0.5352613 1.149077 -0.3978803
v -0.5201916 0.7501496 -0.3978802
v -0.5352614 0.7501496 -0.3978802
v 0.5201917 2.062617 -0.004840237
v 0.5201917 1.603288 -0.004840164
v 0.5201918 2.062617 -0.3978807
v 0.5201919 1.603289 -0.3978806
v 0.5201917 1.588288 -0.004840152
v 0.5201917 1.164077 -0.004840103
v 0.5201918 1.588289 -0.3978807
v 0.5201918 1.164077 -0.3978806
v 0.5201917 1.149077 -0.004840079
v 0.5201916 0.7501496 -0.004840031
v 0.5201917 1.149077 -0.3978806
v 0.5201917 0.7501497 -0.3978805
v 0.5352616 2.077617 -0.3978808
v 0.5352616 2.062617 -0.3978807
v 0.5352615 2.077617 -2.344048E-07
v 0.5352616 2.062617 -2.465165E-07
v 0.5352617 1.603289 -0.3978806
v 0.5352615 1.603288 -1.738465E-07
v 0.5352616 1.588289 -0.3978806
v 0.5352615 1.588288 -1.253998E-07
v 0.5352616 1.164077 -0.3978806
v 0.5352615 1.164077 -1.132882E-07
v 0.5352616 1.149077 -0.3978806
v 0.5352615 1.149077 -6.484152E-08
v 0.5352615 0.7501497 -0.3978805
v 0.5352614 0.7501496 -4.061819E-08
v 0.5201918 2.062617 -0.3978807
v -0.5201919 2.062617 -0.004839982
v 0.5201917 2.062617 -0.004840237
v -0.5201917 2.062617 -0.3978805
v 0.5201917 1.603288 -0.004840164
v -0.5201916 1.603289 -0.3978804
v 0.5201919 1.603289 -0.3978806
v -0.5201918 1.603288 -0.004839934
v 0.5201918 1.588289 -0.3978807
v -0.5201918 1.588288 -0.004839898
v 0.5201917 1.588288 -0.004840152
v -0.5201916 1.588289 -0.3978804
v 0.5201917 1.164077 -0.004840103
v -0.5201916 1.164077 -0.3978803
v 0.5201918 1.164077 -0.3978806
v -0.5201918 1.164077 -0.004839849
v 0.5201917 1.149077 -0.3978806
v -0.5201918 1.149077 -0.004839813
v 0.5201917 1.149077 -0.004840079
v -0.5201917 1.149077 -0.3978803
v -0.5201917 2.062617 -0.3978805
v -0.5201918 1.603288 -0.004839934
v -0.5201919 2.062617 -0.004839982
v -0.5201916 1.603289 -0.3978804
v -0.5201916 1.588289 -0.3978804
v -0.5201918 1.164077 -0.004839849
v -0.5201918 1.588288 -0.004839898
v -0.5201916 1.164077 -0.3978803
v -0.5201917 1.149077 -0.3978803
v -0.5201918 0.7501496 -0.004839704
v -0.5201918 1.149077 -0.004839813
v -0.5201916 0.7501496 -0.3978802
v -0.5352616 2.077617 8.049845E-08
v -0.5352614 2.062617 -0.3978804
v -0.5352615 2.077617 -0.3978804
v -0.5352616 2.062617 9.261011E-08
v -0.5352612 1.603289 -0.3978803
v -0.5352615 1.603288 1.168334E-07
v -0.5352613 1.588289 -0.3978803
v -0.5352615 1.588288 1.410568E-07
v -0.5352613 1.164077 -0.3978803
v -0.5352616 1.164077 1.895034E-07
v -0.5352613 1.149077 -0.3978803
v -0.5352616 1.149077 2.016151E-07
v -0.5352614 0.7501496 -0.3978802
v -0.5352616 0.7501496 2.621734E-07
v -0.5201918 1.603288 -0.004839994
v 0.5201917 1.603288 -0.004840164
v -0.5201917 2.062617 -0.004840068
v 0.5201917 2.062617 -0.004840237
v -0.5201919 1.164077 -0.004839934
v 0.5201917 1.164077 -0.004840103
v -0.5201918 1.588288 -0.004839982
v 0.5201917 1.588288 -0.004840152
v -0.5201919 0.7501495 -0.004839861
v 0.5201916 0.7501496 -0.004840031
v -0.5201917 1.149077 -0.004839898
v 0.5201917 1.149077 -0.004840079
v -0.5492551 2.077617 6.022386E-07
v 0.5352615 2.077617 -2.344048E-07
v -0.5341853 2.077617 6.022385E-07
v -0.5341853 2.077617 6.022385E-07
v 0.5352616 2.062617 -2.465165E-07
v -0.5341853 2.062617 5.901269E-07
v 0.5352615 2.077617 -2.344048E-07
v 0.5352615 1.603288 -1.738465E-07
v -0.5341853 1.603288 6.627969E-07
v 0.5352615 1.588288 -1.253998E-07
v -0.5341853 1.588288 7.112435E-07
v 0.5352615 1.164077 -1.132882E-07
v -0.5341853 1.164077 7.233552E-07
v 0.5352615 1.149077 -6.484152E-08
v -0.5341853 1.149077 7.718019E-07
v 0.5352614 0.7501496 -4.061819E-08
v -0.5341853 0.7501496 7.960252E-07

vn 0 0 1
vn 0 0 1
vn 0 0 1
vn 0 0 1
vn 0 0 -1
vn 0 0 -1
vn 0 0 -1
vn 0 0 -1
vn 0 0 -1
vn 0 0 -1
vn 0 0 -1
vn 0 0 -1
vn 0 0 -1
vn 0 0 -1
vn 0 0 -1
vn 0 0 -1
vn 0 -1 0
vn 0 -1 0
vn 0 -1 0
vn 0 -1 0
vn 1 0 0
vn 1 0 0
vn 1 0 0
vn 1 0 0
vn 1 0 0
vn 1 0 0
vn 1 0 0
vn 0 1 0
vn 0 1 0
vn 0 1 0
vn 0 1 0
vn 0 1 0
vn 0 1 0
vn 0 1 0
vn 0 1 0
vn 0 1 0
vn 0 1 0
vn -1 0 0
vn -1 0 0
vn -1 0 0
vn -1 0 0
vn -1 0 0
vn -1 0 0
vn -1 0 0
vn 0 0 -1
vn 0 0 -1
vn 0 0 -1
vn 0 0 -1
vn 0 0 -1
vn 0 0 -1
vn 0 0 -1
vn 0 0 -1
vn 0 0 -1
vn 0 0 -1
vn 0 0 -1
vn 0 0 -1
vn 0 0 -1
vn 0 0 -1
vn 0 0 -1
vn 0 0 -1
vn 0 0 -1
vn 0 0 -1
vn 0 0 -1
vn 0 0 -1
vn 0 -1 0
vn -2.98547E-07 -1 0
vn -2.985467E-07 -1 0
vn 0 -1 0
vn -3.931934E-07 -1 0
vn -3.931933E-07 -1 0
vn 1 -1.052725E-06 0
vn 1 0 0
vn 1 0 0
vn 1 -1.052725E-06 0
vn 1 -1.12547E-06 0
vn 1 -1.12547E-06 0
vn 1 0 0
vn 1 0 0
vn -1 0 0
vn -1 0 0
vn -1 0 0
vn -1 0 0
vn -1 0 0
vn -1 0 0
vn -1 0 0
vn -1 0 0
vn -1 0 0
vn -1 0 0
vn 0 -1 0
vn 0 -1 0
vn 0 -1 0
vn 0 -1 0
vn 0 1 0
vn 0 1 0
vn 0 1 0
vn 0 1 0
vn 0 1 -4.304181E-07
vn -6.181594E-06 1 0
vn -3.09921E-07 1 -4.753093E-07
vn -1.285934E-05 1 0
vn 0 1 0
vn -1.723824E-06 0 -1
vn -6.1499E-07 -5.89435E-07 -1
vn -1.602672E-06 -1.619614E-06 -1
vn 0 -1.693969E-06 -1
vn 0 2.09056E-06 -1
vn 1.612154E-06 0 -1
vn 3.118514E-06 9.845976E-07 -1
vn 6.356958E-06 -1.75507E-06 -1
vn 0 1.055849E-06 -1
vn 8.060836E-07 0 -1
vn 1.528208E-06 4.791741E-07 -1
vn 3.176176E-06 -8.9708E-07 -1
vn 0 0 -1
vn 0 0 -1
vn -3.826684E-06 -5.894424E-07 -1
vn -1.723824E-06 0 -1
vn -3.826814E-06 -5.839232E-07 -1
vn -2.243216E-06 0 -1
vn -4.095363E-06 7.070521E-07 -1
vn -3.304553E-06 1.03811E-06 -1
vn -4.826982E-06 -1.619614E-06 -1
vn -6.396127E-06 -1.692878E-06 -1
vn -4.020923E-06 -8.361877E-07 -1
vn -6.411501E-06 -1.699879E-06 -1
vn -5.225295E-06 3.454395E-07 -1
vn -6.352393E-06 0 -1
vn 0 0 -1
vn 0 0 -1
vn -1 0 0
vn -1 0 -3.264242E-07
vn -1 0 -2.898822E-07
vn -1 0 -4.930453E-07
vn -1 0 -3.697835E-07
vn -1 0 -3.697836E-07
vn -1 0 -3.697836E-07
vn -1 0 -3.697837E-07
vn -1 0 0
vn -1 0 0
vn -1 0 0
vn -1 0 0
vn 1 -3.229723E-06 3.652854E-07
vn 1 -1.431906E-06 0
vn 1 3.074801E-06 0
vn 1 1.648459E-06 0
vn 1 -1.595718E-06 4.040438E-07
vn 1 0 4.276266E-07
vn 1 -1.633247E-06 4.247033E-07
vn 1 0 3.652855E-07
vn 1 -1.672004E-06 3.652851E-07
vn 1 0 3.05865E-07
vn 1 -1.636886E-06 3.029438E-07
vn 1 0 0
vn 1 0 0
vn 1 0 0
vn 0 -1 4.930449E-07
vn 0 -1 4.930449E-07
vn 0 -1 4.930449E-07
vn 0 -1 4.930449E-07
vn 0 1 1.61228E-06
vn 0 1 1.34599E-06
vn 0 1 1.725657E-06
vn 0 1 1.232613E-06
vn 0 -1 -9.294013E-07
vn 0 -1 -7.96256E-07
vn 0 -1 -9.860897E-07
vn 0 -1 -7.395674E-07
vn 0 1 0
vn 0 1 0
vn 0 1 0
vn 0 1 0
vn 0 -1 0
vn 0 -1 0
vn 0 -1 0
vn 0 -1 0
vn 1 0 5.364047E-07
vn 1 2.793163E-07 5.729467E-07
vn 1 0 3.697836E-07
vn 1 4.218916E-07 7.39568E-07
vn 1 0 6.222892E-07
vn 1 0 6.103232E-07
vn 1 0 7.395675E-07
vn 1 0 4.930449E-07
vn 1 0 4.30831E-07
vn 1 0 4.319976E-07
vn 1 0 3.697837E-07
vn 1 0 4.930449E-07
vn -1 3.074801E-06 -6.029686E-07
vn -1 -1.748328E-06 -4.899682E-07
vn -1 -3.229725E-06 -3.652855E-07
vn -1 1.427903E-06 -6.36477E-07
vn -1 1.432703E-06 -7.029022E-07
vn -1 0 -6.711506E-07
vn -1 1.633247E-06 -6.682278E-07
vn -1 0 -6.088092E-07
vn -1 1.672006E-06 -6.088094E-07
vn -1 0 -5.493888E-07
vn -1 1.636884E-06 -5.46468E-07
vn -1 0 -4.870474E-07
vn -1 0 -4.870473E-07
vn -1 0 -4.870473E-07
vn 0 0 -1
vn 0 0 -1
vn 0 0 -1
vn 0 0 -1
vn 0 0 -1
vn 0 0 -1
vn 0 0 -1
vn 0 0 -1
vn 0 0 -1
vn 0 0 -1
vn 0 0 -1
vn 0 0 -1
vn 0 1 0
vn 0 1 0
vn 0 1 0
vn 7.823141E-07 -8.074354E-07 1
vn 7.823141E-07 -3.246145E-07 1
vn 7.823141E-07 -3.246132E-07 1
vn 7.823141E-07 -8.074389E-07 1
vn 7.823142E-07 1.694019E-06 1
vn 7.823144E-07 1.694029E-06 1
vn 7.823142E-07 1.62919E-06 1
vn 7.823144E-07 1.6292E-06 1
vn 7.823143E-07 1.629179E-06 1
vn 7.823142E-07 1.629178E-06 1
vn 7.823143E-07 1.645264E-06 1
vn 7.823143E-07 1.645262E-06 1
vn 7.823143E-07 0 1
vn 7.823143E-07 0 1

vt 0.2990731 1.234875
vt 1.284822 1.234875
vt 0.299073 1.925628
vt 1.284822 1.925628
vt 0.2066299 1.885876
vt 0.2066299 1.579254
vt 0.644199 1.885876
vt 0.700927 1.885876
vt 0.2066299 1.559436
vt 0.7009268 1.234875
vt 0.2066298 1.234875
vt 0.700927 1.885876
vt 0.700927 1.925628
vt 0.6441989 1.885876
vt 0.2066299 1.885876
vt 0.2048209 1.885876
vt -0.2848217 0.6901242
vt -0.2848217 0.3237517
vt 0.700927 0.690124
vt 0.700927 0.3237516
vt 0.3098758 1.234875
vt 0.6762483 1.234875
vt 0.3098758 1.925628
vt 0.6762483 1.885876
vt 0.6762483 1.925628
vt 0.6901248 1.885876
vt 0.6901248 1.234875
vt 0.2990731 0.6901241
vt 0.2990732 0.3237516
vt 1.284822 0.6901242
vt 0.7933702 0.3237517
vt 0.7951792 0.3237517
vt 1.284822 0.3237517
vt 1.284822 0.3098752
vt 0.7951792 0.3098751
vt 0.7933702 0.3098752
vt 0.2990732 0.3098752
vt 0.690124 1.925628
vt 0.3237516 1.925628
vt 0.6901241 1.234875
vt 0.3237516 1.885876
vt 0.3237516 1.234875
vt 0.3098752 1.234875
vt 0.3098751 1.885876
vt -0.2848217 1.925628
vt -0.2848217 1.885876
vt 0.700927 1.925628
vt 0.2048209 1.885876
vt 0.2048209 1.558241
vt 0.2048209 1.577987
vt -0.2848219 1.234875
vt 0.2048208 1.234875
vt -0.2848217 1.885876
vt 0.2048209 1.580383
vt 0.2048209 1.885876
vt 0.2048209 1.580383
vt 0.2048209 1.577987
vt 0.2066299 1.579254
vt 0.2066299 1.559436
vt 0.2048209 1.558241
vt 0.2066298 1.234875
vt 0.2048208 1.234875
vt 0.2048209 1.885876
vt 0.2066299 1.885876
vt 0.2066299 0.3237516
vt 0.644199 0.3098751
vt 0.6441989 0.3237516
vt 0.2066299 0.3098752
vt 0.700927 0.3098751
vt 0.700927 0.3237516
vt 0.6762484 1.579254
vt 0.6901248 1.885876
vt 0.6762484 1.885876
vt 0.6901248 1.579254
vt 0.6762484 1.559436
vt 0.6901248 1.559436
vt 0.6762483 1.234875
vt 0.6901248 1.234875
vt 0.3237516 1.577987
vt 0.3098752 1.558241
vt 0.3237516 1.558241
vt 0.3098752 1.577987
vt 0.3098751 1.234875
vt 0.3237517 1.234875
vt 0.3237516 1.580383
vt 0.3098752 1.580383
vt 0.3237516 1.885876
vt 0.3098752 1.885876
vt -0.2848217 0.3237517
vt 0.2048209 0.3098752
vt 0.2048209 0.3237516
vt -0.2848217 0.3098752
vt 1.284822 0.690124
vt 1.270946 0.690124
vt 1.284822 0.3237515
vt 1.270946 0.3237516
vt 0.3129498 0.3237517
vt 0.3129496 0.6901242
vt 0.2990734 0.3237517
vt 0.2990732 0.6901243
vt 0.2861879 0.6901248
vt -0.2709458 0.01252925
vt -0.2709457 0.02634168
vt -0.2848222 0.01252925
vt -0.2848221 0.02634168
vt -0.2709458 0.4492956
vt -0.2848222 0.4492956
vt -0.2709457 0.4631079
vt -0.2848221 0.4631079
vt -0.2709455 0.8537262
vt -0.284822 0.8537262
vt -0.2709455 0.8675382
vt -0.284822 0.8675382
vt -0.2709454 1.234875
vt -0.2848219 1.234875
vt 0.6870502 0.02634144
vt 0.6870502 0.01252902
vt 0.6870501 0.4631077
vt 0.6870501 0.4492954
vt 0.6870503 0.867538
vt 0.6870502 0.853726
vt 0.7009266 0.01252902
vt 0.7009265 0.02634144
vt 0.7009264 0.4492954
vt 0.7009265 0.4631077
vt 0.7009266 0.853726
vt 0.7009267 0.867538
vt 0.6870503 1.234875
vt 0.7009268 1.234875
vt 0.6856673 0.02634144
vt 0.6856673 0.4492964
vt 0.3237516 0.02634168
vt 0.3237516 0.4492956
vt 0.6856674 0.4631083
vt 0.6856674 0.8537263
vt 0.3237516 0.4631079
vt 0.3237516 0.8537262
vt 0.6856674 0.8675383
vt 0.6856675 1.234875
vt 0.3237516 0.8675382
vt 0.3237517 1.234875
vt 0.6762485 0.01252925
vt 0.6762484 0.02634168
vt 0.309876 0.01252925
vt 0.309876 0.02634144
vt 0.6762484 0.4492956
vt 0.3098759 0.4492964
vt 0.6762483 0.4631079
vt 0.3098759 0.4631083
vt 0.6762483 0.8537262
vt 0.3098759 0.8537263
vt 0.6762483 0.8675382
vt 0.3098758 0.8675383
vt 0.6762483 1.234875
vt 0.3098758 1.234875
vt -0.2709457 0.3237516
vt 0.6870505 0.6856675
vt -0.2709455 0.6856673
vt 0.6870502 0.3237517
vt 1.270946 0.6856673
vt 0.3129499 0.3237517
vt 1.270946 0.3237516
vt 0.3129496 0.6856675
vt -0.2709457 0.3237516
vt 0.6870505 0.6856675
vt -0.2709455 0.6856674
vt 0.6870501 0.3237517
vt 1.270945 0.6856674
vt 0.3129497 0.3237518
vt 1.270946 0.3237516
vt 0.3129495 0.6856675
vt -0.2709455 0.3237516
vt 0.6870505 0.6856676
vt -0.2709454 0.6856674
vt 0.6870503 0.3237518
vt 0.6762483 0.02634144
vt 0.3143325 0.4492959
vt 0.3143325 0.0263412
vt 0.6762483 0.4492954
vt 0.6762483 0.4631077
vt 0.3143325 0.853726
vt 0.3143325 0.4631079
vt 0.6762482 0.853726
vt 0.6762482 0.867538
vt 0.3143323 1.234875
vt 0.3143324 0.867538
vt 0.6762481 1.234875
vt 0.6901243 0.01252902
vt 0.3237518 0.02634144
vt 0.3237517 0.01252902
vt 0.6901243 0.0263412
vt 0.3237518 0.4492954
vt 0.6901243 0.4492959
vt 0.3237518 0.4631077
vt 0.6901243 0.4631079
vt 0.3237519 0.853726
vt 0.6901243 0.853726
vt 0.3237519 0.867538
vt 0.6901243 0.867538
vt 0.3237519 1.234875
vt 0.6901243 1.234875
vt 0.6870504 0.4492961
vt -0.2709455 0.4492964
vt 0.6870502 0.0263412
vt -0.2709455 0.02634144
vt 0.6870506 0.8537261
vt -0.2709454 0.8537263
vt 0.6870504 0.4631081
vt -0.2709455 0.4631083
vt 0.6870506 1.234875
vt -0.2709453 1.234875
vt 0.6870504 0.8675382
vt -0.2709454 0.8675383
vt 0.2861879 0.6901248
vt 1.284822 0.690124
vt 0.3000643 0.6901248
vt 0.3000643 0.01252902
vt 1.284822 0.02634144
vt 0.3000643 0.0263412
vt 1.284822 0.01252925
vt 1.284822 0.4492964
vt 0.3000643 0.4492961
vt 1.284822 0.4631083
vt 0.3000643 0.4631079
vt 1.284822 0.8537263
vt 0.3000642 0.8537261
vt 1.284822 0.8675383
vt 0.3000642 0.8675382
vt 1.284822 1.234875
vt 0.3000641 1.234875

g Capboard04.obj
usemtl Capboard04
usemap Capboard04
f 1/1/1 3/3/3 2/2/2
f 4/4/4 2/2/2 3/3/3
f 5/5/5 7/7/7 6/6/6
f 8/8/8 6/6/6 7/7/7
f 8/8/8 9/9/9 6/6/6
f 10/10/10 9/9/9 8/8/8
f 10/10/10 11/11/11 9/9/9
f 12/12/12 14/14/14 13/13/13
f 15/15/15 13/13/13 14/14/14
f 16/16/16 13/13/13 15/15/15
f 17/17/17 19/19/19 18/18/18
f 20/20/20 18/18/18 19/19/19
f 21/21/21 23/23/23 22/22/22
f 24/24/24 22/22/22 23/23/23
f 25/25/25 24/24/24 23/23/23
f 22/22/22 24/24/24 26/26/26
f 26/26/26 27/27/27 22/22/22
f 28/28/28 30/30/30 29/29/29
f 31/31/31 29/29/29 30/30/30
f 32/32/32 31/31/31 30/30/30
f 33/33/33 32/32/32 30/30/30
f 32/32/32 33/33/33 34/34/34
f 34/34/34 35/35/35 32/32/32
f 29/29/29 31/31/31 36/36/36
f 36/36/36 37/37/37 29/29/29
f 38/38/38 40/40/40 39/39/39
f 41/41/41 39/39/39 40/40/40
f 42/42/42 41/41/41 40/40/40
f 41/41/41 42/42/42 43/43/43
f 43/43/43 44/44/44 41/41/41
f 45/45/45 47/47/47 46/46/46
f 46/46/46 47/47/47 48/48/48
f 49/49/49 51/51/51 50/50/50
f 52/52/52 51/51/51 49/49/49
f 53/53/53 50/50/50 51/51/51
f 53/53/53 54/54/54 50/50/50
f 53/53/53 55/55/55 54/54/54
f 56/56/56 58/58/58 57/57/57
f 59/59/59 57/57/57 58/58/58
f 59/59/59 60/60/60 57/57/57
f 61/61/61 60/60/60 59/59/59
f 61/61/61 62/62/62 60/60/60
f 56/56/56 63/63/63 58/58/58
f 63/63/63 64/64/64 58/58/58
f 65/65/65 67/67/67 66/66/66
f 66/66/66 68/68/68 65/65/65
f 69/69/69 66/66/66 67/67/67
f 67/67/67 70/70/70 69/69/69
f 71/71/71 73/73/73 72/72/72
f 72/72/72 74/74/74 71/71/71
f 75/75/75 71/71/71 74/74/74
f 74/74/74 76/76/76 75/75/75
f 77/77/77 75/75/75 76/76/76
f 76/76/76 78/78/78 77/77/77
f 79/79/79 81/81/81 80/80/80
f 80/80/80 82/82/82 79/79/79
f 83/83/83 80/80/80 81/81/81
f 81/81/81 84/84/84 83/83/83
f 85/85/85 79/79/79 82/82/82
f 82/82/82 86/86/86 85/85/85
f 87/87/87 85/85/85 86/86/86
f 86/86/86 88/88/88 87/87/87
f 89/89/89 91/91/91 90/90/90
f 90/90/90 92/92/92 89/89/89
f 93/93/93 95/95/95 94/94/94
f 96/96/96 94/94/94 95/95/95
f 94/94/94 96/96/96 97/97/97
f 97/97/97 98/98/98 94/94/94
f 98/98/98 97/97/97 99/99/99
f 99/99/99 100/100/100 98/98/98
f 93/93/93 94/94/94 101/101/101
f 102/102/102 104/104/104 103/103/103
f 105/105/105 103/103/103 104/104/104
f 103/103/103 105/105/105 106/106/106
f 107/107/107 106/106/106 105/105/105
f 106/106/106 107/107/107 108/108/108
f 109/109/109 108/108/108 107/107/107
f 108/108/108 109/109/109 110/110/110
f 111/111/111 110/110/110 109/109/109
f 110/110/110 111/111/111 112/112/112
f 113/113/113 112/112/112 111/111/111
f 112/112/112 113/113/113 114/114/114
f 115/115/115 114/114/114 113/113/113
f 102/102/102 103/103/103 116/116/116
f 116/116/116 117/117/117 102/102/102
f 106/106/106 108/108/108 118/118/118
f 118/118/118 119/119/119 106/106/106
f 110/110/110 112/112/112 120/120/120
f 120/120/120 121/121/121 110/110/110
f 122/122/122 117/117/117 116/116/116
f 116/116/116 123/123/123 122/122/122
f 123/123/123 116/116/116 119/119/119
f 119/119/119 124/124/124 123/123/123
f 124/124/124 119/119/119 118/118/118
f 118/118/118 125/125/125 124/124/124
f 125/125/125 118/118/118 121/121/121
f 121/121/121 126/126/126 125/125/125
f 126/126/126 121/121/121 120/120/120
f 120/120/120 127/127/127 126/126/126
f 127/127/127 120/120/120 128/128/128
f 128/128/128 129/129/129 127/127/127
f 130/130/130 132/132/132 131/131/131
f 133/133/133 131/131/131 132/132/132
f 134/134/134 136/136/136 135/135/135
f 137/137/137 135/135/135 136/136/136
f 138/138/138 140/140/140 139/139/139
f 141/141/141 139/139/139 140/140/140
f 142/142/142 144/144/144 143/143/143
f 145/145/145 143/143/143 144/144/144
f 143/143/143 145/145/145 146/146/146
f 147/147/147 146/146/146 145/145/145
f 146/146/146 147/147/147 148/148/148
f 149/149/149 148/148/148 147/147/147
f 148/148/148 149/149/149 150/150/150
f 151/151/151 150/150/150 149/149/149
f 150/150/150 151/151/151 152/152/152
f 153/153/153 152/152/152 151/151/151
f 152/152/152 153/153/153 154/154/154
f 155/155/155 154/154/154 153/153/153
f 156/156/156 158/158/158 157/157/157
f 157/157/157 159/159/159 156/156/156
f 160/160/160 162/162/162 161/161/161
f 161/161/161 163/163/163 160/160/160
f 164/164/164 166/166/166 165/165/165
f 165/165/165 167/167/167 164/164/164
f 168/168/168 170/170/170 169/169/169
f 169/169/169 171/171/171 168/168/168
f 172/172/172 174/174/174 173/173/173
f 173/173/173 175/175/175 172/172/172
f 176/176/176 178/178/178 177/177/177
f 177/177/177 179/179/179 176/176/176
f 180/180/180 182/182/182 181/181/181
f 181/181/181 183/183/183 180/180/180
f 184/184/184 186/186/186 185/185/185
f 185/185/185 187/187/187 184/184/184
f 188/188/188 190/190/190 189/189/189
f 189/189/189 191/191/191 188/188/188
f 191/191/191 189/189/189 192/192/192
f 192/192/192 193/193/193 191/191/191
f 193/193/193 192/192/192 194/194/194
f 194/194/194 195/195/195 193/193/193
f 195/195/195 194/194/194 196/196/196
f 196/196/196 197/197/197 195/195/195
f 197/197/197 196/196/196 198/198/198
f 198/198/198 199/199/199 197/197/197
f 199/199/199 198/198/198 200/200/200
f 200/200/200 201/201/201 199/199/199
f 202/202/202 204/204/204 203/203/203
f 205/205/205 203/203/203 204/204/204
f 206/206/206 208/208/208 207/207/207
f 209/209/209 207/207/207 208/208/208
f 210/210/210 212/212/212 211/211/211
f 213/213/213 211/211/211 212/212/212
f 214/214/214 216/216/216 215/215/215
f 217/217/217 219/219/219 218/218/218
f 218/218/218 220/220/220 217/217/217
f 221/221/221 218/218/218 219/219/219
f 219/219/219 222/222/222 221/221/221
f 223/223/223 221/221/221 222/222/222
f 222/222/222 224/224/224 223/223/223
f 225/225/225 223/223/223 224/224/224
f 224/224/224 226/226/226 225/225/225
f 227/227/227 225/225/225 226/226/226
f 226/226/226 228/228/228 227/227/227
f 229/229/229 227/227/227 228/228/228
f 228/228/228 230/230/230 229/229/229
