#Chair01Fabric.obj

v -5.656102 5.932873 0.7600011
v 5.656102 -5.932873 0.7600011
v -5.656102 -5.932873 0.7600011
v 5.656102 5.932873 0.7600011
v -5.817322 -5.932873 0.6932214
v -5.817322 5.932873 0.6932214
v -5.770102 6.046873 0.6932214
v -5.656102 6.094093 0.6932214
v -5.770102 -6.046873 0.6932214
v -5.656102 -6.094093 0.6932214
v 5.656102 -6.094093 0.6932214
v 5.770102 -6.046873 0.6932214
v 5.817322 -5.932873 0.6932214
v 5.817322 5.932873 0.6932214
v 5.770102 6.046873 0.6932214
v 5.656102 6.094093 0.6932214
v -5.656102 6.094093 0.6932214
v -5.817322 6.094093 0.5320011
v -5.656102 6.160873 0.5320011
v -5.770102 6.046873 0.6932214
v 5.656102 6.094093 0.6932214
v 5.656102 6.160873 0.5320011
v 5.770102 6.046873 0.6932214
v 5.817322 6.094093 0.5320011
v -5.817322 6.094093 0.228
v -5.656102 6.160873 0.228
v 5.656102 6.160873 0.228
v 5.817322 6.094093 0.228
v -5.770102 6.046873 0.6932214
v -5.884101 5.932873 0.5320011
v -5.817322 6.094093 0.5320011
v -5.817322 5.932873 0.6932214
v -5.884101 -5.932873 0.5320011
v -5.817322 -5.932873 0.6932214
v -5.817322 -6.094093 0.5320011
v -5.770102 -6.046873 0.6932214
v -5.884101 5.932873 0.228
v -5.817322 6.094093 0.228
v -5.884101 -5.932873 0.228
v -5.817322 -6.094093 0.228
v -5.770102 -6.046873 0.6932214
v -5.656102 -6.160873 0.5320011
v -5.817322 -6.094093 0.5320011
v -5.656102 -6.094093 0.6932214
v 5.656102 -6.160873 0.5320011
v 5.656102 -6.094093 0.6932214
v 5.817322 -6.094093 0.5320011
v 5.770102 -6.046873 0.6932214
v -5.656102 -6.160873 0.228
v -5.817322 -6.094093 0.228
v 5.656102 -6.160873 0.228
v 5.817322 -6.094093 0.228
v 5.770102 -6.046873 0.6932214
v 5.884101 -5.932873 0.5320011
v 5.817322 -6.094093 0.5320011
v 5.817322 -5.932873 0.6932214
v 5.884101 5.932873 0.5320011
v 5.817322 5.932873 0.6932214
v 5.817322 6.094093 0.5320011
v 5.770102 6.046873 0.6932214
v 5.884101 -5.932873 0.228
v 5.817322 -6.094093 0.228
v 5.884101 5.932873 0.228
v 5.817322 6.094093 0.228
v -5.512943 7.953756 18.06606
v 5.414078 7.069498 12.30045
v -5.512943 7.069498 12.30045
v 5.414078 7.953756 18.06606
v 5.414078 6.315729 5.929924
v -5.512943 6.315729 5.929924
v -5.915966 7.234935 12.27812
v -5.915966 8.119193 18.04373
v -5.797923 8.15731 18.32615
v -5.512943 8.1731 18.44313
v -5.915966 6.481166 5.907595
v -5.797923 6.443048 5.625175
v -5.512943 6.427258 5.508193
v 5.414078 6.427258 5.508193
v 5.699058 6.443048 5.625175
v 5.817101 6.481166 5.907595
v 5.817101 7.234935 12.27812
v 5.817101 8.119193 18.04373
v 5.699058 8.15731 18.32615
v 5.414078 8.1731 18.44313
v -5.512943 8.1731 18.44313
v -5.915966 8.572501 18.38923
v -5.512943 8.594831 18.55466
v -5.797923 8.15731 18.32615
v 5.414078 8.1731 18.44313
v 5.414078 8.594831 18.55466
v 5.699058 8.15731 18.32615
v 5.817101 8.572501 18.38923
v -5.797923 8.15731 18.32615
v -6.082903 8.518594 17.98983
v -5.915966 8.572501 18.38923
v -5.915966 8.119193 18.04373
v -6.082903 7.634335 12.22421
v -5.915966 7.234935 12.27812
v -6.082903 6.880567 5.853687
v -5.915966 6.481166 5.907595
v -5.915966 6.82666 5.454286
v -5.797923 6.443048 5.625175
v -5.797923 6.443048 5.625175
v -5.512943 6.80433 5.28885
v -5.915966 6.82666 5.454286
v -5.512943 6.427258 5.508193
v 5.414078 6.80433 5.28885
v 5.414078 6.427258 5.508193
v 5.817101 6.82666 5.454286
v 5.699058 6.443048 5.625175
v 5.699058 6.443048 5.625175
v 5.984037 6.880567 5.853687
v 5.817101 6.82666 5.454286
v 5.817101 6.481166 5.907595
v 5.984037 7.634336 12.22421
v 5.817101 7.234935 12.27812
v 5.984037 8.518594 17.98983
v 5.817101 8.119193 18.04373
v 5.817101 8.572501 18.38923
v 5.699058 8.15731 18.32615
v -5.512943 8.594831 18.55466
v -5.915966 9.128258 18.31421
v -5.512943 9.150586 18.47965
v -5.915966 8.572501 18.38923
v -5.915966 8.572501 18.38923
v -6.082903 9.07435 17.91482
v -5.915966 9.128258 18.31421
v -6.082903 8.518594 17.98983
v -6.082903 8.190091 12.1492
v -6.082903 7.634335 12.22421
v -6.082903 7.436323 5.778676
v -6.082903 6.880567 5.853687
v -5.915966 7.382415 5.379275
v -5.915966 6.82666 5.454286
v -5.915966 6.82666 5.454286
v -5.512943 7.360086 5.213839
v -5.915966 7.382415 5.379275
v -5.512943 6.80433 5.28885
v 5.414078 7.360086 5.213839
v 5.414078 6.80433 5.28885
v 5.817101 7.382415 5.379275
v 5.817101 6.82666 5.454286
v 5.817101 6.82666 5.454286
v 5.984037 7.436323 5.778676
v 5.817101 7.382415 5.379275
v 5.984037 6.880567 5.853687
v 5.984037 8.190091 12.1492
v 5.984037 7.634336 12.22421
v 5.984037 9.07435 17.91482
v 5.984037 8.518594 17.98983
v 5.817101 9.128258 18.31421
v 5.817101 8.572501 18.38923
v 5.817101 8.572501 18.38923
v 5.414078 9.150586 18.47965
v 5.817101 9.128258 18.31421
v 5.414078 8.594831 18.55466
v -5.512943 9.150586 18.47965
v -5.512943 8.594831 18.55466
v -5.512943 9.150586 18.47965
v -5.797923 9.511869 18.14333
v -5.512943 9.527658 18.26031
v -5.915966 9.128258 18.31421
v 5.414078 9.150586 18.47965
v 5.414078 9.527658 18.26031
v 5.817101 9.128258 18.31421
v 5.699058 9.511869 18.14333
v -5.915966 9.128258 18.31421
v -5.915966 9.473751 17.86091
v -5.797923 9.511869 18.14333
v -6.082903 9.07435 17.91482
v -5.915966 8.589493 12.0953
v -6.082903 8.190091 12.1492
v -5.915966 7.835724 5.724768
v -6.082903 7.436323 5.778676
v -5.797923 7.797606 5.442349
v -5.915966 7.382415 5.379275
v -5.915966 7.382415 5.379275
v -5.512943 7.781816 5.325367
v -5.797923 7.797606 5.442349
v -5.512943 7.360086 5.213839
v 5.414078 7.781816 5.325367
v 5.414078 7.360086 5.213839
v 5.699058 7.797606 5.442349
v 5.817101 7.382415 5.379275
v 5.817101 7.382415 5.379275
v 5.817101 7.835724 5.724768
v 5.699058 7.797606 5.442349
v 5.984037 7.436323 5.778676
v 5.817101 8.589493 12.0953
v 5.984037 8.190091 12.1492
v 5.817101 9.473751 17.86091
v 5.984037 9.07435 17.91482
v 5.699058 9.511869 18.14333
v 5.817101 9.128258 18.31421
v -5.512943 9.527658 18.26031
v -5.797923 9.511869 18.14333
v -5.512943 9.639188 17.83858
v -5.915966 9.473751 17.86091
v -5.512943 8.75493 12.07297
v -5.915966 8.589493 12.0953
v -5.512943 8.001161 5.702439
v -5.915966 7.835724 5.724768
v -5.797923 7.797606 5.442349
v -5.512943 7.781816 5.325367
v 5.414078 8.001161 5.702439
v 5.414078 7.781816 5.325367
v 5.699058 7.797606 5.442349
v 5.817101 7.835724 5.724768
v 5.414078 8.75493 12.07297
v 5.817101 8.589493 12.0953
v 5.414078 9.639188 17.83858
v 5.817101 9.473751 17.86091
v 5.699058 9.511869 18.14333
v 5.414078 9.527658 18.26031

vn -0.1657279 0.165728 0.9721463
vn 0.165728 -0.165728 0.9721463
vn -0.1657279 -0.165728 0.9721463
vn 0.1657279 0.165728 0.9721463
vn -0.719357 -0.1447648 0.6793885
vn -0.7193568 0.1447646 0.6793886
vn -0.5293515 0.5293516 0.6630037
vn -0.1447648 0.719357 0.6793885
vn -0.5293516 -0.5293515 0.6630037
vn -0.1447646 -0.719357 0.6793885
vn 0.1447648 -0.719357 0.6793885
vn 0.5293515 -0.5293516 0.6630037
vn 0.7193568 -0.1447646 0.6793886
vn 0.719357 0.1447648 0.6793885
vn 0.5293516 0.5293515 0.6630037
vn 0.1447646 0.719357 0.6793885
vn -0.1447648 0.719357 0.6793885
vn -0.694692 0.6946921 0.1865631
vn -0.1876923 0.9641283 0.1876922
vn -0.5293515 0.5293516 0.6630037
vn 0.1447646 0.719357 0.6793885
vn 0.1876923 0.9641283 0.187692
vn 0.5293516 0.5293515 0.6630037
vn 0.6946921 0.694692 0.1865631
vn -0.7071068 0.7071068 0
vn -0.1950906 0.9807853 0
vn 0.1950906 0.9807853 0
vn 0.7071068 0.7071068 0
vn -0.5293515 0.5293516 0.6630037
vn -0.9641283 0.1876923 0.187692
vn -0.694692 0.6946921 0.1865631
vn -0.7193568 0.1447646 0.6793886
vn -0.9641283 -0.1876924 0.1876921
vn -0.719357 -0.1447648 0.6793885
vn -0.6946921 -0.694692 0.1865631
vn -0.5293516 -0.5293515 0.6630037
vn -0.9807853 0.1950906 0
vn -0.7071068 0.7071068 0
vn -0.9807853 -0.1950905 0
vn -0.7071068 -0.7071068 0
vn -0.5293516 -0.5293515 0.6630037
vn -0.1876923 -0.9641283 0.187692
vn -0.6946921 -0.694692 0.1865631
vn -0.1447646 -0.719357 0.6793885
vn 0.1876923 -0.9641283 0.1876922
vn 0.1447648 -0.719357 0.6793885
vn 0.694692 -0.6946921 0.1865631
vn 0.5293515 -0.5293516 0.6630037
vn -0.1950906 -0.9807853 0
vn -0.7071068 -0.7071068 0
vn 0.1950906 -0.9807853 0
vn 0.7071068 -0.7071068 0
vn 0.5293515 -0.5293516 0.6630037
vn 0.9641283 -0.1876923 0.187692
vn 0.694692 -0.6946921 0.1865631
vn 0.7193568 -0.1447646 0.6793886
vn 0.9641283 0.1876924 0.1876921
vn 0.719357 0.1447648 0.6793885
vn 0.6946921 0.694692 0.1865631
vn 0.5293516 0.5293515 0.6630037
vn 0.9807853 -0.1950906 0
vn 0.7071068 -0.7071068 0
vn 0.9807853 0.1950905 0
vn 0.7071068 0.7071068 0
vn -0.165727 -0.9385682 0.3026953
vn 0.1946829 -0.9719448 0.1319919
vn -0.1946824 -0.9719449 0.1319919
vn 0.165727 -0.9385682 0.3026953
vn 0.1657276 -0.9852667 -0.04223667
vn -0.1657275 -0.9852667 -0.04223672
vn -0.705017 -0.7027398 0.09543458
vn -0.7197632 -0.6512988 0.2403139
vn -0.5293519 -0.5862429 0.6132746
vn -0.1447653 -0.577063 0.8037669
vn -0.7197267 -0.6917917 -0.05846287
vn -0.529351 -0.7278515 -0.4359126
vn -0.1447655 -0.7695033 -0.622019
vn 0.1447651 -0.7695035 -0.6220187
vn 0.5293516 -0.7278513 -0.435912
vn 0.7197268 -0.6917915 -0.05846335
vn 0.7050176 -0.7027393 0.0954345
vn 0.719763 -0.6512991 0.2403137
vn 0.5293512 -0.5862421 0.6132761
vn 0.1447666 -0.5770621 0.8037673
vn -0.1447653 -0.577063 0.8037669
vn -0.6946914 -0.0919664 0.7134045
vn -0.1876906 -0.05704369 0.9805704
vn -0.5293519 -0.5862429 0.6132746
vn 0.1447666 -0.5770621 0.8037673
vn 0.1876912 -0.05704436 0.9805703
vn 0.5293512 -0.5862421 0.6132761
vn 0.6946909 -0.09196697 0.713405
vn -0.5293519 -0.5862429 0.6132746
vn -0.9640248 -0.1594978 0.2126426
vn -0.6946914 -0.0919664 0.7134045
vn -0.7197632 -0.6512988 0.2403139
vn -0.9803745 -0.1953504 0.02653093
vn -0.705017 -0.7027398 0.09543458
vn -0.9640342 -0.2102502 -0.1625823
vn -0.7197267 -0.6917917 -0.05846287
vn -0.6946918 -0.2778078 -0.6634953
vn -0.529351 -0.7278515 -0.4359126
vn -0.529351 -0.7278515 -0.4359126
vn -0.1876917 -0.3149652 -0.9303595
vn -0.6946918 -0.2778078 -0.6634953
vn -0.1447655 -0.7695033 -0.622019
vn 0.1876915 -0.3149651 -0.9303595
vn 0.1447651 -0.7695035 -0.6220187
vn 0.6946921 -0.2778078 -0.6634951
vn 0.5293516 -0.7278513 -0.435912
vn 0.5293516 -0.7278513 -0.435912
vn 0.9640341 -0.2102504 -0.1625825
vn 0.6946921 -0.2778078 -0.6634951
vn 0.7197268 -0.6917915 -0.05846335
vn 0.9803746 -0.1953502 0.0265309
vn 0.7050176 -0.7027393 0.0954345
vn 0.9640248 -0.1594977 0.2126425
vn 0.719763 -0.6512991 0.2403137
vn 0.6946909 -0.09196697 0.713405
vn 0.5293512 -0.5862421 0.6132761
vn -0.1876906 -0.05704369 0.9805704
vn -0.6946908 0.2778078 0.6634963
vn -0.1876906 0.3149648 0.9303598
vn -0.6946914 -0.0919664 0.7134045
vn -0.6946914 -0.0919664 0.7134045
vn -0.9642349 0.2120512 0.1590137
vn -0.6946908 0.2778078 0.6634963
vn -0.9640248 -0.1594978 0.2126426
vn -0.9811924 0.191277 -0.02597451
vn -0.9803745 -0.1953504 0.02653093
vn -0.9642251 0.162179 -0.2096851
vn -0.9640342 -0.2102502 -0.1625823
vn -0.6946919 0.09196601 -0.7134041
vn -0.6946918 -0.2778078 -0.6634953
vn -0.6946918 -0.2778078 -0.6634953
vn -0.1876914 0.05704469 -0.9805701
vn -0.6946919 0.09196601 -0.7134041
vn -0.1876917 -0.3149652 -0.9303595
vn 0.1876916 0.05704482 -0.9805701
vn 0.1876915 -0.3149651 -0.9303595
vn 0.6946917 0.09196599 -0.7134042
vn 0.6946921 -0.2778078 -0.6634951
vn 0.6946921 -0.2778078 -0.6634951
vn 0.9642252 0.1621788 -0.2096848
vn 0.6946917 0.09196599 -0.7134042
vn 0.9640341 -0.2102504 -0.1625825
vn 0.9811924 0.1912771 -0.0259745
vn 0.9803746 -0.1953502 0.0265309
vn 0.9642349 0.2120512 0.1590138
vn 0.9640248 -0.1594977 0.2126425
vn 0.6946912 0.2778077 0.6634961
vn 0.6946909 -0.09196697 0.713405
vn 0.6946909 -0.09196697 0.713405
vn 0.1876905 0.3149647 0.9303598
vn 0.6946912 0.2778077 0.6634961
vn 0.1876912 -0.05704436 0.9805703
vn -0.1876906 0.3149648 0.9303598
vn -0.1876906 -0.05704369 0.9805704
vn -0.1876906 0.3149648 0.9303598
vn -0.5293503 0.7278518 0.4359129
vn -0.1447642 0.7695028 0.6220201
vn -0.6946908 0.2778078 0.6634963
vn 0.1876905 0.3149647 0.9303598
vn 0.1447639 0.7695029 0.6220198
vn 0.6946912 0.2778077 0.6634961
vn 0.5293505 0.7278518 0.4359125
vn -0.6946908 0.2778078 0.6634963
vn -0.7189352 0.6935458 0.04611127
vn -0.5293503 0.7278518 0.4359129
vn -0.9642349 0.2120512 0.1590137
vn -0.7092082 0.6985867 -0.09487055
vn -0.9811924 0.191277 -0.02597451
vn -0.7189737 0.6562716 -0.2288762
vn -0.9642251 0.162179 -0.2096851
vn -0.5293508 0.5862415 -0.613277
vn -0.6946919 0.09196601 -0.7134041
vn -0.6946919 0.09196601 -0.7134041
vn -0.1447645 0.5770634 -0.8037668
vn -0.5293508 0.5862415 -0.613277
vn -0.1876914 0.05704469 -0.9805701
vn 0.1447648 0.5770631 -0.803767
vn 0.1876916 0.05704482 -0.9805701
vn 0.5293503 0.5862415 -0.6132775
vn 0.6946917 0.09196599 -0.7134042
vn 0.6946917 0.09196599 -0.7134042
vn 0.7189736 0.6562719 -0.2288759
vn 0.5293503 0.5862415 -0.6132775
vn 0.9642252 0.1621788 -0.2096848
vn 0.7092084 0.6985865 -0.09487056
vn 0.9811924 0.1912771 -0.0259745
vn 0.7189353 0.6935457 0.0461115
vn 0.9642349 0.2120512 0.1590138
vn 0.5293505 0.7278518 0.4359125
vn 0.6946912 0.2778077 0.6634961
vn -0.1447642 0.7695028 0.6220201
vn -0.5293503 0.7278518 0.4359129
vn -0.1657121 0.9858473 0.02538831
vn -0.7189352 0.6935458 0.04611127
vn -0.1954995 0.9717834 -0.1319732
vn -0.7092082 0.6985867 -0.09487055
vn -0.1657135 0.9436083 -0.2866049
vn -0.7189737 0.6562716 -0.2288762
vn -0.5293508 0.5862415 -0.613277
vn -0.1447645 0.5770634 -0.8037668
vn 0.1657135 0.9436083 -0.2866049
vn 0.1447648 0.5770631 -0.803767
vn 0.5293503 0.5862415 -0.6132775
vn 0.7189736 0.6562719 -0.2288759
vn 0.1954995 0.9717834 -0.1319733
vn 0.7092084 0.6985865 -0.09487056
vn 0.165712 0.9858473 0.02538834
vn 0.7189353 0.6935457 0.0461115
vn 0.5293505 0.7278518 0.4359125
vn 0.1447639 0.7695029 0.6220198

vt 0.03035325 0.007371664
vt 0.9696468 0.9926283
vt 0.03035301 0.9926281
vt 0.969647 0.007371902
vt 0.01696631 0.9926281
vt 0.01696655 0.007371664
vt 0.0208874 -0.00209415
vt 0.03035325 -0.006015062
vt 0.02088717 1.002094
vt 0.03035301 1.006015
vt 0.9696468 1.006015
vt 0.9791126 1.002094
vt 0.9830334 0.9926283
vt 0.9830337 0.007371902
vt 0.9791129 -0.002093911
vt 0.969647 -0.006014824
vt 0.9696468 0.483458
vt 0.9830334 0.4968446
vt 0.9696468 0.4968446
vt 0.9791126 0.483458
vt 0.03035301 0.483458
vt 0.03035301 0.4968446
vt 0.02088714 0.483458
vt 0.01696634 0.4968446
vt 0.9830334 0.522087
vt 0.9696468 0.522087
vt 0.03035301 0.522087
vt 0.01696634 0.522087
vt -0.00209415 0.483458
vt 0.007371664 0.4968446
vt -0.006015062 0.4968446
vt 0.007371664 0.483458
vt 0.9926281 0.4968446
vt 0.9926281 0.483458
vt 1.006015 0.4968446
vt 1.002094 0.483458
vt 0.007371664 0.522087
vt -0.006015062 0.522087
vt 0.9926281 0.522087
vt 1.006015 0.522087
vt 0.02088717 0.483458
vt 0.03035301 0.4968446
vt 0.01696631 0.4968446
vt 0.03035301 0.483458
vt 0.9696468 0.4968446
vt 0.9696468 0.483458
vt 0.9830334 0.4968446
vt 0.9791126 0.483458
vt 0.03035301 0.522087
vt 0.01696631 0.522087
vt 0.9696468 0.522087
vt 0.9830334 0.522087
vt -0.00209415 0.483458
vt 0.007371664 0.4968446
vt -0.006015062 0.4968446
vt 0.007371664 0.483458
vt 0.9926281 0.4968446
vt 0.9926281 0.483458
vt 1.006015 0.4968446
vt 1.002094 0.483458
vt 0.007371664 0.522087
vt -0.006015062 0.522087
vt 0.9926281 0.522087
vt 1.006015 0.522087
vt 0.04723314 0.04257846
vt 0.9527668 0.5
vt 0.04723314 0.5
vt 0.9527668 0.04257846
vt 0.9527668 0.9574215
vt 0.04723314 0.9574215
vt 0.01383425 0.5
vt 0.01383425 0.04257846
vt 0.02361657 0.02128917
vt 0.04723314 0.0124709
vt 0.01383425 0.9574215
vt 0.02361657 0.9787108
vt 0.04723314 0.9875291
vt 0.9527668 0.9875291
vt 0.9763834 0.9787108
vt 0.9861658 0.9574215
vt 0.9861658 0.5
vt 0.9861658 0.04257846
vt 0.9763834 0.02128917
vt 0.9527668 0.0124709
vt 0.04723314 0.0124709
vt 0.01383425 0.0124709
vt 0.04723314 0
vt 0.02361657 0.02128917
vt 0.9527668 0.0124709
vt 0.9527668 0
vt 0.9763834 0.02128917
vt 0.9861658 0.0124709
vt 0.02361657 0.02128917
vt 0 0.04257846
vt 0.01383425 0.0124709
vt 0.01383425 0.04257846
vt 0 0.5
vt 0.01383425 0.5
vt 0 0.9574215
vt 0.01383425 0.9574215
vt 0.01383425 0.9875291
vt 0.02361657 0.9787108
vt 0.02361657 0.9787108
vt 0.04723314 1
vt 0.01383425 0.9875291
vt 0.04723314 0.9875291
vt 0.9527668 1
vt 0.9527668 0.9875291
vt 0.9861658 0.9875291
vt 0.9763834 0.9787108
vt 0.9763834 0.9787108
vt 1 0.9574215
vt 0.9861658 0.9875291
vt 0.9861658 0.9574215
vt 1 0.5
vt 0.9861658 0.5
vt 1 0.04257846
vt 0.9861658 0.04257846
vt 0.9861658 0.0124709
vt 0.9763834 0.02128917
vt 0 0
vt 0.008370319 1
vt 0 1
vt 0.008370319 0
vt 0.008370319 0
vt 0.01674064 1
vt 0.008370319 1
vt 0.01674064 0
vt 0.1342301 1
vt 0.1342301 0
vt 0.2517196 1
vt 0.2517196 0
vt 0.26009 1
vt 0.26009 0
vt 0.26009 0
vt 0.2684603 1
vt 0.26009 1
vt 0.2684603 0
vt 0.4781273 1
vt 0.4781273 0
vt 0.4864976 1
vt 0.4864976 0
vt 0.4864976 0
vt 0.4948679 1
vt 0.4864976 1
vt 0.4948679 0
vt 0.6123574 1
vt 0.6123574 0
vt 0.7298469 1
vt 0.7298469 0
vt 0.7382172 1
vt 0.7382172 0
vt 0.7382172 0
vt 0.7465876 1
vt 0.7382172 1
vt 0.7465876 0
vt 1 1
vt 1 0
vt 0.04723314 1
vt 0.02361657 0.9787108
vt 0.04723314 0.9875291
vt 0.01383425 0.9875291
vt 0.9527668 1
vt 0.9527668 0.9875291
vt 0.9861658 0.9875291
vt 0.9763834 0.9787108
vt 0.01383425 0.9875291
vt 0.01383425 0.9574215
vt 0.02361657 0.9787108
vt 0 0.9574215
vt 0.01383425 0.5
vt 0 0.5
vt 0.01383425 0.04257846
vt 0 0.04257846
vt 0.02361657 0.02128923
vt 0.01383425 0.0124709
vt 0.01383425 0.0124709
vt 0.04723314 0.0124709
vt 0.02361657 0.02128923
vt 0.04723314 0
vt 0.9527668 0.0124709
vt 0.9527668 0
vt 0.9763834 0.02128923
vt 0.9861658 0.0124709
vt 0.9861658 0.0124709
vt 0.9861658 0.04257846
vt 0.9763834 0.02128923
vt 1 0.04257846
vt 0.9861658 0.5
vt 1 0.5
vt 0.9861658 0.9574215
vt 1 0.9574215
vt 0.9763834 0.9787108
vt 0.9861658 0.9875291
vt 0.04723314 0.9875291
vt 0.02361657 0.9787108
vt 0.04723314 0.9574215
vt 0.01383425 0.9574215
vt 0.04723314 0.5
vt 0.01383425 0.5
vt 0.04723314 0.04257846
vt 0.01383425 0.04257846
vt 0.02361657 0.02128923
vt 0.04723314 0.0124709
vt 0.9527668 0.04257846
vt 0.9527668 0.0124709
vt 0.9763834 0.02128923
vt 0.9861658 0.04257846
vt 0.9527668 0.5
vt 0.9861658 0.5
vt 0.9527668 0.9574215
vt 0.9861658 0.9574215
vt 0.9763834 0.9787108
vt 0.9527668 0.9875291

g Chair01Fabric.obj
usemtl Chair01Fabric
usemap Chair01Fabric
f 1/1/1 3/3/3 2/2/2
f 1/1/1 2/2/2 4/4/4
f 1/1/1 5/5/5 3/3/3
f 1/1/1 6/6/6 5/5/5
f 1/1/1 7/7/7 6/6/6
f 1/1/1 8/8/8 7/7/7
f 4/4/4 8/8/8 1/1/1
f 3/3/3 5/5/5 9/9/9
f 3/3/3 9/9/9 10/10/10
f 3/3/3 10/10/10 11/11/11
f 3/3/3 11/11/11 2/2/2
f 2/2/2 11/11/11 12/12/12
f 2/2/2 12/12/12 13/13/13
f 2/2/2 13/13/13 14/14/14
f 2/2/2 14/14/14 4/4/4
f 4/4/4 14/14/14 15/15/15
f 4/4/4 15/15/15 16/16/16
f 4/4/4 16/16/16 8/8/8
f 17/17/17 19/19/19 18/18/18
f 17/17/17 18/18/18 20/20/20
f 21/21/21 19/19/19 17/17/17
f 21/21/21 22/22/22 19/19/19
f 23/23/23 22/22/22 21/21/21
f 23/23/23 24/24/24 22/22/22
f 19/19/19 25/25/25 18/18/18
f 19/19/19 26/26/26 25/25/25
f 22/22/22 26/26/26 19/19/19
f 24/24/24 27/27/27 22/22/22
f 22/22/22 27/27/27 26/26/26
f 24/24/24 28/28/28 27/27/27
f 29/29/29 31/31/31 30/30/30
f 29/29/29 30/30/30 32/32/32
f 32/32/32 30/30/30 33/33/33
f 32/32/32 33/33/33 34/34/34
f 34/34/34 33/33/33 35/35/35
f 34/34/34 35/35/35 36/36/36
f 31/31/31 37/37/37 30/30/30
f 31/31/31 38/38/38 37/37/37
f 30/30/30 37/37/37 39/39/39
f 30/30/30 39/39/39 33/33/33
f 33/33/33 39/39/39 40/40/40
f 33/33/33 40/40/40 35/35/35
f 41/41/41 43/43/43 42/42/42
f 41/41/41 42/42/42 44/44/44
f 44/44/44 42/42/42 45/45/45
f 44/44/44 45/45/45 46/46/46
f 46/46/46 45/45/45 47/47/47
f 46/46/46 47/47/47 48/48/48
f 43/43/43 49/49/49 42/42/42
f 43/43/43 50/50/50 49/49/49
f 42/42/42 49/49/49 51/51/51
f 42/42/42 51/51/51 45/45/45
f 45/45/45 51/51/51 52/52/52
f 45/45/45 52/52/52 47/47/47
f 53/53/53 55/55/55 54/54/54
f 53/53/53 54/54/54 56/56/56
f 56/56/56 54/54/54 57/57/57
f 56/56/56 57/57/57 58/58/58
f 58/58/58 57/57/57 59/59/59
f 58/58/58 59/59/59 60/60/60
f 55/55/55 61/61/61 54/54/54
f 55/55/55 62/62/62 61/61/61
f 54/54/54 61/61/61 63/63/63
f 54/54/54 63/63/63 57/57/57
f 57/57/57 63/63/63 64/64/64
f 57/57/57 64/64/64 59/59/59
f 65/65/65 67/67/67 66/66/66
f 65/65/65 66/66/66 68/68/68
f 67/67/67 69/69/69 66/66/66
f 67/67/67 70/70/70 69/69/69
f 65/65/65 71/71/71 67/67/67
f 65/65/65 72/72/72 71/71/71
f 65/65/65 73/73/73 72/72/72
f 65/65/65 74/74/74 73/73/73
f 68/68/68 74/74/74 65/65/65
f 67/67/67 71/71/71 75/75/75
f 67/67/67 75/75/75 70/70/70
f 70/70/70 75/75/75 76/76/76
f 70/70/70 76/76/76 77/77/77
f 70/70/70 77/77/77 78/78/78
f 70/70/70 78/78/78 69/69/69
f 69/69/69 78/78/78 79/79/79
f 69/69/69 79/79/79 80/80/80
f 69/69/69 80/80/80 81/81/81
f 69/69/69 81/81/81 66/66/66
f 66/66/66 81/81/81 82/82/82
f 66/66/66 82/82/82 68/68/68
f 68/68/68 82/82/82 83/83/83
f 68/68/68 83/83/83 84/84/84
f 68/68/68 84/84/84 74/74/74
f 85/85/85 87/87/87 86/86/86
f 85/85/85 86/86/86 88/88/88
f 89/89/89 87/87/87 85/85/85
f 89/89/89 90/90/90 87/87/87
f 91/91/91 90/90/90 89/89/89
f 91/91/91 92/92/92 90/90/90
f 93/93/93 95/95/95 94/94/94
f 93/93/93 94/94/94 96/96/96
f 96/96/96 94/94/94 97/97/97
f 96/96/96 97/97/97 98/98/98
f 98/98/98 97/97/97 99/99/99
f 98/98/98 99/99/99 100/100/100
f 100/100/100 99/99/99 101/101/101
f 100/100/100 101/101/101 102/102/102
f 103/103/103 105/105/105 104/104/104
f 103/103/103 104/104/104 106/106/106
f 106/106/106 104/104/104 107/107/107
f 106/106/106 107/107/107 108/108/108
f 108/108/108 107/107/107 109/109/109
f 108/108/108 109/109/109 110/110/110
f 111/111/111 113/113/113 112/112/112
f 111/111/111 112/112/112 114/114/114
f 114/114/114 112/112/112 115/115/115
f 114/114/114 115/115/115 116/116/116
f 116/116/116 115/115/115 117/117/117
f 116/116/116 117/117/117 118/118/118
f 118/118/118 117/117/117 119/119/119
f 118/118/118 119/119/119 120/120/120
f 121/121/121 123/123/123 122/122/122
f 121/121/121 122/122/122 124/124/124
f 125/125/125 127/127/127 126/126/126
f 125/125/125 126/126/126 128/128/128
f 128/128/128 126/126/126 129/129/129
f 128/128/128 129/129/129 130/130/130
f 130/130/130 129/129/129 131/131/131
f 130/130/130 131/131/131 132/132/132
f 132/132/132 131/131/131 133/133/133
f 132/132/132 133/133/133 134/134/134
f 135/135/135 137/137/137 136/136/136
f 135/135/135 136/136/136 138/138/138
f 138/138/138 136/136/136 139/139/139
f 138/138/138 139/139/139 140/140/140
f 140/140/140 139/139/139 141/141/141
f 140/140/140 141/141/141 142/142/142
f 143/143/143 145/145/145 144/144/144
f 143/143/143 144/144/144 146/146/146
f 146/146/146 144/144/144 147/147/147
f 146/146/146 147/147/147 148/148/148
f 148/148/148 147/147/147 149/149/149
f 148/148/148 149/149/149 150/150/150
f 150/150/150 149/149/149 151/151/151
f 150/150/150 151/151/151 152/152/152
f 153/153/153 155/155/155 154/154/154
f 153/153/153 154/154/154 156/156/156
f 156/156/156 154/154/154 157/157/157
f 156/156/156 157/157/157 158/158/158
f 159/159/159 161/161/161 160/160/160
f 159/159/159 160/160/160 162/162/162
f 163/163/163 161/161/161 159/159/159
f 163/163/163 164/164/164 161/161/161
f 165/165/165 164/164/164 163/163/163
f 165/165/165 166/166/166 164/164/164
f 167/167/167 169/169/169 168/168/168
f 167/167/167 168/168/168 170/170/170
f 170/170/170 168/168/168 171/171/171
f 170/170/170 171/171/171 172/172/172
f 172/172/172 171/171/171 173/173/173
f 172/172/172 173/173/173 174/174/174
f 174/174/174 173/173/173 175/175/175
f 174/174/174 175/175/175 176/176/176
f 177/177/177 179/179/179 178/178/178
f 177/177/177 178/178/178 180/180/180
f 180/180/180 178/178/178 181/181/181
f 180/180/180 181/181/181 182/182/182
f 182/182/182 181/181/181 183/183/183
f 182/182/182 183/183/183 184/184/184
f 185/185/185 187/187/187 186/186/186
f 185/185/185 186/186/186 188/188/188
f 188/188/188 186/186/186 189/189/189
f 188/188/188 189/189/189 190/190/190
f 190/190/190 189/189/189 191/191/191
f 190/190/190 191/191/191 192/192/192
f 192/192/192 191/191/191 193/193/193
f 192/192/192 193/193/193 194/194/194
f 195/195/195 197/197/197 196/196/196
f 196/196/196 197/197/197 198/198/198
f 198/198/198 197/197/197 199/199/199
f 198/198/198 199/199/199 200/200/200
f 200/200/200 199/199/199 201/201/201
f 200/200/200 201/201/201 202/202/202
f 202/202/202 201/201/201 203/203/203
f 203/203/203 201/201/201 204/204/204
f 204/204/204 201/201/201 205/205/205
f 204/204/204 205/205/205 206/206/206
f 206/206/206 205/205/205 207/207/207
f 207/207/207 205/205/205 208/208/208
f 208/208/208 205/205/205 209/209/209
f 209/209/209 205/205/205 201/201/201
f 209/209/209 201/201/201 199/199/199
f 208/208/208 209/209/209 210/210/210
f 210/210/210 209/209/209 211/211/211
f 211/211/211 209/209/209 199/199/199
f 211/211/211 199/199/199 197/197/197
f 210/210/210 211/211/211 212/212/212
f 212/212/212 211/211/211 213/213/213
f 213/213/213 211/211/211 214/214/214
f 214/214/214 211/211/211 197/197/197
f 214/214/214 197/197/197 195/195/195
