#Chair06Fabric.obj

v 17.6305 -1.165498 13.0055
v -17.6305 -1.165498 13.0055
v -16.798 2.701002 11.914
v -19.721 2.701002 10.989
v 16.798 2.701002 11.914
v 19.721 2.701002 10.989
v 21.2565 -1.165498 11.729
v -21.2565 -1.165498 11.729
v -16.798 2.701002 11.914
v -19.721 2.701002 10.989
v 19.721 2.701002 10.989
v 21.4415 2.701002 8.842999
v -21.4415 2.701002 8.842999
v 16.798 2.701002 11.914
v -21.978 2.701002 6.456499
v 21.978 2.701002 6.456499
v -22.7365 2.701002 -20.9605
v 22.7365 2.701002 -20.9605
v 21.7745 2.534502 -23.1065
v -21.7745 2.534502 -23.1065
v 17.982 2.201501 -25.456
v -17.982 2.201501 -25.456
v -12.876 1.720501 -26.8805
v 12.876 1.720501 -26.8805
v 19.721 2.701002 10.989
v 21.4415 2.701002 8.842999
v 23.2915 -1.165498 9.453499
v 21.978 2.701002 6.456499
v 24.05 -1.165498 6.105
v 22.7365 2.701002 -20.9605
v 24.05 -1.165498 -19.8505
v 21.7745 2.534502 -23.1065
v 22.4035 -1.165498 -23.4395
v 21.2565 -1.165498 11.729
v 21.7745 2.534502 -23.1065
v 18.4075 -1.165498 -26.4365
v 22.4035 -1.165498 -23.4395
v 17.982 2.201501 -25.456
v 12.876 1.720501 -26.8805
v 13.024 -1.165498 -27.6205
v -13.024 -1.165498 -27.6205
v -12.876 1.720501 -26.8805
v -18.4075 -1.165498 -26.4365
v -17.982 2.201501 -25.456
v -21.7745 2.534502 -23.1065
v -22.4035 -1.165498 -23.4395
v -19.721 2.701002 10.989
v -23.2915 -1.165498 9.453499
v -21.4415 2.701002 8.842999
v -21.978 2.701002 6.456499
v -24.05 -1.165498 6.105
v -22.7365 2.701002 -20.9605
v -24.05 -1.165498 -19.8505
v -21.7745 2.534502 -23.1065
v -22.4035 -1.165498 -23.4395
v -21.2565 -1.165498 11.729
v 23.606 37.37 26.7325
v 21.6265 40.4965 27.4355
v 21.164 40.626 24.309
v 22.7735 37.851 23.3655
v 24.05796 11.0492 15.68545
v 24.09822 11.0492 15.85979
v 24.124 10.286 16.0231
v 24.64335 11.0492 21.08986
v 24.7715 8.454499 20.5535
v 21.6265 40.4965 27.4355
v 18.5925 42.55 27.8425
v 21.164 40.626 24.309
v 18.1485 42.8275 24.938
v 13.912 43.697 28.046
v 13.838 43.882 25.2895
v -13.838 43.882 25.2895
v -13.912 43.697 28.046
v -18.1485 42.8275 24.938
v -18.5925 42.55 27.8425
v -21.6265 40.4965 27.4355
v -21.164 40.626 24.309
v 13.838 43.882 25.2895
v -13.838 43.882 25.2895
v 18.1485 42.8275 24.938
v -18.1485 42.8275 24.938
v 21.164 40.626 24.309
v -21.164 40.626 24.309
v -22.7735 37.851 23.3655
v 22.7735 37.851 23.3655
v -9.548796 10.42903 15.53268
v -24.56824 11.0492 15.68545
v -4.854024 10.42903 15.53268
v -8.029 8.621 15.577
v 9.548798 10.42903 15.53268
v 24.05796 11.0492 15.68545
v 8.029 8.621 15.577
v 24.124 10.286 16.0231
v -24.6605 10.286 16.20116
v -21.164 40.626 24.309
v -21.6265 40.4965 27.4355
v -22.7735 37.851 23.3655
v -23.606 37.37 26.7325
v -24.60803 11.0492 15.85979
v -25.13733 11.0492 21.08008
v -24.56824 11.0492 15.68545
v -24.6605 10.286 16.20116
v -25.3265 8.454499 20.5535
v -24.6605 10.286 16.20116
v -25.3265 8.454499 20.5535
v -8.029 8.621 15.577
v -8.029 6.7895 21.904
v 8.029 6.7895 21.904
v 8.029 8.621 15.577
v 24.124 10.286 16.0231
v 24.7715 8.454499 20.5535

vn 0.1696986 0.2940599 0.9406015
vn -0.1696987 0.2940598 0.9406014
vn -0.08582087 0.777702 0.6227475
vn -0.3322733 0.7789977 0.5317491
vn 0.08582091 0.7777016 0.6227479
vn 0.3322731 0.7789981 0.5317487
vn 0.5419226 0.3605107 0.7591784
vn -0.5419226 0.3605107 0.7591784
vn -0.08582087 0.777702 0.6227475
vn -0.3322733 0.7789977 0.5317491
vn 0.3322731 0.7789981 0.5317487
vn 0.5174382 0.8168822 0.2548751
vn -0.5174384 0.816882 0.2548752
vn 0.08582091 0.7777016 0.6227479
vn -0.5372205 0.8403436 0.0722269
vn 0.5372207 0.8403435 0.07222692
vn -0.6297743 0.7540393 -0.1865716
vn 0.6297745 0.7540392 -0.1865716
vn 0.518306 0.7052972 -0.4836472
vn -0.5183061 0.7052971 -0.4836473
vn 0.2272317 0.7389883 -0.6342413
vn -0.2272316 0.7389885 -0.6342412
vn -0.06694415 0.6580093 -0.7500282
vn 0.06694416 0.6580093 -0.7500282
vn 0.3322731 0.7789981 0.5317487
vn 0.5174382 0.8168822 0.2548751
vn 0.8065951 0.4381082 0.3968192
vn 0.5372207 0.8403435 0.07222692
vn 0.8843554 0.455395 0.1026201
vn 0.6297745 0.7540392 -0.1865716
vn 0.947072 0.274894 -0.1657947
vn 0.518306 0.7052972 -0.4836472
vn 0.7681684 0.1857328 -0.6127158
vn 0.5419226 0.3605107 0.7591784
vn 0.518306 0.7052972 -0.4836472
vn 0.3830635 0.2675955 -0.8841125
vn 0.7681684 0.1857328 -0.6127158
vn 0.2272317 0.7389883 -0.6342413
vn 0.06694416 0.6580093 -0.7500282
vn 0.105996 0.2520735 -0.9618856
vn -0.105996 0.2520734 -0.9618856
vn -0.06694415 0.6580093 -0.7500282
vn -0.3830635 0.2675955 -0.8841126
vn -0.2272316 0.7389885 -0.6342412
vn -0.5183061 0.7052971 -0.4836473
vn -0.7681684 0.1857329 -0.6127158
vn -0.3322733 0.7789977 0.5317491
vn -0.8065951 0.4381082 0.3968192
vn -0.5174384 0.816882 0.2548752
vn -0.5372205 0.8403436 0.0722269
vn -0.8843554 0.455395 0.1026201
vn -0.6297743 0.7540393 -0.1865716
vn -0.947072 0.274894 -0.1657947
vn -0.5183061 0.7052971 -0.4836473
vn -0.7681684 0.1857329 -0.6127158
vn -0.5419226 0.3605107 0.7591784
vn 0.9287037 0.3308509 -0.1674728
vn 0.7051412 0.7050779 -0.07510652
vn 0.4886989 0.6395441 -0.5934278
vn 0.6278995 0.3842645 -0.6768183
vn 0.5733705 -0.01122751 -0.8192192
vn 0.983412 0.0441523 -0.1759301
vn 0.6325656 -0.5258424 -0.5686391
vn 0.9922506 0.06319004 -0.1069847
vn 0.6932806 -0.6282547 -0.3530695
vn 0.7051412 0.7050779 -0.07510652
vn 0.4249457 0.9051466 0.01143538
vn 0.4886989 0.6395441 -0.5934278
vn 0.2838581 0.7839071 -0.5521905
vn 0.1224661 0.9904913 0.06268149
vn 0.08081516 0.8452861 -0.528167
vn -0.08081516 0.8452861 -0.5281669
vn -0.1224661 0.9904913 0.06268149
vn -0.2766503 0.7846982 -0.5547192
vn -0.4166238 0.9087845 0.02313761
vn -0.7159631 0.6941191 -0.07480324
vn -0.4966882 0.631219 -0.5957042
vn 0.08081516 0.8452861 -0.528167
vn -0.08081516 0.8452861 -0.5281669
vn 0.2838581 0.7839071 -0.5521905
vn -0.2766503 0.7846982 -0.5547192
vn 0.4886989 0.6395441 -0.5934278
vn -0.4966882 0.631219 -0.5957042
vn -0.6249064 0.3943559 -0.673777
vn 0.6278995 0.3842645 -0.6768183
vn -0.01591116 0.1064219 -0.9941937
vn -0.5571557 -0.08643251 -0.8258977
vn 0 0.1265232 -0.9919636
vn -0.03060794 -0.6174985 -0.7859763
vn 0.004180227 0.1208939 -0.9926566
vn 0.5733705 -0.01122751 -0.8192192
vn 0.03591277 -0.6224537 -0.7818323
vn 0.6325656 -0.5258424 -0.5686391
vn -0.6356403 -0.5437313 -0.5480126
vn -0.4966882 0.631219 -0.5957042
vn -0.7159631 0.6941191 -0.07480324
vn -0.6249064 0.3943559 -0.673777
vn -0.9228356 0.3453365 -0.1706372
vn -0.9818437 0.05197274 -0.1824332
vn -0.9912883 0.08511878 -0.1005095
vn -0.5571557 -0.08643251 -0.8258977
vn -0.6356403 -0.5437313 -0.5480126
vn -0.7106851 -0.6174123 -0.3372368
vn -0.6356403 -0.5437313 -0.5480126
vn -0.7106851 -0.6174123 -0.3372368
vn -0.03060794 -0.6174985 -0.7859763
vn -0.03413466 -0.9600046 -0.2778961
vn 0.04724137 -0.956558 -0.2876892
vn 0.03591277 -0.6224537 -0.7818323
vn 0.6325656 -0.5258424 -0.5686391
vn 0.6932806 -0.6282547 -0.3530695

vt 0.900391 0.994141
vt 0.537109 0.994141
vt 0.548828 0.953125
vt 0.519531 0.945312
vt 0.888672 0.953125
vt 0.917969 0.945312
vt 0.949219 0.974609
vt 0.488281 0.974609
vt 0.548828 0.953125
vt 0.519531 0.945312
vt 0.917969 0.945312
vt 0.933594 0.923828
vt 0.501953 0.923828
vt 0.888672 0.953125
vt 0.498047 0.900391
vt 0.939453 0.900391
vt 0.492188 0.625
vt 0.945313 0.625
vt 0.935547 0.605469
vt 0.5 0.605469
vt 0.898438 0.580078
vt 0.539063 0.580078
vt 0.589844 0.564453
vt 0.847656 0.564453
vt 0.917969 0.945312
vt 0.933594 0.923828
vt 0.976563 0.943359
vt 0.939453 0.900391
vt 0.984375 0.898437
vt 0.945313 0.625
vt 0.986328 0.632812
vt 0.935547 0.605469
vt 0.966797 0.582031
vt 0.949219 0.974609
vt 0.935547 0.605469
vt 0.914063 0.544922
vt 0.966797 0.582031
vt 0.898438 0.580078
vt 0.847656 0.564453
vt 0.849609 0.535156
vt 0.585938 0.535156
vt 0.589844 0.564453
vt 0.523438 0.544922
vt 0.539063 0.580078
vt 0.5 0.605469
vt 0.470703 0.582031
vt 0.519531 0.945312
vt 0.460938 0.943359
vt 0.501953 0.923828
vt 0.498047 0.900391
vt 0.453125 0.898437
vt 0.492188 0.625
vt 0.451172 0.632812
vt 0.5 0.605469
vt 0.470703 0.582031
vt 0.488281 0.974609
vt 0.019531 0.179687
vt 0.041016 0.136719
vt 0.064453 0.158203
vt 0.050781 0.185547
vt 0.0489235 0.4214648
vt 0.04736997 0.4209577
vt 0.048828 0.433594
vt 0.01605448 0.421321
vt 0.015625 0.451172
vt 0.041016 0.136719
vt 0.078125 0.111328
vt 0.064453 0.158203
vt 0.09375 0.136719
vt 0.130859 0.101562
vt 0.132813 0.126953
vt 0.386719 0.126953
vt 0.388672 0.101562
vt 0.425781 0.136719
vt 0.441406 0.111328
vt 0.476563 0.136719
vt 0.453125 0.158203
vt 0.132813 0.126953
vt 0.386719 0.126953
vt 0.09375 0.136719
vt 0.425781 0.136719
vt 0.064453 0.158203
vt 0.453125 0.158203
vt 0.46875 0.185547
vt 0.050781 0.185547
vt 0.3513794 0.4307994
vt 0.46875 0.4214648
vt 0.3082971 0.4307994
vt 0.337891 0.458984
vt 0.1681526 0.4307994
vt 0.0489235 0.4214648
vt 0.181641 0.458984
vt 0.048828 0.433594
vt 0.46875 0.433594
vt 0.453125 0.158203
vt 0.476563 0.136719
vt 0.46875 0.185547
vt 0.498047 0.179687
vt 0.470208 0.4209577
vt 0.5032618 0.421321
vt 0.46875 0.4214648
vt 0.46875 0.433594
vt 0.503906 0.451172
vt 0.46875 0.433594
vt 0.503906 0.451172
vt 0.337891 0.458984
vt 0.345703 0.5
vt 0.173828 0.5
vt 0.181641 0.458984
vt 0.048828 0.433594
vt 0.015625 0.451172

g Chair06Fabric.obj
usemtl Chair06Fabric
usemap Chair06Fabric
f 1/1/1 3/3/3 2/2/2
f 2/2/2 3/3/3 4/4/4
f 1/1/1 5/5/5 3/3/3
f 6/6/6 5/5/5 1/1/1
f 7/7/7 6/6/6 1/1/1
f 2/2/2 4/4/4 8/8/8
f 9/9/9 11/11/11 10/10/10
f 10/10/10 11/11/11 12/12/12
f 12/12/12 13/13/13 10/10/10
f 14/14/14 11/11/11 9/9/9
f 15/15/15 13/13/13 12/12/12
f 16/16/16 15/15/15 12/12/12
f 17/17/17 15/15/15 16/16/16
f 18/18/18 17/17/17 16/16/16
f 19/19/19 17/17/17 18/18/18
f 19/19/19 20/20/20 17/17/17
f 19/19/19 21/21/21 20/20/20
f 21/21/21 22/22/22 20/20/20
f 22/22/22 21/21/21 23/23/23
f 23/23/23 21/21/21 24/24/24
f 25/25/25 27/27/27 26/26/26
f 26/26/26 27/27/27 28/28/28
f 27/27/27 29/29/29 28/28/28
f 28/28/28 29/29/29 30/30/30
f 29/29/29 31/31/31 30/30/30
f 30/30/30 31/31/31 32/32/32
f 31/31/31 33/33/33 32/32/32
f 27/27/27 25/25/25 34/34/34
f 35/35/35 37/37/37 36/36/36
f 36/36/36 38/38/38 35/35/35
f 38/38/38 36/36/36 39/39/39
f 39/39/39 36/36/36 40/40/40
f 41/41/41 39/39/39 40/40/40
f 42/42/42 39/39/39 41/41/41
f 43/43/43 42/42/42 41/41/41
f 44/44/44 42/42/42 43/43/43
f 45/45/45 44/44/44 43/43/43
f 45/45/45 43/43/43 46/46/46
f 47/47/47 49/49/49 48/48/48
f 49/49/49 50/50/50 48/48/48
f 48/48/48 50/50/50 51/51/51
f 50/50/50 52/52/52 51/51/51
f 51/51/51 52/52/52 53/53/53
f 52/52/52 54/54/54 53/53/53
f 53/53/53 54/54/54 55/55/55
f 56/56/56 47/47/47 48/48/48
f 57/57/57 59/59/59 58/58/58
f 60/60/60 59/59/59 57/57/57
f 60/60/60 57/57/57 61/61/61
f 61/61/61 57/57/57 62/62/62
f 61/61/61 62/62/62 63/63/63
f 57/57/57 64/64/64 62/62/62
f 62/62/62 64/64/64 63/63/63
f 64/64/64 65/65/65 63/63/63
f 66/66/66 68/68/68 67/67/67
f 68/68/68 69/69/69 67/67/67
f 67/67/67 69/69/69 70/70/70
f 69/69/69 71/71/71 70/70/70
f 70/70/70 71/71/71 72/72/72
f 72/72/72 73/73/73 70/70/70
f 74/74/74 73/73/73 72/72/72
f 74/74/74 75/75/75 73/73/73
f 74/74/74 76/76/76 75/75/75
f 74/74/74 77/77/77 76/76/76
f 78/78/78 80/80/80 79/79/79
f 79/79/79 80/80/80 81/81/81
f 80/80/80 82/82/82 81/81/81
f 81/81/81 82/82/82 83/83/83
f 82/82/82 84/84/84 83/83/83
f 85/85/85 84/84/84 82/82/82
f 85/85/85 86/86/86 84/84/84
f 87/87/87 84/84/84 86/86/86
f 85/85/85 88/88/88 86/86/86
f 88/88/88 89/89/89 86/86/86
f 85/85/85 90/90/90 88/88/88
f 88/88/88 90/90/90 89/89/89
f 85/85/85 91/91/91 90/90/90
f 90/90/90 92/92/92 89/89/89
f 90/90/90 91/91/91 92/92/92
f 91/91/91 93/93/93 92/92/92
f 94/94/94 87/87/87 86/86/86
f 94/94/94 86/86/86 89/89/89
f 95/95/95 97/97/97 96/96/96
f 97/97/97 98/98/98 96/96/96
f 97/97/97 99/99/99 98/98/98
f 98/98/98 99/99/99 100/100/100
f 97/97/97 101/101/101 99/99/99
f 101/101/101 102/102/102 99/99/99
f 100/100/100 99/99/99 103/103/103
f 99/99/99 102/102/102 103/103/103
f 104/104/104 106/106/106 105/105/105
f 105/105/105 106/106/106 107/107/107
f 106/106/106 108/108/108 107/107/107
f 108/108/108 106/106/106 109/109/109
f 110/110/110 108/108/108 109/109/109
f 111/111/111 108/108/108 110/110/110
