#Clock2.obj

v -0.143752 0.143752 0.01835346
v 0.143752 -0.143752 0.01835346
v -0.143752 -0.143752 0.01835346
v 0.143752 0.143752 0.01835346
v -0.1604937 -0.143752 0.01912903
v -0.1604937 0.143752 0.01912903
v -0.1592193 0.1501588 0.01912903
v -0.1555901 0.1555901 0.01912903
v -0.1501588 0.1592193 0.01912903
v -0.143752 0.1604937 0.01912903
v -0.1592193 -0.1501588 0.01912903
v -0.1555901 -0.1555901 0.01912903
v -0.1501588 -0.1592193 0.01912903
v -0.143752 -0.1604937 0.01912903
v 0.143752 -0.1604937 0.01912903
v 0.1501588 -0.1592193 0.01912903
v 0.1555901 -0.1555901 0.01912903
v 0.1592193 -0.1501588 0.01912903
v 0.143752 0.1604937 0.01912903
v 0.1501588 0.1592193 0.01912903
v -0.1555901 0.1723318 0.01799502
v -0.143752 0.1746865 0.01799502
v -0.165626 0.165626 0.01799502
v -0.1723318 0.1555901 0.01799502
v -0.165626 -0.165626 0.01799502
v -0.1723318 -0.1555901 0.01799502
v -0.1746865 -0.143752 0.01799502
v -0.1746865 0.143752 0.01799502
v 0.143752 0.1746865 0.01799502
v 0.1555901 0.1723318 0.01799502
v 0.1555901 0.1555901 0.01912903
v 0.1592193 0.1501588 0.01912903
v 0.1604937 0.143752 0.01912903
v 0.1604937 -0.143752 0.01912903
v 0.1746865 -0.143752 0.01799502
v 0.1723318 -0.1555901 0.01799502
v 0.165626 -0.165626 0.01799502
v 0.1555901 -0.1723318 0.01799502
v 0.143752 -0.1746865 0.01799502
v -0.143752 -0.1746865 0.01799502
v -0.1555901 -0.1723318 0.01799502
v 0.1746865 0.143752 0.01799502
v -0.1592193 -0.1810933 -0.0005850539
v -0.1723318 -0.1723318 -0.0005850539
v -0.1810933 -0.1592193 -0.0005850539
v -0.1841699 -0.143752 -0.0005850539
v -0.1841699 0.143752 -0.0005850539
v -0.1810933 0.1592193 -0.0005850539
v -0.1723318 0.1723318 -0.0005850539
v -0.1592193 0.1810933 -0.0005850539
v -0.143752 0.1841699 -0.0005850539
v 0.143752 0.1841699 -0.0005850539
v 0.1592193 0.1810933 -0.0005850539
v 0.165626 0.165626 0.01799502
v 0.1723318 0.1555901 0.01799502
v 0.1810933 0.1592193 -0.0005850539
v 0.1841699 0.143752 -0.0005850539
v 0.1841699 -0.143752 -0.0005850539
v 0.1810933 -0.1592193 -0.0005850539
v 0.1723318 -0.1723318 -0.0005850539
v 0.1592193 -0.1810933 -0.0005850539
v 0.143752 -0.1841699 -0.0005850539
v -0.143752 -0.1841699 -0.0005850539
v 0.1723318 0.1723318 -0.0005850539

vn 0.01913197 -0.01913195 0.9996339
vn -0.01913214 0.01913216 0.9996339
vn 0.01913215 0.01913215 0.9996339
vn -0.01913196 -0.01913196 0.9996339
vn -0.02065138 -0.0024449 0.9997838
vn -0.02065133 0.002444918 0.9997838
vn -0.02271334 0.009408146 0.9996978
vn -0.01738411 0.01738415 0.9996978
vn -0.009408197 0.02271333 0.9996978
vn -0.002444898 0.02065131 0.9997838
vn -0.02271342 -0.009408231 0.9996978
vn -0.01738423 -0.01738419 0.9996978
vn -0.009408187 -0.02271343 0.9996978
vn -0.002444927 -0.02065139 0.9997838
vn 0.002444907 -0.02065138 0.9997838
vn 0.009408231 -0.02271342 0.9996978
vn 0.01738419 -0.01738423 0.9996978
vn 0.02271343 -0.009408187 0.9996978
vn 0.002444912 0.02065132 0.9997838
vn 0.009408146 0.02271334 0.9996978
vn -0.2277383 0.5498084 0.8036454
vn -0.05786583 0.5742318 0.8166452
vn -0.4208051 0.4208049 0.8036456
vn -0.5498084 0.2277384 0.8036454
vn -0.4208051 -0.4208052 0.8036454
vn -0.5498086 -0.2277384 0.8036453
vn -0.574232 -0.05786584 0.8166451
vn -0.5742317 0.05786575 0.8166453
vn 0.05786575 0.5742317 0.8166453
vn 0.2277384 0.5498084 0.8036454
vn 0.01738415 0.01738411 0.9996978
vn 0.02271333 0.009408197 0.9996978
vn 0.02065131 0.002444906 0.9997838
vn 0.02065138 -0.00244492 0.9997838
vn 0.5742319 -0.05786577 0.8166452
vn 0.5498086 -0.2277385 0.8036453
vn 0.4208052 -0.4208051 0.8036454
vn 0.2277384 -0.5498086 0.8036453
vn 0.05786584 -0.574232 0.8166451
vn -0.05786577 -0.5742319 0.8166452
vn -0.2277385 -0.5498086 0.8036453
vn 0.5742317 0.05786583 0.8166453
vn -0.3408523 -0.8228895 0.4546126
vn -0.6298123 -0.6298125 0.4546127
vn -0.8228896 -0.3408521 0.4546125
vn -0.8874646 -0.08501519 0.4529669
vn -0.8874646 0.08501513 0.4529668
vn -0.8228895 0.3408523 0.4546126
vn -0.6298125 0.6298123 0.4546127
vn -0.3408521 0.8228896 0.4546125
vn -0.08501519 0.8874646 0.4529669
vn 0.08501513 0.8874646 0.4529668
vn 0.3408523 0.8228895 0.4546126
vn 0.4208049 0.4208051 0.8036456
vn 0.5498084 0.2277383 0.8036454
vn 0.8228896 0.3408521 0.4546125
vn 0.8874646 0.08501519 0.4529669
vn 0.8874646 -0.08501513 0.4529668
vn 0.8228895 -0.3408523 0.4546126
vn 0.6298125 -0.6298123 0.4546127
vn 0.3408521 -0.8228896 0.4546125
vn 0.08501519 -0.8874646 0.4529669
vn -0.08501513 -0.8874646 0.4529668
vn 0.6298123 0.6298125 0.4546127

vt 0.1166613 0.1166613
vt 0.8833387 0.8833387
vt 0.1166613 0.8833387
vt 0.8833387 0.1166613
vt 0.07201692 0.8833387
vt 0.07201692 0.1166613
vt 0.07541529 0.09957659
vt 0.08509295 0.08509302
vt 0.09957665 0.07541531
vt 0.1166613 0.07201689
vt 0.07541529 0.9004233
vt 0.08509295 0.914907
vt 0.09957665 0.9245847
vt 0.1166613 0.927983
vt 0.8833387 0.927983
vt 0.9004234 0.9245847
vt 0.914907 0.914907
vt 0.9245847 0.9004233
vt 0.8833387 0.07201689
vt 0.9004234 0.07541531
vt 0.08509295 0.04044861
vt 0.1166613 0.03416926
vt 0.05833066 0.05833066
vt 0.04044864 0.08509302
vt 0.05833066 0.9416693
vt 0.04044864 0.914907
vt 0.03416931 0.8833387
vt 0.03416931 0.1166613
vt 0.8833387 0.03416926
vt 0.914907 0.04044861
vt 0.914907 0.08509302
vt 0.9245847 0.09957659
vt 0.9279831 0.1166613
vt 0.9279831 0.8833387
vt 0.9658307 0.8833387
vt 0.9595514 0.914907
vt 0.9416693 0.9416693
vt 0.914907 0.9595513
vt 0.8833387 0.9658307
vt 0.1166613 0.9658307
vt 0.08509295 0.9595513
vt 0.9658307 0.1166613
vt 0.07541529 0.9829153
vt 0.04044864 0.9595513
vt 0.01708467 0.9245847
vt 0.008880313 0.8833387
vt 0.008880313 0.1166613
vt 0.01708467 0.07541531
vt 0.04044864 0.04044861
vt 0.07541529 0.01708472
vt 0.1166613 0.008880258
vt 0.8833387 0.008880258
vt 0.9245847 0.01708472
vt 0.9416693 0.05833066
vt 0.9595514 0.08509302
vt 0.9829153 0.07541531
vt 0.9911197 0.1166613
vt 0.9911197 0.8833387
vt 0.9829153 0.9245847
vt 0.9595514 0.9595513
vt 0.9245847 0.9829153
vt 0.8833387 0.9911197
vt 0.1166613 0.9911197
vt 0.9595514 0.04044861

g Clock2.obj
usemtl Clock2
usemap Clock2
f 1/1/1 3/3/3 2/2/2
f 1/1/1 2/2/2 4/4/4
f 1/1/1 5/5/5 3/3/3
f 1/1/1 6/6/6 5/5/5
f 1/1/1 7/7/7 6/6/6
f 1/1/1 8/8/8 7/7/7
f 1/1/1 9/9/9 8/8/8
f 1/1/1 10/10/10 9/9/9
f 4/4/4 10/10/10 1/1/1
f 3/3/3 5/5/5 11/11/11
f 3/3/3 11/11/11 12/12/12
f 3/3/3 12/12/12 13/13/13
f 3/3/3 13/13/13 14/14/14
f 3/3/3 14/14/14 15/15/15
f 3/3/3 15/15/15 2/2/2
f 2/2/2 15/15/15 16/16/16
f 2/2/2 16/16/16 17/17/17
f 2/2/2 17/17/17 18/18/18
f 4/4/4 19/19/19 10/10/10
f 4/4/4 20/20/20 19/19/19
f 10/10/10 21/21/21 9/9/9
f 10/10/10 22/22/22 21/21/21
f 19/19/19 22/22/22 10/10/10
f 9/9/9 21/21/21 23/23/23
f 9/9/9 23/23/23 8/8/8
f 8/8/8 23/23/23 24/24/24
f 11/11/11 25/25/25 12/12/12
f 11/11/11 26/26/26 25/25/25
f 5/5/5 26/26/26 11/11/11
f 5/5/5 27/27/27 26/26/26
f 6/6/6 27/27/27 5/5/5
f 6/6/6 28/28/28 27/27/27
f 7/7/7 24/24/24 28/28/28
f 7/7/7 28/28/28 6/6/6
f 8/8/8 24/24/24 7/7/7
f 20/20/20 29/29/29 19/19/19
f 19/19/19 29/29/29 22/22/22
f 20/20/20 30/30/30 29/29/29
f 31/31/31 30/30/30 20/20/20
f 4/4/4 31/31/31 20/20/20
f 4/4/4 32/32/32 31/31/31
f 4/4/4 33/33/33 32/32/32
f 2/2/2 33/33/33 4/4/4
f 2/2/2 34/34/34 33/33/33
f 2/2/2 18/18/18 34/34/34
f 18/18/18 35/35/35 34/34/34
f 18/18/18 36/36/36 35/35/35
f 17/17/17 36/36/36 18/18/18
f 17/17/17 37/37/37 36/36/36
f 16/16/16 37/37/37 17/17/17
f 16/16/16 38/38/38 37/37/37
f 15/15/15 38/38/38 16/16/16
f 15/15/15 39/39/39 38/38/38
f 14/14/14 39/39/39 15/15/15
f 14/14/14 40/40/40 39/39/39
f 13/13/13 40/40/40 14/14/14
f 13/13/13 41/41/41 40/40/40
f 12/12/12 41/41/41 13/13/13
f 12/12/12 25/25/25 41/41/41
f 34/34/34 35/35/35 42/42/42
f 25/25/25 43/43/43 41/41/41
f 25/25/25 44/44/44 43/43/43
f 26/26/26 44/44/44 25/25/25
f 26/26/26 45/45/45 44/44/44
f 27/27/27 45/45/45 26/26/26
f 27/27/27 46/46/46 45/45/45
f 28/28/28 46/46/46 27/27/27
f 28/28/28 47/47/47 46/46/46
f 24/24/24 47/47/47 28/28/28
f 24/24/24 48/48/48 47/47/47
f 23/23/23 48/48/48 24/24/24
f 23/23/23 49/49/49 48/48/48
f 21/21/21 49/49/49 23/23/23
f 21/21/21 50/50/50 49/49/49
f 22/22/22 50/50/50 21/21/21
f 22/22/22 51/51/51 50/50/50
f 29/29/29 51/51/51 22/22/22
f 29/29/29 52/52/52 51/51/51
f 30/30/30 52/52/52 29/29/29
f 30/30/30 53/53/53 52/52/52
f 54/54/54 53/53/53 30/30/30
f 31/31/31 54/54/54 30/30/30
f 32/32/32 54/54/54 31/31/31
f 32/32/32 55/55/55 54/54/54
f 33/33/33 55/55/55 32/32/32
f 33/33/33 42/42/42 55/55/55
f 34/34/34 42/42/42 33/33/33
f 42/42/42 56/56/56 55/55/55
f 42/42/42 57/57/57 56/56/56
f 35/35/35 57/57/57 42/42/42
f 35/35/35 58/58/58 57/57/57
f 36/36/36 58/58/58 35/35/35
f 36/36/36 59/59/59 58/58/58
f 37/37/37 59/59/59 36/36/36
f 37/37/37 60/60/60 59/59/59
f 38/38/38 60/60/60 37/37/37
f 38/38/38 61/61/61 60/60/60
f 39/39/39 61/61/61 38/38/38
f 39/39/39 62/62/62 61/61/61
f 40/40/40 62/62/62 39/39/39
f 40/40/40 63/63/63 62/62/62
f 41/41/41 63/63/63 40/40/40
f 41/41/41 43/43/43 63/63/63
f 55/55/55 56/56/56 64/64/64
f 55/55/55 64/64/64 54/54/54
f 54/54/54 64/64/64 53/53/53
