#ctolbik4.bmp.obj

v 0.04622799 -0.14859 0.01981187
v 0.04622799 0.2115819 0.01981178
v 0.04978397 -0.14859 0.0005079148
v 0.04978397 0.2115819 0.0005078178
v 0.03555994 0.2115819 0.03555984
v 0.03555994 -0.14859 0.03555994
v 0.01930396 0.2115819 0.04673581
v 0.01930396 -0.14859 0.04673591
v 0.06095994 -0.1973579 0.02590801
v 0.046736 -0.1973579 0.046736
v 0.02590792 -0.1973579 0.06096004
v 0.04978397 -0.14859 0.0005079148
v 0.04978397 0.2115819 0.0005078178
v 0.04622799 -0.14859 -0.01828813
v 0.04622799 0.2115819 -0.01828822
v 0.03555994 -0.14859 -0.03454411
v 0.03555994 0.2115819 -0.03454421
v 0.06095994 -0.197358 -0.02438398
v 0.046736 -0.197358 -0.04521197
v 0.06095994 -0.1973579 0.02590801
v 0.06603996 -0.1973579 0.0005080116
v 0.06095994 -0.197358 -0.02438398
v 0.03555994 -0.14859 -0.03454411
v 0.03555994 0.2115819 -0.03454421
v 0.01930396 -0.14859 -0.04521206
v 0.01930396 0.2115819 -0.04521216
v 0.001015926 -0.14859 -0.04876795
v 0.001015926 0.2115819 -0.04927616
v -0.01778002 -0.14859 -0.04521206
v -0.01778002 0.2115819 -0.04521216
v -0.034036 -0.14859 -0.03454411
v -0.034036 0.2115819 -0.03454421
v -0.02438407 -0.197358 -0.059436
v -0.04521206 -0.197358 -0.04521197
v 0.001015926 -0.197358 -0.06451602
v 0.02590792 -0.197358 -0.059436
v 0.046736 -0.197358 -0.04521197
v -0.034036 -0.14859 -0.03454411
v -0.034036 0.2115819 -0.03454421
v -0.04419604 -0.14859 -0.01828813
v -0.04419604 0.2115819 -0.01828822
v -0.059436 -0.197358 -0.02438398
v -0.04521206 -0.197358 -0.04521197
v -0.06451602 -0.1973579 0.0005080116
v -0.04826004 -0.14859 0.0005079148
v -0.04419604 -0.14859 -0.01828813
v -0.04419604 0.2115819 -0.01828822
v -0.04826004 -0.14859 0.0005079148
v -0.04826004 0.2115819 0.0005078178
v -0.04419604 -0.14859 0.01981187
v -0.04419604 0.2115819 0.01981178
v -0.059436 -0.1973579 0.02590801
v -0.059436 -0.197358 -0.02438398
v -0.059436 -0.1973579 0.02590801
v -0.06451602 -0.1973579 0.0005080116
v -0.04521206 -0.1973579 0.046736
v -0.034036 -0.14859 0.03555994
v -0.04419604 -0.14859 0.01981187
v -0.04419604 0.2115819 0.01981178
v -0.034036 0.2115819 0.03555984
v -0.034036 -0.14859 0.03555994
v -0.034036 0.2115819 0.03555984
v -0.01778002 -0.14859 0.04673591
v -0.01778002 0.2115819 0.04673581
v 0.001015926 -0.14859 0.05029189
v 0.001015926 0.2115819 0.04978378
v 0.01930396 -0.14859 0.04673591
v 0.01930396 0.2115819 0.04673581
v 0.02590792 -0.1973579 0.06096004
v 0.001015926 -0.1973579 0.06603996
v -0.02438407 -0.1973579 0.06096004
v -0.04521206 -0.1973579 0.046736
v 0.08077191 -0.187198 0.08077201
v 0.105156 -0.187198 0.04368803
v 0.105156 -0.2115819 0.04368803
v 0.1143 -0.187198 0
v 0.1143 -0.2115819 0
v 0.08077191 -0.2115819 0.08077201
v 0.04368793 -0.2115819 0.105664
v 0.04368793 -0.187198 0.105664
v 0 -0.187198 0.1143
v 0 -0.2115819 0.1143
v 0.1143 -0.187198 0
v 0.105156 -0.2115819 -0.04368803
v 0.1143 -0.2115819 0
v 0.105156 -0.187198 -0.04368803
v 0.08077191 -0.187198 -0.08077201
v 0.08077191 -0.2115819 -0.08077201
v 0.04368793 -0.2115819 -0.105664
v 0.04368793 -0.187198 -0.105664
v 0 -0.187198 -0.1143
v 0 -0.2115819 -0.1143
v -0.04368803 -0.2115819 -0.105664
v -0.04368803 -0.187198 -0.105664
v 0 -0.2115819 0.1143
v -0.04368803 -0.2115819 0.105664
v 0 -0.187198 0.1143
v -0.04368803 -0.187198 0.105664
v -0.08077201 -0.187198 0.08077201
v -0.08077201 -0.2115819 0.08077201
v -0.105664 -0.2115819 0.04368803
v -0.105664 -0.187198 0.04368803
v -0.105664 -0.2115819 0.04368803
v -0.1143 -0.187198 0
v -0.105664 -0.187198 0.04368803
v -0.1143 -0.2115819 0
v -0.105664 -0.2115819 -0.04368803
v -0.105664 -0.187198 -0.04368803
v -0.105664 -0.2115819 -0.04368803
v -0.08077201 -0.187198 -0.08077201
v -0.105664 -0.187198 -0.04368803
v -0.08077201 -0.2115819 -0.08077201
v -0.04368803 -0.2115819 -0.105664
v -0.04368803 -0.187198 -0.105664

vn 0.9133829 0.1606187 0.3740766
vn 0.9253688 0 0.379068
vn 0.9870142 0.1606159 -0.002333618
vn 0.9999971 0 -0.002405084
vn 0.7095339 0 0.7046714
vn 0.7001819 0.1590402 0.6960255
vn 0.3743694 0 0.9272796
vn 0.38101 0.1583283 0.9109136
vn 0.87647 0.3122936 0.3664331
vn 0.6726621 0.3083054 0.6726615
vn 0.3713051 0.3075965 0.8760805
vn 0.9870142 0.1606159 -0.002333618
vn 0.9999971 0 -0.002405084
vn 0.9152727 0.1604551 -0.3694997
vn 0.9272227 0 -0.3745103
vn 0.6977724 0.1590792 -0.6984323
vn 0.7071053 0 -0.7071083
vn 0.8769578 0.3101697 -0.3670692
vn 0.6746332 0.3019458 -0.6735716
vn 0.87647 0.3122936 0.3664331
vn 0.9486818 0.3162273 -0.001790742
vn 0.8769578 0.3101697 -0.3670692
vn 0.6977724 0.1590792 -0.6984323
vn 0.7071053 0 -0.7071083
vn 0.3712616 0.1577458 -0.9150307
vn 0.388749 -0.0006772918 -0.9213434
vn 0.002669637 0.1563774 -0.9876938
vn 0.003302722 -0.0007290926 -0.9999943
vn -0.3691048 0.1574282 -0.9159574
vn -0.3865122 0 -0.9222844
vn -0.7041801 0.1612359 -0.6914718
vn -0.7148957 0 -0.6992312
vn -0.36781 0.3048034 -0.8785275
vn -0.6746339 0.3019458 -0.6735709
vn 0.001797531 0.3072928 -0.9516134
vn 0.3696034 0.3046516 -0.8778272
vn 0.6746332 0.3019458 -0.6735716
vn -0.7041801 0.1612359 -0.6914718
vn -0.7148957 0 -0.6992312
vn -0.9138498 0.1645123 -0.3712335
vn -0.9265091 0 -0.3762722
vn -0.8763801 0.312095 -0.366817
vn -0.6746339 0.3019458 -0.6735709
vn -0.9486818 0.3162273 -0.001790722
vn -0.9861925 0.1655821 -0.002639193
vn -0.9138498 0.1645123 -0.3712335
vn -0.9265091 0 -0.3762722
vn -0.9861925 0.1655821 -0.002639193
vn -0.9999963 0 -0.002720592
vn -0.9121245 0.1646768 0.3753803
vn -0.9248211 0 0.3804023
vn -0.8758929 0.314217 0.3661686
vn -0.8763801 0.312095 -0.366817
vn -0.8758929 0.314217 0.3661686
vn -0.9486818 0.3162273 -0.001790722
vn -0.6726629 0.3083054 0.6726608
vn -0.7066681 0.1611837 0.6889412
vn -0.9121245 0.1646768 0.3753803
vn -0.9248211 0 0.3804023
vn -0.7173968 0 0.6966649
vn -0.7066681 0.1611837 0.6889412
vn -0.7173968 0 0.6966649
vn -0.3788628 0.1580146 0.9118631
vn -0.3727461 0.000689544 0.9279331
vn 0.002668998 0.1570987 0.9875793
vn 0.002635504 0.000728887 0.9999963
vn 0.38101 0.1583283 0.9109136
vn 0.3743694 0 0.9272796
vn 0.3713051 0.3075965 0.8760805
vn 0.001797518 0.3072934 0.9516132
vn -0.3695136 0.3077518 0.8767831
vn -0.6726629 0.3083054 0.6726608
vn 0.7104583 0 0.7037393
vn 0.9233848 0 0.3838754
vn 0.9233848 0 0.3838754
vn 1 0 0
vn 1 0 0
vn 0.7104583 0 0.7037393
vn 0.3831076 0 0.9237037
vn 0.3831074 0 0.9237038
vn 0 0 1
vn 0 0 1
vn 1 0 0
vn 0.9233848 0 -0.3838754
vn 1 0 0
vn 0.9233848 0 -0.3838754
vn 0.7104583 0 -0.7037394
vn 0.7104583 0 -0.7037393
vn 0.3831074 0 -0.9237038
vn 0.3831074 0 -0.9237038
vn 0 0 -1
vn 0 0 -1
vn -0.3831072 0 -0.9237039
vn -0.3831072 0 -0.9237038
vn 0 0 1
vn -0.3831073 0 0.9237038
vn 0 0 1
vn -0.3831072 0 0.9237038
vn -0.7071067 0 0.7071068
vn -0.7071068 0 0.7071068
vn -0.9237039 0 0.3831072
vn -0.9237038 0 0.3831072
vn -0.9237039 0 0.3831072
vn -1 0 0
vn -0.9237038 0 0.3831072
vn -1 0 0
vn -0.9237038 0 -0.3831072
vn -0.9237038 0 -0.3831072
vn -0.9237038 0 -0.3831072
vn -0.7071068 0 -0.7071067
vn -0.9237038 0 -0.3831072
vn -0.7071068 0 -0.7071068
vn -0.3831072 0 -0.9237039
vn -0.3831072 0 -0.9237038

vt 0.6 0.847656
vt 0.6 0
vt 0.625 0.847656
vt 0.625 0
vt 0.55 0
vt 0.55 0.847656
vt 0.5 0
vt 0.5 0.847656
vt 0.675 0.964844
vt 0.6 0.964844
vt 0.525 0.964844
vt 0.625 0.847656
vt 0.625 0
vt 0.6 0.847656
vt 0.6 0
vt 0.55 0.847656
vt 0.55 0
vt 0.675 0.964844
vt 0.6 0.964844
vt 0.675 0.964844
vt 0.675 0.964844
vt 0.675 0.964844
vt 0.55 0.847656
vt 0.55 0
vt 0.5 0.847656
vt 0.5 0
vt 0.425 0.847656
vt 0.425 0
vt 0.35 0.847656
vt 0.35 0
vt 0.275 0.847656
vt 0.275 0
vt 0.325 0.964844
vt 0.225 0.964844
vt 0.425 0.964844
vt 0.525 0.964844
vt 0.6 0.964844
vt 0.275 0.847656
vt 0.275 0
vt 0.225 0.847656
vt 0.225 0
vt 0.175 0.964844
vt 0.225 0.964844
vt 0.15 0.964844
vt 0.225 0.847656
vt 0.225 0.847656
vt 0.225 0
vt 0.225 0.847656
vt 0.225 0
vt 0.225 0.847656
vt 0.225 0
vt 0.175 0.964844
vt 0.175 0.964844
vt 0.175 0.964844
vt 0.15 0.964844
vt 0.225 0.964844
vt 0.275 0.847656
vt 0.225 0.847656
vt 0.225 0
vt 0.275 0
vt 0.275 0.847656
vt 0.275 0
vt 0.35 0.847656
vt 0.35 0
vt 0.425 0.847656
vt 0.425 0
vt 0.5 0.847656
vt 0.5 0
vt 0.525 0.964844
vt 0.425 0.964844
vt 0.325 0.964844
vt 0.225 0.964844
vt 0.75 0.941406
vt 0.85 0.941406
vt 0.85 0.996094
vt 0.9 0.941406
vt 0.9 0.996094
vt 0.75 0.996094
vt 0.6 0.996094
vt 0.6 0.941406
vt 0.425 0.941406
vt 0.425 0.996094
vt 0.9 0.941406
vt 0.85 0.996094
vt 0.9 0.996094
vt 0.85 0.941406
vt 0.75 0.941406
vt 0.75 0.996094
vt 0.6 0.996094
vt 0.6 0.941406
vt 0.425 0.941406
vt 0.425 0.996094
vt 0.225 0.996094
vt 0.225 0.941406
vt 0.425 0.996094
vt 0.225 0.996094
vt 0.425 0.941406
vt 0.225 0.941406
vt 0.075 0.941406
vt 0.075 0.996094
vt 0 0.996094
vt 0 0.941406
vt 0 0.996094
vt 0 0.941406
vt 0 0.941406
vt 0 0.996094
vt 0 0.996094
vt 0 0.941406
vt 0 0.996094
vt 0.075 0.941406
vt 0 0.941406
vt 0.075 0.996094
vt 0.225 0.996094
vt 0.225 0.941406

g ctolbik4.bmp.obj
usemtl ctolbik4.bmp
usemap ctolbik4.bmp
f 1/1/1 3/3/3 2/2/2
f 2/2/2 3/3/3 4/4/4
f 5/5/5 1/1/1 2/2/2
f 6/6/6 1/1/1 5/5/5
f 7/7/7 6/6/6 5/5/5
f 8/8/8 6/6/6 7/7/7
f 6/6/6 9/9/9 1/1/1
f 1/1/1 9/9/9 3/3/3
f 9/9/9 6/6/6 10/10/10
f 10/10/10 6/6/6 11/11/11
f 6/6/6 8/8/8 11/11/11
f 12/12/12 14/14/14 13/13/13
f 13/13/13 14/14/14 15/15/15
f 14/14/14 16/16/16 15/15/15
f 15/15/15 16/16/16 17/17/17
f 16/16/16 14/14/14 18/18/18
f 18/18/18 14/14/14 12/12/12
f 19/19/19 16/16/16 18/18/18
f 20/20/20 21/21/21 12/12/12
f 12/12/12 21/21/21 22/22/22
f 23/23/23 25/25/25 24/24/24
f 24/24/24 25/25/25 26/26/26
f 25/25/25 27/27/27 26/26/26
f 26/26/26 27/27/27 28/28/28
f 27/27/27 29/29/29 28/28/28
f 28/28/28 29/29/29 30/30/30
f 29/29/29 31/31/31 30/30/30
f 30/30/30 31/31/31 32/32/32
f 31/31/31 29/29/29 33/33/33
f 33/33/33 29/29/29 27/27/27
f 34/34/34 31/31/31 33/33/33
f 33/33/33 27/27/27 35/35/35
f 35/35/35 27/27/27 36/36/36
f 27/27/27 25/25/25 36/36/36
f 36/36/36 25/25/25 23/23/23
f 36/36/36 23/23/23 37/37/37
f 38/38/38 40/40/40 39/39/39
f 39/39/39 40/40/40 41/41/41
f 42/42/42 40/40/40 38/38/38
f 42/42/42 38/38/38 43/43/43
f 44/44/44 45/45/45 42/42/42
f 46/46/46 48/48/48 47/47/47
f 47/47/47 48/48/48 49/49/49
f 48/48/48 50/50/50 49/49/49
f 49/49/49 50/50/50 51/51/51
f 52/52/52 50/50/50 48/48/48
f 48/48/48 46/46/46 53/53/53
f 54/54/54 48/48/48 55/55/55
f 56/56/56 57/57/57 54/54/54
f 57/57/57 58/58/58 54/54/54
f 58/58/58 57/57/57 59/59/59
f 59/59/59 57/57/57 60/60/60
f 61/61/61 63/63/63 62/62/62
f 62/62/62 63/63/63 64/64/64
f 63/63/63 65/65/65 64/64/64
f 64/64/64 65/65/65 66/66/66
f 65/65/65 67/67/67 66/66/66
f 66/66/66 67/67/67 68/68/68
f 69/69/69 67/67/67 65/65/65
f 69/69/69 65/65/65 70/70/70
f 70/70/70 65/65/65 71/71/71
f 65/65/65 63/63/63 71/71/71
f 71/71/71 63/63/63 61/61/61
f 71/71/71 61/61/61 72/72/72
f 73/73/73 75/75/75 74/74/74
f 74/74/74 75/75/75 76/76/76
f 75/75/75 77/77/77 76/76/76
f 75/75/75 73/73/73 78/78/78
f 78/78/78 73/73/73 79/79/79
f 73/73/73 80/80/80 79/79/79
f 79/79/79 80/80/80 81/81/81
f 79/79/79 81/81/81 82/82/82
f 83/83/83 85/85/85 84/84/84
f 84/84/84 86/86/86 83/83/83
f 87/87/87 86/86/86 84/84/84
f 88/88/88 87/87/87 84/84/84
f 89/89/89 87/87/87 88/88/88
f 89/89/89 90/90/90 87/87/87
f 91/91/91 90/90/90 89/89/89
f 92/92/92 91/91/91 89/89/89
f 93/93/93 91/91/91 92/92/92
f 93/93/93 94/94/94 91/91/91
f 95/95/95 97/97/97 96/96/96
f 97/97/97 98/98/98 96/96/96
f 96/96/96 98/98/98 99/99/99
f 96/96/96 99/99/99 100/100/100
f 100/100/100 99/99/99 101/101/101
f 99/99/99 102/102/102 101/101/101
f 103/103/103 105/105/105 104/104/104
f 103/103/103 104/104/104 106/106/106
f 106/106/106 104/104/104 107/107/107
f 104/104/104 108/108/108 107/107/107
f 109/109/109 111/111/111 110/110/110
f 109/109/109 110/110/110 112/112/112
f 112/112/112 110/110/110 113/113/113
f 110/110/110 114/114/114 113/113/113
