#door02_glass.obj

v -0.2273077 4.69002 0.08805764
v -0.2273077 2.611202 0.08805764
v -1.899181 2.611202 0.08805764
v -1.899181 4.69002 0.08805764
v -0.2273077 2.611202 0.02172503
v -0.2273077 4.69002 0.02172503
v -1.899181 4.69002 0.02172503
v -1.899181 2.611202 0.02172503

vn 0 0 1
vn 0 0 1
vn 0 0 1
vn 0 0 1
vn 0 0 -1
vn 0 0 -1
vn 0 0 -1
vn 0 0 -1

vt 0.6023957 0.09424508
vt 0.6023957 0.4990139
vt 0.9263079 0.4990139
vt 0.9263079 0.09424508
vt 0.6024267 0.4990287
vt 0.6024267 0.0942601
vt 0.926339 0.0942601
vt 0.926339 0.4990287

g door02_glass.obj
usemtl door02_glass
usemap door02_glass
f 1/1/1 3/3/3 2/2/2
f 1/1/1 4/4/4 3/3/3
f 5/5/5 7/7/7 6/6/6
f 5/5/5 8/8/8 7/7/7
