#door02_frame.obj

v 2.292177 5.025966 0.1569831
v 2.292177 5.195532 -0.1606917
v 2.292177 5.025966 -0.1606917
v 2.292177 5.195532 0.1569831
v 2.292177 5.025966 0.1569831
v 2.129707 -1.637497E-05 0.1569831
v 2.129707 5.025966 0.1569831
v 2.292177 -1.637497E-05 0.1569831
v 2.292177 5.025966 -0.1606917
v 2.292177 -1.637497E-05 0.1569831
v 2.292177 5.025966 0.1569831
v 2.292177 -1.637497E-05 -0.1606917
v 2.129707 5.025966 -0.1606917
v 2.292177 -1.637497E-05 -0.1606917
v 2.292177 5.025966 -0.1606917
v 2.129707 -1.637497E-05 -0.1606917
v 2.129707 5.025966 0.1569831
v 2.129707 -1.637497E-05 -0.1606917
v 2.129707 5.025966 -0.1606917
v 2.129707 -1.637497E-05 0.1569831
v 2.129707 -1.637497E-05 -0.1606917
v 2.292177 -1.637497E-05 0.1569831
v 2.292177 -1.637497E-05 -0.1606917
v 2.129707 -1.637497E-05 0.1569831
v 2.129707 5.025966 0.1569831
v 2.292177 5.195532 0.1569831
v 2.292177 5.025966 0.1569831
v -2.292177 5.195532 0.1569831
v -2.129707 5.025966 0.1569831
v -2.292177 5.025966 0.1569831
v 2.292177 5.025966 -0.1606917
v 2.292177 5.195532 -0.1606917
v 2.129707 5.025966 -0.1606917
v -2.129707 5.025966 -0.1606917
v -2.292177 5.195532 -0.1606917
v -2.292177 5.025966 -0.1606917
v -2.292177 5.195532 0.1569831
v -2.292177 5.025966 -0.1606917
v -2.292177 5.195532 -0.1606917
v -2.292177 5.025966 0.1569831
v -2.292177 -1.637497E-05 0.1569831
v -2.129707 5.025966 0.1569831
v -2.129707 -1.637497E-05 0.1569831
v -2.292177 5.025966 0.1569831
v -2.292177 -1.637497E-05 -0.1606917
v -2.292177 5.025966 0.1569831
v -2.292177 -1.637497E-05 0.1569831
v -2.292177 5.025966 -0.1606917
v -2.129707 -1.637497E-05 -0.1606917
v -2.292177 5.025966 -0.1606917
v -2.292177 -1.637497E-05 -0.1606917
v -2.129707 5.025966 -0.1606917
v -2.129707 -1.637497E-05 0.1569831
v -2.129707 5.025966 -0.1606917
v -2.129707 -1.637497E-05 -0.1606917
v -2.129707 5.025966 0.1569831
v -2.129707 -1.637497E-05 0.1569831
v -2.292177 -1.637497E-05 -0.1606917
v -2.292177 -1.637497E-05 0.1569831
v -2.129707 -1.637497E-05 -0.1606917
v -2.129707 5.025966 0.1569831
v 2.129707 5.025966 -0.1606917
v -2.129707 5.025966 -0.1606917
v 2.129707 5.025966 0.1569831
v -2.292177 5.195532 -0.1606917
v 2.292177 5.195532 0.1569831
v -2.292177 5.195532 0.1569831
v 2.292177 5.195532 -0.1606917
v -2.143216 0.08983871 0.1447992
v 2.143216 -1.637497E-05 0.1447992
v -2.143216 -1.637497E-05 0.1447992
v 2.143216 0.08983871 0.1447992
v -2.143216 0.08983871 -0.1485078
v 2.143216 0.08983871 0.1447992
v -2.143216 0.08983871 0.1447992
v 2.143216 0.08983871 -0.1485078
v -2.143216 -1.637497E-05 -0.1485078
v 2.143216 0.08983871 -0.1485078
v -2.143216 0.08983871 -0.1485078
v 2.143216 -1.637497E-05 -0.1485078
v -2.129162 5.029592 -0.001569826
v -2.129162 0.08549827 -0.001569826
v -1.890167 2.619963 -0.001569826
v -1.890167 4.682022 -0.001569826
v 0 0.08549827 -0.001569826
v -0.2389957 2.619963 -0.001569826
v 0 5.029592 -0.001569826
v -0.2389957 4.682022 -0.001569826
v -2.129162 5.029592 0.1181069
v -2.129162 0.08549827 0.1181069
v -2.129162 0.08549827 -0.001569826
v -2.129162 5.029592 -0.001569826
v -1.890167 4.682022 0.1181069
v -1.890167 2.619963 0.1181069
v -2.129162 0.08549827 0.1181069
v -2.129162 5.029592 0.1181069
v -0.2389957 2.619963 0.1181069
v 0 0.08549827 0.1181069
v -0.2389957 4.682022 0.1181069
v 0 5.029592 0.1181069
v 0 0.08549827 -0.001569826
v 0 0.08549827 0.1181069
v 0 5.029592 0.1181069
v 0 5.029592 -0.001569826
v 0 0.08549827 0.1181069
v 0 0.08549827 -0.001569826
v -2.129162 0.08549827 -0.001569826
v -2.129162 0.08549827 0.1181069
v 0 5.029592 -0.001569826
v 0 5.029592 0.1181069
v -2.129162 5.029592 0.1181069
v -2.129162 5.029592 -0.001569826
v -1.890167 2.619963 0.1181069
v -1.890167 4.682022 0.1181069
v -1.890167 4.682022 -0.001569826
v -1.890167 2.619963 -0.001569826
v -0.2389957 2.619963 0.1181069
v -1.890167 2.619963 0.1181069
v -1.890167 2.619963 -0.001569826
v -0.2389957 2.619963 -0.001569826
v -0.2389957 4.682022 0.1181069
v -0.2389957 2.619963 0.1181069
v -0.2389957 2.619963 -0.001569826
v -0.2389957 4.682022 -0.001569826
v -1.890167 4.682022 0.1181069
v -0.2389957 4.682022 0.1181069
v -0.2389957 4.682022 -0.001569826
v -1.890167 4.682022 -0.001569826
v -2.110525 4.253262 0.138435
v -2.127114 4.253262 0.138435
v -2.127114 4.455039 0.138435
v -2.110525 4.455039 0.138435
v -2.127114 4.253262 0.138435
v -2.135405 4.253262 0.1240728
v -2.135405 4.455039 0.1240728
v -2.127114 4.455039 0.138435
v -2.132241 4.455039 0.1097106
v -2.132241 4.253263 0.1097106
v -2.132241 4.253263 0.03339815
v -2.110525 4.253263 0.03339815
v -2.110525 4.455039 0.03339814
v -2.132241 4.455039 0.03339814
v -2.110525 4.253262 0.1097106
v -2.102234 4.253262 0.1240728
v -2.102234 4.455039 0.1240728
v -2.110525 4.455039 0.1097106
v -2.102234 4.253262 0.1240728
v -2.110525 4.253262 0.138435
v -2.110525 4.455039 0.138435
v -2.102234 4.455039 0.1240728
v -2.110525 4.253262 0.138435
v -2.102234 4.253262 0.1240728
v -2.135405 4.253262 0.1240728
v -2.127114 4.253262 0.138435
v -2.110525 4.253262 0.1097106
v -2.132241 4.253263 0.1097106
v -2.135405 4.455039 0.1240728
v -2.102234 4.455039 0.1240728
v -2.110525 4.455039 0.138435
v -2.127114 4.455039 0.138435
v -2.110525 4.455039 0.1097106
v -2.132241 4.455039 0.1097106
v -2.132241 4.455039 0.1097106
v -2.132241 4.253263 0.1097106
v -2.132241 4.253263 0.03339815
v -2.132241 4.455039 0.03339814
v -2.132241 4.253263 0.1097106
v -2.110525 4.253262 0.1097106
v -2.110525 4.253263 0.03339815
v -2.132241 4.253263 0.03339815
v -2.110525 4.253262 0.1097106
v -2.110525 4.455039 0.1097106
v -2.110525 4.455039 0.03339814
v -2.110525 4.253263 0.03339815
v -2.110525 4.455039 0.1097106
v -2.132241 4.455039 0.1097106
v -2.132241 4.455039 0.03339814
v -2.110525 4.455039 0.03339814
v -2.110525 2.50228 0.1384353
v -2.127114 2.50228 0.1384353
v -2.127114 2.704056 0.1384353
v -2.110525 2.704056 0.1384353
v -2.127114 2.50228 0.1384353
v -2.135405 2.50228 0.1240731
v -2.135405 2.704056 0.1240731
v -2.127114 2.704056 0.1384353
v -2.132241 2.704056 0.1097109
v -2.132241 2.50228 0.1097109
v -2.132241 2.50228 0.03339843
v -2.110525 2.50228 0.03339843
v -2.110525 2.704056 0.03339842
v -2.132241 2.704056 0.03339842
v -2.110525 2.50228 0.1097109
v -2.102234 2.50228 0.1240731
v -2.102234 2.704056 0.1240731
v -2.110525 2.704056 0.1097109
v -2.102234 2.50228 0.1240731
v -2.110525 2.50228 0.1384353
v -2.110525 2.704056 0.1384353
v -2.102234 2.704056 0.1240731
v -2.110525 2.50228 0.1384353
v -2.102234 2.50228 0.1240731
v -2.135405 2.50228 0.1240731
v -2.127114 2.50228 0.1384353
v -2.110525 2.50228 0.1097109
v -2.132241 2.50228 0.1097109
v -2.135405 2.704056 0.1240731
v -2.102234 2.704056 0.1240731
v -2.110525 2.704056 0.1384353
v -2.127114 2.704056 0.1384353
v -2.110525 2.704056 0.1097109
v -2.132241 2.704056 0.1097109
v -2.132241 2.704056 0.1097109
v -2.132241 2.50228 0.1097109
v -2.132241 2.50228 0.03339843
v -2.132241 2.704056 0.03339842
v -2.132241 2.50228 0.1097109
v -2.110525 2.50228 0.1097109
v -2.110525 2.50228 0.03339843
v -2.132241 2.50228 0.03339843
v -2.110525 2.50228 0.1097109
v -2.110525 2.704056 0.1097109
v -2.110525 2.704056 0.03339842
v -2.110525 2.50228 0.03339843
v -2.110525 2.704056 0.1097109
v -2.132241 2.704056 0.1097109
v -2.132241 2.704056 0.03339842
v -2.110525 2.704056 0.03339842
v -2.110525 0.5484051 0.1384356
v -2.127114 0.5484051 0.1384356
v -2.127114 0.7501816 0.1384356
v -2.110525 0.7501816 0.1384356
v -2.127114 0.5484051 0.1384356
v -2.135405 0.5484051 0.1240734
v -2.135405 0.7501816 0.1240734
v -2.127114 0.7501816 0.1384356
v -2.132241 0.7501816 0.1097112
v -2.132241 0.5484051 0.1097112
v -2.132241 0.5484051 0.03339874
v -2.110525 0.5484051 0.03339874
v -2.110525 0.7501816 0.03339874
v -2.132241 0.7501816 0.03339874
v -2.110525 0.5484051 0.1097112
v -2.102234 0.5484051 0.1240734
v -2.102234 0.7501816 0.1240734
v -2.110525 0.7501816 0.1097112
v -2.102234 0.5484051 0.1240734
v -2.110525 0.5484051 0.1384356
v -2.110525 0.7501816 0.1384356
v -2.102234 0.7501816 0.1240734
v -2.110525 0.5484051 0.1384356
v -2.102234 0.5484051 0.1240734
v -2.135405 0.5484051 0.1240734
v -2.127114 0.5484051 0.1384356
v -2.110525 0.5484051 0.1097112
v -2.132241 0.5484051 0.1097112
v -2.135405 0.7501816 0.1240734
v -2.102234 0.7501816 0.1240734
v -2.110525 0.7501816 0.1384356
v -2.127114 0.7501816 0.1384356
v -2.110525 0.7501816 0.1097112
v -2.132241 0.7501816 0.1097112
v -2.132241 0.7501816 0.1097112
v -2.132241 0.5484051 0.1097112
v -2.132241 0.5484051 0.03339874
v -2.132241 0.7501816 0.03339874
v -2.132241 0.5484051 0.1097112
v -2.110525 0.5484051 0.1097112
v -2.110525 0.5484051 0.03339874
v -2.132241 0.5484051 0.03339874
v -2.110525 0.5484051 0.1097112
v -2.110525 0.7501816 0.1097112
v -2.110525 0.7501816 0.03339874
v -2.110525 0.5484051 0.03339874
v -2.110525 0.7501816 0.1097112
v -2.132241 0.7501816 0.1097112
v -2.132241 0.7501816 0.03339874
v -2.110525 0.7501816 0.03339874

vn 1 0 0
vn 1 0 0
vn 1 0 0
vn 1 0 0
vn 0 0 1
vn 0 0 1
vn 0 0 1
vn 0 0 1
vn 1 0 0
vn 1 0 0
vn 1 0 0
vn 1 0 0
vn 0 0 -1
vn 0 0 -1
vn 0 0 -1
vn 0 0 -1
vn -1 0 0
vn -1 0 0
vn -1 0 0
vn -1 0 0
vn 0 -1 0
vn 0 -1 0
vn 0 -1 0
vn 0 -1 0
vn 0 0 1
vn 0 0 1
vn 0 0 1
vn 0 0 1
vn 0 0 1
vn 0 0 1
vn 0 0 -1
vn 0 0 -1
vn 0 0 -1
vn 0 0 -1
vn 0 0 -1
vn 0 0 -1
vn -1 0 0
vn -1 0 0
vn -1 0 0
vn -1 0 0
vn 0 0 1
vn 0 0 1
vn 0 0 1
vn 0 0 1
vn -1 0 0
vn -1 0 0
vn -1 0 0
vn -1 0 0
vn 0 0 -1
vn 0 0 -1
vn 0 0 -1
vn 0 0 -1
vn 1 0 0
vn 1 0 0
vn 1 0 0
vn 1 0 0
vn 0 -1 0
vn 0 -1 0
vn 0 -1 0
vn 0 -1 0
vn 0 -1 0
vn 0 -1 0
vn 0 -1 0
vn 0 -1 0
vn 0 1 0
vn 0 1 0
vn 0 1 0
vn 0 1 0
vn 0 0 1
vn 0 0 1
vn 0 0 1
vn 0 0 1
vn 0 1 0
vn 0 1 0
vn 0 1 0
vn 0 1 0
vn 0 0 -1
vn 0 0 -1
vn 0 0 -1
vn 0 0 -1
vn 0 0 -1
vn 0 0 -1
vn 0 0 -1
vn 0 0 -1
vn 0 0 -1
vn 0 0 -1
vn 0 0 -1
vn 0 0 -1
vn -1 0 0
vn -1 0 0
vn -1 0 0
vn -1 0 0
vn 0 0 1
vn 0 0 1
vn 0 0 1
vn 0 0 1
vn 0 0 1
vn 0 0 1
vn 0 0 1
vn 0 0 1
vn 1 0 0
vn 1 0 0
vn 1 0 0
vn 1 0 0
vn 0 -1 0
vn 0 -1 0
vn 0 -1 0
vn 0 -1 0
vn 0 1 0
vn 0 1 0
vn 0 1 0
vn 0 1 0
vn 1 0 0
vn 1 0 0
vn 1 0 0
vn 1 0 0
vn 0 1 0
vn 0 1 0
vn 0 1 0
vn 0 1 0
vn -1 0 0
vn -1 0 0
vn -1 0 0
vn -1 0 0
vn 0 -1 0
vn 0 -1 0
vn 0 -1 0
vn 0 -1 0
vn 0.500032 0 0.8660069
vn -0.5000366 0 0.8660043
vn -0.5000364 0 0.8660044
vn 0.5000321 0 0.8660069
vn -0.5000366 0 0.8660043
vn -0.988264 0 0.1527556
vn -0.9882644 0 0.1527526
vn -0.5000364 0 0.8660044
vn -0.976589 0 -0.2151139
vn -0.976589 0 -0.2151139
vn 0 0 -1
vn 0 0 -1
vn 0 0 -1
vn 0 0 -1
vn 0.9659354 0 -0.2587834
vn 0.8660628 0 -0.4999354
vn 0.8660628 0 -0.4999353
vn 0.9659355 0 -0.258783
vn 0.8660626 0 0.4999357
vn 0.500032 0 0.8660069
vn 0.5000321 0 0.8660069
vn 0.8660625 0 0.4999356
vn 0 -1 0
vn 0 -1 0
vn -6.17228E-06 -1 -1.069227E-05
vn 0 -1 0
vn -1.019834E-05 -1 -6.592913E-06
vn -1.637395E-05 -1 -1.84126E-05
vn 0 1 0
vn 0 1 0
vn 0 1 0
vn 0 1 0
vn 0 1 0
vn 0 1 0
vn -1 0 0
vn -1 0 0
vn -1 0 0
vn -1 0 0
vn -1.637395E-05 -1 -1.84126E-05
vn -1.019834E-05 -1 -6.592913E-06
vn -3.149979E-06 -1 -8.963842E-07
vn 0 -1 0
vn 0.9659354 0 -0.2587834
vn 0.9659355 0 -0.258783
vn 1 0 0
vn 1 0 0
vn 0 1 0
vn 0 1 0
vn 0 1 0
vn 0 1 0
vn 0.5000363 0 0.8660044
vn -0.5000408 0 0.8660018
vn -0.5000407 0 0.8660019
vn 0.5000363 0 0.8660044
vn -0.5000408 0 0.8660018
vn -0.9882652 0 0.1527478
vn -0.9882652 0 0.1527479
vn -0.5000407 0 0.8660019
vn -0.976589 0 -0.2151137
vn -0.976589 0 -0.2151137
vn 0 0 -1
vn 0 0 -1
vn 0 0 -1
vn 0 0 -1
vn 0.9659368 0 -0.2587778
vn 0.866068 0 -0.4999263
vn 0.866068 0 -0.4999262
vn 0.9659368 0 -0.2587779
vn 0.8660675 0 0.4999272
vn 0.5000363 0 0.8660044
vn 0.5000363 0 0.8660044
vn 0.8660675 0 0.4999272
vn 0 -1 0
vn 0 -1 0
vn 0 -1 0
vn 0 -1 0
vn 0 -1 0
vn 0 -1 0
vn 0 1 0
vn 0 1 0
vn 0 1 0
vn 0 1 0
vn 0 1 0
vn 0 1 0
vn -1 0 0
vn -1 0 0
vn -1 0 0
vn -1 0 0
vn 0 -1 0
vn 0 -1 0
vn 0 -1 0
vn 0 -1 0
vn 0.9659368 0 -0.2587778
vn 0.9659368 0 -0.2587779
vn 1 0 0
vn 1 0 0
vn 0 1 0
vn 0 1 0
vn 0 1 0
vn 0 1 0
vn 0.5000365 0 0.8660044
vn -0.5000409 0 0.8660018
vn -0.5000409 0 0.8660018
vn 0.5000365 0 0.8660044
vn -0.5000409 0 0.8660018
vn -0.9882652 0 0.1527477
vn -0.9882652 0 0.1527478
vn -0.5000409 0 0.8660018
vn -0.9765891 0 -0.2151136
vn -0.9765891 0 -0.2151135
vn 0 0 -1
vn 0 0 -1
vn 0 0 -1
vn 0 0 -1
vn 0.9659368 0 -0.2587777
vn 0.8660682 0 -0.4999259
vn 0.8660682 0 -0.499926
vn 0.9659368 0 -0.2587777
vn 0.8660676 0 0.4999269
vn 0.5000365 0 0.8660044
vn 0.5000365 0 0.8660044
vn 0.8660676 0 0.4999269
vn 0 -1 0
vn 0 -1 0
vn 0 -1 0
vn 0 -1 0
vn 0 -1 0
vn 0 -1 0
vn 0 1 0
vn 0 1 0
vn 0 1 0
vn 0 1 0
vn 0 1 0
vn 0 1 0
vn -1 0 0
vn -1 0 0
vn -1 0 0
vn -1 0 0
vn 0 -1 0
vn 0 -1 0
vn 0 -1 0
vn 0 -1 0
vn 0.9659368 0 -0.2587777
vn 0.9659368 0 -0.2587777
vn 1 0 0
vn 1 0 0
vn 0 1 0
vn 0 1 0
vn 0 1 0
vn 0 1 0

vt 0.05975884 -0.9602581
vt 0.1124334 -0.9991804
vt 0.1124334 -0.9602581
vt 0.05975884 -0.9991804
vt 0.37982 0.001940012
vt 0.3476 0.99854
vt 0.3476 0.001940012
vt 0.37982 0.99854
vt 0.1123722 -0.9594443
vt 0.0597702 -0.00271523
vt 0.0597702 -0.9594443
vt 0.1123722 -0.00271523
vt 0.37982 0.001940012
vt 0.3476 0.99854
vt 0.3476 0.001940012
vt 0.37982 0.99854
vt 1.112989 -0.993305
vt 1.059395 -0.003702641
vt 1.059395 -0.993305
vt 1.112989 -0.003702641
vt 0.29587 0.99833
vt 0.2385 0.9661
vt 0.29587 0.9661
vt 0.2385 0.99833
vt 0.3479 0.96608
vt 0.37982 0.99854
vt 0.3479 0.99854
vt 0.37982 0.08239001
vt 0.3479 0.11486
vt 0.3479 0.08239001
vt 0.3479 0.08239001
vt 0.37982 0.08239001
vt 0.3479 0.11486
vt 0.3479 0.96608
vt 0.37982 0.99854
vt 0.3479 0.99854
vt 0.1124334 -0.9991804
vt 0.05975884 -0.9602581
vt 0.05975884 -0.9991804
vt 0.1124334 -0.9602581
vt 0.3476 0.99854
vt 0.37982 0.001940012
vt 0.37982 0.99854
vt 0.3476 0.001940012
vt 0.0597702 -0.00271523
vt 0.1123722 -0.9594443
vt 0.1123722 -0.00271523
vt 0.0597702 -0.9594443
vt 0.3476 0.99854
vt 0.37982 0.001940012
vt 0.37982 0.99854
vt 0.3476 0.001940012
vt 1.059395 -0.003702641
vt 1.112989 -0.993305
vt 1.112989 -0.003702641
vt 1.059395 -0.993305
vt 0.29587 0.99833
vt 0.2385 0.9661
vt 0.29587 0.9661
vt 0.2385 0.99833
vt 1.059274 -0.003702641
vt 1.112989 -0.8272781
vt 1.112989 -0.003702641
vt 1.059274 -0.8272781
vt 0.05965099 -0.03664553
vt 0.1123722 -0.8426847
vt 0.1123722 -0.03664553
vt 0.05965099 -0.8426847
vt 0.9803774 -0.02776182
vt 0.9986471 -0.9809685
vt 0.9986471 -0.02776182
vt 0.9803774 -0.9809685
vt 1.059246 -0.003891349
vt 1.113447 -0.9570489
vt 1.113447 -0.003891349
vt 1.059246 -0.9570489
vt 0.9986471 -0.9809685
vt 0.9803774 -0.02776182
vt 0.9803774 -0.9809685
vt 0.9986471 -0.02776182
vt 0.972625 0.02794975
vt 0.972625 0.99632
vt 0.9289523 0.5016888
vt 0.9289523 0.09380484
vt 0.5568436 0.99632
vt 0.6001289 0.5016888
vt 0.5568436 0.02794975
vt 0.6001289 0.09380484
vt 0.9409826 -0.9552703
vt 0.9409826 -0.01493788
vt 0.9665254 -0.01493788
vt 0.9665254 -0.9552703
vt 0.9289523 0.09380484
vt 0.9289523 0.5016888
vt 0.972625 0.99632
vt 0.972625 0.02794975
vt 0.6001289 0.5016888
vt 0.5568436 0.99632
vt 0.6001289 0.09380484
vt 0.5568436 0.02794975
vt 0.5581626 -0.01502025
vt 0.5822427 -0.01502025
vt 0.5822427 -0.9230325
vt 0.5581626 -0.9230325
vt 0.6158401 -0.04993451
vt 0.6407216 -0.04993212
vt 0.6407804 -0.4714619
vt 0.6158988 -0.4714643
vt 0.6158401 -0.04993451
vt 0.6407216 -0.04993212
vt 0.6407804 -0.4714619
vt 0.6158988 -0.4714643
vt 0.1353104 0.3173572
vt 0.1360212 -0.07770073
vt 0.1173644 -0.07773948
vt 0.1166535 0.3173186
vt 0.1173644 -0.07773948
vt 0.1166535 0.3173186
vt 0.1353104 0.3173572
vt 0.1360212 -0.07770073
vt 0.1173644 -0.07773948
vt 0.1166535 0.3173186
vt 0.1353104 0.3173572
vt 0.1360212 -0.07770073
vt 0.1353104 0.3173572
vt 0.1360212 -0.07770073
vt 0.1173644 -0.07773948
vt 0.1166535 0.3173186
vt 0.4602393 0.5262215
vt 0.4639566 0.5262215
vt 0.4639566 0.3738766
vt 0.4602393 0.3738766
vt 0.4639566 0.5262215
vt 0.4671739 0.5262215
vt 0.4671739 0.3738766
vt 0.4639566 0.3738766
vt 0.4703948 0.3738766
vt 0.4703948 0.5262215
vt 0.4703948 0.5262215
vt 0.4741085 0.5262215
vt 0.4741085 0.3738766
vt 0.4703948 0.3738766
vt 0.4538012 0.5262215
vt 0.457022 0.5262215
vt 0.457022 0.3738766
vt 0.4538012 0.3738766
vt 0.457022 0.5262215
vt 0.4602393 0.5262215
vt 0.4602393 0.3738766
vt 0.457022 0.3738766
vt 0.4662609 0.471204
vt 0.4644023 0.4820439
vt 0.4718368 0.4820439
vt 0.4699782 0.471204
vt 0.4662609 0.4928961
vt 0.4699782 0.4928961
vt 0.4718368 0.4820439
vt 0.4644023 0.4820439
vt 0.4662609 0.4928961
vt 0.4699782 0.4928961
vt 0.4662609 0.471204
vt 0.4699782 0.471204
vt 0.4733788 0.3747292
vt 0.4733788 0.5257952
vt 0.5202706 0.5262215
vt 0.5202706 0.3747292
vt 0.4703948 0.5262215
vt 0.4741085 0.5262215
vt 0.4741085 0.5262215
vt 0.4703948 0.5262215
vt 0.4741085 0.5262215
vt 0.4741085 0.3738766
vt 0.4741085 0.3738766
vt 0.4741085 0.5262215
vt 0.4741085 0.3738766
vt 0.4703948 0.3738766
vt 0.4703948 0.3738766
vt 0.4741085 0.3738766
vt 0.4602393 0.5262215
vt 0.4639566 0.5262215
vt 0.4639566 0.3738766
vt 0.4602393 0.3738766
vt 0.4639566 0.5262215
vt 0.4671739 0.5262215
vt 0.4671739 0.3738766
vt 0.4639566 0.3738766
vt 0.4703948 0.3738766
vt 0.4703948 0.5262215
vt 0.4703948 0.5262215
vt 0.4741085 0.5262215
vt 0.4741085 0.3738766
vt 0.4703948 0.3738766
vt 0.4538012 0.5262215
vt 0.457022 0.5262215
vt 0.457022 0.3738766
vt 0.4538012 0.3738766
vt 0.457022 0.5262215
vt 0.4602393 0.5262215
vt 0.4602393 0.3738766
vt 0.457022 0.3738766
vt 0.4662609 0.471204
vt 0.4644023 0.4820439
vt 0.4718368 0.4820439
vt 0.4699782 0.471204
vt 0.4662609 0.4928961
vt 0.4699782 0.4928961
vt 0.4718368 0.4820439
vt 0.4644023 0.4820439
vt 0.4662609 0.4928961
vt 0.4699782 0.4928961
vt 0.4662609 0.471204
vt 0.4699782 0.471204
vt 0.4733788 0.3747292
vt 0.4733788 0.5257952
vt 0.5202706 0.5262215
vt 0.5202706 0.3747292
vt 0.4703948 0.5262215
vt 0.4741085 0.5262215
vt 0.4741085 0.5262215
vt 0.4703948 0.5262215
vt 0.4741085 0.5262215
vt 0.4741085 0.3738766
vt 0.4741085 0.3738766
vt 0.4741085 0.5262215
vt 0.4741085 0.3738766
vt 0.4703948 0.3738766
vt 0.4703948 0.3738766
vt 0.4741085 0.3738766
vt 0.4602393 0.5262215
vt 0.4639566 0.5262215
vt 0.4639566 0.3738766
vt 0.4602393 0.3738766
vt 0.4639566 0.5262215
vt 0.4671739 0.5262215
vt 0.4671739 0.3738766
vt 0.4639566 0.3738766
vt 0.4703948 0.3738766
vt 0.4703948 0.5262215
vt 0.4703948 0.5262215
vt 0.4741085 0.5262215
vt 0.4741085 0.3738766
vt 0.4703948 0.3738766
vt 0.4538012 0.5262215
vt 0.457022 0.5262215
vt 0.457022 0.3738766
vt 0.4538012 0.3738766
vt 0.457022 0.5262215
vt 0.4602393 0.5262215
vt 0.4602393 0.3738766
vt 0.457022 0.3738766
vt 0.4662609 0.471204
vt 0.4644023 0.4820439
vt 0.4718368 0.4820439
vt 0.4699782 0.471204
vt 0.4662609 0.4928961
vt 0.4699782 0.4928961
vt 0.4718368 0.4820439
vt 0.4644023 0.4820439
vt 0.4662609 0.4928961
vt 0.4699782 0.4928961
vt 0.4662609 0.471204
vt 0.4699782 0.471204
vt 0.4733788 0.3747292
vt 0.4733788 0.5257952
vt 0.5202706 0.5262215
vt 0.5202706 0.3747292
vt 0.4703948 0.5262215
vt 0.4741085 0.5262215
vt 0.4741085 0.5262215
vt 0.4703948 0.5262215
vt 0.4741085 0.5262215
vt 0.4741085 0.3738766
vt 0.4741085 0.3738766
vt 0.4741085 0.5262215
vt 0.4741085 0.3738766
vt 0.4703948 0.3738766
vt 0.4703948 0.3738766
vt 0.4741085 0.3738766

g door02_frame.obj
usemtl door02_frame
usemap door02_frame
f 1/1/1 3/3/3 2/2/2
f 2/2/2 4/4/4 1/1/1
f 5/5/5 7/7/7 6/6/6
f 6/6/6 8/8/8 5/5/5
f 9/9/9 11/11/11 10/10/10
f 10/10/10 12/12/12 9/9/9
f 13/13/13 15/15/15 14/14/14
f 14/14/14 16/16/16 13/13/13
f 17/17/17 19/19/19 18/18/18
f 18/18/18 20/20/20 17/17/17
f 21/21/21 23/23/23 22/22/22
f 22/22/22 24/24/24 21/21/21
f 25/25/25 27/27/27 26/26/26
f 25/25/25 26/26/26 28/28/28
f 28/28/28 29/29/29 25/25/25
f 28/28/28 30/30/30 29/29/29
f 31/31/31 33/33/33 32/32/32
f 32/32/32 33/33/33 34/34/34
f 34/34/34 35/35/35 32/32/32
f 35/35/35 34/34/34 36/36/36
f 37/37/37 39/39/39 38/38/38
f 38/38/38 40/40/40 37/37/37
f 41/41/41 43/43/43 42/42/42
f 42/42/42 44/44/44 41/41/41
f 45/45/45 47/47/47 46/46/46
f 46/46/46 48/48/48 45/45/45
f 49/49/49 51/51/51 50/50/50
f 50/50/50 52/52/52 49/49/49
f 53/53/53 55/55/55 54/54/54
f 54/54/54 56/56/56 53/53/53
f 57/57/57 59/59/59 58/58/58
f 58/58/58 60/60/60 57/57/57
f 61/61/61 63/63/63 62/62/62
f 62/62/62 64/64/64 61/61/61
f 65/65/65 67/67/67 66/66/66
f 66/66/66 68/68/68 65/65/65
f 69/69/69 71/71/71 70/70/70
f 70/70/70 72/72/72 69/69/69
f 73/73/73 75/75/75 74/74/74
f 74/74/74 76/76/76 73/73/73
f 77/77/77 79/79/79 78/78/78
f 78/78/78 80/80/80 77/77/77
f 81/81/81 83/83/83 82/82/82
f 83/83/83 81/81/81 84/84/84
f 83/83/83 85/85/85 82/82/82
f 85/85/85 83/83/83 86/86/86
f 86/86/86 87/87/87 85/85/85
f 87/87/87 86/86/86 88/88/88
f 88/88/88 81/81/81 87/87/87
f 81/81/81 88/88/88 84/84/84
f 89/89/89 91/91/91 90/90/90
f 91/91/91 89/89/89 92/92/92
f 93/93/93 95/95/95 94/94/94
f 95/95/95 93/93/93 96/96/96
f 95/95/95 97/97/97 94/94/94
f 97/97/97 95/95/95 98/98/98
f 98/98/98 99/99/99 97/97/97
f 99/99/99 98/98/98 100/100/100
f 100/100/100 93/93/93 99/99/99
f 93/93/93 100/100/100 96/96/96
f 101/101/101 103/103/103 102/102/102
f 103/103/103 101/101/101 104/104/104
f 105/105/105 107/107/107 106/106/106
f 107/107/107 105/105/105 108/108/108
f 109/109/109 111/111/111 110/110/110
f 111/111/111 109/109/109 112/112/112
f 113/113/113 115/115/115 114/114/114
f 115/115/115 113/113/113 116/116/116
f 117/117/117 119/119/119 118/118/118
f 119/119/119 117/117/117 120/120/120
f 121/121/121 123/123/123 122/122/122
f 123/123/123 121/121/121 124/124/124
f 125/125/125 127/127/127 126/126/126
f 127/127/127 125/125/125 128/128/128
f 129/129/129 131/131/131 130/130/130
f 131/131/131 129/129/129 132/132/132
f 133/133/133 135/135/135 134/134/134
f 135/135/135 133/133/133 136/136/136
f 137/137/137 134/134/134 135/135/135
f 134/134/134 137/137/137 138/138/138
f 139/139/139 141/141/141 140/140/140
f 141/141/141 139/139/139 142/142/142
f 143/143/143 145/145/145 144/144/144
f 145/145/145 143/143/143 146/146/146
f 147/147/147 149/149/149 148/148/148
f 149/149/149 147/147/147 150/150/150
f 151/151/151 153/153/153 152/152/152
f 153/153/153 151/151/151 154/154/154
f 153/153/153 155/155/155 152/152/152
f 155/155/155 153/153/153 156/156/156
f 157/157/157 159/159/159 158/158/158
f 159/159/159 157/157/157 160/160/160
f 161/161/161 157/157/157 158/158/158
f 157/157/157 161/161/161 162/162/162
f 163/163/163 165/165/165 164/164/164
f 165/165/165 163/163/163 166/166/166
f 167/167/167 169/169/169 168/168/168
f 169/169/169 167/167/167 170/170/170
f 171/171/171 173/173/173 172/172/172
f 173/173/173 171/171/171 174/174/174
f 175/175/175 177/177/177 176/176/176
f 177/177/177 175/175/175 178/178/178
f 179/179/179 181/181/181 180/180/180
f 181/181/181 179/179/179 182/182/182
f 183/183/183 185/185/185 184/184/184
f 185/185/185 183/183/183 186/186/186
f 187/187/187 184/184/184 185/185/185
f 184/184/184 187/187/187 188/188/188
f 189/189/189 191/191/191 190/190/190
f 191/191/191 189/189/189 192/192/192
f 193/193/193 195/195/195 194/194/194
f 195/195/195 193/193/193 196/196/196
f 197/197/197 199/199/199 198/198/198
f 199/199/199 197/197/197 200/200/200
f 201/201/201 203/203/203 202/202/202
f 203/203/203 201/201/201 204/204/204
f 203/203/203 205/205/205 202/202/202
f 205/205/205 203/203/203 206/206/206
f 207/207/207 209/209/209 208/208/208
f 209/209/209 207/207/207 210/210/210
f 211/211/211 207/207/207 208/208/208
f 207/207/207 211/211/211 212/212/212
f 213/213/213 215/215/215 214/214/214
f 215/215/215 213/213/213 216/216/216
f 217/217/217 219/219/219 218/218/218
f 219/219/219 217/217/217 220/220/220
f 221/221/221 223/223/223 222/222/222
f 223/223/223 221/221/221 224/224/224
f 225/225/225 227/227/227 226/226/226
f 227/227/227 225/225/225 228/228/228
f 229/229/229 231/231/231 230/230/230
f 231/231/231 229/229/229 232/232/232
f 233/233/233 235/235/235 234/234/234
f 235/235/235 233/233/233 236/236/236
f 237/237/237 234/234/234 235/235/235
f 234/234/234 237/237/237 238/238/238
f 239/239/239 241/241/241 240/240/240
f 241/241/241 239/239/239 242/242/242
f 243/243/243 245/245/245 244/244/244
f 245/245/245 243/243/243 246/246/246
f 247/247/247 249/249/249 248/248/248
f 249/249/249 247/247/247 250/250/250
f 251/251/251 253/253/253 252/252/252
f 253/253/253 251/251/251 254/254/254
f 253/253/253 255/255/255 252/252/252
f 255/255/255 253/253/253 256/256/256
f 257/257/257 259/259/259 258/258/258
f 259/259/259 257/257/257 260/260/260
f 261/261/261 257/257/257 258/258/258
f 257/257/257 261/261/261 262/262/262
f 263/263/263 265/265/265 264/264/264
f 265/265/265 263/263/263 266/266/266
f 267/267/267 269/269/269 268/268/268
f 269/269/269 267/267/267 270/270/270
f 271/271/271 273/273/273 272/272/272
f 273/273/273 271/271/271 274/274/274
f 275/275/275 277/277/277 276/276/276
f 277/277/277 275/275/275 278/278/278
