#DoorDoublePost.obj

v 2.291654 5.025788 0.1465885
v 2.291654 5.195356 0.006879433
v 2.291654 5.025788 0.006879387
v 2.291654 5.195356 0.1465885
v 2.291654 5.025788 0.1465885
v 2.129182 -0.0001946874 0.1465887
v 2.129182 5.025788 0.1465885
v 2.291654 -0.0001946874 0.1465887
v 2.291654 5.025788 0.006879387
v 2.291654 -0.0001946874 0.1465887
v 2.291654 5.025788 0.1465885
v 2.291654 -0.0001946874 0.006879426
v 2.129183 5.025788 0.006879387
v 2.291654 -0.0001946874 0.006879426
v 2.291654 5.025788 0.006879387
v 2.129183 -0.0001946874 0.006879426
v 2.129182 5.025788 0.1465885
v 2.129183 -0.0001946874 0.006879426
v 2.129183 5.025788 0.006879387
v 2.129182 -0.0001946874 0.1465887
v 2.129183 -0.0001946874 0.006879426
v 2.291654 -0.0001946874 0.1465887
v 2.291654 -0.0001946874 0.006879426
v 2.129182 -0.0001946874 0.1465887
v 2.129182 5.025788 0.1465885
v 2.291654 5.195356 0.1465885
v 2.291654 5.025788 0.1465885
v -2.292765 5.195356 0.1465885
v -2.130294 5.025788 0.1465885
v -2.292765 5.025788 0.1465885
v 2.291654 5.025788 0.006879387
v 2.291654 5.195356 0.006879433
v 2.129183 5.025788 0.006879387
v -2.130294 5.025788 0.006879404
v -2.292765 5.195356 0.006879435
v -2.292765 5.025788 0.006879404
v -2.292765 5.195356 0.1465885
v -2.292765 5.025788 0.006879404
v -2.292765 5.195356 0.006879435
v -2.292765 5.025788 0.1465885
v -2.292765 -0.0001946874 0.1465885
v -2.130294 5.025788 0.1465885
v -2.130294 -0.0001946874 0.1465885
v -2.292765 5.025788 0.1465885
v -2.292765 -0.0001946874 0.00687942
v -2.292765 5.025788 0.1465885
v -2.292765 -0.0001946874 0.1465885
v -2.292765 5.025788 0.006879404
v -2.130294 -0.0001946874 0.00687942
v -2.292765 5.025788 0.006879404
v -2.292765 -0.0001946874 0.00687942
v -2.130294 5.025788 0.006879404
v -2.130294 -0.0001946874 0.1465885
v -2.130294 5.025788 0.006879404
v -2.130294 -0.0001946874 0.00687942
v -2.130294 5.025788 0.1465885
v -2.130294 -0.0001946874 0.1465885
v -2.292765 -0.0001946874 0.00687942
v -2.292765 -0.0001946874 0.1465885
v -2.130294 -0.0001946874 0.00687942
v -2.130294 5.025788 0.1465885
v 2.129183 5.025788 0.006879387
v -2.130294 5.025788 0.006879404
v 2.129182 5.025788 0.1465885
v -2.292765 5.195356 0.006879435
v 2.291654 5.195356 0.1465885
v -2.292765 5.195356 0.1465885
v 2.291654 5.195356 0.006879433
v -2.130319 0.08966054 0.1464594
v 2.129488 -0.0001944432 0.1464595
v -2.130319 -0.0001944432 0.1464594
v 2.129488 0.08966054 0.1464594
v -2.130319 0.08966056 0.006929154
v 2.129488 0.08966054 0.1464594
v -2.130319 0.08966054 0.1464594
v 2.129488 0.08966056 0.006929161
v -2.130319 -0.0001944432 0.006929161
v 2.129488 0.08966056 0.006929161
v -2.130319 0.08966056 0.006929154
v 2.129488 -0.0001944432 0.006929161

vn 1 0 1.747492E-06
vn 1 0 1.747492E-06
vn 1 0 1.747492E-06
vn 1 0 1.747493E-06
vn 0 2.732383E-08 1
vn 0 2.732383E-08 1
vn 0 2.732383E-08 1
vn 0 2.732383E-08 1
vn 1 0 1.747492E-06
vn 1 0 1.747492E-06
vn 1 0 1.747492E-06
vn 1 0 1.747491E-06
vn 0 0 -1
vn 0 0 -1
vn 0 0 -1
vn 0 0 -1
vn -1 0 -8.737461E-06
vn -1 0 -8.737461E-06
vn -1 0 -8.737461E-06
vn -1 0 -8.737455E-06
vn 0 -1 0
vn 0 -1 0
vn 0 -1 0
vn 0 -1 0
vn 0 -8.998633E-08 1
vn 0 -8.998633E-08 1
vn 0 -8.998632E-08 1
vn 0 0 1
vn 0 0 1
vn 0 0 1
vn 0 2.69959E-07 -1
vn 0 2.69959E-07 -1
vn 0 2.69959E-07 -1
vn 0 1.799726E-07 -1
vn 0 1.799727E-07 -1
vn 0 1.799726E-07 -1
vn -1 0 2.62124E-06
vn -1 0 2.62124E-06
vn -1 0 2.62124E-06
vn -1 0 2.621239E-06
vn 0 0 1
vn 0 0 1
vn 0 0 1
vn 0 0 1
vn -1 0 2.621239E-06
vn -1 0 2.621239E-06
vn -1 0 2.621239E-06
vn -1 0 2.621239E-06
vn 0 0 -1
vn 0 0 -1
vn 0 0 -1
vn 0 0 -1
vn 1 0 -8.737462E-07
vn 1 0 -8.737462E-07
vn 1 0 -8.737462E-07
vn 1 0 -8.737463E-07
vn 0 -1 0
vn 0 -1 0
vn 0 -1 0
vn 0 -1 0
vn 0 -1 0
vn 0 -1 0
vn 0 -1 0
vn 0 -1 0
vn 0 1 0
vn 0 1 0
vn 0 1 0
vn 0 1 0
vn -2.149223E-08 1.698157E-07 1
vn -2.149223E-08 1.698157E-07 1
vn -2.149222E-08 1.698157E-07 1
vn 0 1.018894E-06 1
vn 0 1 1.093583E-07
vn 0 1 1.093583E-07
vn 0 1 1.093583E-07
vn 0 1 1.093583E-07
vn 0 -8.490785E-08 -1
vn 0 -8.490785E-08 -1
vn 0 -8.490785E-08 -1
vn 0 0 -1

vt 0.05974264 -0.00254035
vt 0.1130804 -0.04001415
vt 0.1130804 -0.00254035
vt 0.05974264 -0.04001415
vt 0.9995069 0.03123957
vt 0.9689235 0.9995004
vt 0.9689302 0.03123945
vt 0.9995002 0.9995004
vt 0.1127253 0.001503885
vt 0.0600922 0.9855422
vt 0.0600922 0.001503885
vt 0.1127253 0.9855422
vt 0.9689305 0.03123945
vt 0.9995002 0.9995004
vt 0.999507 0.03123957
vt 0.9689238 0.9995004
vt 0.09066039 0.1316199
vt 0.04458119 0.9838634
vt 0.04458119 0.1316199
vt 0.09066039 0.9838634
vt 0.29587 0.99833
vt 0.2385 0.9661
vt 0.29587 0.9661
vt 0.2385 0.99833
vt 0.9689302 0.03123945
vt 0.9995005 0.0004997253
vt 0.9995069 0.03123957
vt 0.0004998446 0.0004994869
vt 0.03123877 0.03123933
vt 0.0005063678 0.03123933
vt 0.999507 0.03123957
vt 0.9995005 0.0004997253
vt 0.9689305 0.03123945
vt 0.03123877 0.03123933
vt 0.0004997551 0.0004994869
vt 0.0005062784 0.03123933
vt 0.1130804 -0.04001415
vt 0.05974264 -0.00254035
vt 0.05974264 -0.04001415
vt 0.1130804 -0.00254035
vt 0.0004995763 0.9995002
vt 0.03123877 0.03123933
vt 0.03123201 0.9995002
vt 0.0005063678 0.03123933
vt 0.0600922 0.9855422
vt 0.1127253 0.001503885
vt 0.1127253 0.9855422
vt 0.0600922 0.001503885
vt 0.03123198 0.9995002
vt 0.0005062784 0.03123933
vt 0.0004994869 0.9995002
vt 0.03123877 0.03123933
vt 0.04458119 0.9838634
vt 0.09066039 0.1316199
vt 0.09066039 0.9838634
vt 0.04458119 0.1316199
vt 0.29587 0.99833
vt 0.2385 0.9661
vt 0.29587 0.9661
vt 0.2385 0.99833
vt 0.04990219 0.9788954
vt 0.09128414 0.1813315
vt 0.09128414 0.9788954
vt 0.04990219 0.1813315
vt 0.05997293 0.9506435
vt 0.1127253 0.1215964
vt 0.1127253 0.9506435
vt 0.05997293 0.1215964
vt 0.02826955 0.9863135
vt 0.9718674 0.9995004
vt 0.02828826 0.9995002
vt 0.9718487 0.9863137
vt 0.9102225 0.9807183
vt 0.9511264 0.1825879
vt 0.9511264 0.9807183
vt 0.9102225 0.1825879
vt 0.02828826 0.9995002
vt 0.9718487 0.9863137
vt 0.02826955 0.9863135
vt 0.9718674 0.9995004

g DoorDoublePost.obj
usemtl DoorDoublePost
usemap DoorDoublePost
f 1/1/1 3/3/3 2/2/2
f 2/2/2 4/4/4 1/1/1
f 5/5/5 7/7/7 6/6/6
f 6/6/6 8/8/8 5/5/5
f 9/9/9 11/11/11 10/10/10
f 10/10/10 12/12/12 9/9/9
f 13/13/13 15/15/15 14/14/14
f 14/14/14 16/16/16 13/13/13
f 17/17/17 19/19/19 18/18/18
f 18/18/18 20/20/20 17/17/17
f 21/21/21 23/23/23 22/22/22
f 22/22/22 24/24/24 21/21/21
f 25/25/25 27/27/27 26/26/26
f 25/25/25 26/26/26 28/28/28
f 28/28/28 29/29/29 25/25/25
f 28/28/28 30/30/30 29/29/29
f 31/31/31 33/33/33 32/32/32
f 32/32/32 33/33/33 34/34/34
f 34/34/34 35/35/35 32/32/32
f 35/35/35 34/34/34 36/36/36
f 37/37/37 39/39/39 38/38/38
f 38/38/38 40/40/40 37/37/37
f 41/41/41 43/43/43 42/42/42
f 42/42/42 44/44/44 41/41/41
f 45/45/45 47/47/47 46/46/46
f 46/46/46 48/48/48 45/45/45
f 49/49/49 51/51/51 50/50/50
f 50/50/50 52/52/52 49/49/49
f 53/53/53 55/55/55 54/54/54
f 54/54/54 56/56/56 53/53/53
f 57/57/57 59/59/59 58/58/58
f 58/58/58 60/60/60 57/57/57
f 61/61/61 63/63/63 62/62/62
f 62/62/62 64/64/64 61/61/61
f 65/65/65 67/67/67 66/66/66
f 66/66/66 68/68/68 65/65/65
f 69/69/69 71/71/71 70/70/70
f 70/70/70 72/72/72 69/69/69
f 73/73/73 75/75/75 74/74/74
f 74/74/74 76/76/76 73/73/73
f 77/77/77 79/79/79 78/78/78
f 78/78/78 80/80/80 77/77/77
