#fence.obj

v 0.01462006 -8.924639 6.061486
v -0.01462002 -8.924639 6.061486
v -0.01461999 9.685197 6.061486
v 0.01462009 9.685197 6.061486
v 0.01462006 -8.924639 0
v -0.01462002 -8.924639 0
v -0.01462002 -8.924639 6.061486
v 0.01462006 -8.924639 6.061486
v 0.01462009 9.685197 0
v 0.01462009 9.685197 6.061486
v -0.01461999 9.685197 6.061486
v -0.01461999 9.685197 0
v -0.01462 3.512879 0
v -0.01462002 -8.924639 0
v 0.01462006 -8.924639 0
v 0.01462008 3.512879 0
v 0.01462008 5.959418 0
v 0.01462009 9.685197 0
v -0.01461999 9.685197 0
v -0.01461999 5.959418 0
v -0.01462 3.512879 3.724182
v -0.01462002 -8.924639 6.061486
v -0.01462002 -8.924639 0
v -0.01461999 5.959418 3.724182
v -0.01461999 9.685197 6.061486
v -0.01461999 9.685197 0
v -0.01461999 5.959418 0
v -0.01462 3.512879 0
v 0.01462008 3.512879 3.724182
v 0.01462008 3.512879 0
v 0.01462006 -8.924639 0
v 0.01462006 -8.924639 6.061486
v 0.01462008 5.959418 3.724182
v 0.01462009 9.685197 6.061486
v 0.01462009 9.685197 0
v 0.01462008 5.959418 0
v -0.01461999 5.959418 3.724182
v 0.01462008 5.959418 3.724182
v 0.01462008 5.959418 0
v -0.01461999 5.959418 0
v -0.01461999 5.959418 3.724182
v -0.01462 3.512879 3.724182
v 0.01462008 3.512879 3.724182
v 0.01462008 5.959418 3.724182
v -0.01462 3.512879 3.724182
v -0.01462 3.512879 0
v 0.01462008 3.512879 0
v 0.01462008 3.512879 3.724182
v 3.112913 1.848279 0.1269362
v 0.2101623 3.554757 0.1269364
v 0.2061505 3.553096 0.1269364
v 3.090513 1.839008 0.1269362
v 0.1877631 3.545485 0.1269364
v 2.17522 2.399533 3.635644
v 0.2101623 3.554757 3.635644
v 0.2101623 3.554757 3.184091
v 3.112913 1.848279 3.635644
v 3.112913 1.848279 0.1269362
v 0.2101623 3.554757 0.1269364
v 0.1877631 3.545485 3.184091
v 0.1877631 3.545485 3.635644
v 2.152821 2.390261 3.635644
v 0.1877631 3.545485 0.1269364
v 2.922566 1.937741 3.635644
v 3.090513 1.839008 0.1269362
v 3.090513 1.839008 3.635644
v 3.090513 1.839008 0.1269362
v 3.090513 1.839008 3.635644
v 3.111617 1.847743 3.635644
v 3.112913 1.848279 0.1269362
v 3.112913 1.848279 3.635644
v 3.112913 1.848279 0.1269362
v 3.111617 1.847743 3.635644

vn 0 0 1
vn 0 0 1
vn 0 0 1
vn 0 0 1
vn 0 -1 0
vn 0 -1 0
vn 0 -1 0
vn 0 -1 0
vn 0 1 0
vn 0 1 0
vn 0 1 0
vn 0 1 0
vn 0 0 -1
vn 0 0 -1
vn 0 0 -1
vn 0 0 -1
vn 0 0 -1
vn 0 0 -1
vn 0 0 -1
vn 0 0 -1
vn -1 0 0
vn -1 0 0
vn -1 0 0
vn -1 0 0
vn -1 0 0
vn -1 0 0
vn -1 0 0
vn -1 0 0
vn 1 0 0
vn 1 0 0
vn 1 0 0
vn 1 0 0
vn 1 0 0
vn 1 0 0
vn 1 0 0
vn 1 0 0
vn 0 -1 0
vn 0 -1 0
vn 0 -1 0
vn 0 -1 0
vn 0 0 -1
vn 0 0 -1
vn 0 0 -1
vn 0 0 -1
vn 0 1 0
vn 0 1 0
vn 0 1 0
vn 0 1 0
vn 0 0 -1
vn 0 0 -1
vn 0 0 -1
vn 0 0 -1
vn 0 0 -1
vn 0.5067946 0.8620669 0
vn 0.5067945 0.8620669 0
vn 0.5067945 0.8620669 0
vn 0.5067945 0.8620669 0
vn 0.5067945 0.8620669 0
vn 0.5067945 0.8620669 0
vn -0.5067945 -0.8620669 0
vn -0.5067945 -0.8620669 0
vn -0.5067946 -0.8620669 0
vn -0.5067945 -0.8620669 0
vn -0.5067943 -0.862067 0
vn -0.5067945 -0.8620669 0
vn -0.5067939 -0.8620672 0
vn 0.3824534 -0.9239748 0
vn 0.3824499 -0.9239762 0
vn 0.3824802 -0.9239637 0
vn 0.3824535 -0.9239748 0
vn 0.3825104 -0.9239511 0
vn 0.3824535 -0.9239748 0
vn 0.3824802 -0.9239637 0

vt 0.512789 8.640784
vt 0.4872071 8.640785
vt 0.487211 -7.640785
vt 0.5127929 -7.640785
vt 0.512789 3.151568
vt 0.4872071 3.151568
vt 0.4872071 -2.151568
vt 0.512789 -2.151568
vt 0.4872071 3.151568
vt 0.4872071 -2.151568
vt 0.512789 -2.151568
vt 0.512789 3.151568
vt 0.5127902 -2.240682
vt 0.5127929 8.640785
vt 0.487211 8.640785
vt 0.4872084 -2.240682
vt 0.4872079 -4.381136
vt 0.4872071 -7.640785
vt 0.512789 -7.640785
vt 0.5127898 -4.381136
vt -2.240681 -0.1066833
vt 8.640785 -2.151568
vt 8.640785 3.151568
vt -4.381136 -0.1066833
vt -7.640785 -2.151568
vt -7.640785 3.151568
vt -4.381136 3.151568
vt -2.240682 3.151568
vt 3.240681 -0.106683
vt 3.240681 3.151568
vt -7.640785 3.151568
vt -7.640785 -2.151568
vt 5.381135 -0.106683
vt 8.640785 -2.151568
vt 8.640785 3.151568
vt 5.381136 3.151568
vt 0.7728144 5.960464E-08
vt 0.7522733 5.960464E-08
vt 0.7522733 0.9481626
vt 0.7728145 0.9481626
vt 0.2271855 1.192093E-07
vt 0.2271855 0.9999999
vt 0.2477266 0.9999999
vt 0.2477266 1.192093E-07
vt 0.2271855 0
vt 0.2271856 0.9481626
vt 0.2477267 0.9481626
vt 0.2477267 0
vt 0.5127902 -2.240682
vt 0.5127907 -0.2917335
vt 0.5082088 -0.2917335
vt 0.4872084 -2.240682
vt 0.4872089 -0.2917335
vt -1.6111 0.08183277
vt -0.2917325 0.081833
vt -0.2917325 0.4768929
vt -2.240681 0.08183277
vt -2.240682 3.151568
vt -0.2917334 3.151568
vt 1.291733 0.4768931
vt 1.291733 0.08183312
vt 2.611101 0.081833
vt 1.291733 3.151568
vt 3.127919 0.08183289
vt 3.240681 3.151568
vt 3.240681 0.08183289
vt 0.2477267 0.9481626
vt 0.2477267 0.0548588
vt 0.228374 0.0548588
vt 0.2271856 0.9481626
vt 0.2271856 0.0548588
vt 0.2271856 0.9481626
vt 0.228374 0.0548588

g fence.obj
usemtl fence
usemap fence
f 1/1/1 3/3/3 2/2/2
f 3/3/3 1/1/1 4/4/4
f 5/5/5 7/7/7 6/6/6
f 7/7/7 5/5/5 8/8/8
f 9/9/9 11/11/11 10/10/10
f 11/11/11 9/9/9 12/12/12
f 13/13/13 15/15/15 14/14/14
f 15/15/15 13/13/13 16/16/16
f 17/17/17 19/19/19 18/18/18
f 19/19/19 17/17/17 20/20/20
f 21/21/21 23/23/23 22/22/22
f 21/21/21 22/22/22 24/24/24
f 24/24/24 22/22/22 25/25/25
f 24/24/24 25/25/25 26/26/26
f 24/24/24 26/26/26 27/27/27
f 23/23/23 21/21/21 28/28/28
f 29/29/29 31/31/31 30/30/30
f 31/31/31 29/29/29 32/32/32
f 32/32/32 29/29/29 33/33/33
f 32/32/32 33/33/33 34/34/34
f 34/34/34 33/33/33 35/35/35
f 35/35/35 33/33/33 36/36/36
f 37/37/37 39/39/39 38/38/38
f 39/39/39 37/37/37 40/40/40
f 41/41/41 43/43/43 42/42/42
f 43/43/43 41/41/41 44/44/44
f 45/45/45 47/47/47 46/46/46
f 47/47/47 45/45/45 48/48/48
f 49/49/49 51/51/51 50/50/50
f 51/51/51 49/49/49 52/52/52
f 53/53/53 51/51/51 52/52/52
f 54/54/54 56/56/56 55/55/55
f 56/56/56 54/54/54 57/57/57
f 56/56/56 57/57/57 58/58/58
f 59/59/59 56/56/56 58/58/58
f 60/60/60 62/62/62 61/61/61
f 62/62/62 60/60/60 63/63/63
f 64/64/64 62/62/62 63/63/63
f 64/64/64 63/63/63 65/65/65
f 66/66/66 64/64/64 65/65/65
f 67/67/67 69/69/69 68/68/68
f 69/69/69 67/67/67 70/70/70
f 71/71/71 73/73/73 72/72/72
