#Fence02.obj

v 0 -0.1384443 0
v 2.991204 1.211166E-08 0
v 0 -1.211166E-08 0
v 2.991204 -0.1384442 0
v 0 -0.1384442 4.154506
v 2.991204 1.211166E-08 4.154506
v 2.991204 -0.1384442 4.154506
v 0 0 4.154506
v 0 -0.1384443 0
v 2.991204 -0.1384442 4.154506
v 2.991204 -0.1384442 0
v 0 -0.1384442 4.154506
v 2.991204 -0.1384442 0
v 2.991204 1.211166E-08 4.154506
v 2.991204 1.211166E-08 0
v 2.991204 -0.1384442 4.154506
v 2.991204 1.211166E-08 0
v 0 0 4.154506
v 0 -1.211166E-08 0
v 2.991204 1.211166E-08 4.154506
v 0 -1.211166E-08 0
v 0 -0.1384442 4.154506
v 0 -0.1384443 0
v 0 0 4.154506

vn 0 0 -1
vn 0 0 -1
vn 0 0 -1
vn 0 0 -1
vn 0 0 1
vn 0 0 1
vn 0 0 1
vn 0 0 1
vn 0 -1 0
vn 0 -1 0
vn 0 -1 0
vn 0 -1 0
vn 1 0 0
vn 1 0 0
vn 1 0 0
vn 1 0 0
vn 0 1 0
vn 0 1 0
vn 0 1 0
vn 0 1 0
vn -1 0 0
vn -1 0 0
vn -1 0 0
vn -1 0 0

vt 0.00920333 1
vt 0 0
vt 0.00920333 0
vt 0 1
vt 0 1
vt 0.00920333 0
vt 0.00920333 1
vt 0 0
vt 0 1
vt 1 0
vt 1 1
vt 0 0
vt 0 1
vt 0.00920333 0
vt 0.00920333 1
vt 0 0
vt 0 1
vt 1 0
vt 1 1
vt 0 0
vt 0 1
vt 0.00920333 0
vt 0.00920333 1
vt 0 0

g Fence02.obj
usemtl Fence02
usemap Fence02
f 1/1/1 3/3/3 2/2/2
f 2/2/2 4/4/4 1/1/1
f 5/5/5 7/7/7 6/6/6
f 6/6/6 8/8/8 5/5/5
f 9/9/9 11/11/11 10/10/10
f 10/10/10 12/12/12 9/9/9
f 13/13/13 15/15/15 14/14/14
f 14/14/14 16/16/16 13/13/13
f 17/17/17 19/19/19 18/18/18
f 18/18/18 20/20/20 17/17/17
f 21/21/21 23/23/23 22/22/22
f 22/22/22 24/24/24 21/21/21
