#Glass.obj

v -0.8541465 -0.1215945 0.03788833
v -0.5574514 -0.1215945 0.03788833
v -0.8541465 -0.5367619 0.03788833
v -0.5574514 -0.5367619 0.03788833
v -0.488451 -0.1215945 0.03788833
v -0.1917559 -0.1215945 0.03788833
v -0.488451 -0.5367619 0.03788833
v -0.1917559 -0.5367619 0.03788833
v -0.1146092 -0.1215945 0.03788833
v 0.1820859 -0.1215945 0.03788833
v -0.1146092 -0.5367619 0.03788833
v 0.1820859 -0.5367619 0.03788833
v 0.2542306 -0.1215945 0.03788833
v 0.8601699 -0.1215945 0.03788833
v 0.2542306 -0.5367619 0.03788833
v 0.8601699 -0.5367619 0.03788833
v 0.2542306 0.3497373 0.03788833
v 0.8601699 0.3497373 0.03788833
v 0.2542306 -0.06543011 0.03788833
v 0.8601699 -0.06543011 0.03788833
v -0.1146092 0.3494227 0.03788833
v 0.1820859 0.3494227 0.03788833
v -0.1146092 -0.06574473 0.03788833
v 0.1820859 -0.06574473 0.03788833
v -0.4855474 0.3494227 0.03788833
v -0.1888524 0.3494227 0.03788833
v -0.4855474 -0.06574473 0.03788833
v -0.1888524 -0.06574473 0.03788833
v -0.8537363 0.3494227 0.03788833
v -0.5570413 0.3494227 0.03788833
v -0.8537363 -0.06574473 0.03788833
v -0.5570413 -0.06574473 0.03788833

vn 0 0 1
vn 0 0 1
vn 0 0 1
vn 0 0 1
vn 0 0 1
vn 0 0 1
vn 0 0 1
vn 0 0 1
vn 0 0 1
vn 0 0 1
vn 0 0 1
vn 0 0 1
vn 0 0 1
vn 0 0 1
vn 0 0 1
vn 0 0 1
vn 0 0 1
vn 0 0 1
vn 0 0 1
vn 0 0 1
vn 0 0 1
vn 0 0 1
vn 0 0 1
vn 0 0 1
vn 0 0 1
vn 0 0 1
vn 0 0 1
vn 0 0 1
vn 0 0 1
vn 0 0 1
vn 0 0 1
vn 0 0 1

vt 0.006104155 0.35952
vt 0.2456087 0.35952
vt 0.006103906 0.7068755
vt 0.2456084 0.7068756
vt 0.2524168 0.3598219
vt 0.5006192 0.3598219
vt 0.2524166 0.7080612
vt 0.5006188 0.7080612
vt 0.7498848 0.003488302
vt 0.9955652 0.003488302
vt 0.7498845 0.3463279
vt 0.9955649 0.3463279
vt 0.004999928 0.7147639
vt 0.3825182 0.7147639
vt 0.004999768 0.990923
vt 0.382518 0.9909231
vt 0.3838729 0.7138792
vt 0.7499115 0.7138793
vt 0.3838726 0.9932123
vt 0.7499113 0.9932125
vt 0.5062602 0.0008541942
vt 0.743972 0.0008541942
vt 0.50626 0.3475682
vt 0.7439715 0.3475683
vt 0.2487092 0.0008539557
vt 0.5056742 0.0008539557
vt 0.2487089 0.3576943
vt 0.5056739 0.3576943
vt 0.005049978 0.0008538365
vt 0.2447701 0.0008538961
vt 0.005049731 0.3587719
vt 0.2447698 0.358772

g Glass.obj
usemtl Glass
usemap Glass
f 1/1/1 3/3/3 2/2/2
f 4/4/4 2/2/2 3/3/3
f 5/5/5 7/7/7 6/6/6
f 8/8/8 6/6/6 7/7/7
f 9/9/9 11/11/11 10/10/10
f 12/12/12 10/10/10 11/11/11
f 13/13/13 15/15/15 14/14/14
f 16/16/16 14/14/14 15/15/15
f 17/17/17 19/19/19 18/18/18
f 20/20/20 18/18/18 19/19/19
f 21/21/21 23/23/23 22/22/22
f 24/24/24 22/22/22 23/23/23
f 25/25/25 27/27/27 26/26/26
f 28/28/28 26/26/26 27/27/27
f 29/29/29 31/31/31 30/30/30
f 32/32/32 30/30/30 31/31/31
