#Glass007.obj

v -0.0001968504 -0.03622046 0
v 0.0001968504 0.03622046 0
v -0.0001968504 0.03622046 0
v 0.0001968504 -0.03622046 0
v -0.0001968504 -0.03622046 0.07343367
v 0.0001968504 0.03622046 0.07343367
v 0.0001968504 -0.03622046 0.07343367
v -0.0001968504 0.03622046 0.07343367
v -0.0001968504 -0.03622046 0
v 0.0001968504 -0.03622046 0.07343367
v 0.0001968504 -0.03622046 0
v -0.0001968504 -0.03622046 0.07343367
v 0.0001968504 -0.03622046 0
v 0.0001968504 0.03622046 0.07343367
v 0.0001968504 0.03622046 0
v 0.0001968504 -0.03622046 0.07343367
v 0.0001968504 0.03622046 0
v -0.0001968504 0.03622046 0.07343367
v -0.0001968504 0.03622046 0
v 0.0001968504 0.03622046 0.07343367
v -0.0001968504 0.03622046 0
v -0.0001968504 -0.03622046 0.07343367
v -0.0001968504 -0.03622046 0
v -0.0001968504 0.03622046 0.07343367
v -0.0001968733 0.1212598 0
v 0.0001968275 0.1937007 0
v -0.0001968733 0.1937007 0
v 0.0001968275 0.1937007 0
v -0.0001968733 0.1212598 0
v 0.0001968275 0.1212598 0
v -0.0001968733 0.1212598 0.07343367
v 0.0001968275 0.1937007 0.07343367
v 0.0001968275 0.1212598 0.07343367
v 0.0001968275 0.1937007 0.07343367
v -0.0001968733 0.1212598 0.07343367
v -0.0001968733 0.1937007 0.07343367
v -0.0001968733 0.1212598 0
v 0.0001968275 0.1212598 0.07343367
v 0.0001968275 0.1212598 0
v -0.0001968733 0.1212598 0.07343367
v 0.0001968275 0.1212598 0
v 0.0001968275 0.1937007 0.07343367
v 0.0001968275 0.1937007 0
v 0.0001968275 0.1212598 0.07343367
v 0.0001968275 0.1937007 0
v -0.0001968733 0.1937007 0.07343367
v -0.0001968733 0.1937007 0
v 0.0001968275 0.1937007 0.07343367
v -0.0001968733 0.1937007 0
v -0.0001968733 0.1212598 0.07343367
v -0.0001968733 0.1212598 0
v -0.0001968733 0.1937007 0.07343367
v -0.0001968962 0.2787401 0
v 0.0001968046 0.351181 0
v -0.0001968962 0.351181 0
v 0.0001968046 0.2787401 0
v -0.0001968962 0.2787401 0.07343367
v 0.0001968046 0.351181 0.07343367
v 0.0001968046 0.2787401 0.07343367
v -0.0001968962 0.351181 0.07343367
v -0.0001968962 0.2787401 0
v 0.0001968046 0.2787401 0.07343367
v 0.0001968046 0.2787401 0
v -0.0001968962 0.2787401 0.07343367
v 0.0001968046 0.2787401 0
v 0.0001968046 0.351181 0.07343367
v 0.0001968046 0.351181 0
v 0.0001968046 0.2787401 0.07343367
v 0.0001968046 0.351181 0
v -0.0001968962 0.351181 0.07343367
v -0.0001968962 0.351181 0
v 0.0001968046 0.351181 0.07343367
v -0.0001968962 0.351181 0
v -0.0001968962 0.2787401 0.07343367
v -0.0001968962 0.2787401 0
v -0.0001968962 0.351181 0.07343367

vn 0 0 -1
vn 0 0 -1
vn 0 0 -1
vn 0 0 -1
vn 0 0 1
vn 0 0 1
vn 0 0 1
vn 0 0 1
vn 0 -1 0
vn 0 -1 0
vn 0 -1 0
vn 0 -1 0
vn 1 0 0
vn 1 0 0
vn 1 0 0
vn 1 0 0
vn 0 1 0
vn 0 1 0
vn 0 1 0
vn 0 1 0
vn -1 0 0
vn -1 0 0
vn -1 0 0
vn -1 0 0
vn 0 0 -1
vn 0 0 -1
vn 0 0 -1
vn 0 0 -1
vn 0 0 -1
vn 0 0 -1
vn 0 0 1
vn 0 0 1
vn 0 0 1
vn 0 0 1
vn 0 0 1
vn 0 0 1
vn 0 -1 0
vn 0 -1 0
vn 0 -1 0
vn 0 -1 0
vn 1 0 0
vn 1 0 0
vn 1 0 0
vn 1 0 0
vn 0 1 0
vn 0 1 0
vn 0 1 0
vn 0 1 0
vn -1 0 0
vn -1 0 0
vn -1 0 0
vn -1 0 0
vn 0 0 -1
vn 0 0 -1
vn 0 0 -1
vn 0 0 -1
vn 0 0 1
vn 0 0 1
vn 0 0 1
vn 0 0 1
vn 0 -1 0
vn 0 -1 0
vn 0 -1 0
vn 0 -1 0
vn 1 0 0
vn 1 0 0
vn 1 0 0
vn 1 0 0
vn 0 1 0
vn 0 1 0
vn 0 1 0
vn 0 1 0
vn -1 0 0
vn -1 0 0
vn -1 0 0
vn -1 0 0

vt 0.4979424 1
vt 0.9979424 0.5
vt 0.9979424 1
vt 0.4979424 0.5
vt 0.4979424 1
vt 0.9979424 0.5
vt 0.9979424 1
vt 0.4979424 0.5
vt 0.4979424 1
vt 0.9979424 0.5
vt 0.9979424 1
vt 0.4979424 0.5
vt 0.4979424 1
vt 0.9979424 0.5
vt 0.9979424 1
vt 0.4979424 0.5
vt 0.4979424 1
vt 0.9979424 0.5
vt 0.9979424 1
vt 0.4979424 0.5
vt 0.9979424 1
vt 0.4979424 0.5
vt 0.4979424 1
vt 0.9979424 0.5
vt 0 0.500307
vt 0.5 0.0003070235
vt 0.5 0.500307
vt 0 0.0003070235
vt 0.5 0.500307
vt 0.5 0.0003070235
vt 0.5 0.500307
vt 0 0.0003070235
vt 0 0.500307
vt 0.5 0.0003070235
vt 0 0.500307
vt 0 0.0003070235
vt 0 0.500307
vt 0.5 0.0003070235
vt 0.5 0.500307
vt 0 0.0003070235
vt 0 0.500307
vt 0.5 0.0003070235
vt 0.5 0.500307
vt 0 0.0003070235
vt 0 0.500307
vt 0.5 0.0003070235
vt 0.5 0.500307
vt 0 0.0003070235
vt 0.5 0.500307
vt 0 0.0003070235
vt 0 0.500307
vt 0.5 0.0003070235
vt 0 1
vt 0.5 0.5
vt 0.5 1
vt 0 0.5
vt 0 1
vt 0.5 0.5
vt 0.5 1
vt 0 0.5
vt 0 1
vt 0.5 0.5
vt 0.5 1
vt 0 0.5
vt 0 1
vt 0.5 0.5
vt 0.5 1
vt 0 0.5
vt 0 1
vt 0.5 0.5
vt 0.5 1
vt 0 0.5
vt 0.5 1
vt 0 0.5
vt 0 1
vt 0.5 0.5

g Glass007.obj
usemtl Glass007
usemap Glass007
f 1/1/1 3/3/3 2/2/2
f 2/2/2 4/4/4 1/1/1
f 5/5/5 7/7/7 6/6/6
f 6/6/6 8/8/8 5/5/5
f 9/9/9 11/11/11 10/10/10
f 10/10/10 12/12/12 9/9/9
f 13/13/13 15/15/15 14/14/14
f 14/14/14 16/16/16 13/13/13
f 17/17/17 19/19/19 18/18/18
f 18/18/18 20/20/20 17/17/17
f 21/21/21 23/23/23 22/22/22
f 22/22/22 24/24/24 21/21/21
f 25/25/25 27/27/27 26/26/26
f 28/28/28 30/30/30 29/29/29
f 31/31/31 33/33/33 32/32/32
f 34/34/34 36/36/36 35/35/35
f 37/37/37 39/39/39 38/38/38
f 38/38/38 40/40/40 37/37/37
f 41/41/41 43/43/43 42/42/42
f 42/42/42 44/44/44 41/41/41
f 45/45/45 47/47/47 46/46/46
f 46/46/46 48/48/48 45/45/45
f 49/49/49 51/51/51 50/50/50
f 50/50/50 52/52/52 49/49/49
f 53/53/53 55/55/55 54/54/54
f 54/54/54 56/56/56 53/53/53
f 57/57/57 59/59/59 58/58/58
f 58/58/58 60/60/60 57/57/57
f 61/61/61 63/63/63 62/62/62
f 62/62/62 64/64/64 61/61/61
f 65/65/65 67/67/67 66/66/66
f 66/66/66 68/68/68 65/65/65
f 69/69/69 71/71/71 70/70/70
f 70/70/70 72/72/72 69/69/69
f 73/73/73 75/75/75 74/74/74
f 74/74/74 76/76/76 73/73/73
