#Glass.obj

v -0.5125831 -0.1225864 0.03004419
v -0.215888 -0.1225864 0.03004419
v -0.5125831 -0.5377537 0.03004419
v -0.215888 -0.5377537 0.03004419
v -0.1468876 -0.1225864 0.03004419
v 0.1498074 -0.1225864 0.03004419
v -0.1468876 -0.5377537 0.03004419
v 0.1498074 -0.5377537 0.03004419
v 0.2269541 -0.1225864 0.03004419
v 0.5236492 -0.1225864 0.03004419
v 0.2269541 -0.5377537 0.03004419
v 0.5236492 -0.5377537 0.03004419
v 0.2269541 0.3484308 0.03004419
v 0.5236492 0.3484308 0.03004419
v 0.2269541 -0.06673657 0.03004419
v 0.5236492 -0.06673657 0.03004419
v -0.143984 0.3484308 0.03004419
v 0.152711 0.3484308 0.03004419
v -0.143984 -0.06673657 0.03004419
v 0.152711 -0.06673657 0.03004419
v -0.512173 0.3484308 0.03004419
v -0.215478 0.3484308 0.03004419
v -0.512173 -0.06673657 0.03004419
v -0.215478 -0.06673657 0.03004419

vn 0 0 1
vn 0 0 1
vn 0 0 1
vn 0 0 1
vn 0 0 1
vn 0 0 1
vn 0 0 1
vn 0 0 1
vn 0 0 1
vn 0 0 1
vn 0 0 1
vn 0 0 1
vn 0 0 1
vn 0 0 1
vn 0 0 1
vn 0 0 1
vn 0 0 1
vn 0 0 1
vn 0 0 1
vn 0 0 1
vn 0 0 1
vn 0 0 1
vn 0 0 1
vn 0 0 1

vt 0.2581317 0.35952
vt 0.4976362 0.35952
vt 0.2581314 0.7068755
vt 0.4976359 0.7068756
vt 0.7498462 0.3598219
vt 0.9944465 0.3598219
vt 0.749846 0.7080612
vt 0.9944461 0.7080612
vt 0.7498848 0.715237
vt 0.9955652 0.715237
vt 0.7498845 0.9931183
vt 0.9955649 0.9931183
vt 0.5062602 0.0008541942
vt 0.743972 0.0008541942
vt 0.50626 0.3475682
vt 0.7439715 0.3475683
vt 0.2487092 0.0008539557
vt 0.5056742 0.0008539557
vt 0.2487089 0.3576943
vt 0.5056739 0.3576943
vt 0.5027163 0.359021
vt 0.7461826 0.3590211
vt 0.5027161 0.7075735
vt 0.7461823 0.7075737

g Glass.obj
usemtl Glass
usemap Glass
f 1/1/1 3/3/3 2/2/2
f 4/4/4 2/2/2 3/3/3
f 5/5/5 7/7/7 6/6/6
f 8/8/8 6/6/6 7/7/7
f 9/9/9 11/11/11 10/10/10
f 12/12/12 10/10/10 11/11/11
f 13/13/13 15/15/15 14/14/14
f 16/16/16 14/14/14 15/15/15
f 17/17/17 19/19/19 18/18/18
f 20/20/20 18/18/18 19/19/19
f 21/21/21 23/23/23 22/22/22
f 24/24/24 22/22/22 23/23/23
