#glass.obj

v -1.893827 2.611202 -0.03523603
v -0.2219542 4.69002 -0.03523603
v -0.2219542 2.611202 -0.03523603
v -1.893827 4.69002 -0.03523603
v -1.893827 4.69002 -0.1015687
v -0.2219542 2.611202 -0.1015687
v -0.2219542 4.69002 -0.1015687
v -1.893827 2.611202 -0.1015687

vn 0 0 1
vn 0 0 1
vn 0 0 1
vn 0 0 1
vn 0 0 -1
vn 0 0 -1
vn 0 0 -1
vn 0 0 -1

vt 0.6048406 0.4952554
vt 0.9257601 0.09752792
vt 0.9257601 0.4952554
vt 0.6048406 0.09752792
vt 0.6052437 0.09910387
vt 0.9261631 0.4968315
vt 0.9261631 0.09910387
vt 0.6052437 0.4968315

g glass.obj
usemtl glass
usemap glass
f 1/1/1 3/3/3 2/2/2
f 2/2/2 4/4/4 1/1/1
f 5/5/5 7/7/7 6/6/6
f 6/6/6 8/8/8 5/5/5
