#LampPillar.obj

v 0 0 0
v 0.009842521 0 0
v 0.009248944 0.00336634 0
v 0.007539808 0.00632665 0
v 0.00492126 0.008523873 0
v 0.001709135 0.009692991 0
v 0.009248941 -0.003366347 0
v 0.007539804 -0.006326655 0
v 0.004921255 -0.008523876 0
v 0.001709131 -0.009692991 0
v -0.00170914 -0.00969299 0
v -0.004921263 -0.008523871 0
v -0.00753981 -0.006326648 0
v -0.009248944 -0.003366338 0
v -0.009842521 1.486179E-09 0
v -0.009248944 0.003366341 0
v -0.007539808 0.00632665 0
v -0.004921261 0.008523873 0
v -0.001709137 0.00969299 0
v 0.001709135 0.009692991 0
v 0.009842521 0 0
v 0.008495396 -8.520534E-11 0.1181102
v 0.007983061 0.002905597 0.1181102
v 0.009248944 0.00336634 0
v 0.006507851 0.005460736 0.1181102
v 0.007539808 0.00632665 0
v 0.004247698 0.00735723 0.1181102
v 0.00492126 0.008523873 0
v 0.009248941 -0.003366347 0
v 0.007983059 -0.002905603 0.1181102
v 0.006226277 0.002266182 0.1890046
v 0.006625866 2.443701E-09 0.1890046
v 0.005075708 0.004259027 0.1890046
v 0.003312932 0.00573817 0.1890046
v 0.006226274 -0.002266182 0.1890046
v 0.00492126 0.008523873 0
v 0.004247698 0.00735723 0.1181102
v 0.001475209 0.008366333 0.1181102
v 0.001709135 0.009692991 0
v 0.001150569 0.006525206 0.1890046
v 0.003312932 0.00573817 0.1890046
v 0.001709135 0.009692991 0
v 0.001475209 0.008366333 0.1181102
v -0.001475211 0.008366332 0.1181102
v -0.001709137 0.00969299 0
v -0.004247699 0.00735723 0.1181102
v -0.004921261 0.008523873 0
v -0.006507852 0.005460736 0.1181102
v -0.007539808 0.00632665 0
v -0.001150571 0.006525206 0.1890046
v 0.001150569 0.006525206 0.1890046
v -0.003312933 0.00573817 0.1890046
v -0.005075708 0.004259027 0.1890046
v -0.007539808 0.00632665 0
v -0.006507852 0.005460736 0.1181102
v -0.007983062 0.002905597 0.1181102
v -0.009248944 0.003366341 0
v -0.008495396 1.197564E-09 0.1181102
v -0.009842521 1.486179E-09 0
v -0.007983062 -0.002905595 0.1181102
v -0.009248944 -0.003366338 0
v -0.006226276 0.002266183 0.1890046
v -0.005075708 0.004259027 0.1890046
v -0.006625865 3.444179E-09 0.1890046
v -0.006226276 -0.002266176 0.1890046
v -0.005075708 -0.004259021 0.1890046
v -0.006507853 -0.005460734 0.1181102
v -0.009248944 -0.003366338 0
v -0.007983062 -0.002905595 0.1181102
v -0.006507853 -0.005460734 0.1181102
v -0.00753981 -0.006326648 0
v -0.004247701 -0.007357228 0.1181102
v -0.004921263 -0.008523871 0
v -0.001475214 -0.008366332 0.1181102
v -0.00170914 -0.00969299 0
v -0.003312935 -0.005738164 0.1890046
v -0.005075708 -0.004259021 0.1890046
v -0.001150572 -0.006525201 0.1890046
v -0.00170914 -0.00969299 0
v -0.001475214 -0.008366332 0.1181102
v 0.001475206 -0.008366333 0.1181102
v 0.001709131 -0.009692991 0
v 0.004247694 -0.007357231 0.1181102
v 0.004921255 -0.008523876 0
v 0.006507847 -0.005460741 0.1181102
v 0.007539804 -0.006326655 0
v 0.007983059 -0.002905603 0.1181102
v 0.009248941 -0.003366347 0
v 0.001150566 -0.006525202 0.1890046
v -0.001150572 -0.006525201 0.1890046
v 0.003312929 -0.005738168 0.1890046
v 0.005075704 -0.004259025 0.1890046
v 0.006226274 -0.002266182 0.1890046
v 0.001475206 -0.008366333 0.1181102
v 0.001150566 -0.006525202 0.1890046
v 0.003312929 -0.005738168 0.1890046
v 0.006625866 2.443701E-09 0.1890046
v 0.004446897 4.81571E-10 0.3543308
v 0.004178717 0.001520929 0.3543308
v 0.006226277 0.002266182 0.1890046
v 0.003406521 0.002858412 0.3543308
v 0.005075708 0.004259027 0.1890046
v 0.002223448 0.003851127 0.3543308
v 0.003312932 0.00573817 0.1890046
v 0.006226274 -0.002266182 0.1890046
v 0.004178715 -0.001520931 0.3543308
v 0.003312932 0.00573817 0.1890046
v 0.002223448 0.003851127 0.3543308
v 0.0007721952 0.00437934 0.3543308
v 0.001150569 0.006525206 0.1890046
v 0.001150569 0.006525206 0.1890046
v 0.0007721952 0.00437934 0.3543308
v -0.0007721963 0.004379339 0.3543308
v -0.001150571 0.006525206 0.1890046
v -0.002223449 0.003851127 0.3543308
v -0.003312933 0.00573817 0.1890046
v -0.003406521 0.002858412 0.3543308
v -0.005075708 0.004259027 0.1890046
v -0.005075708 0.004259027 0.1890046
v -0.003406521 0.002858412 0.3543308
v -0.004178716 0.001520929 0.3543308
v -0.006226276 0.002266183 0.1890046
v -0.004446897 1.153034E-09 0.3543308
v -0.006625865 3.444179E-09 0.1890046
v -0.004178716 -0.001520927 0.3543308
v -0.006226276 -0.002266176 0.1890046
v -0.003406522 -0.002858409 0.3543308
v -0.005075708 -0.004259021 0.1890046
v -0.005075708 -0.004259021 0.1890046
v -0.003406522 -0.002858409 0.3543308
v -0.00222345 -0.003851124 0.3543308
v -0.003312935 -0.005738164 0.1890046
v -0.0007721976 -0.004379338 0.3543308
v -0.001150572 -0.006525201 0.1890046
v 0.0007721934 -0.004379338 0.3543308
v 0.001150566 -0.006525202 0.1890046
v 0.002223446 -0.003851127 0.3543308
v 0.003312929 -0.005738168 0.1890046
v 0.003312929 -0.005738168 0.1890046
v 0.002223446 -0.003851127 0.3543308
v 0.003406519 -0.002858412 0.3543308
v 0.005075704 -0.004259025 0.1890046
v 0.004178715 -0.001520931 0.3543308
v 0.006226274 -0.002266182 0.1890046
v -6.101266E-11 4.81571E-10 0.3543308
v 0.004178717 0.001520929 0.3543308
v 0.004446897 4.81571E-10 0.3543308
v 0.003406521 0.002858412 0.3543308
v 0.002223448 0.003851127 0.3543308
v 0.0007721952 0.00437934 0.3543308
v 0.004178715 -0.001520931 0.3543308
v 0.003406519 -0.002858412 0.3543308
v 0.002223446 -0.003851127 0.3543308
v 0.0007721934 -0.004379338 0.3543308
v -0.0007721976 -0.004379338 0.3543308
v -0.00222345 -0.003851124 0.3543308
v -0.003406522 -0.002858409 0.3543308
v -0.004178716 -0.001520927 0.3543308
v -0.004446897 1.153034E-09 0.3543308
v -0.004178716 0.001520929 0.3543308
v -0.003406521 0.002858412 0.3543308
v -0.002223449 0.003851127 0.3543308
v -0.0007721963 0.004379339 0.3543308
v 0.0007721952 0.00437934 0.3543308

vn 0 0 -1
vn 0 0 -1
vn 0 0 -1
vn 0 0 -1
vn 0 0 -1
vn 0 0 -1
vn 0 0 -1
vn 0 0 -1
vn 0 0 -1
vn 0 0 -1
vn 0 0 -1
vn 0 0 -1
vn 0 0 -1
vn 0 0 -1
vn 0 0 -1
vn 0 0 -1
vn 0 0 -1
vn 0 0 -1
vn 0 0 -1
vn 0 0 -1
vn 0.999935 -2.314766E-07 0.01140491
vn 0.9998221 -3.518929E-07 0.01886813
vn 0.9395254 0.3419591 0.01886812
vn 0.9396315 0.3419979 0.01140491
vn 0.7659082 0.642673 0.01886812
vn 0.7659945 0.6427459 0.0114049
vn 0.4999111 0.8658711 0.01886812
vn 0.4999675 0.8659691 0.0114049
vn 0.9396314 -0.3419984 0.01140491
vn 0.9395252 -0.3419598 0.01886814
vn 0.9395087 0.3419533 0.01978492
vn 0.9998043 -3.994729E-07 0.01978493
vn 0.7658943 0.6426621 0.01978492
vn 0.4999018 0.8658561 0.01978492
vn 0.9395084 -0.3419538 0.01978494
vn 0.4999675 0.8659691 0.0114049
vn 0.4999111 0.8658711 0.01886812
vn 0.1736172 0.9846325 0.01886812
vn 0.1736368 0.9847437 0.0114049
vn 0.173614 0.984615 0.01978492
vn 0.4999018 0.8658561 0.01978492
vn 0.1736368 0.9847437 0.0114049
vn 0.1736172 0.9846325 0.01886812
vn -0.1736172 0.9846325 0.01886812
vn -0.173637 0.9847437 0.0114049
vn -0.4999109 0.8658713 0.01886812
vn -0.4999675 0.8659691 0.0114049
vn -0.765908 0.6426733 0.01886812
vn -0.7659947 0.6427458 0.0114049
vn -0.1736144 0.9846149 0.01978492
vn 0.173614 0.984615 0.01978492
vn -0.4999022 0.8658559 0.01978492
vn -0.7658947 0.6426616 0.01978492
vn -0.7659947 0.6427458 0.0114049
vn -0.765908 0.6426733 0.01886812
vn -0.9395253 0.3419593 0.01886813
vn -0.9396315 0.3419979 0.01140491
vn -0.9998221 1.253317E-07 0.01886814
vn -0.999935 -1.928971E-08 0.0114049
vn -0.9395255 -0.3419588 0.01886814
vn -0.9396316 -0.3419977 0.0114049
vn -0.9395088 0.341953 0.01978493
vn -0.7658947 0.6426616 0.01978492
vn -0.9998043 -1.347619E-07 0.01978493
vn -0.9395088 -0.3419531 0.01978494
vn -0.7658947 -0.6426616 0.01978494
vn -0.7659084 -0.642673 0.01886815
vn -0.9396316 -0.3419977 0.0114049
vn -0.9395255 -0.3419588 0.01886814
vn -0.7659084 -0.642673 0.01886815
vn -0.7659948 -0.6427455 0.0114049
vn -0.4999115 -0.865871 0.01886815
vn -0.4999678 -0.8659689 0.0114049
vn -0.1736179 -0.9846324 0.01886815
vn -0.1736373 -0.9847437 0.0114049
vn -0.4999022 -0.8658558 0.01978494
vn -0.7658947 -0.6426616 0.01978494
vn -0.1736145 -0.9846149 0.01978495
vn -0.1736373 -0.9847437 0.0114049
vn -0.1736179 -0.9846324 0.01886815
vn 0.1736168 -0.9846325 0.01886814
vn 0.1736364 -0.9847438 0.0114049
vn 0.4999103 -0.8658715 0.01886815
vn 0.4999669 -0.8659694 0.01140491
vn 0.7659076 -0.6426739 0.01886815
vn 0.7659943 -0.6427463 0.01140491
vn 0.9395252 -0.3419598 0.01886814
vn 0.9396314 -0.3419984 0.01140491
vn 0.1736137 -0.984615 0.01978495
vn -0.1736145 -0.9846149 0.01978495
vn 0.4999017 -0.8658561 0.01978494
vn 0.7658944 -0.642662 0.01978494
vn 0.9395084 -0.3419538 0.01978494
vn 0.1736168 -0.9846325 0.01886814
vn 0.1736137 -0.984615 0.01978495
vn 0.4999017 -0.8658561 0.01978494
vn 0.9998043 -3.994729E-07 0.01978493
vn 0.9999132 -5.163275E-07 0.01317867
vn 0.9396111 0.3419902 0.01317867
vn 0.9395087 0.3419533 0.01978492
vn 0.7659778 0.6427319 0.01317868
vn 0.7658943 0.6426621 0.01978492
vn 0.4999565 0.8659503 0.01317868
vn 0.4999018 0.8658561 0.01978492
vn 0.9395084 -0.3419538 0.01978494
vn 0.9396108 -0.3419909 0.01317866
vn 0.4999018 0.8658561 0.01978492
vn 0.4999565 0.8659503 0.01317868
vn 0.1736329 0.9847223 0.01317868
vn 0.173614 0.984615 0.01978492
vn 0.173614 0.984615 0.01978492
vn 0.1736329 0.9847223 0.01317868
vn -0.173633 0.9847223 0.01317868
vn -0.1736144 0.9846149 0.01978492
vn -0.4999564 0.8659503 0.01317868
vn -0.4999022 0.8658559 0.01978492
vn -0.7659779 0.6427317 0.01317868
vn -0.7658947 0.6426616 0.01978492
vn -0.7658947 0.6426616 0.01978492
vn -0.7659779 0.6427317 0.01317868
vn -0.9396111 0.3419904 0.01317867
vn -0.9395088 0.341953 0.01978493
vn -0.9999132 6.733074E-08 0.01317867
vn -0.9998043 -1.347619E-07 0.01978493
vn -0.9396112 -0.34199 0.01317867
vn -0.9395088 -0.3419531 0.01978494
vn -0.7659782 -0.6427314 0.01317866
vn -0.7658947 -0.6426616 0.01978494
vn -0.7658947 -0.6426616 0.01978494
vn -0.7659782 -0.6427314 0.01317866
vn -0.4999568 -0.86595 0.01317865
vn -0.4999022 -0.8658558 0.01978494
vn -0.1736335 -0.9847222 0.01317866
vn -0.1736145 -0.9846149 0.01978495
vn 0.1736325 -0.9847223 0.01317866
vn 0.1736137 -0.984615 0.01978495
vn 0.4999558 -0.8659507 0.01317866
vn 0.4999017 -0.8658561 0.01978494
vn 0.4999017 -0.8658561 0.01978494
vn 0.4999558 -0.8659507 0.01317866
vn 0.7659774 -0.6427324 0.01317866
vn 0.7658944 -0.642662 0.01978494
vn 0.9396108 -0.3419909 0.01317866
vn 0.9395084 -0.3419538 0.01978494
vn 0 0 1
vn 0 0 1
vn 0 0 1
vn 0 0 1
vn 0 0 1
vn 0 0 1
vn 0 0 1
vn 0 0 1
vn 0 0 1
vn 0 0 1
vn 0 0 1
vn 0 0 1
vn 0 0 1
vn 0 0 1
vn 0 0 1
vn 0 0 1
vn 0 0 1
vn 0 0 1
vn 0 0 1
vn 0 0 1

vt 0.2628413 0.9988962
vt 0.3879317 0.9988962
vt 0.41534 0.9988962
vt 0.442928 0.9988962
vt 0.4707955 0.9988962
vt 0.4989132 0.9988962
vt 0.3605233 0.9988962
vt 0.3329354 0.9988962
vt 0.305068 0.9988962
vt 0.2769502 0.9988962
vt 0.2487323 0.9988962
vt 0.2206145 0.9988962
vt 0.1927471 0.9988962
vt 0.1651592 0.9988962
vt 0.1377508 0.9988962
vt 0.1103425 0.9988962
vt 0.08275454 0.9988962
vt 0.0548871 0.9988962
vt 0.02676932 0.9988962
vt -0.001448561 0.9988962
vt 0.3879317 0.9988962
vt 0.3879317 0.3754218
vt 0.41534 0.3754218
vt 0.41534 0.9988962
vt 0.442928 0.3754218
vt 0.442928 0.9988962
vt 0.4707955 0.3754218
vt 0.4707955 0.9988962
vt 0.3605233 0.9988962
vt 0.3605233 0.3754218
vt 0.4153401 0.001188338
vt 0.3879317 0.001188338
vt 0.442928 0.001188338
vt 0.4707955 0.001188338
vt 0.3605233 0.001188338
vt 0.4707955 0.9988962
vt 0.4707955 0.3754218
vt 0.4989132 0.3754218
vt 0.4989132 0.9988962
vt 0.4989132 0.001188338
vt 0.4707955 0.001188338
vt -0.001448561 0.9988962
vt -0.001448561 0.3754218
vt 0.02676932 0.3754218
vt 0.02676932 0.9988962
vt 0.05488711 0.3754218
vt 0.0548871 0.9988962
vt 0.08275454 0.3754218
vt 0.08275454 0.9988962
vt 0.02676932 0.001188338
vt -0.001448531 0.001188338
vt 0.0548871 0.001188338
vt 0.08275454 0.001188338
vt 0.08275454 0.9988962
vt 0.08275454 0.3754218
vt 0.1103425 0.3754218
vt 0.1103425 0.9988962
vt 0.1377508 0.3754218
vt 0.1377508 0.9988962
vt 0.1651592 0.3754218
vt 0.1651592 0.9988962
vt 0.1103424 0.001188338
vt 0.08275454 0.001188338
vt 0.1377508 0.001188338
vt 0.1651591 0.001188338
vt 0.1927471 0.001188338
vt 0.1927471 0.3754218
vt 0.1651592 0.9988962
vt 0.1651592 0.3754218
vt 0.1927471 0.3754218
vt 0.1927471 0.9988962
vt 0.2206145 0.3754218
vt 0.2206145 0.9988962
vt 0.2487323 0.3754218
vt 0.2487323 0.9988962
vt 0.2206145 0.001188338
vt 0.1927471 0.001188338
vt 0.2487323 0.001188338
vt 0.2487323 0.9988962
vt 0.2487323 0.3754218
vt 0.2769502 0.3754218
vt 0.2769502 0.9988962
vt 0.305068 0.3754218
vt 0.305068 0.9988962
vt 0.3329354 0.3754218
vt 0.3329354 0.9988962
vt 0.3605233 0.3754218
vt 0.3605233 0.9988962
vt 0.2769502 0.001188338
vt 0.2487323 0.001188338
vt 0.305068 0.001188338
vt 0.3329354 0.001188338
vt 0.3605233 0.001188338
vt 0.2769502 0.3754218
vt 0.2769502 0.001188338
vt 0.305068 0.001188338
vt 0.8891433 0.9989458
vt 0.8891433 0.001096487
vt 0.9162787 0.001096487
vt 0.9162787 0.9989458
vt 0.9435919 0.001096487
vt 0.9435919 0.9989458
vt 0.9711816 0.001096487
vt 0.9711816 0.9989458
vt 0.8620079 0.9989458
vt 0.8620079 0.001096487
vt 0.9711816 0.9989458
vt 0.9711816 0.001096487
vt 0.9990192 0.001096487
vt 0.9990194 0.9989458
vt 0.5036417 0.9989458
vt 0.5036417 0.001096487
vt 0.5315785 0.001096487
vt 0.5315785 0.9989458
vt 0.5594162 0.001096487
vt 0.5594161 0.9989458
vt 0.587006 0.001096487
vt 0.587006 0.9989458
vt 0.587006 0.9989458
vt 0.587006 0.001096487
vt 0.6143191 0.001096487
vt 0.6143191 0.9989458
vt 0.6414545 0.001096487
vt 0.6414544 0.9989458
vt 0.6685899 0.001096487
vt 0.6685898 0.9989458
vt 0.6959029 0.001096487
vt 0.6959029 0.9989458
vt 0.6959029 0.9989458
vt 0.6959029 0.001096487
vt 0.7234928 0.001096487
vt 0.7234928 0.9989458
vt 0.7513304 0.001096487
vt 0.7513304 0.9989458
vt 0.7792673 0.001096487
vt 0.7792673 0.9989458
vt 0.807105 0.001096487
vt 0.807105 0.9989458
vt 0.807105 0.9989458
vt 0.807105 0.001096487
vt 0.8346948 0.001096487
vt 0.8346948 0.9989458
vt 0.8620079 0.001096487
vt 0.8620079 0.9989458
vt 0.7652989 0.001096487
vt 0.9162787 0.001096487
vt 0.8891433 0.001096487
vt 0.9435919 0.001096487
vt 0.9711816 0.001096487
vt 0.9990192 0.001096487
vt 0.8620079 0.001096487
vt 0.8346948 0.001096487
vt 0.807105 0.001096487
vt 0.7792673 0.001096487
vt 0.7513304 0.001096487
vt 0.7234928 0.001096487
vt 0.6959029 0.001096487
vt 0.6685899 0.001096487
vt 0.6414545 0.001096487
vt 0.6143191 0.001096487
vt 0.587006 0.001096487
vt 0.5594162 0.001096487
vt 0.5315785 0.001096487
vt 0.5036417 0.001096487

g LampPillar.obj
usemtl LampPillar
usemap LampPillar
f 1/1/1 3/3/3 2/2/2
f 1/1/1 4/4/4 3/3/3
f 1/1/1 5/5/5 4/4/4
f 1/1/1 6/6/6 5/5/5
f 1/1/1 2/2/2 7/7/7
f 1/1/1 7/7/7 8/8/8
f 1/1/1 8/8/8 9/9/9
f 1/1/1 9/9/9 10/10/10
f 1/1/1 10/10/10 11/11/11
f 1/1/1 11/11/11 12/12/12
f 1/1/1 12/12/12 13/13/13
f 1/1/1 13/13/13 14/14/14
f 1/1/1 14/14/14 15/15/15
f 1/1/1 15/15/15 16/16/16
f 1/1/1 16/16/16 17/17/17
f 1/1/1 17/17/17 18/18/18
f 1/1/1 18/18/18 19/19/19
f 1/1/1 19/19/19 20/20/20
f 21/21/21 23/23/23 22/22/22
f 21/21/21 24/24/24 23/23/23
f 24/24/24 25/25/25 23/23/23
f 24/24/24 26/26/26 25/25/25
f 26/26/26 27/27/27 25/25/25
f 26/26/26 28/28/28 27/27/27
f 29/29/29 21/21/21 22/22/22
f 29/29/29 22/22/22 30/30/30
f 22/22/22 23/23/23 31/31/31
f 22/22/22 31/31/31 32/32/32
f 30/30/30 22/22/22 32/32/32
f 23/23/23 33/33/33 31/31/31
f 23/23/23 25/25/25 33/33/33
f 25/25/25 34/34/34 33/33/33
f 25/25/25 27/27/27 34/34/34
f 30/30/30 32/32/32 35/35/35
f 36/36/36 38/38/38 37/37/37
f 36/36/36 39/39/39 38/38/38
f 37/37/37 38/38/38 40/40/40
f 37/37/37 40/40/40 41/41/41
f 42/42/42 44/44/44 43/43/43
f 42/42/42 45/45/45 44/44/44
f 45/45/45 46/46/46 44/44/44
f 45/45/45 47/47/47 46/46/46
f 47/47/47 48/48/48 46/46/46
f 47/47/47 49/49/49 48/48/48
f 43/43/43 44/44/44 50/50/50
f 43/43/43 50/50/50 51/51/51
f 44/44/44 52/52/52 50/50/50
f 44/44/44 46/46/46 52/52/52
f 46/46/46 53/53/53 52/52/52
f 46/46/46 48/48/48 53/53/53
f 54/54/54 56/56/56 55/55/55
f 54/54/54 57/57/57 56/56/56
f 57/57/57 58/58/58 56/56/56
f 57/57/57 59/59/59 58/58/58
f 59/59/59 60/60/60 58/58/58
f 59/59/59 61/61/61 60/60/60
f 55/55/55 56/56/56 62/62/62
f 55/55/55 62/62/62 63/63/63
f 56/56/56 64/64/64 62/62/62
f 56/56/56 58/58/58 64/64/64
f 58/58/58 65/65/65 64/64/64
f 58/58/58 60/60/60 65/65/65
f 60/60/60 66/66/66 65/65/65
f 60/60/60 67/67/67 66/66/66
f 68/68/68 70/70/70 69/69/69
f 68/68/68 71/71/71 70/70/70
f 71/71/71 72/72/72 70/70/70
f 71/71/71 73/73/73 72/72/72
f 73/73/73 74/74/74 72/72/72
f 73/73/73 75/75/75 74/74/74
f 70/70/70 72/72/72 76/76/76
f 70/70/70 76/76/76 77/77/77
f 72/72/72 78/78/78 76/76/76
f 72/72/72 74/74/74 78/78/78
f 79/79/79 81/81/81 80/80/80
f 79/79/79 82/82/82 81/81/81
f 82/82/82 83/83/83 81/81/81
f 82/82/82 84/84/84 83/83/83
f 84/84/84 85/85/85 83/83/83
f 84/84/84 86/86/86 85/85/85
f 86/86/86 87/87/87 85/85/85
f 86/86/86 88/88/88 87/87/87
f 80/80/80 81/81/81 89/89/89
f 80/80/80 89/89/89 90/90/90
f 81/81/81 83/83/83 91/91/91
f 83/83/83 92/92/92 91/91/91
f 83/83/83 85/85/85 92/92/92
f 85/85/85 93/93/93 92/92/92
f 85/85/85 87/87/87 93/93/93
f 94/94/94 96/96/96 95/95/95
f 97/97/97 99/99/99 98/98/98
f 97/97/97 100/100/100 99/99/99
f 100/100/100 101/101/101 99/99/99
f 100/100/100 102/102/102 101/101/101
f 102/102/102 103/103/103 101/101/101
f 102/102/102 104/104/104 103/103/103
f 105/105/105 97/97/97 98/98/98
f 105/105/105 98/98/98 106/106/106
f 107/107/107 109/109/109 108/108/108
f 107/107/107 110/110/110 109/109/109
f 111/111/111 113/113/113 112/112/112
f 111/111/111 114/114/114 113/113/113
f 114/114/114 115/115/115 113/113/113
f 114/114/114 116/116/116 115/115/115
f 116/116/116 117/117/117 115/115/115
f 116/116/116 118/118/118 117/117/117
f 119/119/119 121/121/121 120/120/120
f 119/119/119 122/122/122 121/121/121
f 122/122/122 123/123/123 121/121/121
f 122/122/122 124/124/124 123/123/123
f 124/124/124 125/125/125 123/123/123
f 124/124/124 126/126/126 125/125/125
f 126/126/126 127/127/127 125/125/125
f 126/126/126 128/128/128 127/127/127
f 129/129/129 131/131/131 130/130/130
f 129/129/129 132/132/132 131/131/131
f 132/132/132 133/133/133 131/131/131
f 132/132/132 134/134/134 133/133/133
f 134/134/134 135/135/135 133/133/133
f 134/134/134 136/136/136 135/135/135
f 136/136/136 137/137/137 135/135/135
f 136/136/136 138/138/138 137/137/137
f 139/139/139 141/141/141 140/140/140
f 139/139/139 142/142/142 141/141/141
f 142/142/142 143/143/143 141/141/141
f 142/142/142 144/144/144 143/143/143
f 145/145/145 147/147/147 146/146/146
f 145/145/145 146/146/146 148/148/148
f 145/145/145 148/148/148 149/149/149
f 145/145/145 149/149/149 150/150/150
f 145/145/145 151/151/151 147/147/147
f 145/145/145 152/152/152 151/151/151
f 145/145/145 153/153/153 152/152/152
f 145/145/145 154/154/154 153/153/153
f 145/145/145 155/155/155 154/154/154
f 145/145/145 156/156/156 155/155/155
f 145/145/145 157/157/157 156/156/156
f 145/145/145 158/158/158 157/157/157
f 145/145/145 159/159/159 158/158/158
f 145/145/145 160/160/160 159/159/159
f 145/145/145 161/161/161 160/160/160
f 145/145/145 162/162/162 161/161/161
f 145/145/145 163/163/163 162/162/162
f 145/145/145 164/164/164 163/163/163
