#LampGlass.obj

v 0.08736482 10.43213 2.86822
v -0.04518948 10.43218 2.868499
v -0.06860976 10.5073 3.297174
v 0.1126354 10.50724 3.296786
v -0.06092418 10.4557 2.847755
v -0.04518948 10.43218 2.868499
v 0.08736482 10.43213 2.86822
v 0.1030433 10.45565 2.847423
v 0.1030433 10.45565 2.847423
v 0.08736482 10.43213 2.86822
v 0.1126354 10.50724 3.296786
v 0.1341751 10.53486 3.313138
v 0.1341751 10.53486 3.313138
v 0.1126354 10.50724 3.296786
v -0.06860976 10.5073 3.297174
v -0.09003752 10.53494 3.313608
v -0.09003752 10.53494 3.313608
v -0.06860976 10.5073 3.297174
v -0.04518948 10.43218 2.868499
v -0.06092418 10.4557 2.847755

vn 1.62949E-05 -0.9849893 0.1726155
vn 2.355193E-05 -0.9849888 0.172618
vn 0 -0.9849903 0.1726097
vn -5.817769E-06 -0.9849907 0.1726077
vn -0.001792841 -0.6620597 -0.7494488
vn -0.001806088 -0.6621069 -0.7494072
vn -0.001742985 -0.6618823 -0.7496058
vn -0.001735779 -0.6618567 -0.7496284
vn 0.8437726 -0.5349432 0.04340027
vn 0.8482028 -0.5279635 0.04250445
vn 0.7735828 -0.6312203 0.05595112
vn 0.7709033 -0.6344521 0.05637934
vn 0.001640227 -0.5103081 0.8599901
vn 0.001644716 -0.5103326 0.8599755
vn 0.001618732 -0.5101904 0.86006
vn 0.001616693 -0.5101793 0.8600666
vn -0.7739093 -0.6296996 0.06740108
vn -0.7679031 -0.6367693 0.06963843
vn -0.8432463 -0.5361245 0.0388113
vn -0.8456461 -0.5324101 0.03771197

vt 0.9695244 0.2090693
vt 0.9689198 0.7996778
vt 0.03409576 0.9040289
vt 0.03494072 0.0964756
vt 1.001595 0.8697844
vt 0.9689198 0.7996778
vt 0.9695244 0.2090693
vt 1.002316 0.1392117
vt 1.002316 0.1392117
vt 0.9695244 0.2090693
vt 0.03494072 0.0964756
vt -0.01217461 0.0005016327
vt -0.01217461 0.0005016327
vt 0.03494072 0.0964756
vt 0.03409576 0.9040289
vt -0.01319885 0.9995012
vt -0.01319885 0.9995012
vt 0.03409576 0.9040289
vt 0.9689198 0.7996778
vt 1.001595 0.8697844

g LampGlass.obj
usemtl LampGlass
usemap LampGlass
f 1/1/1 3/3/3 2/2/2
f 1/1/1 4/4/4 3/3/3
f 5/5/5 7/7/7 6/6/6
f 5/5/5 8/8/8 7/7/7
f 9/9/9 11/11/11 10/10/10
f 9/9/9 12/12/12 11/11/11
f 13/13/13 15/15/15 14/14/14
f 13/13/13 16/16/16 15/15/15
f 17/17/17 19/19/19 18/18/18
f 17/17/17 20/20/20 19/19/19
