#LampPillar.obj

v 0 0 0
v 1.530808E-17 0 0.25
v 0.08550504 5.235674E-18 0.2349232
v 0.1606969 9.839848E-18 0.1915111
v 0.2165064 1.325719E-17 0.125
v 0.2462019 1.507552E-17 0.04341203
v -0.0855052 -5.235684E-18 0.2349231
v -0.160697 -9.839855E-18 0.191511
v -0.2165064 -1.32572E-17 0.1249999
v -0.2462019 -1.507552E-17 0.04341192
v -0.2462019 -1.507552E-17 -0.04341215
v -0.2165063 -1.325719E-17 -0.1250001
v -0.1606968 -9.839844E-18 -0.1915112
v -0.08550499 -5.23567E-18 -0.2349232
v 3.774895E-08 2.311457E-24 -0.25
v 0.08550505 5.235674E-18 -0.2349232
v 0.1606969 9.839848E-18 -0.1915111
v 0.2165064 1.325719E-17 -0.125
v 0.2462019 1.507552E-17 -0.04341207
v 0.2462019 1.507552E-17 0.04341203
v 1.530808E-17 0 0.25
v -2.164215E-09 3 0.215783
v 0.07380216 3 0.2027697
v 0.08550504 5.235674E-18 0.2349232
v 0.1387027 3 0.1652994
v 0.1606969 9.839848E-18 0.1915111
v 0.1868736 3 0.1078915
v 0.2165064 1.325719E-17 0.125
v -0.0855052 -5.235684E-18 0.2349231
v -0.0738023 3 0.2027697
v 0.05756101 4.800716 0.1581474
v 6.207001E-08 4.800716 0.168297
v 0.1081793 4.800716 0.128923
v 0.1457495 4.800716 0.08414847
v -0.05756101 4.800716 0.1581474
v 0.2165064 1.325719E-17 0.125
v 0.1868736 3 0.1078915
v 0.2125048 3 0.03747031
v 0.2462019 1.507552E-17 0.04341203
v 0.1657402 4.800716 0.02922445
v 0.1457495 4.800716 0.08414847
v 0.2462019 1.507552E-17 0.04341203
v 0.2125048 3 0.03747031
v 0.2125048 3 -0.03747037
v 0.2462019 1.507552E-17 -0.04341207
v 0.1868736 3 -0.1078915
v 0.2165064 1.325719E-17 -0.125
v 0.1387027 3 -0.1652994
v 0.1606969 9.839848E-18 -0.1915111
v 0.1657402 4.800716 -0.02922449
v 0.1657402 4.800716 0.02922445
v 0.1457495 4.800716 -0.0841485
v 0.1081793 4.800716 -0.128923
v 0.1606969 9.839848E-18 -0.1915111
v 0.1387027 3 -0.1652994
v 0.07380217 3 -0.2027698
v 0.08550505 5.235674E-18 -0.2349232
v 3.041812E-08 3 -0.215783
v 3.774895E-08 2.311457E-24 -0.25
v -0.07380211 3 -0.2027698
v -0.08550499 -5.23567E-18 -0.2349232
v 0.05756103 4.800716 -0.1581474
v 0.1081793 4.800716 -0.128923
v 8.748215E-08 4.800716 -0.168297
v -0.05756086 4.800716 -0.1581474
v -0.1081791 4.800716 -0.128923
v -0.1387026 3 -0.1652995
v -0.08550499 -5.23567E-18 -0.2349232
v -0.07380211 3 -0.2027698
v -0.1387026 3 -0.1652995
v -0.1606968 -9.839844E-18 -0.1915112
v -0.1868736 3 -0.1078916
v -0.2165063 -1.325719E-17 -0.1250001
v -0.2125048 3 -0.03747043
v -0.2462019 -1.507552E-17 -0.04341215
v -0.1457493 4.800716 -0.08414854
v -0.1081791 4.800716 -0.128923
v -0.1657401 4.800716 -0.02922454
v -0.2462019 -1.507552E-17 -0.04341215
v -0.2125048 3 -0.03747043
v -0.2125048 3 0.03747022
v -0.2462019 -1.507552E-17 0.04341192
v -0.1868737 3 0.1078914
v -0.2165064 -1.32572E-17 0.1249999
v -0.1387028 3 0.1652993
v -0.160697 -9.839855E-18 0.191511
v -0.0738023 3 0.2027697
v -0.0855052 -5.235684E-18 0.2349231
v -0.1657401 4.800716 0.02922438
v -0.1657401 4.800716 -0.02922454
v -0.1457495 4.800716 0.08414839
v -0.1081792 4.800716 0.1289229
v -0.05756101 4.800716 0.1581474
v -0.2125048 3 0.03747022
v -0.1657401 4.800716 0.02922438
v -0.1457495 4.800716 0.08414839
v 6.207001E-08 4.800716 0.168297
v 1.22319E-08 9.000001 0.1129512
v 0.03863159 9.000001 0.1061394
v 0.05756101 4.800716 0.1581474
v 0.07260364 9.000001 0.08652563
v 0.1081793 4.800716 0.128923
v 0.09781861 9.000001 0.05647558
v 0.1457495 4.800716 0.08414847
v -0.05756101 4.800716 0.1581474
v -0.03863164 9.000001 0.1061394
v 0.1457495 4.800716 0.08414847
v 0.09781861 9.000001 0.05647558
v 0.1112352 9.000001 0.01961376
v 0.1657402 4.800716 0.02922445
v 0.1657402 4.800716 0.02922445
v 0.1112352 9.000001 0.01961376
v 0.1112352 9.000001 -0.01961378
v 0.1657402 4.800716 -0.02922449
v 0.09781861 9.000001 -0.0564756
v 0.1457495 4.800716 -0.0841485
v 0.07260364 9.000001 -0.08652562
v 0.1081793 4.800716 -0.128923
v 0.1081793 4.800716 -0.128923
v 0.07260364 9.000001 -0.08652562
v 0.0386316 9.000001 -0.1061394
v 0.05756103 4.800716 -0.1581474
v 2.928706E-08 9.000001 -0.1129512
v 8.748215E-08 4.800716 -0.168297
v -0.03863154 9.000001 -0.1061394
v -0.05756086 4.800716 -0.1581474
v -0.07260359 9.000001 -0.08652566
v -0.1081791 4.800716 -0.128923
v -0.1081791 4.800716 -0.128923
v -0.07260359 9.000001 -0.08652566
v -0.09781855 9.000001 -0.05647563
v -0.1457493 4.800716 -0.08414854
v -0.1112352 9.000001 -0.01961382
v -0.1657401 4.800716 -0.02922454
v -0.1112352 9.000001 0.01961371
v -0.1657401 4.800716 0.02922438
v -0.09781861 9.000001 0.05647553
v -0.1457495 4.800716 0.08414839
v -0.1457495 4.800716 0.08414839
v -0.09781861 9.000001 0.05647553
v -0.07260367 9.000001 0.08652558
v -0.1081792 4.800716 0.1289229
v -0.03863164 9.000001 0.1061394
v -0.05756101 4.800716 0.1581474
v 1.22319E-08 9.000001 -1.549721E-09
v 0.03863159 9.000001 0.1061394
v 1.22319E-08 9.000001 0.1129512
v 0.07260364 9.000001 0.08652563
v 0.09781861 9.000001 0.05647558
v 0.1112352 9.000001 0.01961376
v -0.03863164 9.000001 0.1061394
v -0.07260367 9.000001 0.08652558
v -0.09781861 9.000001 0.05647553
v -0.1112352 9.000001 0.01961371
v -0.1112352 9.000001 -0.01961382
v -0.09781855 9.000001 -0.05647563
v -0.07260359 9.000001 -0.08652566
v -0.03863154 9.000001 -0.1061394
v 2.928706E-08 9.000001 -0.1129512
v 0.0386316 9.000001 -0.1061394
v 0.07260364 9.000001 -0.08652562
v 0.09781861 9.000001 -0.0564756
v 0.1112352 9.000001 -0.01961378
v 0.1112352 9.000001 0.01961376

vn 0 -1 0
vn 0 -1 0
vn 0 -1 0
vn 0 -1 0
vn 0 -1 0
vn 0 -1 0
vn 0 -1 0
vn 0 -1 0
vn 0 -1 0
vn 0 -1 0
vn 0 -1 0
vn 0 -1 0
vn 0 -1 0
vn 0 -1 0
vn 0 -1 0
vn 0 -1 0
vn 0 -1 0
vn 0 -1 0
vn 0 -1 0
vn 0 -1 0
vn 0 0.01140491 0.999935
vn -3.51893E-07 0.01886813 0.9998221
vn 0.3419591 0.01886813 0.9395254
vn 0.3419979 0.01140491 0.9396315
vn 0.642673 0.01886812 0.7659082
vn 0.6427459 0.0114049 0.7659945
vn 0.8658711 0.01886813 0.4999111
vn 0.8659691 0.0114049 0.4999675
vn -0.3419983 0.01140491 0.9396314
vn -0.3419598 0.01886814 0.9395252
vn 0.3419533 0.01978493 0.9395087
vn -3.994729E-07 0.01978493 0.9998043
vn 0.6426621 0.01978492 0.7658943
vn 0.8658561 0.01978492 0.4999018
vn -0.3419538 0.01978494 0.9395084
vn 0.8659691 0.0114049 0.4999675
vn 0.8658711 0.01886813 0.4999111
vn 0.9846325 0.01886812 0.1736173
vn 0.9847437 0.0114049 0.1736368
vn 0.984615 0.01978492 0.173614
vn 0.8658561 0.01978492 0.4999018
vn 0.9847437 0.0114049 0.1736368
vn 0.9846325 0.01886812 0.1736173
vn 0.9846325 0.01886812 -0.1736172
vn 0.9847437 0.0114049 -0.173637
vn 0.8658713 0.01886812 -0.499911
vn 0.8659691 0.0114049 -0.4999675
vn 0.6426733 0.01886812 -0.765908
vn 0.6427458 0.0114049 -0.7659947
vn 0.9846149 0.01978492 -0.1736144
vn 0.984615 0.01978492 0.173614
vn 0.8658559 0.01978493 -0.4999022
vn 0.6426615 0.01978492 -0.7658947
vn 0.6427458 0.0114049 -0.7659947
vn 0.6426733 0.01886812 -0.765908
vn 0.3419593 0.01886813 -0.9395253
vn 0.3419979 0.01140491 -0.9396315
vn 0 0.01886814 -0.9998221
vn 0 0.0114049 -0.999935
vn -0.3419588 0.01886814 -0.9395255
vn -0.3419977 0.0114049 -0.9396316
vn 0.341953 0.01978493 -0.9395088
vn 0.6426615 0.01978492 -0.7658947
vn 0 0.01978493 -0.9998043
vn -0.3419531 0.01978493 -0.9395087
vn -0.6426616 0.01978494 -0.7658947
vn -0.6426729 0.01886814 -0.7659082
vn -0.3419977 0.0114049 -0.9396316
vn -0.3419588 0.01886814 -0.9395255
vn -0.6426729 0.01886814 -0.7659082
vn -0.6427455 0.0114049 -0.7659948
vn -0.865871 0.01886815 -0.4999115
vn -0.8659689 0.0114049 -0.4999678
vn -0.9846324 0.01886815 -0.1736179
vn -0.9847437 0.0114049 -0.1736372
vn -0.8658558 0.01978494 -0.4999023
vn -0.6426616 0.01978494 -0.7658947
vn -0.9846149 0.01978495 -0.1736145
vn -0.9847437 0.0114049 -0.1736372
vn -0.9846324 0.01886815 -0.1736179
vn -0.9846325 0.01886814 0.1736168
vn -0.9847438 0.01140491 0.1736364
vn -0.8658715 0.01886815 0.4999103
vn -0.8659694 0.01140491 0.4999669
vn -0.6426738 0.01886815 0.7659076
vn -0.6427462 0.01140491 0.7659942
vn -0.3419598 0.01886814 0.9395252
vn -0.3419983 0.01140491 0.9396314
vn -0.984615 0.01978495 0.1736137
vn -0.9846149 0.01978495 -0.1736145
vn -0.8658561 0.01978494 0.4999017
vn -0.642662 0.01978494 0.7658944
vn -0.3419538 0.01978494 0.9395084
vn -0.9846325 0.01886814 0.1736168
vn -0.984615 0.01978495 0.1736137
vn -0.8658561 0.01978494 0.4999017
vn -3.994729E-07 0.01978493 0.9998043
vn -5.163274E-07 0.01317867 0.9999132
vn 0.3419902 0.01317867 0.9396111
vn 0.3419533 0.01978493 0.9395087
vn 0.642732 0.01317868 0.7659778
vn 0.6426621 0.01978492 0.7658943
vn 0.8659503 0.01317868 0.4999565
vn 0.8658561 0.01978492 0.4999018
vn -0.3419538 0.01978494 0.9395084
vn -0.3419909 0.01317866 0.9396108
vn 0.8658561 0.01978492 0.4999018
vn 0.8659503 0.01317868 0.4999565
vn 0.9847223 0.01317868 0.1736329
vn 0.984615 0.01978492 0.173614
vn 0.984615 0.01978492 0.173614
vn 0.9847223 0.01317868 0.1736329
vn 0.9847223 0.01317868 -0.173633
vn 0.9846149 0.01978492 -0.1736144
vn 0.8659503 0.01317868 -0.4999564
vn 0.8658559 0.01978493 -0.4999022
vn 0.6427317 0.01317868 -0.765978
vn 0.6426615 0.01978492 -0.7658947
vn 0.6426615 0.01978492 -0.7658947
vn 0.6427317 0.01317868 -0.765978
vn 0.3419904 0.01317867 -0.9396111
vn 0.341953 0.01978493 -0.9395088
vn 0 0.01317867 -0.9999132
vn 0 0.01978493 -0.9998043
vn -0.34199 0.01317867 -0.9396112
vn -0.3419531 0.01978493 -0.9395087
vn -0.6427314 0.01317866 -0.7659782
vn -0.6426616 0.01978494 -0.7658947
vn -0.6426616 0.01978494 -0.7658947
vn -0.6427314 0.01317866 -0.7659782
vn -0.86595 0.01317866 -0.4999568
vn -0.8658558 0.01978494 -0.4999023
vn -0.9847222 0.01317866 -0.1736335
vn -0.9846149 0.01978495 -0.1736145
vn -0.9847223 0.01317866 0.1736325
vn -0.984615 0.01978495 0.1736137
vn -0.8659507 0.01317866 0.4999558
vn -0.8658561 0.01978494 0.4999017
vn -0.8658561 0.01978494 0.4999017
vn -0.8659507 0.01317866 0.4999558
vn -0.6427324 0.01317866 0.7659774
vn -0.642662 0.01978494 0.7658944
vn -0.3419909 0.01317866 0.9396108
vn -0.3419538 0.01978494 0.9395084
vn 0 1 0
vn 0 1 0
vn 0 1 0
vn 0 1 0
vn 0 1 0
vn 0 1 0
vn 0 1 0
vn 0 1 0
vn 0 1 0
vn 0 1 0
vn 0 1 0
vn 0 1 0
vn 0 1 0
vn 0 1 0
vn 0 1 0
vn 0 1 0
vn 0 1 0
vn 0 1 0
vn 0 1 0
vn 0 1 0

vt 0.2626959 0.9988962
vt 0.3867562 0.9988962
vt 0.4139387 0.9988962
vt 0.4412995 0.9988962
vt 0.4689374 0.9988962
vt 0.4968235 0.9988962
vt 0.3595735 0.9988962
vt 0.3322127 0.9988962
vt 0.3045748 0.9988962
vt 0.2766886 0.9988962
vt 0.2487031 0.9988962
vt 0.2208169 0.9988962
vt 0.193179 0.9988962
vt 0.1658183 0.9988962
vt 0.1386357 0.9988962
vt 0.111453 0.9988962
vt 0.08409233 0.9988962
vt 0.05645441 0.9988962
vt 0.0285682 0.9988962
vt 0.000582715 0.9988962
vt 0.3867562 0.9988962
vt 0.3867562 0.3754964
vt 0.4139387 0.3754964
vt 0.4139387 0.9988962
vt 0.4412995 0.3754964
vt 0.4412995 0.9988962
vt 0.4689374 0.3754964
vt 0.4689374 0.9988962
vt 0.3595735 0.9988962
vt 0.3595735 0.3754964
vt 0.4139388 0.001307726
vt 0.3867562 0.001307726
vt 0.4412995 0.001307726
vt 0.4689374 0.001307726
vt 0.3595735 0.001307726
vt 0.4689374 0.9988962
vt 0.4689374 0.3754964
vt 0.4968235 0.3754964
vt 0.4968235 0.9988962
vt 0.4968236 0.001307726
vt 0.4689374 0.001307726
vt 0.000582715 0.9988962
vt 0.000582715 0.3754964
vt 0.0285682 0.3754964
vt 0.0285682 0.9988962
vt 0.05645442 0.3754964
vt 0.05645441 0.9988962
vt 0.08409233 0.3754964
vt 0.08409233 0.9988962
vt 0.0285682 0.001307726
vt 0.0005827449 0.001307726
vt 0.05645441 0.001307726
vt 0.08409233 0.001307726
vt 0.08409233 0.9988962
vt 0.08409233 0.3754964
vt 0.1114531 0.3754964
vt 0.111453 0.9988962
vt 0.1386357 0.3754964
vt 0.1386357 0.9988962
vt 0.1658183 0.3754964
vt 0.1658183 0.9988962
vt 0.111453 0.001307726
vt 0.08409233 0.001307726
vt 0.1386356 0.001307726
vt 0.1658183 0.001307726
vt 0.193179 0.001307726
vt 0.193179 0.3754964
vt 0.1658183 0.9988962
vt 0.1658183 0.3754964
vt 0.193179 0.3754964
vt 0.193179 0.9988962
vt 0.2208169 0.3754964
vt 0.2208169 0.9988962
vt 0.2487031 0.3754964
vt 0.2487031 0.9988962
vt 0.2208169 0.001307726
vt 0.193179 0.001307726
vt 0.2487031 0.001307726
vt 0.2487031 0.9988962
vt 0.2487031 0.3754964
vt 0.2766886 0.3754964
vt 0.2766886 0.9988962
vt 0.3045748 0.3754964
vt 0.3045748 0.9988962
vt 0.3322127 0.3754964
vt 0.3322127 0.9988962
vt 0.3595735 0.3754964
vt 0.3595735 0.9988962
vt 0.2766886 0.001307726
vt 0.2487031 0.001307726
vt 0.3045748 0.001307726
vt 0.3322127 0.001307726
vt 0.3595735 0.001307726
vt 0.2766886 0.3754964
vt 0.2766886 0.001307726
vt 0.3045748 0.001307726
vt 0.8882815 0.9989458
vt 0.8882815 0.3550785
vt 0.9156297 0.3550785
vt 0.9156297 0.9989458
vt 0.9431572 0.3550785
vt 0.9431572 0.9989458
vt 0.9709632 0.3550785
vt 0.9709632 0.9989458
vt 0.8609332 0.9989458
vt 0.8609332 0.3550785
vt 0.9709632 0.9989458
vt 0.9709632 0.3550785
vt 0.9990192 0.3550785
vt 0.9990194 0.9989458
vt 0.4997558 0.9989458
vt 0.4997558 0.3550785
vt 0.5279118 0.3550785
vt 0.5279118 0.9989458
vt 0.5559679 0.3550785
vt 0.5559677 0.9989458
vt 0.5837741 0.3550785
vt 0.5837741 0.9989458
vt 0.5837741 0.9989458
vt 0.5837741 0.3550785
vt 0.6113015 0.3550785
vt 0.6113015 0.9989458
vt 0.6386497 0.3550785
vt 0.6386496 0.9989458
vt 0.6659979 0.3550785
vt 0.6659978 0.9989458
vt 0.6935252 0.3550785
vt 0.6935252 0.9989458
vt 0.6935252 0.9989458
vt 0.6935252 0.3550785
vt 0.7213315 0.3550785
vt 0.7213315 0.9989458
vt 0.7493876 0.3550785
vt 0.7493876 0.9989458
vt 0.7775435 0.3550785
vt 0.7775435 0.9989458
vt 0.8055996 0.3550785
vt 0.8055996 0.9989458
vt 0.8055996 0.9989458
vt 0.8055996 0.3550785
vt 0.8334059 0.3550785
vt 0.8334059 0.9989458
vt 0.8609332 0.3550785
vt 0.8609332 0.9989458
vt 0.7634656 0.3550785
vt 0.9156297 0.3550785
vt 0.8882815 0.3550785
vt 0.9431572 0.3550785
vt 0.9709632 0.3550785
vt 0.9990192 0.3550785
vt 0.8609332 0.3550785
vt 0.8334059 0.3550785
vt 0.8055996 0.3550785
vt 0.7775435 0.3550785
vt 0.7493876 0.3550785
vt 0.7213315 0.3550785
vt 0.6935252 0.3550785
vt 0.6659979 0.3550785
vt 0.6386497 0.3550785
vt 0.6113015 0.3550785
vt 0.5837741 0.3550785
vt 0.5559679 0.3550785
vt 0.5279118 0.3550785
vt 0.4997558 0.3550785

g LampPillar.obj
usemtl LampPillar
usemap LampPillar
f 1/1/1 3/3/3 2/2/2
f 1/1/1 4/4/4 3/3/3
f 1/1/1 5/5/5 4/4/4
f 1/1/1 6/6/6 5/5/5
f 1/1/1 2/2/2 7/7/7
f 1/1/1 7/7/7 8/8/8
f 1/1/1 8/8/8 9/9/9
f 1/1/1 9/9/9 10/10/10
f 1/1/1 10/10/10 11/11/11
f 1/1/1 11/11/11 12/12/12
f 1/1/1 12/12/12 13/13/13
f 1/1/1 13/13/13 14/14/14
f 1/1/1 14/14/14 15/15/15
f 1/1/1 15/15/15 16/16/16
f 1/1/1 16/16/16 17/17/17
f 1/1/1 17/17/17 18/18/18
f 1/1/1 18/18/18 19/19/19
f 1/1/1 19/19/19 20/20/20
f 21/21/21 23/23/23 22/22/22
f 21/21/21 24/24/24 23/23/23
f 24/24/24 25/25/25 23/23/23
f 24/24/24 26/26/26 25/25/25
f 26/26/26 27/27/27 25/25/25
f 26/26/26 28/28/28 27/27/27
f 29/29/29 21/21/21 22/22/22
f 29/29/29 22/22/22 30/30/30
f 22/22/22 23/23/23 31/31/31
f 22/22/22 31/31/31 32/32/32
f 30/30/30 22/22/22 32/32/32
f 23/23/23 33/33/33 31/31/31
f 23/23/23 25/25/25 33/33/33
f 25/25/25 34/34/34 33/33/33
f 25/25/25 27/27/27 34/34/34
f 30/30/30 32/32/32 35/35/35
f 36/36/36 38/38/38 37/37/37
f 36/36/36 39/39/39 38/38/38
f 37/37/37 38/38/38 40/40/40
f 37/37/37 40/40/40 41/41/41
f 42/42/42 44/44/44 43/43/43
f 42/42/42 45/45/45 44/44/44
f 45/45/45 46/46/46 44/44/44
f 45/45/45 47/47/47 46/46/46
f 47/47/47 48/48/48 46/46/46
f 47/47/47 49/49/49 48/48/48
f 43/43/43 44/44/44 50/50/50
f 43/43/43 50/50/50 51/51/51
f 44/44/44 52/52/52 50/50/50
f 44/44/44 46/46/46 52/52/52
f 46/46/46 53/53/53 52/52/52
f 46/46/46 48/48/48 53/53/53
f 54/54/54 56/56/56 55/55/55
f 54/54/54 57/57/57 56/56/56
f 57/57/57 58/58/58 56/56/56
f 57/57/57 59/59/59 58/58/58
f 59/59/59 60/60/60 58/58/58
f 59/59/59 61/61/61 60/60/60
f 55/55/55 56/56/56 62/62/62
f 55/55/55 62/62/62 63/63/63
f 56/56/56 64/64/64 62/62/62
f 56/56/56 58/58/58 64/64/64
f 58/58/58 65/65/65 64/64/64
f 58/58/58 60/60/60 65/65/65
f 60/60/60 66/66/66 65/65/65
f 60/60/60 67/67/67 66/66/66
f 68/68/68 70/70/70 69/69/69
f 68/68/68 71/71/71 70/70/70
f 71/71/71 72/72/72 70/70/70
f 71/71/71 73/73/73 72/72/72
f 73/73/73 74/74/74 72/72/72
f 73/73/73 75/75/75 74/74/74
f 70/70/70 72/72/72 76/76/76
f 70/70/70 76/76/76 77/77/77
f 72/72/72 78/78/78 76/76/76
f 72/72/72 74/74/74 78/78/78
f 79/79/79 81/81/81 80/80/80
f 79/79/79 82/82/82 81/81/81
f 82/82/82 83/83/83 81/81/81
f 82/82/82 84/84/84 83/83/83
f 84/84/84 85/85/85 83/83/83
f 84/84/84 86/86/86 85/85/85
f 86/86/86 87/87/87 85/85/85
f 86/86/86 88/88/88 87/87/87
f 80/80/80 81/81/81 89/89/89
f 80/80/80 89/89/89 90/90/90
f 81/81/81 83/83/83 91/91/91
f 83/83/83 92/92/92 91/91/91
f 83/83/83 85/85/85 92/92/92
f 85/85/85 93/93/93 92/92/92
f 85/85/85 87/87/87 93/93/93
f 94/94/94 96/96/96 95/95/95
f 97/97/97 99/99/99 98/98/98
f 97/97/97 100/100/100 99/99/99
f 100/100/100 101/101/101 99/99/99
f 100/100/100 102/102/102 101/101/101
f 102/102/102 103/103/103 101/101/101
f 102/102/102 104/104/104 103/103/103
f 105/105/105 97/97/97 98/98/98
f 105/105/105 98/98/98 106/106/106
f 107/107/107 109/109/109 108/108/108
f 107/107/107 110/110/110 109/109/109
f 111/111/111 113/113/113 112/112/112
f 111/111/111 114/114/114 113/113/113
f 114/114/114 115/115/115 113/113/113
f 114/114/114 116/116/116 115/115/115
f 116/116/116 117/117/117 115/115/115
f 116/116/116 118/118/118 117/117/117
f 119/119/119 121/121/121 120/120/120
f 119/119/119 122/122/122 121/121/121
f 122/122/122 123/123/123 121/121/121
f 122/122/122 124/124/124 123/123/123
f 124/124/124 125/125/125 123/123/123
f 124/124/124 126/126/126 125/125/125
f 126/126/126 127/127/127 125/125/125
f 126/126/126 128/128/128 127/127/127
f 129/129/129 131/131/131 130/130/130
f 129/129/129 132/132/132 131/131/131
f 132/132/132 133/133/133 131/131/131
f 132/132/132 134/134/134 133/133/133
f 134/134/134 135/135/135 133/133/133
f 134/134/134 136/136/136 135/135/135
f 136/136/136 137/137/137 135/135/135
f 136/136/136 138/138/138 137/137/137
f 139/139/139 141/141/141 140/140/140
f 139/139/139 142/142/142 141/141/141
f 142/142/142 143/143/143 141/141/141
f 142/142/142 144/144/144 143/143/143
f 145/145/145 147/147/147 146/146/146
f 145/145/145 146/146/146 148/148/148
f 145/145/145 148/148/148 149/149/149
f 145/145/145 149/149/149 150/150/150
f 145/145/145 151/151/151 147/147/147
f 145/145/145 152/152/152 151/151/151
f 145/145/145 153/153/153 152/152/152
f 145/145/145 154/154/154 153/153/153
f 145/145/145 155/155/155 154/154/154
f 145/145/145 156/156/156 155/155/155
f 145/145/145 157/157/157 156/156/156
f 145/145/145 158/158/158 157/157/157
f 145/145/145 159/159/159 158/158/158
f 145/145/145 160/160/160 159/159/159
f 145/145/145 161/161/161 160/160/160
f 145/145/145 162/162/162 161/161/161
f 145/145/145 163/163/163 162/162/162
f 145/145/145 164/164/164 163/163/163
