#Monitor04.obj

v 0.059817 -0.247142 -0.189738
v -0.060071 -0.247142 -0.1143
v 0.059817 -0.247142 -0.1143
v -0.060071 -0.247142 -0.0381
v 0.059817 -0.247142 -0.0381
v -0.060071 -0.247142 0.0381
v 0.059817 -0.247142 0.0381
v -0.060071 -0.247142 0.1143
v 0.059817 -0.247142 0.1143
v -0.060071 -0.247142 0.189738
v 0.059817 -0.247142 0.189738
v -0.060071 -0.247142 -0.189738
v -0.069469 -0.235966 -0.192278
v 0.069469 -0.222504 -0.115824
v -0.069469 -0.222504 -0.115824
v 0.069469 -0.215646 -0.038608
v -0.069469 -0.215646 -0.038608
v 0.069469 -0.215646 0.038608
v -0.069469 -0.215646 0.038608
v 0.069469 -0.222504 0.115824
v -0.069469 -0.222504 0.115824
v 0.069469 -0.235966 0.192278
v -0.069469 -0.235966 0.192278
v 0.069469 -0.235966 -0.192278
v 0.069469 -0.235966 -0.192278
v 0.069469 -0.23368 -0.1143
v 0.069469 -0.222504 -0.115824
v 0.069469 -0.227076 -0.0381
v 0.069469 -0.215646 -0.038608
v 0.069469 -0.227076 0.0381
v 0.069469 -0.215646 0.038608
v 0.069469 -0.23368 0.1143
v 0.069469 -0.222504 0.115824
v 0.069469 -0.247142 0.189738
v 0.069469 -0.235966 0.192278
v 0.069469 -0.247142 -0.189738
v -0.069469 -0.235966 0.192278
v -0.069469 -0.23368 0.1143
v -0.069469 -0.222504 0.115824
v -0.069469 -0.227076 0.0381
v -0.069469 -0.215646 0.038608
v -0.069469 -0.227076 -0.0381
v -0.069469 -0.215646 -0.038608
v -0.069469 -0.23368 -0.1143
v -0.069469 -0.222504 -0.115824
v -0.069469 -0.247142 -0.189738
v -0.069469 -0.235966 -0.192278
v -0.069469 -0.247142 0.189738
v -0.069469 -0.247142 0.189738
v -0.060071 -0.23368 0.1143
v -0.069469 -0.23368 0.1143
v -0.060071 -0.227076 0.0381
v -0.069469 -0.227076 0.0381
v -0.060071 -0.227076 -0.0381
v -0.069469 -0.227076 -0.0381
v -0.060071 -0.23368 -0.1143
v -0.069469 -0.23368 -0.1143
v -0.060071 -0.247142 -0.189738
v -0.069469 -0.247142 -0.189738
v -0.060071 -0.247142 0.189738
v 0.069469 -0.247142 -0.189738
v 0.059817 -0.23368 -0.1143
v 0.069469 -0.23368 -0.1143
v 0.059817 -0.227076 -0.0381
v 0.069469 -0.227076 -0.0381
v 0.059817 -0.227076 0.0381
v 0.069469 -0.227076 0.0381
v 0.059817 -0.23368 0.1143
v 0.069469 -0.23368 0.1143
v 0.059817 -0.247142 0.189738
v 0.069469 -0.247142 0.189738
v 0.059817 -0.247142 -0.189738
v 0.050673 -0.123952 0.28448
v 0.050673 -0.103378 -0.263652
v 0.050673 -0.123952 -0.28448
v 0.050673 0.226568 -0.263652
v 0.050673 0.247142 -0.28448
v 0.050673 0.226568 0.263652
v 0.050673 0.247142 0.28448
v 0.050673 -0.103378 0.263652
v -0.060071 -0.247142 0.189738
v -0.060071 -0.247142 0.1143
v -0.060071 -0.23368 0.1143
v -0.060071 -0.247142 0.0381
v -0.060071 -0.227076 0.0381
v -0.060071 -0.247142 -0.0381
v -0.060071 -0.227076 -0.0381
v -0.060071 -0.247142 -0.1143
v -0.060071 -0.23368 -0.1143
v -0.060071 -0.247142 -0.189738
v 0.059817 -0.247142 -0.189738
v 0.059817 -0.247142 -0.1143
v 0.059817 -0.23368 -0.1143
v 0.059817 -0.247142 -0.0381
v 0.059817 -0.227076 -0.0381
v 0.059817 -0.247142 0.0381
v 0.059817 -0.227076 0.0381
v 0.059817 -0.247142 0.1143
v 0.059817 -0.23368 0.1143
v 0.059817 -0.247142 0.189738
v 0.020193 -0.10033 0.260858
v 0.040513 -0.123952 -0.28448
v 0.020193 -0.10033 -0.260858
v 0.040513 0.247142 -0.28448
v 0.020193 0.223774 -0.260858
v 0.040513 0.247142 0.28448
v 0.020193 0.223774 0.260858
v 0.040513 -0.123952 0.28448
v -0.017907 -0.22352 0.037846
v -0.017907 -0.22352 -0.037846
v -0.006476998 -0.097282 0.037846
v -0.006476998 -0.097282 -0.037846
v 0.024765 0.02489199 0.037846
v 0.024765 0.02489199 -0.037846
v 0.013081 -0.100838 -0.037846
v 0.025019 -0.05842 -0.037846
v 0.024765 0.02489199 -0.037846
v -0.006476998 -0.097282 -0.037846
v -0.017907 -0.22352 -0.037846
v 0.002413001 -0.22352 -0.037846
v 0.013081 -0.100838 0.037846
v 0.002413001 -0.22352 0.037846
v -0.017907 -0.22352 0.037846
v -0.006476998 -0.097282 0.037846
v 0.024765 0.02489199 0.037846
v 0.025019 -0.05842 0.037846
v 0.013081 -0.100838 0.037846
v 0.025019 -0.05842 0.037846
v 0.025019 -0.05842 -0.037846
v 0.013081 -0.100838 -0.037846
v 0.002413001 -0.22352 -0.037846
v 0.002413001 -0.22352 0.037846
v -0.069469 -0.235966 -0.192278
v -0.069469 -0.247142 -0.189738
v -0.060071 -0.247142 -0.189738
v 0.059817 -0.247142 -0.189738
v 0.069469 -0.247142 -0.189738
v 0.069469 -0.235966 -0.192278
v 0.069469 -0.235966 0.192278
v 0.069469 -0.247142 0.189738
v 0.059817 -0.247142 0.189738
v -0.060071 -0.247142 0.189738
v -0.069469 -0.247142 0.189738
v -0.069469 -0.235966 0.192278
v 0.047371 0.226568 0.263652
v 0.047371 0.226568 -0.263652
v 0.047371 -0.103378 0.263652
v 0.047371 -0.103378 -0.263652
v 0.050673 -0.123952 0.28448
v 0.050673 -0.123952 -0.28448
v 0.040513 -0.123952 0.28448
v 0.040513 -0.123952 -0.28448
v 0.050673 -0.123952 -0.28448
v 0.050673 0.247142 -0.28448
v 0.040513 -0.123952 -0.28448
v 0.040513 0.247142 -0.28448
v 0.050673 0.247142 -0.28448
v 0.050673 0.247142 0.28448
v 0.040513 0.247142 -0.28448
v 0.040513 0.247142 0.28448
v 0.050673 0.247142 0.28448
v 0.050673 -0.123952 0.28448
v 0.040513 0.247142 0.28448
v 0.040513 -0.123952 0.28448
v 0.047371 -0.103378 0.263652
v 0.047371 -0.103378 -0.263652
v 0.050673 -0.103378 0.263652
v 0.050673 -0.103378 -0.263652
v 0.047371 -0.103378 -0.263652
v 0.047371 0.226568 -0.263652
v 0.050673 -0.103378 -0.263652
v 0.050673 0.226568 -0.263652
v 0.047371 0.226568 -0.263652
v 0.047371 0.226568 0.263652
v 0.050673 0.226568 -0.263652
v 0.050673 0.226568 0.263652
v 0.047371 0.226568 0.263652
v 0.047371 -0.103378 0.263652
v 0.050673 0.226568 0.263652
v 0.050673 -0.103378 0.263652

vn 0 -1 0
vn 0 -1 0
vn 0 -1 0
vn 0 -1 0
vn 0 -1 0
vn 0 -1 0
vn 0 -1 0
vn 0 -1 0
vn 0 -1 0
vn 0 -1 0
vn 0 -1 0
vn 0 -1 0
vn 0 0.9848493 -0.173412
vn 0 0.9913744 -0.1310601
vn 0 0.9913744 -0.1310601
vn 0 0.9990193 -0.0442772
vn 0 0.9990193 -0.04427719
vn 0 0.9990193 0.0442772
vn 0 0.9990193 0.0442772
vn 0 0.9913744 0.1310601
vn 0 0.9913744 0.1310601
vn 0 0.9848493 0.173412
vn 0 0.9848493 0.173412
vn 0 0.9848493 -0.173412
vn 1 0 0
vn 1 0 0
vn 1 0 0
vn 1 0 0
vn 1 0 0
vn 1 0 0
vn 1 0 0
vn 1 0 0
vn 1 0 0
vn 1 0 0
vn 1 0 0
vn 1 0 0
vn -1 0 0
vn -1 0 0
vn -1 0 0
vn -1 0 0
vn -1 0 0
vn -1 0 0
vn -1 0 0
vn -1 0 0
vn -1 0 0
vn -1 0 0
vn -1 0 0
vn -1 0 0
vn 0 -0.9844481 -0.1756759
vn 0 -0.9913635 -0.1311427
vn 0 -0.9913635 -0.1311426
vn 0 -0.9990659 -0.04321188
vn 0 -0.9990659 -0.04321187
vn 0 -0.9990659 0.04321187
vn 0 -0.9990659 0.04321188
vn 0 -0.9913635 0.1311427
vn 0 -0.9913635 0.1311427
vn 0 -0.9844481 0.1756759
vn 0 -0.9844481 0.1756759
vn 0 -0.9844481 -0.1756759
vn 0 -0.9844481 0.175676
vn 0 -0.9913635 0.1311427
vn 0 -0.9913635 0.1311427
vn 0 -0.9990659 0.04321187
vn 0 -0.9990659 0.04321187
vn 0 -0.9990659 -0.04321187
vn 0 -0.9990659 -0.04321187
vn 0 -0.9913635 -0.1311427
vn 0 -0.9913635 -0.1311427
vn 0 -0.9844481 -0.175676
vn 0 -0.9844481 -0.1756759
vn 0 -0.9844481 0.1756759
vn 1 0 0
vn 1 0 0
vn 1 0 0
vn 1 0 0
vn 1 0 0
vn 1 0 0
vn 1 0 0
vn 1 0 0
vn -1 0 0
vn -1 0 0
vn -1 0 0
vn -1 0 0
vn -1 0 0
vn -1 0 0
vn -1 0 0
vn -1 0 0
vn -1 0 0
vn -1 0 0
vn 1 0 0
vn 1 0 0
vn 1 0 0
vn 1 0 0
vn 1 0 0
vn 1 0 0
vn 1 0 0
vn 1 0 0
vn 1 0 0
vn 1 0 0
vn -0.9237227 -0.2708654 0.2708656
vn -0.8543622 -0.367468 -0.3674674
vn -0.9237229 -0.2708654 -0.2708657
vn -0.8531159 0.3684196 -0.3694052
vn -0.9231061 0.2732531 -0.2705694
vn -0.8531159 0.3684195 0.3694053
vn -0.9231061 0.2732531 0.2705694
vn -0.8543622 -0.3674679 0.3674675
vn -0.995926 0.09017438 0
vn -0.995926 0.09017438 0
vn -0.9855298 0.1695023 0
vn -0.9855298 0.1695023 0
vn -0.9688252 0.2477454 0
vn -0.9688252 0.2477454 0
vn 0 0 -1
vn 0 0 -1
vn 0 0 -1
vn 0 0 -1
vn 0 0 -1
vn 0 0 -1
vn 0 0 1
vn 0 0 1
vn 0 0 1
vn 0 0 1
vn 0 0 1
vn 0 0 1
vn 0.9837469 -0.1795605 0
vn 0.9626039 -0.2709125 0
vn 0.9626039 -0.2709125 0
vn 0.9837469 -0.1795604 0
vn 0.9962406 -0.08662961 0
vn 0.9962406 -0.08662961 0
vn 0 -0.2216219 -0.9751326
vn 0 -0.2216219 -0.9751326
vn 0 -0.2216219 -0.9751326
vn 0 -0.2216219 -0.9751326
vn 0 -0.2216219 -0.9751326
vn 0 -0.2216219 -0.9751326
vn 0 -0.2216219 0.9751326
vn 0 -0.2216219 0.9751326
vn 0 -0.2216219 0.9751326
vn 0 -0.2216219 0.9751326
vn 0 -0.2216219 0.9751326
vn 0 -0.2216219 0.9751326
vn 1 0 0
vn 1 0 0
vn 1 0 0
vn 1 0 0
vn 0 -1 0
vn 0 -1 0
vn 0 -1 0
vn 0 -1 0
vn 0 0 -1
vn 0 0 -1
vn 0 0 -1
vn 0 0 -1
vn 0 1 0
vn 0 1 0
vn 0 1 0
vn 0 1 0
vn 0 0 1
vn 0 0 1
vn 0 0 1
vn 0 0 1
vn 0 1 0
vn 0 1 0
vn 0 1 0
vn 0 1 0
vn 0 0 1
vn 0 0 1
vn 0 0 1
vn 0 0 1
vn 0 -1 0
vn 0 -1 0
vn 0 -1 0
vn 0 -1 0
vn 0 0 -1
vn 0 0 -1
vn 0 0 -1
vn 0 0 -1

vt 0.591083 0.5539208
vt 0.5686052 0.6611279
vt 0.5686052 0.5539208
vt 0.546127 0.6611279
vt 0.546127 0.5539208
vt 0.5228168 0.6611279
vt 0.5228168 0.5539208
vt 0.500339 0.6611279
vt 0.500339 0.5539208
vt 0.4778608 0.6611279
vt 0.4778608 0.5539208
vt 0.591083 0.6611279
vt 0.599793 0.6764928
vt 0.6268226 0.545623
vt 0.6268226 0.6764928
vt 0.6548178 0.545623
vt 0.6548178 0.6764928
vt 0.6828121 0.545623
vt 0.6828121 0.6764928
vt 0.7108073 0.545623
vt 0.7108073 0.6764928
vt 0.7388018 0.545623
vt 0.7388018 0.6764928
vt 0.599793 0.545623
vt 0.599793 0.545623
vt 0.6268226 0.533039
vt 0.6268226 0.545623
vt 0.6548178 0.533039
vt 0.6548178 0.545623
vt 0.6828121 0.533039
vt 0.6828121 0.545623
vt 0.7108073 0.533039
vt 0.7108073 0.545623
vt 0.7388018 0.533039
vt 0.7388018 0.545623
vt 0.599793 0.533039
vt 0.7388018 0.6764928
vt 0.7108073 0.6865601
vt 0.7108073 0.6764928
vt 0.6828121 0.6865601
vt 0.6828121 0.6764928
vt 0.6548178 0.6865601
vt 0.6548178 0.6764928
vt 0.6268226 0.6865601
vt 0.6268226 0.6764928
vt 0.599793 0.6865601
vt 0.599793 0.6764928
vt 0.7388018 0.6865601
vt 0.7388018 0.6865601
vt 0.7108073 0.6966265
vt 0.7108073 0.6865601
vt 0.6828121 0.6966265
vt 0.6828121 0.6865601
vt 0.6548178 0.6966265
vt 0.6548178 0.6865601
vt 0.6268226 0.6966265
vt 0.6268226 0.6865601
vt 0.599793 0.6966265
vt 0.599793 0.6865601
vt 0.7378364 0.6966265
vt 0.599793 0.533039
vt 0.6268226 0.525489
vt 0.6268226 0.533039
vt 0.6548178 0.525489
vt 0.6548178 0.533039
vt 0.6828121 0.525489
vt 0.6828121 0.533039
vt 0.7108073 0.525489
vt 0.7108073 0.533039
vt 0.7378364 0.525489
vt 0.7388018 0.533039
vt 0.599793 0.525489
vt 0.01528644 0.4843078
vt 0.7175037 0.4585066
vt 0.7441866 0.4843078
vt 0.7175037 0.04473156
vt 0.7441866 0.01893032
vt 0.04196932 0.04473156
vt 0.01528644 0.01893032
vt 0.04196932 0.4585066
vt 0.4778608 0.6611279
vt 0.500339 0.6611279
vt 0.500339 0.6735931
vt 0.5228168 0.6611279
vt 0.5228168 0.6785802
vt 0.546127 0.6611279
vt 0.546127 0.6785802
vt 0.5686052 0.6611279
vt 0.5686052 0.6735931
vt 0.591083 0.6611279
vt 0.591083 0.5539208
vt 0.5686052 0.5539208
vt 0.5686052 0.5439487
vt 0.546127 0.5539208
vt 0.546127 0.5364697
vt 0.5228168 0.5539208
vt 0.5228168 0.5364697
vt 0.500339 0.5539208
vt 0.500339 0.5439487
vt 0.4778608 0.5539208
vt 0.7135484 0.9163088
vt 0.01463212 0.943593
vt 0.04528592 0.9163088
vt 0.01463212 0.5179735
vt 0.04528592 0.5452564
vt 0.7442021 0.5179735
vt 0.7135484 0.5452564
vt 0.7442021 0.943593
vt 0.7236084 0.6864977
vt 0.5906455 0.6864977
vt 0.7236084 0.619855
vt 0.5906455 0.619855
vt 0.7236084 0.5553578
vt 0.5906455 0.5553578
vt 0.6833618 0.7641416
vt 0.6605607 0.6953075
vt 0.6610458 0.5601124
vt 0.7207167 0.758371
vt 0.7425476 0.9632245
vt 0.7037373 0.9632245
vt 0.7197465 0.7641416
vt 0.699371 0.9632245
vt 0.6605607 0.9632245
vt 0.6823916 0.758371
vt 0.7420626 0.5601124
vt 0.7425476 0.6953075
vt 0.7236084 0.6217324
vt 0.7236084 0.5993392
vt 0.5906455 0.5993392
vt 0.5906455 0.6217324
vt 0.5906455 0.6864977
vt 0.7236084 0.6864977
vt 0.599793 0.6764928
vt 0.5959318 0.6764928
vt 0.5959318 0.6664264
vt 0.5959318 0.5531727
vt 0.5959318 0.545623
vt 0.599793 0.545623
vt 0.7388018 0.545623
vt 0.7426634 0.545623
vt 0.7426634 0.5531727
vt 0.7426634 0.6664264
vt 0.7426634 0.6764928
vt 0.7388018 0.6764928
vt 0.04196932 0.04473156
vt 0.7175037 0.04473156
vt 0.04196932 0.4585066
vt 0.7175037 0.4585066
vt 0.3370564 0.479429
vt 0.01729752 0.479429
vt 0.3370564 0.4735237
vt 0.01729752 0.4735237
vt 0.7265441 0.4722384
vt 0.7265441 0.1675504
vt 0.7343562 0.4722384
vt 0.7343562 0.1675504
vt 0.01720913 0.466694
vt 0.336968 0.466694
vt 0.01720913 0.4725993
vt 0.336968 0.4725993
vt 0.7435169 0.1683852
vt 0.7435169 0.4730732
vt 0.7357048 0.1683852
vt 0.7357048 0.4730732
vt 0.04196932 0.4585066
vt 0.7175037 0.4585066
vt 0.04196932 0.4585066
vt 0.7175037 0.4585066
vt 0.7175037 0.4585066
vt 0.7175037 0.04473156
vt 0.7175037 0.4585066
vt 0.7175037 0.04473156
vt 0.7175037 0.04473156
vt 0.04196932 0.04473156
vt 0.7175037 0.04473156
vt 0.04196932 0.04473156
vt 0.04196932 0.04473156
vt 0.04196932 0.4585066
vt 0.04196932 0.04473156
vt 0.04196932 0.4585066

g Monitor04.obj
usemtl Monitor04
usemap Monitor04
f 1/1/1 3/3/3 2/2/2
f 2/2/2 3/3/3 4/4/4
f 3/3/3 5/5/5 4/4/4
f 4/4/4 5/5/5 6/6/6
f 5/5/5 7/7/7 6/6/6
f 6/6/6 7/7/7 8/8/8
f 7/7/7 9/9/9 8/8/8
f 8/8/8 9/9/9 10/10/10
f 9/9/9 11/11/11 10/10/10
f 1/1/1 2/2/2 12/12/12
f 13/13/13 15/15/15 14/14/14
f 14/14/14 15/15/15 16/16/16
f 15/15/15 17/17/17 16/16/16
f 16/16/16 17/17/17 18/18/18
f 17/17/17 19/19/19 18/18/18
f 18/18/18 19/19/19 20/20/20
f 19/19/19 21/21/21 20/20/20
f 20/20/20 21/21/21 22/22/22
f 21/21/21 23/23/23 22/22/22
f 13/13/13 14/14/14 24/24/24
f 25/25/25 27/27/27 26/26/26
f 26/26/26 27/27/27 28/28/28
f 27/27/27 29/29/29 28/28/28
f 28/28/28 29/29/29 30/30/30
f 29/29/29 31/31/31 30/30/30
f 30/30/30 31/31/31 32/32/32
f 31/31/31 33/33/33 32/32/32
f 32/32/32 33/33/33 34/34/34
f 33/33/33 35/35/35 34/34/34
f 25/25/25 26/26/26 36/36/36
f 37/37/37 39/39/39 38/38/38
f 38/38/38 39/39/39 40/40/40
f 39/39/39 41/41/41 40/40/40
f 40/40/40 41/41/41 42/42/42
f 41/41/41 43/43/43 42/42/42
f 42/42/42 43/43/43 44/44/44
f 43/43/43 45/45/45 44/44/44
f 44/44/44 45/45/45 46/46/46
f 45/45/45 47/47/47 46/46/46
f 37/37/37 38/38/38 48/48/48
f 49/49/49 51/51/51 50/50/50
f 50/50/50 51/51/51 52/52/52
f 51/51/51 53/53/53 52/52/52
f 52/52/52 53/53/53 54/54/54
f 53/53/53 55/55/55 54/54/54
f 54/54/54 55/55/55 56/56/56
f 55/55/55 57/57/57 56/56/56
f 56/56/56 57/57/57 58/58/58
f 57/57/57 59/59/59 58/58/58
f 49/49/49 50/50/50 60/60/60
f 61/61/61 63/63/63 62/62/62
f 62/62/62 63/63/63 64/64/64
f 63/63/63 65/65/65 64/64/64
f 64/64/64 65/65/65 66/66/66
f 65/65/65 67/67/67 66/66/66
f 66/66/66 67/67/67 68/68/68
f 67/67/67 69/69/69 68/68/68
f 68/68/68 69/69/69 70/70/70
f 69/69/69 71/71/71 70/70/70
f 61/61/61 62/62/62 72/72/72
f 73/73/73 75/75/75 74/74/74
f 74/74/74 75/75/75 76/76/76
f 75/75/75 77/77/77 76/76/76
f 76/76/76 77/77/77 78/78/78
f 77/77/77 79/79/79 78/78/78
f 78/78/78 79/79/79 80/80/80
f 79/79/79 73/73/73 80/80/80
f 80/80/80 73/73/73 74/74/74
f 81/81/81 83/83/83 82/82/82
f 82/82/82 83/83/83 84/84/84
f 83/83/83 85/85/85 84/84/84
f 84/84/84 85/85/85 86/86/86
f 85/85/85 87/87/87 86/86/86
f 86/86/86 87/87/87 88/88/88
f 87/87/87 89/89/89 88/88/88
f 88/88/88 89/89/89 90/90/90
f 91/91/91 93/93/93 92/92/92
f 92/92/92 93/93/93 94/94/94
f 93/93/93 95/95/95 94/94/94
f 94/94/94 95/95/95 96/96/96
f 95/95/95 97/97/97 96/96/96
f 96/96/96 97/97/97 98/98/98
f 97/97/97 99/99/99 98/98/98
f 98/98/98 99/99/99 100/100/100
f 101/101/101 103/103/103 102/102/102
f 102/102/102 103/103/103 104/104/104
f 103/103/103 105/105/105 104/104/104
f 101/101/101 105/105/105 103/103/103
f 104/104/104 105/105/105 106/106/106
f 105/105/105 107/107/107 106/106/106
f 107/107/107 105/105/105 101/101/101
f 106/106/106 107/107/107 108/108/108
f 107/107/107 101/101/101 108/108/108
f 108/108/108 101/101/101 102/102/102
f 109/109/109 111/111/111 110/110/110
f 110/110/110 111/111/111 112/112/112
f 111/111/111 113/113/113 112/112/112
f 112/112/112 113/113/113 114/114/114
f 115/115/115 117/117/117 116/116/116
f 115/115/115 118/118/118 117/117/117
f 115/115/115 119/119/119 118/118/118
f 115/115/115 120/120/120 119/119/119
f 121/121/121 123/123/123 122/122/122
f 121/121/121 124/124/124 123/123/123
f 121/121/121 125/125/125 124/124/124
f 121/121/121 126/126/126 125/125/125
f 127/127/127 129/129/129 128/128/128
f 127/127/127 130/130/130 129/129/129
f 127/127/127 131/131/131 130/130/130
f 127/127/127 132/132/132 131/131/131
f 133/133/133 135/135/135 134/134/134
f 133/133/133 136/136/136 135/135/135
f 133/133/133 137/137/137 136/136/136
f 133/133/133 138/138/138 137/137/137
f 139/139/139 141/141/141 140/140/140
f 139/139/139 142/142/142 141/141/141
f 139/139/139 143/143/143 142/142/142
f 139/139/139 144/144/144 143/143/143
f 145/145/145 147/147/147 146/146/146
f 146/146/146 147/147/147 148/148/148
f 149/149/149 151/151/151 150/150/150
f 150/150/150 151/151/151 152/152/152
f 153/153/153 155/155/155 154/154/154
f 154/154/154 155/155/155 156/156/156
f 157/157/157 159/159/159 158/158/158
f 158/158/158 159/159/159 160/160/160
f 161/161/161 163/163/163 162/162/162
f 162/162/162 163/163/163 164/164/164
f 165/165/165 167/167/167 166/166/166
f 166/166/166 167/167/167 168/168/168
f 169/169/169 171/171/171 170/170/170
f 170/170/170 171/171/171 172/172/172
f 173/173/173 175/175/175 174/174/174
f 174/174/174 175/175/175 176/176/176
f 177/177/177 179/179/179 178/178/178
f 178/178/178 179/179/179 180/180/180
