#office_desk_border.bmp.obj

v 0.5630419 -0.02971667 3.368192
v 0.5630419 0.02971929 3.368192
v 1.752219 -0.02971685 3.093872
v 1.752219 0.02971912 3.093872
v 2.665704 -0.02971702 2.355952
v 2.665704 0.02971894 2.355952
v 2.665704 -0.02971702 2.355952
v 2.665704 0.02971894 2.355952
v 3.127934 -0.02971737 1.500988
v 3.127934 0.02971859 1.500988
v 3.309442 -0.02971772 0.5042917
v 3.309442 0.02971824 0.5042917
v 3.309442 -0.02971929 -3.368192
v 3.309442 0.02971667 -3.368192
v 0.5630419 0.02971842 1.270102
v 0.5630419 -0.02971755 1.270102
v 0.7701535 0.02971842 1.189177
v 0.7701535 -0.02971755 1.189177
v 0.7701535 0.02971842 1.189177
v 0.7701535 -0.02971755 1.189177
v 0.9708642 0.02971842 0.9985248
v 0.9708642 -0.02971755 0.9985248
v 1.139114 0.02971824 0.7667244
v 1.139114 -0.02971772 0.7667244
v 1.211351 0.02971824 0.5047488
v 1.211351 -0.02971772 0.5047488
v 1.211351 0.02971667 -3.367735
v 1.211351 -0.02971929 -3.367735
v 0.5630419 -0.02971667 3.368192
v -3.309442 -0.02971667 3.368192
v 0.5630419 0.02971929 3.368192
v -3.309442 0.02971929 3.368192
v -3.309442 -0.02971755 1.270102
v 0.5630419 -0.02971755 1.270102
v -3.309442 0.02971842 1.270102
v 0.5630419 0.02971842 1.270102
v -3.309442 -0.02971667 3.368192
v -3.309442 -0.02971755 1.270102
v -3.309442 0.02971929 3.368192
v -3.309442 0.02971842 1.270102
v 3.309442 0.02971667 -3.368192
v 1.211351 0.02971667 -3.367735
v 3.309442 -0.02971929 -3.368192
v 1.211351 -0.02971929 -3.367735

vn 0.2247774 0 0.9744101
vn 0.2247774 0 0.9744101
vn 0.4377539 0 0.8990949
vn 0.437754 0 0.8990948
vn 0.7690317 0 0.6392106
vn 0.7690316 0 0.6392106
vn 0.7690317 0 0.6392106
vn 0.7690316 0 0.6392106
vn 0.9434586 0 0.3314905
vn 0.9434586 0 0.3314906
vn 0.9959466 0 0.08994617
vn 0.9959466 0 0.08994634
vn 0.7070299 0 -0.7071836
vn 1 0 0
vn -0.3639341 0 -0.9314247
vn -0.3639341 0 -0.9314247
vn -0.5363407 -5.371906E-07 -0.8440015
vn -0.5363405 -5.618334E-07 -0.8440016
vn -0.5363407 -5.371906E-07 -0.8440015
vn -0.5363405 -5.618334E-07 -0.8440016
vn -0.7521515 0 -0.6589902
vn -0.7521515 0 -0.6589902
vn -0.9011173 0 -0.4335753
vn -0.9011174 0 -0.4335753
vn -0.9909648 0 -0.1341224
vn -0.9909648 0 -0.1341225
vn -0.7071841 0 -0.7070295
vn -1 0 0
vn 0 0 1
vn 0 0 1
vn 0 0 1
vn 0 0 1
vn 0 0 -1
vn 0 0 -1
vn 0 0 -1
vn 0 0 -1
vn -1 0 0
vn -1 0 0
vn -1 0 0
vn -1 0 0
vn -0.0002177927 0 -1
vn -0.7071841 0 -0.7070295
vn 0.7070299 0 -0.7071836
vn -0.0002177927 0 -1

vt 0.998047 0.987013
vt 0.998047 0
vt 0.998047 0.987013
vt 0.998047 0
vt 0.998047 0.987013
vt 0.998047 0
vt 0.998047 0.987013
vt 0.998047 0
vt 0.998047 0.987013
vt 0.998047 0
vt 0.998047 0.987013
vt 0.998047 0
vt 0.998047 0.987013
vt 0.998047 0
vt 0 0
vt 0 0.987013
vt 0 0
vt 0 0.987013
vt 0 0
vt 0 0.987013
vt 0 0
vt 0 0.987013
vt 0 0
vt 0 0.987013
vt 0 0
vt 0 0.987013
vt 0 0
vt 0 0.987013
vt 0.998047 0.987013
vt 0 0.987013
vt 0.998047 0
vt 0 0
vt 0.998047 0.987013
vt 0 0.987013
vt 0.998047 0
vt 0 0
vt 0.998047 0.987013
vt 0 0.987013
vt 0.998047 0
vt 0 0
vt 0.998047 0.987013
vt 0 0
vt 0.998047 0.987013
vt 0 0

g office_desk_border.bmp.obj
usemtl office_desk_border.bmp
usemap office_desk_border.bmp
f 1/1/1 3/3/3 2/2/2
f 2/2/2 3/3/3 4/4/4
f 3/3/3 5/5/5 4/4/4
f 4/4/4 5/5/5 6/6/6
f 7/7/7 9/9/9 8/8/8
f 8/8/8 9/9/9 10/10/10
f 9/9/9 11/11/11 10/10/10
f 10/10/10 11/11/11 12/12/12
f 11/11/11 13/13/13 12/12/12
f 12/12/12 13/13/13 14/14/14
f 15/15/15 17/17/17 16/16/16
f 16/16/16 17/17/17 18/18/18
f 19/19/19 21/21/21 20/20/20
f 20/20/20 21/21/21 22/22/22
f 21/21/21 23/23/23 22/22/22
f 22/22/22 23/23/23 24/24/24
f 23/23/23 25/25/25 24/24/24
f 24/24/24 25/25/25 26/26/26
f 25/25/25 27/27/27 26/26/26
f 26/26/26 27/27/27 28/28/28
f 29/29/29 31/31/31 30/30/30
f 30/30/30 31/31/31 32/32/32
f 33/33/33 35/35/35 34/34/34
f 34/34/34 35/35/35 36/36/36
f 37/37/37 39/39/39 38/38/38
f 38/38/38 39/39/39 40/40/40
f 41/41/41 43/43/43 42/42/42
f 42/42/42 43/43/43 44/44/44
