#Paper.obj

v 0.1613679 -0.009569323 0.1115485
v -0.08806013 -0.00956927 0.2555665
v -0.04208609 -0.009569449 -0.2410034
v -0.2915141 -0.009569398 -0.09698543
v 0.2276619 -0.01149776 -0.03297744
v 0.02395387 -0.01149768 0.1704765
v -0.06062813 -0.01149786 -0.3205054
v -0.2638281 -0.01149778 -0.1175594

vn 0 1 -3.625219E-07
vn 0 1 -3.627546E-07
vn 0 1 -3.628828E-07
vn 0 1 -3.631155E-07
vn 0 1 -3.624306E-07
vn 0 1 -3.624841E-07
vn 0 1 -3.625138E-07
vn 0 1 -3.625674E-07

vt 0.5020481 0.003735185
vt 0.9349842 0.003735185
vt 0.5020481 0.6157604
vt 0.9349842 0.6157604
vt 0.364569 0.8130717
vt 0.364569 0.9973062
vt 0.06806504 0.8130717
vt 0.06806505 0.9973063

g Paper.obj
usemtl Paper
usemap Paper
f 1/1/1 3/3/3 2/2/2
f 2/2/2 3/3/3 4/4/4
f 5/5/5 7/7/7 6/6/6
f 6/6/6 7/7/7 8/8/8
