#PlastikBoxes.obj

v 2.695997 -0.4117538 -0.2605599
v 2.739192 -0.4117539 1.714028
v 2.739196 -0.4117539 -0.2211597
v 2.695998 -0.4117539 1.753641
v 2.739196 -0.4117539 -0.2211597
v 2.739192 -0.3646973 1.714028
v 2.739196 -0.3646975 -0.2211597
v 2.739192 -0.4117539 1.714028
v 2.749423 -0.3646975 -0.2100744
v 2.749425 -0.354364 1.705996
v 2.749423 -0.3543639 -0.2100744
v 2.749425 -0.3646978 1.705996
v 2.749423 -0.3543639 -0.2100744
v 2.695998 -0.3543639 1.753641
v 2.695997 -0.3543638 -0.2605599
v 2.749425 -0.354364 1.705996
v 2.739196 -0.3646975 -0.2211597
v 2.749425 -0.3646978 1.705996
v 2.749423 -0.3646975 -0.2100744
v 2.739192 -0.3646973 1.714028
v 3.616569 -0.4117539 1.753641
v 3.577449 -0.4117537 -0.2211603
v 3.57748 -0.411754 1.714028
v 3.577449 -0.4117537 -0.2211603
v 3.616569 -0.4117539 1.753641
v 3.616568 -0.4117537 -0.2605605
v 3.57748 -0.411754 1.714028
v 3.577448 -0.3646972 -0.2211605
v 3.57748 -0.3646976 1.714028
v 3.577449 -0.4117537 -0.2211603
v 3.568396 -0.3646975 1.705996
v 3.568415 -0.3543639 -0.2100751
v 3.568396 -0.3543639 1.705996
v 3.568415 -0.3646977 -0.210075
v 3.568396 -0.3543639 1.705996
v 3.616568 -0.3543638 -0.2605607
v 3.616569 -0.3543639 1.753641
v 3.616568 -0.3543638 -0.2605607
v 3.568396 -0.3543639 1.705996
v 3.568415 -0.3543639 -0.2100751
v 3.57748 -0.3646976 1.714028
v 3.568415 -0.3646977 -0.210075
v 3.568396 -0.3646975 1.705996
v 3.568415 -0.3646977 -0.210075
v 3.57748 -0.3646976 1.714028
v 3.577448 -0.3646972 -0.2211605
v 3.616568 -0.4117537 -0.2605605
v 2.739196 -0.4117539 -0.2211597
v 3.577449 -0.4117537 -0.2211603
v 2.739196 -0.4117539 -0.2211597
v 3.616568 -0.4117537 -0.2605605
v 2.695997 -0.4117538 -0.2605599
v 3.577449 -0.4117537 -0.2211603
v 2.739196 -0.3646975 -0.2211597
v 3.577448 -0.3646972 -0.2211605
v 2.739196 -0.4117539 -0.2211597
v 3.568415 -0.3646977 -0.210075
v 2.749423 -0.3543639 -0.2100744
v 3.568415 -0.3543639 -0.2100751
v 2.749423 -0.3646975 -0.2100744
v 3.568415 -0.3543639 -0.2100751
v 2.695997 -0.3543638 -0.2605599
v 3.616568 -0.3543638 -0.2605607
v 2.695997 -0.3543638 -0.2605599
v 3.568415 -0.3543639 -0.2100751
v 2.749423 -0.3543639 -0.2100744
v 3.577448 -0.3646972 -0.2211605
v 2.749423 -0.3646975 -0.2100744
v 3.568415 -0.3646977 -0.210075
v 2.739196 -0.3646975 -0.2211597
v 2.695998 -0.4117539 1.753641
v 3.57748 -0.411754 1.714028
v 2.739192 -0.4117539 1.714028
v 3.57748 -0.411754 1.714028
v 2.695998 -0.4117539 1.753641
v 3.616569 -0.4117539 1.753641
v 2.739192 -0.4117539 1.714028
v 3.57748 -0.3646976 1.714028
v 2.739192 -0.3646973 1.714028
v 3.57748 -0.411754 1.714028
v 2.749425 -0.3646978 1.705996
v 3.568396 -0.3543639 1.705996
v 2.749425 -0.354364 1.705996
v 3.568396 -0.3646975 1.705996
v 2.749425 -0.354364 1.705996
v 3.616569 -0.3543639 1.753641
v 2.695998 -0.3543639 1.753641
v 3.616569 -0.3543639 1.753641
v 2.749425 -0.354364 1.705996
v 3.568396 -0.3543639 1.705996
v 2.739192 -0.3646973 1.714028
v 3.568396 -0.3646975 1.705996
v 2.749425 -0.3646978 1.705996
v 3.568396 -0.3646975 1.705996
v 2.739192 -0.3646973 1.714028
v 3.57748 -0.3646976 1.714028

vn 1.113158E-07 -1 -9.142E-08
vn 1.548252E-06 -1 -2.520762E-06
vn 8.876211E-08 -1 -1.005236E-07
vn 1.924467E-06 -1 -1.910739E-06
vn 1 0 2.144697E-06
vn 1 0 2.144696E-06
vn 1 0 2.144697E-06
vn 1 0 2.144696E-06
vn 1 -2.35447E-05 -1.402029E-06
vn 1 -8.095163E-08 -1.528571E-06
vn 1 -2.362565E-05 -1.401593E-06
vn 1 0 -1.529008E-06
vn 6.852434E-07 1 7.989622E-07
vn 7.848224E-07 1 -7.388927E-07
vn 7.543616E-07 1 8.057665E-07
vn 6.353044E-07 1 -9.027679E-07
vn -1.298197E-06 -1 -1.675766E-06
vn -1.959523E-05 -1 2.816999E-05
vn -1.278619E-06 -1 -1.683616E-06
vn -2.39126E-05 -1 2.237772E-05
vn 1.647191E-06 -1 1.401561E-06
vn -3.915017E-07 -1 6.490943E-07
vn 1.497799E-06 -1 1.567943E-06
vn -3.915017E-07 -1 6.490943E-07
vn 1.647191E-06 -1 1.401561E-06
vn -4.881006E-07 -1 5.230842E-07
vn -1 -1.606166E-07 1.639671E-05
vn -1 -1.021583E-05 1.61522E-05
vn -1 0 1.640062E-05
vn -1 -1.037644E-05 1.61483E-05
vn -1 0 -9.683717E-06
vn -1 0 -9.683718E-06
vn -1 0 -9.683717E-06
vn -1 0 -9.683718E-06
vn 1.995997E-07 1 6.077908E-07
vn -2.306416E-06 1 2.258149E-06
vn 2.815513E-07 1 4.663123E-07
vn -2.306416E-06 1 2.258149E-06
vn 1.995997E-07 1 6.077908E-07
vn -2.260989E-06 1 2.346327E-06
vn -1.814615E-06 -1 -1.565934E-06
vn 2.618319E-05 -1 -1.991328E-05
vn -1.811727E-06 -1 -1.632032E-06
vn 2.618319E-05 -1 -1.991328E-05
vn -1.814615E-06 -1 -1.565934E-06
vn 2.187707E-05 -1 -2.31435E-05
vn -4.881006E-07 -1 5.230842E-07
vn 8.876211E-08 -1 -1.005236E-07
vn -3.915017E-07 -1 6.490943E-07
vn 8.876211E-08 -1 -1.005236E-07
vn -4.881006E-07 -1 5.230842E-07
vn 1.113158E-07 -1 -9.142E-08
vn 8.672484E-07 3.775431E-06 1
vn 6.982153E-07 7.642968E-07 1
vn 8.737468E-07 3.891196E-06 1
vn 6.917169E-07 6.485328E-07 1
vn 9.676254E-07 1.171792E-05 1
vn 8.209686E-07 9.484997E-08 1
vn 9.688225E-07 1.181279E-05 1
vn 8.197715E-07 0 1
vn -2.260989E-06 1 2.346327E-06
vn 7.543616E-07 1 8.057665E-07
vn -2.306416E-06 1 2.258149E-06
vn 7.543616E-07 1 8.057665E-07
vn -2.260989E-06 1 2.346327E-06
vn 6.852434E-07 1 7.989622E-07
vn 2.187707E-05 -1 -2.31435E-05
vn -1.278619E-06 -1 -1.683616E-06
vn 2.618319E-05 -1 -1.991328E-05
vn -1.298197E-06 -1 -1.675766E-06
vn 1.924467E-06 -1 -1.910739E-06
vn 1.497799E-06 -1 1.567943E-06
vn 1.548252E-06 -1 -2.520762E-06
vn 1.497799E-06 -1 1.567943E-06
vn 1.924467E-06 -1 -1.910739E-06
vn 1.647191E-06 -1 1.401561E-06
vn -5.87673E-07 -2.501516E-06 -1
vn -7.228941E-07 -9.260565E-08 -1
vn -5.824747E-07 -2.594121E-06 -1
vn -7.280924E-07 0 -1
vn -5.962132E-07 0 -1
vn -5.962132E-07 0 -1
vn -5.962132E-07 0 -1
vn -5.962132E-07 0 -1
vn 6.353044E-07 1 -9.027679E-07
vn 2.815513E-07 1 4.663123E-07
vn 7.848224E-07 1 -7.388927E-07
vn 2.815513E-07 1 4.663123E-07
vn 6.353044E-07 1 -9.027679E-07
vn 1.995997E-07 1 6.077908E-07
vn -2.39126E-05 -1 2.237772E-05
vn -1.811727E-06 -1 -1.632032E-06
vn -1.959523E-05 -1 2.816999E-05
vn -1.811727E-06 -1 -1.632032E-06
vn -2.39126E-05 -1 2.237772E-05
vn -1.814615E-06 -1 -1.565934E-06

vt 0.02604624 1
vt 0.05784119 0
vt 0.05784119 1
vt 0.02604624 0
vt 0.02604624 1
vt 0.05784119 0
vt 0.05784119 1
vt 0.02604624 0
vt 0.02604624 1
vt 0.02491938 0
vt 0.02491938 1
vt 0.02604624 0
vt 0.02604624 1
vt 0.05784119 0
vt 0.05784119 1
vt 0.02604624 0
vt 0.02604624 1
vt 0.02491938 0
vt 0.02491938 1
vt 0.02604624 0
vt 0.02604624 1
vt 0.05784119 0
vt 0.05784119 1
vt 0.05784119 0
vt 0.02604624 1
vt 0.02604624 0
vt 0.02604624 1
vt 0.05784119 0
vt 0.05784119 1
vt 0.02604624 0
vt 0.02604624 1
vt 0.02491938 0
vt 0.02491938 1
vt 0.02604624 0
vt 0.02604624 1
vt 0.05784119 0
vt 0.05784119 1
vt 0.05784119 0
vt 0.02604624 1
vt 0.02604624 0
vt 0.02604624 1
vt 0.02491938 0
vt 0.02491938 1
vt 0.02491938 0
vt 0.02604624 1
vt 0.02604624 0
vt 0.02459357 1
vt 0.05761318 0
vt 0.05761318 1
vt 0.05761318 0
vt 0.02459357 1
vt 0.02459357 0
vt 0.02459357 1
vt 0.05761318 0
vt 0.05761318 1
vt 0.02459357 0
vt 0 1
vt 0.02880657 0
vt 0.02880657 1
vt 0 0
vt 0.02459357 1
vt 0.05761318 0
vt 0.05761318 1
vt 0.05761318 0
vt 0.02459357 1
vt 0.02459357 0
vt 0 1
vt 0.02880657 0
vt 0.02880657 1
vt 0 0
vt 0.02459357 1
vt 0.05761318 0
vt 0.05761318 1
vt 0.05761318 0
vt 0.02459357 1
vt 0.02459357 0
vt 0.02459357 1
vt 0.05761318 0
vt 0.05761318 1
vt 0.02459357 0
vt 0 1
vt 0.02880657 0
vt 0.02880657 1
vt 0 0
vt 0.02459357 1
vt 0.05761318 0
vt 0.05761318 1
vt 0.05761318 0
vt 0.02459357 1
vt 0.02459357 0
vt 0 1
vt 0.02880657 0
vt 0.02880657 1
vt 0.02880657 0
vt 0 1
vt 0 0

g PlastikBoxes.obj
usemtl PlastikBoxes
usemap PlastikBoxes
f 1/1/1 3/3/3 2/2/2
f 2/2/2 4/4/4 1/1/1
f 5/5/5 7/7/7 6/6/6
f 6/6/6 8/8/8 5/5/5
f 9/9/9 11/11/11 10/10/10
f 10/10/10 12/12/12 9/9/9
f 13/13/13 15/15/15 14/14/14
f 14/14/14 16/16/16 13/13/13
f 17/17/17 19/19/19 18/18/18
f 18/18/18 20/20/20 17/17/17
f 21/21/21 23/23/23 22/22/22
f 24/24/24 26/26/26 25/25/25
f 27/27/27 29/29/29 28/28/28
f 28/28/28 30/30/30 27/27/27
f 31/31/31 33/33/33 32/32/32
f 32/32/32 34/34/34 31/31/31
f 35/35/35 37/37/37 36/36/36
f 38/38/38 40/40/40 39/39/39
f 41/41/41 43/43/43 42/42/42
f 44/44/44 46/46/46 45/45/45
f 47/47/47 49/49/49 48/48/48
f 50/50/50 52/52/52 51/51/51
f 53/53/53 55/55/55 54/54/54
f 54/54/54 56/56/56 53/53/53
f 57/57/57 59/59/59 58/58/58
f 58/58/58 60/60/60 57/57/57
f 61/61/61 63/63/63 62/62/62
f 64/64/64 66/66/66 65/65/65
f 67/67/67 69/69/69 68/68/68
f 68/68/68 70/70/70 67/67/67
f 71/71/71 73/73/73 72/72/72
f 74/74/74 76/76/76 75/75/75
f 77/77/77 79/79/79 78/78/78
f 78/78/78 80/80/80 77/77/77
f 81/81/81 83/83/83 82/82/82
f 82/82/82 84/84/84 81/81/81
f 85/85/85 87/87/87 86/86/86
f 88/88/88 90/90/90 89/89/89
f 91/91/91 93/93/93 92/92/92
f 94/94/94 96/96/96 95/95/95
