#SportBrus01_PhyWood.obj

v 0.3873813 -1.600308 1.386713
v 0.3659013 -1.600308 1.394532
v 0.3773305 1.600308 1.392517
v 0.3988104 1.600308 1.366918
v 0.3544721 1.600308 1.392516
v 0.3659013 1.610956 1.390546
v 0.3913887 1.610956 1.375831
v 0.3829558 1.618632 1.364122
v 0.3444215 -1.600308 1.386714
v 0.3369615 1.600308 1.377824
v 0.3329922 -1.600308 1.366917
v 0.3369615 1.600308 1.344407
v 0.3444215 -1.600308 1.335516
v 0.3544721 1.600308 1.329714
v 0.3659013 -1.600308 1.327698
v 0.3469838 1.610956 1.33857
v 0.3369179 1.610956 1.366226
v 0.3948846 1.610956 1.356005
v 0.3848188 1.610956 1.33857
v 0.3659013 1.610956 1.331685
v 0.3659013 1.618632 1.378433
v 0.3488468 1.618632 1.358108
v 0.3469838 1.610956 1.38366
v 0.3659013 1.618632 1.343797
v 0.3659013 -1.610957 1.331684
v 0.3659013 1.610956 1.331685
v 0.3404139 -1.610957 1.346399
v 0.3547698 -1.618632 1.347849
v 0.3404138 -1.610957 1.37583
v 0.3599783 -1.618632 1.377388
v 0.3558355 -1.610957 1.38877
v 0.3759671 -1.610957 1.38877
v 0.3829559 -1.618632 1.364122
v 0.3913889 -1.610957 1.37583
v 0.3913889 -1.610957 1.3464
v 0.3988104 -1.600308 1.366917
v 0.3948411 1.600308 1.344407
v 0.3948411 -1.600308 1.344406
v 0.3773305 1.600308 1.329714
v 0.3659013 -1.600308 1.327698
v 0.3544721 1.600308 1.329714
v 0.3659013 -1.610957 1.331684
v 0.3770329 -1.618632 1.347849
v 0.3547698 -1.618632 1.347849
v 0.3659013 1.618632 1.343797
v -0.3571108 -1.600308 1.335516
v -0.3356309 -1.600308 1.327698
v -0.3470602 1.600308 1.329714
v -0.3645708 1.600308 1.344407
v -0.36854 -1.600308 1.366917
v -0.3645708 1.600308 1.377824
v -0.3571108 -1.600308 1.386714
v -0.3470602 1.600308 1.392516
v -0.3356309 -1.600308 1.394532
v -0.3242018 1.600308 1.392517
v -0.314151 -1.600308 1.386713
v -0.3027219 1.600308 1.366918
v -0.335631 1.610956 1.390546
v -0.3101435 1.610956 1.375831
v -0.3185764 1.618632 1.364122
v -0.3066477 1.610956 1.356005
v -0.3167135 1.610956 1.33857
v -0.335631 1.610956 1.331685
v -0.335631 1.618632 1.343797
v -0.3027218 -1.600308 1.366917
v -0.3066912 1.600308 1.344407
v -0.3066911 -1.600308 1.344406
v -0.3242018 1.600308 1.329714
v -0.3356309 -1.600308 1.327698
v -0.3470602 1.600308 1.329714
v -0.3356309 1.618632 1.378433
v -0.3545485 1.610956 1.38366
v -0.3646143 1.610956 1.366226
v -0.3526855 1.618632 1.358108
v -0.3545485 1.610956 1.33857
v -0.335631 1.618632 1.343797
v -0.335631 1.610956 1.331685
v -0.3101434 -1.610957 1.3464
v -0.3101434 -1.610957 1.37583
v -0.3185764 -1.618632 1.364122
v -0.3255651 -1.610957 1.38877
v -0.3415539 -1.618632 1.377388
v -0.3456967 -1.610957 1.38877
v -0.3611185 -1.610957 1.37583
v -0.3467625 -1.618632 1.347849
v -0.3611184 -1.610957 1.346399
v -0.3356309 -1.610957 1.331684
v -0.3244993 -1.618632 1.347849
v -0.3356309 -1.610957 1.331684
v -0.3467625 -1.618632 1.347849
v 0.3659013 1.618632 1.378433
v 0.3488468 1.618632 1.358108
v 0.3829558 1.618632 1.364122
v 0.3659013 1.618632 1.343797
v -0.3185764 1.618632 1.364122
v -0.3356309 1.618632 1.378433
v -0.335631 1.618632 1.343797
v -0.3526855 1.618632 1.358108
v 0.3547698 -1.618632 1.347849
v 0.3599783 -1.618632 1.377388
v 0.3829559 -1.618632 1.364122
v 0.3770329 -1.618632 1.347849
v -0.3467625 -1.618632 1.347849
v -0.3415539 -1.618632 1.377388
v -0.3185764 -1.618632 1.364122
v -0.3244993 -1.618632 1.347849

vn 0.6339728 -0.1658063 0.7553719
vn 3.796063E-07 -0.1659757 0.9861298
vn 0.4127765 0.1977123 0.8891149
vn 0.9605722 0.1456798 0.2368089
vn -0.3372767 0.1659789 0.9266582
vn 0.04990606 0.6132376 0.7883204
vn 0.6707509 0.5519564 0.4954164
vn 0.3094512 0.9494585 0.05261693
vn -0.6338723 -0.1659746 0.7554193
vn -0.8880821 0.1458482 0.4359339
vn -0.9763866 -0.1977024 0.08707984
vn -0.8877191 0.1977104 -0.415771
vn -0.6624385 -0.2028496 -0.7211292
vn -0.3372751 0.1659801 -0.9266586
vn 0.08250347 -0.1703136 -0.98193
vn -0.5331725 0.6160406 -0.5798456
vn -0.8241739 0.5584975 0.09390429
vn 0.7770302 0.6109019 -0.1517335
vn 0.4659666 0.668474 -0.5796703
vn 0.02617357 0.6212415 -0.783182
vn 0.04590645 0.9372478 0.3456288
vn -0.3563888 0.9333403 -0.04316027
vn -0.5067685 0.6416307 0.5757567
vn 0.1319009 0.924053 -0.3587872
vn 0.04104797 -0.6085082 -0.7924853
vn 0.02617357 0.6212415 -0.783182
vn -0.7428611 -0.559567 -0.3674809
vn -0.2466532 -0.934982 -0.2548936
vn -0.6872634 -0.6429608 0.3380392
vn -0.1179016 -0.9514989 0.284164
vn -0.2749122 -0.5949215 0.755309
vn 0.2747306 -0.6281683 0.7279613
vn 0.3530194 -0.9323905 0.07762295
vn 0.6934913 -0.6169182 0.3721313
vn 0.6752717 -0.5959321 -0.4345953
vn 0.964327 -0.2207431 0.1461024
vn 0.8540596 0.1656567 -0.4930925
vn 0.8092093 -0.1701455 -0.5623441
vn 0.3373836 0.1658188 -0.926648
vn 0.08250347 -0.1703136 -0.98193
vn -0.3372751 0.1659801 -0.9266586
vn 0.04104797 -0.6085082 -0.7924853
vn 0.2116618 -0.9311863 -0.2968017
vn -0.2466532 -0.934982 -0.2548936
vn 0.1319009 0.924053 -0.3587872
vn -0.6624385 -0.2028496 -0.7211292
vn 0.08250347 -0.1703136 -0.98193
vn -0.3372751 0.1659801 -0.9266586
vn -0.8877191 0.1977104 -0.415771
vn -0.9763866 -0.1977025 0.08707984
vn -0.8880821 0.1458482 0.4359339
vn -0.6338723 -0.1659746 0.7554193
vn -0.3372767 0.1659789 0.9266582
vn 3.796063E-07 -0.1659757 0.9861298
vn 0.4127765 0.1977123 0.8891149
vn 0.6339728 -0.1658063 0.7553719
vn 0.9605722 0.1456798 0.2368089
vn 0.04990606 0.6132376 0.7883204
vn 0.6707509 0.5519564 0.4954163
vn 0.3094512 0.9494585 0.05261692
vn 0.7770302 0.6109019 -0.1517335
vn 0.4659666 0.668474 -0.5796703
vn 0.02617356 0.6212415 -0.783182
vn 0.1319009 0.924053 -0.3587872
vn 0.964327 -0.2207431 0.1461024
vn 0.8540596 0.1656567 -0.4930925
vn 0.8092093 -0.1701455 -0.5623441
vn 0.3373836 0.1658188 -0.926648
vn 0.08250347 -0.1703136 -0.98193
vn -0.3372751 0.1659801 -0.9266586
vn 0.04590645 0.9372478 0.3456288
vn -0.5067685 0.6416307 0.5757567
vn -0.8241737 0.5584976 0.09390429
vn -0.3563888 0.9333403 -0.04316027
vn -0.5331725 0.6160406 -0.5798456
vn 0.1319009 0.924053 -0.3587872
vn 0.02617356 0.6212415 -0.783182
vn 0.6752717 -0.5959321 -0.4345953
vn 0.6934913 -0.6169182 0.3721313
vn 0.3530194 -0.9323905 0.07762295
vn 0.2747306 -0.6281683 0.7279613
vn -0.1179016 -0.9514989 0.284164
vn -0.2749121 -0.5949214 0.7553091
vn -0.6872634 -0.6429608 0.3380392
vn -0.2466532 -0.934982 -0.2548936
vn -0.7428611 -0.559567 -0.3674809
vn 0.04104797 -0.6085082 -0.7924853
vn 0.2116618 -0.9311863 -0.2968017
vn 0.04104797 -0.6085082 -0.7924853
vn -0.2466532 -0.934982 -0.2548936
vn 0.04590645 0.9372478 0.3456288
vn -0.3563888 0.9333403 -0.04316027
vn 0.3094512 0.9494585 0.05261693
vn 0.1319009 0.924053 -0.3587872
vn 0.3094512 0.9494585 0.05261692
vn 0.04590645 0.9372478 0.3456288
vn 0.1319009 0.924053 -0.3587872
vn -0.3563888 0.9333403 -0.04316027
vn -0.2466532 -0.934982 -0.2548936
vn -0.1179016 -0.9514989 0.284164
vn 0.3530194 -0.9323905 0.07762295
vn 0.2116618 -0.9311863 -0.2968017
vn -0.2466532 -0.934982 -0.2548936
vn -0.1179016 -0.9514989 0.284164
vn 0.3530194 -0.9323905 0.07762295
vn 0.2116618 -0.9311863 -0.2968017

vt 0.9406567 0.008855045
vt 0.9511846 0.008855045
vt 0.9459675 0.9898866
vt 0.9297422 0.9898866
vt 0.9563662 0.9898866
vt 0.9511849 0.9931502
vt 0.9352368 0.9931502
vt 0.9297423 0.9983613
vt 0.9615834 0.008855045
vt 0.9668939 0.9898865
vt 0.9723144 0.008854985
vt 0.983303 0.9898865
vt 0.9887237 0.008854985
vt 0.9940336 0.9898866
vt 0.9992512 0.008855045
vt 0.9887233 0.9931502
vt 0.9723142 0.9931502
vt 0.9242478 0.9931502
vt 0.9135168 0.9931502
vt 0.903118 0.9931502
vt 0.9511849 0.9983613
vt 0.9778085 0.9983613
vt 0.9615834 0.9931502
vt 0.9992509 0.9983613
vt 0.9992512 0.005591094
vt 0.999251 0.9931502
vt 0.9833032 0.005591094
vt 0.9887238 0.001239538
vt 0.966894 0.005591094
vt 0.9563659 0.001239657
vt 0.9563659 0.005591094
vt 0.9459671 0.005591094
vt 0.9297418 0.001239538
vt 0.9352363 0.005591094
vt 0.9188274 0.005591094
vt 0.9297419 0.008855045
vt 0.9188274 0.9898866
vt 0.9188272 0.008855045
vt 0.9082994 0.9898866
vt 0.9031183 0.008855045
vt 0.903118 0.9898866
vt 0.9031183 0.005591094
vt 0.9135169 0.001239538
vt 0.9031184 0.001239538
vt 0.903118 0.9983613
vt 0.890285 0.008854985
vt 0.9008127 0.008855045
vt 0.8955951 0.9898866
vt 0.8848643 0.9898865
vt 0.8738757 0.008854985
vt 0.8684553 0.9898865
vt 0.8631448 0.008855045
vt 0.8579276 0.9898866
vt 0.8527459 0.008855045
vt 0.8475289 0.9898866
vt 0.842218 0.008855045
vt 0.8313035 0.9898866
vt 0.8527462 0.9931502
vt 0.836798 0.9931502
vt 0.8313036 0.9983613
vt 0.8258091 0.9931502
vt 0.8150782 0.9931502
vt 0.8046794 0.9931502
vt 0.8046793 0.9983613
vt 0.8313033 0.008855045
vt 0.8203887 0.9898866
vt 0.8203887 0.008855045
vt 0.8098609 0.9898866
vt 0.8046796 0.008855045
vt 0.8046794 0.9898866
vt 0.8527462 0.9983613
vt 0.8631448 0.9931502
vt 0.8738755 0.9931502
vt 0.8793699 0.9983613
vt 0.8902847 0.9931502
vt 0.9008124 0.9983613
vt 0.9008124 0.9931502
vt 0.8203887 0.005591094
vt 0.8367977 0.005591094
vt 0.8313031 0.001239538
vt 0.8475285 0.005591094
vt 0.8579273 0.001239657
vt 0.8579274 0.005591094
vt 0.8684553 0.005591094
vt 0.8902851 0.001239538
vt 0.8848646 0.005591094
vt 0.9008127 0.005591094
vt 0.8150782 0.001239538
vt 0.8046797 0.005591094
vt 0.8046798 0.001239538
vt 0.3985239 0.4166794
vt 0.3642625 0.3874867
vt 0.4226469 0.3874867
vt 0.3883855 0.3582941
vt 0.421458 0.3177508
vt 0.3973349 0.3469434
vt 0.3871966 0.2885582
vt 0.3630736 0.3177508
vt 0.5042946 0.3684319
vt 0.4870013 0.416679
vt 0.4527399 0.3874862
vt 0.4673359 0.3618145
vt 0.5031056 0.298696
vt 0.4858124 0.3469431
vt 0.451551 0.3177503
vt 0.466147 0.2920786

g SportBrus01_PhyWood.obj
usemtl SportBrus01_PhyWood
usemap SportBrus01_PhyWood
f 1/1/1 3/3/3 2/2/2
f 4/4/4 3/3/3 1/1/1
f 3/3/3 5/5/5 2/2/2
f 3/3/3 6/6/6 5/5/5
f 7/7/7 6/6/6 3/3/3
f 4/4/4 7/7/7 3/3/3
f 7/7/7 8/8/8 6/6/6
f 2/2/2 5/5/5 9/9/9
f 5/5/5 10/10/10 9/9/9
f 9/9/9 10/10/10 11/11/11
f 10/10/10 12/12/12 11/11/11
f 11/11/11 12/12/12 13/13/13
f 12/12/12 14/14/14 13/13/13
f 13/13/13 14/14/14 15/15/15
f 12/12/12 16/16/16 14/14/14
f 17/17/17 16/16/16 12/12/12
f 10/10/10 17/17/17 12/12/12
f 18/18/18 8/8/8 7/7/7
f 18/18/18 7/7/7 4/4/4
f 19/19/19 8/8/8 18/18/18
f 20/20/20 8/8/8 19/19/19
f 8/8/8 21/21/21 6/6/6
f 21/21/21 22/22/22 17/17/17
f 17/17/17 22/22/22 16/16/16
f 23/23/23 21/21/21 17/17/17
f 23/23/23 17/17/17 10/10/10
f 6/6/6 21/21/21 23/23/23
f 22/22/22 24/24/24 16/16/16
f 25/25/25 13/13/13 15/15/15
f 16/16/16 26/26/26 14/14/14
f 16/16/16 24/24/24 26/26/26
f 25/25/25 27/27/27 13/13/13
f 28/28/28 27/27/27 25/25/25
f 28/28/28 29/29/29 27/27/27
f 28/28/28 30/30/30 29/29/29
f 30/30/30 31/31/31 29/29/29
f 30/30/30 32/32/32 31/31/31
f 30/30/30 33/33/33 32/32/32
f 33/33/33 34/34/34 32/32/32
f 33/33/33 35/35/35 34/34/34
f 34/34/34 35/35/35 36/36/36
f 27/27/27 29/29/29 11/11/11
f 29/29/29 9/9/9 11/11/11
f 29/29/29 31/31/31 9/9/9
f 34/34/34 36/36/36 1/1/1
f 32/32/32 34/34/34 1/1/1
f 36/36/36 4/4/4 1/1/1
f 37/37/37 4/4/4 36/36/36
f 38/38/38 37/37/37 36/36/36
f 35/35/35 38/38/38 36/36/36
f 39/39/39 37/37/37 38/38/38
f 40/40/40 39/39/39 38/38/38
f 35/35/35 40/40/40 38/38/38
f 41/41/41 39/39/39 40/40/40
f 35/35/35 42/42/42 40/40/40
f 43/43/43 42/42/42 35/35/35
f 33/33/33 43/43/43 35/35/35
f 43/43/43 44/44/44 42/42/42
f 41/41/41 20/20/20 39/39/39
f 37/37/37 18/18/18 4/4/4
f 19/19/19 18/18/18 37/37/37
f 39/39/39 19/19/19 37/37/37
f 20/20/20 19/19/19 39/39/39
f 27/27/27 11/11/11 13/13/13
f 32/32/32 1/1/1 2/2/2
f 31/31/31 32/32/32 2/2/2
f 31/31/31 2/2/2 9/9/9
f 45/45/45 8/8/8 20/20/20
f 46/46/46 48/48/48 47/47/47
f 49/49/49 48/48/48 46/46/46
f 50/50/50 49/49/49 46/46/46
f 51/51/51 49/49/49 50/50/50
f 52/52/52 51/51/51 50/50/50
f 53/53/53 51/51/51 52/52/52
f 54/54/54 53/53/53 52/52/52
f 55/55/55 53/53/53 54/54/54
f 56/56/56 55/55/55 54/54/54
f 57/57/57 55/55/55 56/56/56
f 55/55/55 58/58/58 53/53/53
f 59/59/59 58/58/58 55/55/55
f 57/57/57 59/59/59 55/55/55
f 59/59/59 60/60/60 58/58/58
f 61/61/61 60/60/60 59/59/59
f 61/61/61 59/59/59 57/57/57
f 62/62/62 60/60/60 61/61/61
f 63/63/63 60/60/60 62/62/62
f 64/64/64 60/60/60 63/63/63
f 65/65/65 57/57/57 56/56/56
f 66/66/66 57/57/57 65/65/65
f 62/62/62 61/61/61 66/66/66
f 66/66/66 61/61/61 57/57/57
f 67/67/67 66/66/66 65/65/65
f 68/68/68 66/66/66 67/67/67
f 68/68/68 62/62/62 66/66/66
f 63/63/63 62/62/62 68/68/68
f 69/69/69 68/68/68 67/67/67
f 70/70/70 68/68/68 69/69/69
f 70/70/70 63/63/63 68/68/68
f 60/60/60 71/71/71 58/58/58
f 58/58/58 71/71/71 72/72/72
f 72/72/72 71/71/71 73/73/73
f 71/71/71 74/74/74 73/73/73
f 73/73/73 74/74/74 75/75/75
f 73/73/73 75/75/75 49/49/49
f 49/49/49 75/75/75 48/48/48
f 74/74/74 76/76/76 75/75/75
f 75/75/75 76/76/76 77/77/77
f 75/75/75 77/77/77 48/48/48
f 51/51/51 73/73/73 49/49/49
f 72/72/72 73/73/73 51/51/51
f 78/78/78 67/67/67 65/65/65
f 78/78/78 69/69/69 67/67/67
f 79/79/79 78/78/78 65/65/65
f 80/80/80 78/78/78 79/79/79
f 80/80/80 79/79/79 81/81/81
f 82/82/82 80/80/80 81/81/81
f 82/82/82 81/81/81 83/83/83
f 82/82/82 83/83/83 84/84/84
f 85/85/85 82/82/82 84/84/84
f 85/85/85 84/84/84 86/86/86
f 85/85/85 86/86/86 87/87/87
f 86/86/86 84/84/84 50/50/50
f 84/84/84 52/52/52 50/50/50
f 84/84/84 83/83/83 52/52/52
f 79/79/79 65/65/65 56/56/56
f 81/81/81 79/79/79 56/56/56
f 86/86/86 50/50/50 46/46/46
f 87/87/87 86/86/86 46/46/46
f 87/87/87 46/46/46 47/47/47
f 83/83/83 54/54/54 52/52/52
f 83/83/83 81/81/81 54/54/54
f 81/81/81 56/56/56 54/54/54
f 80/80/80 88/88/88 78/78/78
f 88/88/88 89/89/89 78/78/78
f 88/88/88 90/90/90 89/89/89
f 78/78/78 89/89/89 69/69/69
f 91/91/91 93/93/93 92/92/92
f 92/92/92 93/93/93 94/94/94
f 95/95/95 97/97/97 96/96/96
f 96/96/96 97/97/97 98/98/98
f 99/99/99 101/101/101 100/100/100
f 99/99/99 102/102/102 101/101/101
f 103/103/103 105/105/105 104/104/104
f 103/103/103 106/106/106 105/105/105
f 58/58/58 72/72/72 53/53/53
f 53/53/53 72/72/72 51/51/51
f 5/5/5 23/23/23 10/10/10
f 6/6/6 23/23/23 5/5/5
