#SportMattress01_LOD1.obj

v -1.254137 -0.08648252 1.464439
v 1.254137 -0.08648252 0.0087609
v -1.254137 -0.08648252 0.0087609
v 1.254137 -0.08648252 1.464439
v 1.254137 0.08648252 1.464439
v -1.254137 0.08648252 1.464439
v -1.254137 0.08648252 0.0087609
v 1.254137 0.08648252 0.0087609
v -1.259691 0.08092833 1.464439
v -1.259691 -0.08092833 0.0087609
v -1.259691 0.08092833 0.0087609
v -1.259691 -0.08092833 1.464439
v 1.254137 0.07772162 0.002347483
v -1.25093 0.08092833 0.002347483
v -1.254137 -0.07772162 0.002347483
v 1.25093 -0.08092833 0.002347483
v 1.259691 -0.08092833 1.464439
v 1.259691 0.08092833 0.0087609
v 1.259691 -0.08092833 0.0087609
v 1.259691 0.08092833 1.464439
v -1.254137 0.07772162 1.470853
v 1.25093 0.08092833 1.470853
v 1.254137 -0.07772162 1.470853
v -1.25093 -0.08092833 1.470853
v -1.254137 -0.08648252 0.0087609
v 1.25093 -0.08092833 0.002347483
v -1.254137 -0.07772162 0.002347483
v 1.254137 -0.08648252 0.0087609
v -1.259691 0.08092833 0.0087609
v -1.259691 -0.08092833 0.0087609
v -1.254137 -0.07772162 0.002347483
v -1.25093 0.08092833 0.002347483
v -1.254137 0.08648252 0.0087609
v 1.254137 0.08648252 0.0087609
v -1.25093 0.08092833 0.002347483
v 1.254137 0.07772162 0.002347483
v -1.254137 0.08648252 0.0087609
v 1.259691 -0.08092833 0.0087609
v 1.259691 0.08092833 0.0087609
v 1.254137 0.07772162 0.002347483
v 1.25093 -0.08092833 0.002347483
v 1.254137 -0.08648252 0.0087609
v 1.254137 -0.07772162 1.470853
v 1.259691 0.08092833 1.464439
v 1.259691 -0.08092833 1.464439
v 1.25093 0.08092833 1.470853
v 1.254137 0.08648252 1.464439
v -1.25093 -0.08092833 1.470853
v 1.254137 -0.07772162 1.470853
v 1.254137 -0.08648252 1.464439
v -1.254137 -0.08648252 1.464439
v -1.254137 0.07772162 1.470853
v -1.259691 -0.08092833 1.464439
v -1.259691 0.08092833 1.464439
v -1.25093 -0.08092833 1.470853
v -1.254137 -0.08648252 1.464439
v 1.25093 0.08092833 1.470853
v -1.254137 0.07772162 1.470853
v -1.254137 0.08648252 1.464439
v 1.254137 0.08648252 1.464439
v -1.254137 0.08648252 1.464439
v -1.259691 0.08092833 0.0087609
v -1.254137 0.08648252 0.0087609
v -1.259691 0.08092833 1.464439
v 1.254137 -0.08648252 1.464439
v 1.259691 -0.08092833 0.0087609
v 1.254137 -0.08648252 0.0087609
v 1.259691 -0.08092833 1.464439
v -1.259691 -0.08092833 1.464439
v -1.254137 -0.08648252 1.464439
v -1.254137 -0.08648252 0.0087609
v -1.259691 -0.08092833 0.0087609
v 1.259691 0.08092833 1.464439
v 1.254137 0.08648252 1.464439
v 1.254137 0.08648252 0.0087609
v 1.259691 0.08092833 0.0087609
v -1.259691 -0.08092833 0.0087609
v -1.254137 -0.08648252 0.0087609
v -1.254137 -0.07772162 0.002347483
v 1.259691 0.08092833 0.0087609
v 1.254137 0.08648252 0.0087609
v 1.254137 0.07772162 0.002347483
v -1.254137 0.07772162 1.470853
v -1.259691 0.08092833 1.464439
v -1.254137 0.08648252 1.464439
v 1.254137 -0.07772162 1.470853
v 1.259691 -0.08092833 1.464439
v 1.254137 -0.08648252 1.464439

vn 0 -1 0
vn 0 -1 0
vn 0 -1 0
vn 0 -1 0
vn 0 1 0
vn 0 1 0
vn 0 1 0
vn 0 1 0
vn -1 0 0
vn -1 0 0
vn -1 0 0
vn -1 0 0
vn 0 0 -1
vn 0 0 -1
vn 0 0 -1
vn 0 0 -1
vn 1 0 0
vn 1 0 0
vn 1 0 0
vn 1 0 0
vn 0 0 1
vn 0 0 1
vn 0 0 1
vn 0 0 1
vn -0.00075454 -0.5910799 -0.8066127
vn -1.692291E-06 -0.7556012 -0.6550319
vn -0.0007561356 -0.59069 -0.8068983
vn 0 -0.7559283 -0.6546543
vn -0.5817957 0.2071288 -0.7865185
vn -0.7559271 0 -0.6546559
vn -0.7507664 0.0004196479 -0.6605676
vn -0.5804883 0.1850504 -0.7929626
vn -0.508589 0.5085912 -0.6947462
vn 0.00075454 0.5910799 -0.8066127
vn 1.692291E-06 0.7556012 -0.6550319
vn 0.0007561356 0.59069 -0.8068983
vn 0 0.7559283 -0.6546543
vn 0.5817957 -0.2071288 -0.7865185
vn 0.7559271 0 -0.6546559
vn 0.7507664 -0.0004196479 -0.6605676
vn 0.5804883 -0.1850504 -0.7929626
vn 0.508589 -0.5085912 -0.6947462
vn 0.750764 0.0004196455 0.6605703
vn 0.581793 0.2071277 0.7865208
vn 0.7559245 0 0.6546587
vn 0.5804855 0.18505 0.7929647
vn 0.5085871 0.5085893 0.6947489
vn 1.692281E-06 -0.7555987 0.6550348
vn 0.0007561319 -0.590687 0.8069004
vn 0.0007545362 -0.5910769 0.8066148
vn 0 -0.755926 0.6546571
vn -0.750764 -0.0004196455 0.6605703
vn -0.581793 -0.2071277 0.7865208
vn -0.7559245 0 0.6546587
vn -0.5804855 -0.18505 0.7929647
vn -0.5085871 -0.5085893 0.6947489
vn -1.692281E-06 0.7555987 0.6550348
vn -0.0007561319 0.590687 0.8069004
vn -0.0007545362 0.5910769 0.8066148
vn 0 0.755926 0.6546571
vn -0.7071052 0.7071083 0
vn -0.7071052 0.7071083 0
vn -0.7071053 0.7071083 0
vn -0.7071053 0.7071083 0
vn 0.7071052 -0.7071083 0
vn 0.7071052 -0.7071083 0
vn 0.7071053 -0.7071083 0
vn 0.7071053 -0.7071083 0
vn -0.7071052 -0.7071083 0
vn -0.7071053 -0.7071083 0
vn -0.7071052 -0.7071083 0
vn -0.7071053 -0.7071083 0
vn 0.7071052 0.7071083 0
vn 0.7071053 0.7071083 0
vn 0.7071052 0.7071083 0
vn 0.7071053 0.7071083 0
vn -0.5085879 -0.5085902 -0.6947477
vn -0.5085879 -0.5085902 -0.6947477
vn -0.5085878 -0.5085902 -0.6947477
vn 0.5085879 0.5085902 -0.6947477
vn 0.5085879 0.5085902 -0.6947477
vn 0.5085878 0.5085902 -0.6947477
vn -0.508586 0.5085883 0.6947504
vn -0.508586 0.5085883 0.6947504
vn -0.508586 0.5085883 0.6947504
vn 0.508586 -0.5085883 0.6947504
vn 0.508586 -0.5085883 0.6947504
vn 0.508586 -0.5085883 0.6947504

vt 0.8342153 0.498805
vt 0.002741339 0.01625866
vt 0.8342153 0.01625866
vt 0.002741339 0.498805
vt 0.8342153 0.9955497
vt 0.002741339 0.9955497
vt 0.002741339 0.5130032
vt 0.8342153 0.5130032
vt 0.8441142 0.5685563
vt 0.8902783 0.9837389
vt 0.8441142 0.9837389
vt 0.8902783 0.5685563
vt 0.8974814 0.9852333
vt 0.8965667 0.2707484
vt 0.9418162 0.2698338
vt 0.9427308 0.9843187
vt 0.8441141 0.1446625
vt 0.8902783 0.5598451
vt 0.8441142 0.5598451
vt 0.8902782 0.1446625
vt 0.9924394 0.2698338
vt 0.9933541 0.9843187
vt 0.9481046 0.9852333
vt 0.9471899 0.2707484
vt 0.8342153 0.01625866
vt 0.003804332 0.01413256
vt 0.8331523 0.01413256
vt 0.002741339 0.01625866
vt 0.8441142 0.9837389
vt 0.8902783 0.9837389
vt 0.8893636 0.9855682
vt 0.8441142 0.9855682
vt 0.84253 0.9837389
vt 0.8342153 0.5130032
vt 0.003804332 0.5108773
vt 0.8331523 0.5108773
vt 0.002741339 0.5130032
vt 0.8441142 0.5598451
vt 0.8902783 0.5598451
vt 0.8893636 0.5616742
vt 0.8441142 0.5616742
vt 0.84253 0.5598451
vt 0.8450288 0.1428332
vt 0.8902782 0.1446625
vt 0.8441141 0.1446625
vt 0.8902782 0.1428332
vt 0.8918624 0.1446625
vt 0.8331523 0.500931
vt 0.003804332 0.500931
vt 0.002741339 0.498805
vt 0.8342153 0.498805
vt 0.8450288 0.5667272
vt 0.8902783 0.5685563
vt 0.8441142 0.5685563
vt 0.8902783 0.5667272
vt 0.8918625 0.5685563
vt 0.8331523 0.9976757
vt 0.003804332 0.9976757
vt 0.002741339 0.9955497
vt 0.8342153 0.9955497
vt 0.84253 0.5685563
vt 0.8441142 0.9837389
vt 0.84253 0.9837389
vt 0.8441142 0.5685563
vt 0.84253 0.1446625
vt 0.8441142 0.5598451
vt 0.84253 0.5598451
vt 0.8441141 0.1446625
vt 0.8902783 0.5685563
vt 0.8918625 0.5685563
vt 0.8918625 0.9837389
vt 0.8902783 0.9837389
vt 0.8902782 0.1446625
vt 0.8918624 0.1446625
vt 0.8918625 0.5598451
vt 0.8902783 0.5598451
vt 0.8902783 0.9837389
vt 0.8918625 0.9837389
vt 0.8893636 0.9855682
vt 0.8902783 0.5598451
vt 0.8918625 0.5598451
vt 0.8893636 0.5616742
vt 0.8450288 0.5667272
vt 0.8441142 0.5685563
vt 0.84253 0.5685563
vt 0.8450288 0.1428332
vt 0.8441141 0.1446625
vt 0.84253 0.1446625

g SportMattress01_LOD1.obj
usemtl SportMattress01_LOD1
usemap SportMattress01_LOD1
f 1/1/1 3/3/3 2/2/2
f 1/1/1 2/2/2 4/4/4
f 5/5/5 7/7/7 6/6/6
f 5/5/5 8/8/8 7/7/7
f 9/9/9 11/11/11 10/10/10
f 9/9/9 10/10/10 12/12/12
f 13/13/13 15/15/15 14/14/14
f 13/13/13 16/16/16 15/15/15
f 17/17/17 19/19/19 18/18/18
f 17/17/17 18/18/18 20/20/20
f 21/21/21 23/23/23 22/22/22
f 21/21/21 24/24/24 23/23/23
f 25/25/25 27/27/27 26/26/26
f 25/25/25 26/26/26 28/28/28
f 29/29/29 31/31/31 30/30/30
f 29/29/29 32/32/32 31/31/31
f 33/33/33 32/32/32 29/29/29
f 34/34/34 36/36/36 35/35/35
f 34/34/34 35/35/35 37/37/37
f 38/38/38 40/40/40 39/39/39
f 38/38/38 41/41/41 40/40/40
f 42/42/42 41/41/41 38/38/38
f 43/43/43 45/45/45 44/44/44
f 43/43/43 44/44/44 46/46/46
f 46/46/46 44/44/44 47/47/47
f 48/48/48 50/50/50 49/49/49
f 48/48/48 51/51/51 50/50/50
f 52/52/52 54/54/54 53/53/53
f 52/52/52 53/53/53 55/55/55
f 55/55/55 53/53/53 56/56/56
f 57/57/57 59/59/59 58/58/58
f 57/57/57 60/60/60 59/59/59
f 61/61/61 63/63/63 62/62/62
f 61/61/61 62/62/62 64/64/64
f 65/65/65 67/67/67 66/66/66
f 65/65/65 66/66/66 68/68/68
f 69/69/69 71/71/71 70/70/70
f 69/69/69 72/72/72 71/71/71
f 73/73/73 75/75/75 74/74/74
f 73/73/73 76/76/76 75/75/75
f 77/77/77 79/79/79 78/78/78
f 80/80/80 82/82/82 81/81/81
f 83/83/83 85/85/85 84/84/84
f 86/86/86 88/88/88 87/87/87
