#TableMetal.obj

v -0.01875 -0.01875 0
v 0.007861405 -0.01874994 0.2652713
v 0.007861402 -0.01875 0
v -0.01875 -0.01874994 0.2652713
v 0.007861405 -0.01874994 0.2879497
v -0.01875 -0.01874994 0.2879497
v 0.007861405 -0.01874994 0.6948265
v -0.01875 -0.01874994 0.6948265
v 0.2359502 -0.01874994 0.2652713
v 0.2620704 -0.01874994 0.2879496
v 0.007861405 -0.01874994 0.7172287
v -0.01875 -0.01874994 0.7172287
v 0.2359502 -0.01874994 0.6948265
v 0.2620704 -0.01874994 0.7172287
v 0.007861402 -0.01875 0
v 0.007861405 0.006875488 0.2652713
v 0.007861402 0.006875452 0
v 0.007861405 -0.01874994 0.2652713
v 0.007861402 0.006875452 0
v -0.01875 0.006875488 0.2652713
v -0.01875 0.006875452 0
v 0.007861405 0.006875488 0.2652713
v -0.01875 0.006875488 0.2879497
v 0.007861405 0.006875488 0.2879497
v -0.01875 0.006875488 0.6948265
v 0.007861405 0.006875488 0.6948265
v 0.2620704 0.006875488 0.2879496
v 0.2359502 0.006875488 0.2652713
v -0.01875 0.006875488 0.7172287
v 0.007861405 0.006875488 0.7172287
v 0.2620704 0.006875488 0.7172287
v 0.2359502 0.006875488 0.6948265
v -0.01875 0.006875452 0
v -0.01875 -0.01874994 0.2652713
v -0.01875 -0.01875 0
v -0.01875 0.006875488 0.2652713
v -0.01875 -0.01874994 0.2879497
v -0.01875 0.006875488 0.2879497
v -0.01875 -0.01874994 0.6948265
v -0.01875 0.006875488 0.6948265
v -0.01875 -0.01874994 0.7172287
v -0.01875 0.006875488 0.7172287
v 0.2359502 -0.01874994 0.2652713
v 0.2620704 0.006875488 0.2879496
v 0.2359502 0.006875488 0.2652713
v 0.2620704 -0.01874994 0.2879496
v 0.007861405 -0.01874994 0.2879497
v 0.007861405 0.006875488 0.6948265
v 0.007861405 0.006875488 0.2879497
v 0.007861405 -0.01874994 0.6948265
v 0.007861405 -0.01874994 0.2652713
v 0.2359502 0.006875488 0.2652713
v 0.007861405 0.006875488 0.2652713
v 0.2359502 -0.01874994 0.2652713
v 0.2359502 -0.01874994 0.6948265
v 0.2620704 0.006875488 0.7172287
v 0.2359502 0.006875488 0.6948265
v 0.2620704 -0.01874994 0.7172287
v 0.007861405 -0.01874994 0.6948265
v 0.2359502 0.006875488 0.6948265
v 0.007861405 0.006875488 0.6948265
v 0.2359502 -0.01874994 0.6948265
v -0.01875 1.371664 0
v 0.007861405 1.371664 0.2652713
v 0.007861402 1.371664 0
v -0.01875 1.371664 0.2652713
v 0.007861405 1.371664 0.2879497
v -0.01875 1.371664 0.2879497
v 0.007861405 1.371664 0.6948265
v -0.01875 1.371664 0.6948265
v 0.2359502 1.371664 0.2652713
v 0.2620704 1.371664 0.2879496
v 0.007861405 1.371664 0.7172287
v -0.01875 1.371664 0.7172287
v 0.2359502 1.371664 0.6948265
v 0.2620704 1.371664 0.7172287
v 0.007861402 1.371664 0
v 0.007861405 1.39729 0.2652713
v 0.007861402 1.39729 0
v 0.007861405 1.371664 0.2652713
v 0.007861402 1.39729 0
v -0.01875 1.39729 0.2652713
v -0.01875 1.39729 0
v 0.007861405 1.39729 0.2652713
v -0.01875 1.39729 0.2879497
v 0.007861405 1.39729 0.2879497
v -0.01875 1.39729 0.6948265
v 0.007861405 1.39729 0.6948265
v 0.2620704 1.39729 0.2879496
v 0.2359502 1.39729 0.2652713
v -0.01875 1.39729 0.7172287
v 0.007861405 1.39729 0.7172287
v 0.2620704 1.39729 0.7172287
v 0.2359502 1.39729 0.6948265
v -0.01875 1.39729 0
v -0.01875 1.371664 0.2652713
v -0.01875 1.371664 0
v -0.01875 1.39729 0.2652713
v -0.01875 1.371664 0.2879497
v -0.01875 1.39729 0.2879497
v -0.01875 1.371664 0.6948265
v -0.01875 1.39729 0.6948265
v -0.01875 1.371664 0.7172287
v -0.01875 1.39729 0.7172287
v 0.2359502 1.371664 0.2652713
v 0.2620704 1.39729 0.2879496
v 0.2359502 1.39729 0.2652713
v 0.2620704 1.371664 0.2879496
v 0.007861405 1.371664 0.2879497
v 0.007861405 1.39729 0.6948265
v 0.007861405 1.39729 0.2879497
v 0.007861405 1.371664 0.6948265
v 0.007861405 1.371664 0.2652713
v 0.2359502 1.39729 0.2652713
v 0.007861405 1.39729 0.2652713
v 0.2359502 1.371664 0.2652713
v 0.2359502 1.371664 0.6948265
v 0.2620704 1.39729 0.7172287
v 0.2359502 1.39729 0.6948265
v 0.2620704 1.371664 0.7172287
v 0.007861405 1.371664 0.6948265
v 0.2359502 1.39729 0.6948265
v 0.007861405 1.39729 0.6948265
v 0.2359502 1.371664 0.6948265
v -0.01875 2.761154 0
v 0.007861405 2.761154 0.2652713
v 0.007861402 2.761154 0
v -0.01875 2.761154 0.2652713
v 0.007861405 2.761154 0.2879497
v -0.01875 2.761154 0.2879497
v 0.007861405 2.761154 0.6948264
v -0.01875 2.761154 0.6948264
v 0.2359502 2.761154 0.2652713
v 0.2620704 2.761154 0.2879497
v 0.007861405 2.761154 0.7172287
v -0.01875 2.761154 0.7172287
v 0.2359502 2.761154 0.6948264
v 0.2620704 2.761154 0.7172287
v 0.007861402 2.761154 0
v 0.007861405 2.786779 0.2652713
v 0.007861402 2.786779 0
v 0.007861405 2.761154 0.2652713
v 0.007861402 2.786779 0
v -0.01875 2.786779 0.2652713
v -0.01875 2.786779 0
v 0.007861405 2.786779 0.2652713
v -0.01875 2.786779 0.2879497
v 0.007861405 2.786779 0.2879497
v -0.01875 2.786779 0.6948264
v 0.007861405 2.786779 0.6948264
v 0.2620704 2.786779 0.2879497
v 0.2359502 2.786779 0.2652713
v -0.01875 2.786779 0.7172287
v 0.007861405 2.786779 0.7172287
v 0.2620704 2.786779 0.7172287
v 0.2359502 2.786779 0.6948264
v -0.01875 2.786779 0
v -0.01875 2.761154 0.2652713
v -0.01875 2.761154 0
v -0.01875 2.786779 0.2652713
v -0.01875 2.761154 0.2879497
v -0.01875 2.786779 0.2879497
v -0.01875 2.761154 0.6948264
v -0.01875 2.786779 0.6948264
v -0.01875 2.761154 0.7172287
v -0.01875 2.786779 0.7172287
v 0.2359502 2.761154 0.2652713
v 0.2620704 2.786779 0.2879497
v 0.2359502 2.786779 0.2652713
v 0.2620704 2.761154 0.2879497
v 0.007861405 2.761154 0.2879497
v 0.007861405 2.786779 0.6948264
v 0.007861405 2.786779 0.2879497
v 0.007861405 2.761154 0.6948264
v 0.007861405 2.761154 0.2652713
v 0.2359502 2.786779 0.2652713
v 0.007861405 2.786779 0.2652713
v 0.2359502 2.761154 0.2652713
v 0.2359502 2.761154 0.6948264
v 0.2620704 2.786779 0.7172287
v 0.2359502 2.786779 0.6948264
v 0.2620704 2.761154 0.7172287
v 0.007861405 2.761154 0.6948264
v 0.2359502 2.786779 0.6948264
v 0.007861405 2.786779 0.6948264
v 0.2359502 2.761154 0.6948264

vn 0 -1 0
vn 0 -1 0
vn 0 -1 0
vn 0 -1 0
vn 0 -1 0
vn 0 -1 0
vn 0 -1 0
vn 0 -1 0
vn 0 -1 0
vn 0 -1 0
vn 0 -1 0
vn 0 -1 0
vn 0 -1 0
vn 0 -1 0
vn 1 0 0
vn 1 0 0
vn 1 0 0
vn 1 0 0
vn 0 1 0
vn 0 1 0
vn 0 1 0
vn 0 1 0
vn 0 1 0
vn 0 1 0
vn 0 1 0
vn 0 1 0
vn 0 1 0
vn 0 1 0
vn 0 1 0
vn 0 1 0
vn 0 1 0
vn 0 1 0
vn -1 0 0
vn -1 0 0
vn -1 0 0
vn -1 0 0
vn -1 0 0
vn -1 0 0
vn -1 0 0
vn -1 0 0
vn -1 0 0
vn -1 0 0
vn 0.6556051 0 -0.7551039
vn 0.6556051 0 -0.7551039
vn 0.6556051 0 -0.7551039
vn 0.6556051 0 -0.7551039
vn 1 0 0
vn 1 0 0
vn 1 0 0
vn 1 0 0
vn 0 0 -1
vn 0 0 -1
vn 0 0 -1
vn 0 0 -1
vn 0.6510186 0 -0.7590618
vn 0.6510185 0 -0.7590618
vn 0.6510185 0 -0.7590618
vn 0.6510185 0 -0.7590618
vn 0 0 -1
vn 0 0 -1
vn 0 0 -1
vn 0 0 -1
vn 0 -1 0
vn 0 -1 0
vn 0 -1 0
vn 0 -1 0
vn 0 -1 0
vn 0 -1 0
vn 0 -1 0
vn 0 -1 0
vn 0 -1 0
vn 0 -1 0
vn 0 -1 0
vn 0 -1 0
vn 0 -1 0
vn 0 -1 0
vn 1 0 0
vn 1 0 0
vn 1 0 0
vn 1 0 0
vn 0 1 0
vn 0 1 0
vn 0 1 0
vn 0 1 0
vn 0 1 0
vn 0 1 0
vn 0 1 0
vn 0 1 0
vn 0 1 0
vn 0 1 0
vn 0 1 0
vn 0 1 0
vn 0 1 0
vn 0 1 0
vn -1 0 0
vn -1 0 0
vn -1 0 0
vn -1 0 0
vn -1 0 0
vn -1 0 0
vn -1 0 0
vn -1 0 0
vn -1 0 0
vn -1 0 0
vn 0.6556051 0 -0.7551038
vn 0.6556051 0 -0.7551039
vn 0.6556051 0 -0.7551039
vn 0.6556051 0 -0.7551039
vn 1 0 0
vn 1 0 0
vn 1 0 0
vn 1 0 0
vn 0 0 -1
vn 0 0 -1
vn 0 0 -1
vn 0 0 -1
vn 0.6510186 0 -0.7590618
vn 0.6510185 0 -0.7590618
vn 0.6510185 0 -0.7590618
vn 0.6510185 0 -0.7590618
vn 0 0 -1
vn 0 0 -1
vn 0 0 -1
vn 0 0 -1
vn 0 -1 0
vn 0 -1 0
vn 0 -1 0
vn 0 -1 0
vn 0 -1 0
vn 0 -1 0
vn 0 -1 0
vn 0 -1 0
vn 0 -1 0
vn 0 -1 0
vn 0 -1 0
vn 0 -1 0
vn 0 -1 0
vn 0 -1 0
vn 1 0 0
vn 1 0 0
vn 1 0 0
vn 1 0 0
vn 0 1 0
vn 0 1 0
vn 0 1 0
vn 0 1 0
vn 0 1 0
vn 0 1 0
vn 0 1 0
vn 0 1 0
vn 0 1 0
vn 0 1 0
vn 0 1 0
vn 0 1 0
vn 0 1 0
vn 0 1 0
vn -1 0 0
vn -1 0 0
vn -1 0 0
vn -1 0 0
vn -1 0 0
vn -1 0 0
vn -1 0 0
vn -1 0 0
vn -1 0 0
vn -1 0 0
vn 0.6556051 0 -0.7551039
vn 0.6556051 0 -0.7551039
vn 0.6556051 0 -0.7551039
vn 0.6556051 0 -0.7551039
vn 1 0 0
vn 1 0 0
vn 1 0 0
vn 1 0 0
vn 0 0 -1
vn 0 0 -1
vn 0 0 -1
vn 0 0 -1
vn 0.65102 0 -0.7590606
vn 0.65102 0 -0.7590606
vn 0.6510201 0 -0.7590606
vn 0.6510201 0 -0.7590606
vn 0 0 -1
vn 0 0 -1
vn 0 0 -1
vn 0 0 -1

vt 0.406393 0.7390763
vt 0.4241339 0.5622287
vt 0.4241339 0.7390763
vt 0.406393 0.5622287
vt 0.4241339 0.5471098
vt 0.406393 0.5471098
vt 0.4241339 0.2758586
vt 0.406393 0.2758586
vt 0.5761932 0.5622287
vt 0.5936066 0.5471098
vt 0.4241339 0.2609237
vt 0.406393 0.2609237
vt 0.5761932 0.2758586
vt 0.5936066 0.2609237
vt -0.4351766 0.7390763
vt -0.4180929 0.5622287
vt -0.4180929 0.7390763
vt -0.4351766 0.5622287
vt 0.5758661 0.7390763
vt 0.593607 0.5622287
vt 0.593607 0.7390763
vt 0.5758661 0.5622287
vt 0.593607 0.5471098
vt 0.5758661 0.5471098
vt 0.593607 0.2758586
vt 0.5758661 0.2758586
vt 0.4063934 0.5471098
vt 0.4238068 0.5622287
vt 0.593607 0.2609237
vt 0.5758661 0.2609237
vt 0.4063934 0.2609237
vt 0.4238068 0.2758586
vt 1.418093 0.7390763
vt 1.435177 0.5622287
vt 1.435177 0.7390763
vt 1.418093 0.5622287
vt 1.435177 0.5471098
vt 1.418093 0.5471098
vt 1.435177 0.2758586
vt 1.418093 0.2758586
vt 1.435177 0.2609237
vt 1.418093 0.2609237
vt 0.4238068 1.435177
vt 0.4063934 1.418093
vt 0.4238068 1.418093
vt 0.4063934 1.435177
vt -0.4351766 0.5471098
vt -0.4180929 0.2758586
vt -0.4180929 0.5471098
vt -0.4351766 0.2758586
vt 0.5758661 1.435177
vt 0.4238068 1.418093
vt 0.5758661 1.418093
vt 0.4238068 1.435177
vt 0.4238068 1.435177
vt 0.4063934 1.418093
vt 0.4238068 1.418093
vt 0.4063934 1.435177
vt 0.5758661 1.435177
vt 0.4238068 1.418093
vt 0.5758661 1.418093
vt 0.4238068 1.435177
vt 0.4063932 0.7390763
vt 0.4241341 0.5622287
vt 0.4241341 0.7390763
vt 0.4063932 0.5622287
vt 0.4241341 0.5471098
vt 0.4063932 0.5471098
vt 0.4241341 0.2758586
vt 0.4063932 0.2758586
vt 0.5761934 0.5622287
vt 0.5936068 0.5471098
vt 0.4241341 0.2609237
vt 0.4063932 0.2609237
vt 0.5761934 0.2758586
vt 0.5936068 0.2609237
vt 0.4917663 0.7390763
vt 0.50885 0.5622287
vt 0.50885 0.7390763
vt 0.4917663 0.5622287
vt 0.5758659 0.7390763
vt 0.5936068 0.5622287
vt 0.5936068 0.7390763
vt 0.5758659 0.5622287
vt 0.5936068 0.5471098
vt 0.5758659 0.5471098
vt 0.5936068 0.2758586
vt 0.5758659 0.2758586
vt 0.4063932 0.5471098
vt 0.4238066 0.5622287
vt 0.5936068 0.2609237
vt 0.5758659 0.2609237
vt 0.4063932 0.2609237
vt 0.4238066 0.2758586
vt 0.49115 0.7390763
vt 0.5082337 0.5622287
vt 0.5082337 0.7390763
vt 0.49115 0.5622287
vt 0.5082337 0.5471098
vt 0.49115 0.5471098
vt 0.5082337 0.2758586
vt 0.49115 0.2758586
vt 0.5082337 0.2609237
vt 0.49115 0.2609237
vt 0.4238066 0.5082337
vt 0.4063932 0.4911501
vt 0.4238066 0.4911501
vt 0.4063932 0.5082337
vt 0.4917663 0.5471098
vt 0.50885 0.2758586
vt 0.50885 0.5471098
vt 0.4917663 0.2758586
vt 0.5758659 0.5082337
vt 0.4238066 0.4911501
vt 0.5758659 0.49115
vt 0.4238066 0.5082337
vt 0.4238066 0.5082337
vt 0.4063932 0.4911501
vt 0.4238066 0.4911501
vt 0.4063932 0.5082337
vt 0.5758659 0.5082337
vt 0.4238066 0.4911501
vt 0.5758659 0.49115
vt 0.4238066 0.5082337
vt 0.4063934 0.7390763
vt 0.4241344 0.5622287
vt 0.4241344 0.7390763
vt 0.4063934 0.5622287
vt 0.4241344 0.5471098
vt 0.4063934 0.5471098
vt 0.4241344 0.2758586
vt 0.4063934 0.2758586
vt 0.5761936 0.5622287
vt 0.593607 0.5471098
vt 0.4241344 0.2609237
vt 0.4063934 0.2609237
vt 0.5761936 0.2758586
vt 0.593607 0.2609237
vt 1.418093 0.7390763
vt 1.435176 0.5622287
vt 1.435176 0.7390763
vt 1.418093 0.5622287
vt 0.5758656 0.7390763
vt 0.5936066 0.5622287
vt 0.5936066 0.7390763
vt 0.5758656 0.5622287
vt 0.5936066 0.5471098
vt 0.5758656 0.5471098
vt 0.5936066 0.2758586
vt 0.5758656 0.2758586
vt 0.406393 0.5471098
vt 0.4238064 0.5622287
vt 0.5936066 0.2609237
vt 0.5758656 0.2609237
vt 0.406393 0.2609237
vt 0.4238064 0.2758586
vt -0.4351765 0.7390763
vt -0.418093 0.5622287
vt -0.418093 0.7390763
vt -0.4351765 0.5622287
vt -0.418093 0.5471098
vt -0.4351765 0.5471098
vt -0.418093 0.2758586
vt -0.4351765 0.2758586
vt -0.418093 0.2609237
vt -0.4351765 0.2609237
vt 0.4238064 -0.418093
vt 0.406393 -0.4351765
vt 0.4238064 -0.4351765
vt 0.406393 -0.418093
vt 1.418093 0.5471098
vt 1.435176 0.2758586
vt 1.435176 0.5471098
vt 1.418093 0.2758586
vt 0.5758656 -0.418093
vt 0.4238064 -0.4351765
vt 0.5758656 -0.4351765
vt 0.4238064 -0.418093
vt 0.4238064 -0.418093
vt 0.406393 -0.4351765
vt 0.4238064 -0.4351765
vt 0.406393 -0.418093
vt 0.5758656 -0.418093
vt 0.4238064 -0.4351765
vt 0.5758656 -0.4351765
vt 0.4238064 -0.418093

g TableMetal.obj
usemtl TableMetal
usemap TableMetal
f 1/1/1 3/3/3 2/2/2
f 2/2/2 4/4/4 1/1/1
f 4/4/4 2/2/2 5/5/5
f 5/5/5 6/6/6 4/4/4
f 6/6/6 5/5/5 7/7/7
f 7/7/7 8/8/8 6/6/6
f 5/5/5 2/2/2 9/9/9
f 9/9/9 10/10/10 5/5/5
f 8/8/8 7/7/7 11/11/11
f 11/11/11 12/12/12 8/8/8
f 11/11/11 7/7/7 13/13/13
f 13/13/13 14/14/14 11/11/11
f 15/15/15 17/17/17 16/16/16
f 16/16/16 18/18/18 15/15/15
f 19/19/19 21/21/21 20/20/20
f 20/20/20 22/22/22 19/19/19
f 22/22/22 20/20/20 23/23/23
f 23/23/23 24/24/24 22/22/22
f 24/24/24 23/23/23 25/25/25
f 25/25/25 26/26/26 24/24/24
f 22/22/22 24/24/24 27/27/27
f 27/27/27 28/28/28 22/22/22
f 26/26/26 25/25/25 29/29/29
f 29/29/29 30/30/30 26/26/26
f 26/26/26 30/30/30 31/31/31
f 31/31/31 32/32/32 26/26/26
f 33/33/33 35/35/35 34/34/34
f 34/34/34 36/36/36 33/33/33
f 36/36/36 34/34/34 37/37/37
f 37/37/37 38/38/38 36/36/36
f 38/38/38 37/37/37 39/39/39
f 39/39/39 40/40/40 38/38/38
f 40/40/40 39/39/39 41/41/41
f 41/41/41 42/42/42 40/40/40
f 43/43/43 45/45/45 44/44/44
f 44/44/44 46/46/46 43/43/43
f 47/47/47 49/49/49 48/48/48
f 48/48/48 50/50/50 47/47/47
f 51/51/51 53/53/53 52/52/52
f 52/52/52 54/54/54 51/51/51
f 55/55/55 57/57/57 56/56/56
f 56/56/56 58/58/58 55/55/55
f 59/59/59 61/61/61 60/60/60
f 60/60/60 62/62/62 59/59/59
f 63/63/63 65/65/65 64/64/64
f 64/64/64 66/66/66 63/63/63
f 66/66/66 64/64/64 67/67/67
f 67/67/67 68/68/68 66/66/66
f 68/68/68 67/67/67 69/69/69
f 69/69/69 70/70/70 68/68/68
f 67/67/67 64/64/64 71/71/71
f 71/71/71 72/72/72 67/67/67
f 70/70/70 69/69/69 73/73/73
f 73/73/73 74/74/74 70/70/70
f 73/73/73 69/69/69 75/75/75
f 75/75/75 76/76/76 73/73/73
f 77/77/77 79/79/79 78/78/78
f 78/78/78 80/80/80 77/77/77
f 81/81/81 83/83/83 82/82/82
f 82/82/82 84/84/84 81/81/81
f 84/84/84 82/82/82 85/85/85
f 85/85/85 86/86/86 84/84/84
f 86/86/86 85/85/85 87/87/87
f 87/87/87 88/88/88 86/86/86
f 84/84/84 86/86/86 89/89/89
f 89/89/89 90/90/90 84/84/84
f 88/88/88 87/87/87 91/91/91
f 91/91/91 92/92/92 88/88/88
f 88/88/88 92/92/92 93/93/93
f 93/93/93 94/94/94 88/88/88
f 95/95/95 97/97/97 96/96/96
f 96/96/96 98/98/98 95/95/95
f 98/98/98 96/96/96 99/99/99
f 99/99/99 100/100/100 98/98/98
f 100/100/100 99/99/99 101/101/101
f 101/101/101 102/102/102 100/100/100
f 102/102/102 101/101/101 103/103/103
f 103/103/103 104/104/104 102/102/102
f 105/105/105 107/107/107 106/106/106
f 106/106/106 108/108/108 105/105/105
f 109/109/109 111/111/111 110/110/110
f 110/110/110 112/112/112 109/109/109
f 113/113/113 115/115/115 114/114/114
f 114/114/114 116/116/116 113/113/113
f 117/117/117 119/119/119 118/118/118
f 118/118/118 120/120/120 117/117/117
f 121/121/121 123/123/123 122/122/122
f 122/122/122 124/124/124 121/121/121
f 125/125/125 127/127/127 126/126/126
f 126/126/126 128/128/128 125/125/125
f 128/128/128 126/126/126 129/129/129
f 129/129/129 130/130/130 128/128/128
f 130/130/130 129/129/129 131/131/131
f 131/131/131 132/132/132 130/130/130
f 129/129/129 126/126/126 133/133/133
f 133/133/133 134/134/134 129/129/129
f 132/132/132 131/131/131 135/135/135
f 135/135/135 136/136/136 132/132/132
f 135/135/135 131/131/131 137/137/137
f 137/137/137 138/138/138 135/135/135
f 139/139/139 141/141/141 140/140/140
f 140/140/140 142/142/142 139/139/139
f 143/143/143 145/145/145 144/144/144
f 144/144/144 146/146/146 143/143/143
f 146/146/146 144/144/144 147/147/147
f 147/147/147 148/148/148 146/146/146
f 148/148/148 147/147/147 149/149/149
f 149/149/149 150/150/150 148/148/148
f 146/146/146 148/148/148 151/151/151
f 151/151/151 152/152/152 146/146/146
f 150/150/150 149/149/149 153/153/153
f 153/153/153 154/154/154 150/150/150
f 150/150/150 154/154/154 155/155/155
f 155/155/155 156/156/156 150/150/150
f 157/157/157 159/159/159 158/158/158
f 158/158/158 160/160/160 157/157/157
f 160/160/160 158/158/158 161/161/161
f 161/161/161 162/162/162 160/160/160
f 162/162/162 161/161/161 163/163/163
f 163/163/163 164/164/164 162/162/162
f 164/164/164 163/163/163 165/165/165
f 165/165/165 166/166/166 164/164/164
f 167/167/167 169/169/169 168/168/168
f 168/168/168 170/170/170 167/167/167
f 171/171/171 173/173/173 172/172/172
f 172/172/172 174/174/174 171/171/171
f 175/175/175 177/177/177 176/176/176
f 176/176/176 178/178/178 175/175/175
f 179/179/179 181/181/181 180/180/180
f 180/180/180 182/182/182 179/179/179
f 183/183/183 185/185/185 184/184/184
f 184/184/184 186/186/186 183/183/183
