#VaultingHorse02_PhyMetall.obj

v -432.6562 780.4707 21.40483
v -383.5751 783.8911 10.85508
v -76.30267 511.4895 833.3275
v -22.5524 505.7508 833.3275
v -431.9734 781.9578 16.46739
v -385.6703 782.7012 5.927289
v -433.993 730.4313 9.878216
v -26.05714 452.2709 833.3275
v -384.9119 733.8518 -0.6715884
v -75.41692 454.9467 833.3275
v -433.0952 -751.9796 20.76247
v -76.30267 -504.8867 833.3275
v -384.0142 -755.4 10.21273
v -22.5524 -499.148 833.3275
v -432.4125 -753.4666 15.82504
v -386.1094 -754.21 5.284935
v -434.432 -701.9401 9.235863
v -385.3509 -705.3606 -1.313942
v -26.05714 -445.6681 833.3275
v -75.41692 -448.3439 833.3275
v 431.0822 780.1092 21.14734
v 76.53667 511.4895 833.3275
v 382.0012 783.5296 10.59759
v 22.78639 505.7508 833.3275
v 430.3995 781.5963 16.2099
v 384.0964 782.3397 5.669799
v 432.419 730.0698 9.620727
v 383.3379 733.4903 -0.9290781
v 26.29114 452.2709 833.3275
v 75.65091 454.9467 833.3275
v 432.419 -701.9401 13.26814
v 26.29114 -445.6681 833.3275
v 383.3379 -705.3606 2.71833
v 75.65091 -448.3439 833.3275
v 431.0822 -751.9796 24.79475
v 382.0012 -755.4 14.245
v 76.53667 -504.8867 833.3275
v 22.78639 -499.148 833.3275
v 430.3995 -753.4666 19.85731
v 384.0964 -754.21 9.317207
v -76.30267 -504.8867 833.3275
v -433.0952 -751.9796 20.76247
v -75.41692 -448.3439 833.3275
v -434.432 -701.9401 9.235863
v -436.1158 -706.0218 5.459679
v -432.4125 -753.4666 15.82504
v -385.3509 -705.3606 -1.313942
v -22.5524 -499.148 833.3275
v -21.78018 -449.8527 833.3275
v -384.0142 -755.4 10.21273
v -26.05714 -445.6681 833.3275
v -76.30267 511.4895 833.3275
v -75.41692 454.9467 833.3275
v -432.6562 780.4707 21.40483
v -433.993 730.4313 9.878216
v -435.6768 734.513 6.102032
v -431.9734 781.9578 16.46739
v -384.9119 733.8518 -0.6715884
v -21.78018 456.4555 833.3275
v -22.5524 505.7508 833.3275
v -383.5751 783.8911 10.85508
v -26.05714 452.2709 833.3275
v 76.53667 -504.8867 833.3275
v 75.65091 -448.3439 833.3275
v 431.0822 -751.9796 24.79475
v 432.419 -701.9401 13.26814
v 434.1028 -706.0218 9.491951
v 430.3995 -753.4666 19.85731
v 383.3379 -705.3606 2.71833
v 22.01418 -449.8527 833.3275
v 22.78639 -499.148 833.3275
v 382.0012 -755.4 14.245
v 26.29114 -445.6681 833.3275
v 384.0964 -754.21 9.317207
v 387.7999 -706.765 -1.047905
v 76.53667 511.4895 833.3275
v 431.0822 780.1092 21.14734
v 75.65091 454.9467 833.3275
v 432.419 730.0698 9.620727
v 434.1028 734.1515 5.844543
v 430.3995 781.5963 16.2099
v 383.3379 733.4903 -0.9290781
v 22.78639 505.7508 833.3275
v 22.01418 456.4555 833.3275
v 382.0012 783.5296 10.59759
v 26.29114 452.2709 833.3275
v 434.1028 -706.0218 9.491951
v 384.0964 -754.21 9.317207
v 430.3995 -753.4666 19.85731
v 387.7999 -706.765 -1.047905
v -436.1158 -706.0218 5.459679
v -432.4125 -753.4666 15.82504
v -386.1094 -754.21 5.284935
v -389.8129 -706.765 -5.080177
v 434.1028 734.1515 5.844543
v 430.3995 781.5963 16.2099
v 384.0964 782.3397 5.669799
v 387.7999 734.8947 -4.695313
v -435.6768 734.513 6.102032
v -385.6703 782.7012 5.927289
v -431.9734 781.9578 16.46739
v -389.3738 735.2562 -4.437824
v 387.7999 734.8947 -4.695313
v 432.419 730.0698 9.620727
v 434.1028 734.1515 5.844543
v 383.3379 733.4903 -0.9290781
v 384.0964 782.3397 5.669799
v 382.0012 783.5296 10.59759
v -389.3738 735.2562 -4.437824
v -435.6768 734.513 6.102032
v -433.993 730.4313 9.878216
v -384.9119 733.8518 -0.6715884
v -385.6703 782.7012 5.927289
v -383.5751 783.8911 10.85508
v 387.7999 -706.765 -1.047905
v 434.1028 -706.0218 9.491951
v 432.419 -701.9401 13.26814
v 383.3379 -705.3606 2.71833
v -389.8129 -706.765 -5.080177
v -434.432 -701.9401 9.235863
v -436.1158 -706.0218 5.459679
v -385.3509 -705.3606 -1.313942
v -386.1094 -754.21 5.284935
v -384.0142 -755.4 10.21273

vn -0.7283775 0.6172087 0.2975227
vn 0.5823013 0.7927134 -0.1803629
vn -0.5531627 0.6848578 0.4743214
vn 0.8377852 0.5110142 -0.1923029
vn -0.5894626 0.7961776 0.1365104
vn 0.609938 0.6605611 -0.4377609
vn -0.6997133 -0.6979086 -0.1527244
vn 0.3646031 -0.8239914 -0.4337082
vn 0.5910365 -0.5318021 -0.6065165
vn -0.5521524 -0.8329427 -0.03652478
vn -0.7319754 -0.6158326 0.2914827
vn -0.5507388 -0.6972563 0.4588252
vn 0.5809532 -0.7912353 -0.1908928
vn 0.8321747 -0.5163852 -0.2020685
vn -0.5894627 -0.7961776 0.13651
vn 0.6099379 -0.6605567 -0.4377677
vn -0.6958216 0.7029601 -0.1472391
vn 0.5913947 0.5384715 -0.6002506
vn 0.3701879 0.8304849 -0.4162402
vn -0.5557319 0.8312751 -0.01198877
vn 0.7284014 0.6175257 0.2968054
vn 0.5541936 0.6848742 0.4730929
vn -0.5827681 0.7924178 -0.180154
vn -0.8378782 0.5115304 -0.190517
vn 0.5894646 0.7961755 0.1365134
vn -0.609938 0.6605611 -0.4377609
vn 0.6995735 -0.6979007 -0.1533998
vn -0.5916055 -0.5319045 -0.6058716
vn -0.3645521 -0.824594 -0.4326043
vn 0.5527993 -0.8324952 -0.03694382
vn 0.6960291 0.7026475 -0.1477498
vn -0.3698298 0.830244 -0.4170381
vn -0.5915089 0.5380823 -0.6004871
vn 0.5556783 0.831286 -0.01360188
vn 0.7317616 -0.6159994 0.2916671
vn -0.5811519 -0.791257 -0.190197
vn 0.5511389 -0.6964921 0.4595046
vn -0.8325523 -0.5161883 -0.201013
vn 0.5894646 -0.7961757 0.1365129
vn -0.6099379 -0.6605567 -0.4377677
vn -0.5507388 -0.6972563 0.4588252
vn -0.7319754 -0.6158326 0.2914827
vn -0.5557319 0.8312751 -0.01198877
vn -0.6958216 0.7029601 -0.1472391
vn -0.8858593 0.448673 -0.1180929
vn -0.5894627 -0.7961776 0.13651
vn 0.5913947 0.5384715 -0.6002506
vn 0.8321747 -0.5163852 -0.2020685
vn 0.8121467 0.3555381 -0.4626126
vn 0.5809532 -0.7912353 -0.1908928
vn 0.3701879 0.8304849 -0.4162402
vn -0.5531627 0.6848578 0.4743214
vn -0.5521524 -0.8329427 -0.03652478
vn -0.7283775 0.6172087 0.2975227
vn -0.6997133 -0.6979086 -0.1527244
vn -0.8858594 -0.4486728 -0.1180926
vn -0.5894626 0.7961776 0.1365104
vn 0.5910365 -0.5318021 -0.6065165
vn 0.8068766 -0.3575266 -0.4702391
vn 0.8377852 0.5110142 -0.1923029
vn 0.5823013 0.7927134 -0.1803629
vn 0.3646031 -0.8239914 -0.4337082
vn 0.5511389 -0.6964921 0.4595046
vn 0.5556783 0.831286 -0.01360188
vn 0.7317616 -0.6159994 0.2916671
vn 0.6960291 0.7026475 -0.1477498
vn 0.8858593 0.4486731 -0.1180927
vn 0.5894646 -0.7961757 0.1365129
vn -0.5915089 0.5380823 -0.6004871
vn -0.8120105 0.3557702 -0.4626734
vn -0.8325523 -0.5161883 -0.201013
vn -0.5811519 -0.791257 -0.190197
vn -0.3698298 0.830244 -0.4170381
vn -0.6099379 -0.6605567 -0.4377677
vn -0.3530816 0.6399673 -0.6824772
vn 0.5541936 0.6848742 0.4730929
vn 0.7284014 0.6175257 0.2968054
vn 0.5527993 -0.8324952 -0.03694382
vn 0.6995735 -0.6979007 -0.1533998
vn 0.8858594 -0.4486728 -0.1180924
vn 0.5894646 0.7961755 0.1365134
vn -0.5916055 -0.5319045 -0.6058716
vn -0.8378782 0.5115304 -0.190517
vn -0.8076093 -0.3579576 -0.4686509
vn -0.5827681 0.7924178 -0.180154
vn -0.3645521 -0.824594 -0.4326043
vn 0.21971 -0.2245575 -0.949369
vn 0.2197101 -0.2245576 -0.949369
vn 0.2197122 -0.2245598 -0.9493679
vn 0.2197079 -0.2245553 -0.94937
vn -0.2197101 -0.2245576 -0.949369
vn -0.2197124 -0.2245599 -0.9493679
vn -0.2197102 -0.2245577 -0.949369
vn -0.2197079 -0.2245553 -0.94937
vn 0.2197101 0.2245575 -0.949369
vn 0.2197126 0.2245601 -0.9493678
vn 0.2197101 0.2245576 -0.949369
vn 0.2197076 0.224555 -0.94937
vn -0.2197101 0.2245576 -0.949369
vn -0.2197102 0.2245577 -0.949369
vn -0.2197127 0.2245602 -0.9493678
vn -0.2197077 0.224555 -0.9493701
vn -0.3530822 -0.639974 -0.6824707
vn 0.6995735 -0.6979007 -0.1533998
vn 0.8858594 -0.4486728 -0.1180924
vn -0.5916055 -0.5319045 -0.6058716
vn -0.609938 0.6605611 -0.4377609
vn -0.5827681 0.7924178 -0.180154
vn 0.3530823 -0.6399741 -0.6824706
vn -0.8858594 -0.4486728 -0.1180926
vn -0.6997133 -0.6979086 -0.1527244
vn 0.5910365 -0.5318021 -0.6065165
vn 0.609938 0.6605611 -0.4377609
vn 0.5823013 0.7927134 -0.1803629
vn -0.3530816 0.6399673 -0.6824772
vn 0.8858593 0.4486731 -0.1180927
vn 0.6960291 0.7026475 -0.1477498
vn -0.5915089 0.5380823 -0.6004871
vn 0.3530816 0.6399674 -0.6824773
vn -0.6958216 0.7029601 -0.1472391
vn -0.8858593 0.448673 -0.1180929
vn 0.5913947 0.5384715 -0.6002506
vn 0.6099379 -0.6605567 -0.4377677
vn 0.5809532 -0.7912353 -0.1908928

vt 0.6759588 0.5614485
vt 0.7000214 0.5653089
vt 0.6872035 0.9819309
vt 0.7127904 0.9922366
vt 0.6759061 0.5587009
vt 0.6999688 0.5625614
vt 0.9154158 0.5692934
vt 0.9331949 0.1318726
vt 0.9393086 0.5644925
vt 0.9100871 0.1422504
vt 0.8386522 0.5671255
vt 0.8347065 0.145946
vt 0.8638477 0.5617452
vt 0.8598697 0.1346451
vt 0.8400099 0.5692934
vt 0.8639028 0.5644926
vt 0.433276 0.7816076
vt 0.409171 0.7780009
vt 0.3988186 0.3257979
vt 0.42235 0.3352757
vt 0.8026863 0.5271022
vt 0.7974378 0.1065022
vt 0.826579 0.5223014
vt 0.822601 0.09520137
vt 0.8027413 0.5298496
vt 0.8266342 0.5250489
vt 0.6759061 0.118571
vt 0.6999686 0.1224314
vt 0.71082 0.5549585
vt 0.6873232 0.5454946
vt 0.8040182 0.9922366
vt 0.8205795 0.5354263
vt 0.8279631 0.9876876
vt 0.7974378 0.5458194
vt 0.3962325 0.7564783
vt 0.3721699 0.7526178
vt 0.3849877 0.335996
vt 0.3594008 0.3256902
vt 0.3962851 0.7592258
vt 0.3722225 0.7553653
vt 0.9159537 0.9839002
vt 0.9100871 0.5773802
vt 0.9423121 0.9922366
vt 0.9363555 0.579484
vt 0.9349427 0.5770046
vt 0.9101236 0.5747342
vt 0.7925196 0.5634593
vt 0.7575766 0.1539324
vt 0.7813795 0.145364
vt 0.7678087 0.5667009
vt 0.783444 0.1447926
vt 0.7164176 0.1615508
vt 0.74372 0.1517227
vt 0.7277837 0.5675235
vt 0.7539494 0.5643915
vt 0.7526349 0.5669244
vt 0.727924 0.570166
vt 0.8971972 0.1450638
vt 0.9024566 0.5632743
vt 0.878336 0.5556457
vt 0.8723781 0.1427933
vt 0.904542 0.5637645
vt 0.7164176 0.5836213
vt 0.7437199 0.5737932
vt 0.7277837 0.989594
vt 0.7539494 0.9864621
vt 0.7526349 0.9889949
vt 0.7279239 0.9922366
vt 0.8973016 0.5735359
vt 0.9025609 0.9917465
vt 0.8784403 0.9841179
vt 0.8724824 0.5712655
vt 0.9046463 0.9922366
vt 0.8723781 0.5692052
vt 0.8971972 0.5714757
vt 0.8392706 0.9834864
vt 0.8347124 0.5773803
vt 0.8669373 0.9922366
vt 0.8609808 0.579484
vt 0.8595679 0.5770046
vt 0.8347489 0.5747342
vt 0.7925196 0.9889949
vt 0.7575766 0.579468
vt 0.7813795 0.5708996
vt 0.7678087 0.9922366
vt 0.7834441 0.5703281
vt 0.8334039 0.1044742
vt 0.859067 0.1292043
vt 0.8353045 0.1288227
vt 0.8571664 0.1048557
vt 0.4028316 0.9701868
vt 0.3784274 0.9692423
vt 0.3771146 0.945513
vt 0.4015189 0.9464576
vt 0.4087636 0.9431967
vt 0.4331678 0.9441411
vt 0.4344806 0.9678704
vt 0.4100763 0.9669259
vt 0.3732786 0.9431967
vt 0.3466578 0.9668925
vt 0.3488561 0.9432288
vt 0.3710803 0.9668602
vt 0.4100763 0.9669259
vt 0.4067044 0.9441422
vt 0.4087636 0.9431967
vt 0.4094459 0.9692422
vt 0.4344806 0.9678704
vt 0.4338501 0.9701868
vt 0.3710803 0.9668602
vt 0.3732786 0.9431967
vt 0.375301 0.9442185
vt 0.3716238 0.9691985
vt 0.3466578 0.9668925
vt 0.3472013 0.9692308
vt 0.8571664 0.1048557
vt 0.8334039 0.1044742
vt 0.8342681 0.1023796
vt 0.8594562 0.104135
vt 0.4015189 0.9464576
vt 0.4048908 0.9692412
vt 0.4028316 0.9701868
vt 0.4021493 0.9441412
vt 0.3771146 0.945513
vt 0.3777451 0.9431967

g VaultingHorse02_PhyMetall.obj
usemtl VaultingHorse02_PhyMetall
usemap VaultingHorse02_PhyMetall
f 1/1/1 3/3/3 2/2/2
f 4/4/4 2/2/2 3/3/3
f 2/2/2 5/5/5 1/1/1
f 2/2/2 6/6/6 5/5/5
f 7/7/7 9/9/9 8/8/8
f 7/7/7 8/8/8 10/10/10
f 11/11/11 13/13/13 12/12/12
f 14/14/14 12/12/12 13/13/13
f 13/13/13 11/11/11 15/15/15
f 13/13/13 15/15/15 16/16/16
f 17/17/17 19/19/19 18/18/18
f 17/17/17 20/20/20 19/19/19
f 21/21/21 23/23/23 22/22/22
f 24/24/24 22/22/22 23/23/23
f 23/23/23 21/21/21 25/25/25
f 23/23/23 25/25/25 26/26/26
f 27/27/27 29/29/29 28/28/28
f 27/27/27 30/30/30 29/29/29
f 31/31/31 33/33/33 32/32/32
f 31/31/31 32/32/32 34/34/34
f 35/35/35 37/37/37 36/36/36
f 38/38/38 36/36/36 37/37/37
f 36/36/36 39/39/39 35/35/35
f 36/36/36 40/40/40 39/39/39
f 41/41/41 43/43/43 42/42/42
f 44/44/44 42/42/42 43/43/43
f 42/42/42 44/44/44 45/45/45
f 42/42/42 45/45/45 46/46/46
f 47/47/47 49/49/49 48/48/48
f 50/50/50 47/47/47 48/48/48
f 47/47/47 51/51/51 49/49/49
f 52/52/52 54/54/54 53/53/53
f 55/55/55 53/53/53 54/54/54
f 54/54/54 56/56/56 55/55/55
f 54/54/54 57/57/57 56/56/56
f 58/58/58 60/60/60 59/59/59
f 61/61/61 60/60/60 58/58/58
f 58/58/58 59/59/59 62/62/62
f 63/63/63 65/65/65 64/64/64
f 66/66/66 64/64/64 65/65/65
f 65/65/65 67/67/67 66/66/66
f 65/65/65 68/68/68 67/67/67
f 69/69/69 71/71/71 70/70/70
f 72/72/72 71/71/71 69/69/69
f 69/69/69 70/70/70 73/73/73
f 74/74/74 72/72/72 69/69/69
f 74/74/74 69/69/69 75/75/75
f 76/76/76 78/78/78 77/77/77
f 79/79/79 77/77/77 78/78/78
f 77/77/77 79/79/79 80/80/80
f 77/77/77 80/80/80 81/81/81
f 82/82/82 84/84/84 83/83/83
f 85/85/85 82/82/82 83/83/83
f 82/82/82 86/86/86 84/84/84
f 87/87/87 89/89/89 88/88/88
f 88/88/88 90/90/90 87/87/87
f 91/91/91 93/93/93 92/92/92
f 93/93/93 91/91/91 94/94/94
f 95/95/95 97/97/97 96/96/96
f 97/97/97 95/95/95 98/98/98
f 99/99/99 101/101/101 100/100/100
f 100/100/100 102/102/102 99/99/99
f 103/103/103 105/105/105 104/104/104
f 103/103/103 104/104/104 106/106/106
f 107/107/107 103/103/103 106/106/106
f 107/107/107 106/106/106 108/108/108
f 109/109/109 111/111/111 110/110/110
f 109/109/109 112/112/112 111/111/111
f 113/113/113 112/112/112 109/109/109
f 113/113/113 114/114/114 112/112/112
f 115/115/115 117/117/117 116/116/116
f 115/115/115 118/118/118 117/117/117
f 119/119/119 121/121/121 120/120/120
f 119/119/119 120/120/120 122/122/122
f 123/123/123 119/119/119 122/122/122
f 123/123/123 122/122/122 124/124/124
