#VaultingHorse01_PhyMetal.obj

v -100.5577 344.4604 832.8824
v 101.528 -346.0909 832.8824
v 105.3524 341.0483 832.8825
v -104.3821 -342.6788 832.8824
v -104.3822 341.0483 832.8825
v 105.3524 -342.6788 832.8824
v 411.0403 -485.1163 16.32012
v 6.996231 -210.582 833.3275
v 361.9592 -488.5368 5.770317
v 56.356 -213.2578 833.3275
v 409.7036 -535.1558 27.84673
v 360.6225 -538.5762 17.29699
v 57.24176 -269.8005 833.3275
v 3.491486 -264.0619 833.3275
v 409.0208 -536.6428 22.90929
v 362.7177 -537.3862 12.36919
v -410.9734 -535.5641 25.81862
v -57.24176 -269.8005 833.3275
v -361.8924 -538.9846 15.26888
v -3.491486 -264.0619 833.3275
v -410.2907 -537.0512 20.88118
v -363.9876 -537.7946 10.34108
v -412.3102 -485.5247 14.29201
v -363.2291 -488.9452 3.742207
v -6.996231 -210.582 833.3275
v -56.356 -213.2578 833.3275
v 409.6905 540.6071 27.83732
v 57.24176 275.4383 833.3275
v 360.6094 544.0275 17.28757
v 3.491485 269.6996 833.3275
v 409.0077 542.0942 22.89988
v 362.7047 542.8376 12.35978
v 411.0273 490.5677 16.31071
v 361.9462 493.9882 5.760902
v 6.996231 216.2197 833.3275
v 56.356 218.8955 833.3275
v -411.3477 541.5129 25.43056
v -362.2666 544.9333 14.88081
v -57.24176 275.4383 833.3275
v -3.491486 269.6996 833.3275
v -410.6649 543 20.49312
v -364.3618 543.7434 9.953018
v -412.6844 491.4735 13.90395
v -6.996232 216.2197 833.3275
v -363.6033 494.894 3.354141
v -56.356 218.8955 833.3275
v 57.24176 275.4383 833.3275
v 409.6905 540.6071 27.83732
v 56.356 218.8955 833.3275
v 411.0273 490.5677 16.31071
v 412.7111 494.6494 12.53452
v 409.0077 542.0942 22.89988
v 361.9462 493.9882 5.760902
v 3.491485 269.6996 833.3275
v 2.719268 220.4043 833.3275
v 360.6094 544.0275 17.28757
v 6.996231 216.2197 833.3275
v -57.24176 275.4383 833.3275
v -56.356 218.8955 833.3275
v -411.3477 541.5129 25.43056
v -412.6844 491.4735 13.90395
v -414.3682 495.5552 10.12776
v -410.6649 543 20.49312
v -363.6033 494.894 3.354141
v -2.719269 220.4043 833.3275
v -3.491486 269.6996 833.3275
v -362.2666 544.9333 14.88081
v -6.996232 216.2197 833.3275
v 57.24176 -269.8005 833.3275
v 56.356 -213.2578 833.3275
v 409.7036 -535.1558 27.84673
v 411.0403 -485.1163 16.32012
v 412.7241 -489.198 12.54394
v 409.0208 -536.6428 22.90929
v 361.9592 -488.5368 5.770317
v 2.719269 -214.7666 833.3275
v 3.491486 -264.0619 833.3275
v 360.6225 -538.5762 17.29699
v 6.996231 -210.582 833.3275
v 362.7177 -537.3862 12.36919
v 366.4212 -489.9412 2.004082
v -57.24176 -269.8005 833.3275
v -410.9734 -535.5641 25.81862
v -56.356 -213.2578 833.3275
v -412.3102 -485.5247 14.29201
v -413.994 -489.6064 10.51583
v -410.2907 -537.0512 20.88118
v -363.2291 -488.9452 3.742207
v -3.491486 -264.0619 833.3275
v -2.719269 -214.7666 833.3275
v -361.8924 -538.9846 15.26888
v -6.996231 -210.582 833.3275
v -363.9876 -537.7946 10.34108
v -367.6911 -490.3496 -0.02402878
v -413.994 -489.6064 10.51583
v -410.2907 -537.0512 20.88118
v -363.9876 -537.7946 10.34108
v -367.6911 -490.3496 -0.02402878
v 412.7241 -489.198 12.54394
v 362.7177 -537.3862 12.36919
v 409.0208 -536.6428 22.90929
v 366.4212 -489.9412 2.004082
v -414.3682 495.5552 10.12776
v -364.3618 543.7434 9.953018
v -410.6649 543 20.49312
v -368.0653 496.2984 -0.4120941
v 412.7111 494.6494 12.53452
v 409.0077 542.0942 22.89988
v 362.7047 542.8376 12.35978
v 366.4081 495.3926 1.994667
v 366.4212 -489.9412 2.004082
v 412.7241 -489.198 12.54394
v 411.0403 -485.1163 16.32012
v 361.9592 -488.5368 5.770317
v 366.4081 495.3926 1.994667
v 411.0273 490.5677 16.31071
v 412.7111 494.6494 12.53452
v 361.9462 493.9882 5.760902
v 362.7047 542.8376 12.35978
v 360.6094 544.0275 17.28757
v -368.0653 496.2984 -0.4120941
v -414.3682 495.5552 10.12776
v -412.6844 491.4735 13.90395
v -363.6033 494.894 3.354141
v -364.3618 543.7434 9.953018
v -362.2666 544.9333 14.88081
v -367.6911 -490.3496 -0.02402878
v -412.3102 -485.5247 14.29201
v -413.994 -489.6064 10.51583
v -363.2291 -488.9452 3.742207

vn -1.088435E-05 0 -1
vn 0 0 -1
vn 0 0 -1
vn 0 0 -1
vn -3.207763E-05 0 -1
vn 0 0 -1
vn 0.6994215 0.6981811 -0.1528159
vn -0.3648824 0.8247072 -0.4321097
vn -0.5913737 0.5322242 -0.6058173
vn 0.5527205 0.8326145 -0.03539765
vn 0.7285933 -0.6173171 0.296768
vn -0.5824872 -0.792468 -0.1808399
vn 0.5536118 -0.6855463 0.4728005
vn -0.8375376 -0.5116072 -0.1918041
vn 0.5894627 -0.7961776 0.1365099
vn -0.6099379 -0.6605569 -0.4377677
vn -0.7286453 -0.6172318 0.2968179
vn -0.5533671 -0.6857479 0.4727947
vn 0.5823725 -0.7925048 -0.1810479
vn 0.8374273 -0.5115921 -0.1923251
vn -0.5894627 -0.7961776 0.13651
vn 0.6099379 -0.6605569 -0.4377677
vn -0.6993862 0.698266 -0.1525895
vn 0.5912663 0.5323141 -0.6058432
vn 0.3649837 0.8246915 -0.4320544
vn -0.5526506 0.8326812 -0.03491753
vn 0.728624 0.6173087 0.2967101
vn 0.553601 0.6856518 0.4726602
vn -0.5824822 0.7924527 -0.1809233
vn -0.8374918 0.5116582 -0.1918684
vn 0.5894625 0.7961776 0.1365104
vn -0.609938 0.6605611 -0.4377608
vn 0.6993877 -0.6982237 -0.1527763
vn -0.5913826 -0.532282 -0.6057579
vn -0.3649293 -0.8247688 -0.4319527
vn 0.5527577 -0.8325985 -0.03519474
vn -0.7286206 0.6172056 0.2969329
vn 0.5823326 0.7925445 -0.1810031
vn -0.5532709 0.6856713 0.4730181
vn 0.8374504 0.5115041 -0.1924593
vn -0.5894625 0.7961776 0.1365104
vn 0.6099381 0.660561 -0.4377609
vn -0.6994246 -0.6982363 -0.1525495
vn 0.3649556 -0.8245857 -0.4322798
vn 0.5912032 -0.5322624 -0.6059502
vn -0.5525589 -0.8327377 -0.03502208
vn 0.553601 0.6856518 0.4726602
vn 0.728624 0.6173087 0.2967101
vn 0.5527577 -0.8325985 -0.03519474
vn 0.6993877 -0.6982237 -0.1527763
vn 0.8858593 -0.448673 -0.1180929
vn 0.5894625 0.7961776 0.1365104
vn -0.5913826 -0.532282 -0.6057579
vn -0.8374918 0.5116582 -0.1918684
vn -0.8076472 -0.3576545 -0.4688168
vn -0.5824822 0.7924527 -0.1809233
vn -0.3649293 -0.8247688 -0.4319527
vn -0.5532709 0.6856713 0.4730181
vn -0.5525589 -0.8327377 -0.03502208
vn -0.7286206 0.6172056 0.2969329
vn -0.6994246 -0.6982363 -0.1525495
vn -0.8858593 -0.448673 -0.118093
vn -0.5894625 0.7961776 0.1365104
vn 0.5912032 -0.5322624 -0.6059502
vn 0.8074202 -0.3575137 -0.469315
vn 0.8374504 0.5115041 -0.1924593
vn 0.5823326 0.7925445 -0.1810031
vn 0.3649556 -0.8245857 -0.4322798
vn 0.5536118 -0.6855463 0.4728005
vn 0.5527205 0.8326145 -0.03539765
vn 0.7285933 -0.6173171 0.296768
vn 0.6994215 0.6981811 -0.1528159
vn 0.8858593 0.448673 -0.118093
vn 0.5894627 -0.7961776 0.1365099
vn -0.5913737 0.5322242 -0.6058173
vn -0.8075954 0.3576666 -0.4688969
vn -0.8375376 -0.5116072 -0.1918041
vn -0.5824872 -0.792468 -0.1808399
vn -0.3648824 0.8247072 -0.4321097
vn -0.6099379 -0.6605569 -0.4377677
vn -0.3530822 0.6399703 -0.6824741
vn -0.5533671 -0.6857479 0.4727947
vn -0.7286453 -0.6172318 0.2968179
vn -0.5526506 0.8326812 -0.03491753
vn -0.6993862 0.698266 -0.1525895
vn -0.8858593 0.448673 -0.1180929
vn -0.5894627 -0.7961776 0.13651
vn 0.5912663 0.5323141 -0.6058432
vn 0.8374273 -0.5115921 -0.1923251
vn 0.807532 0.3575484 -0.4690963
vn 0.5823725 -0.7925048 -0.1810479
vn 0.3649837 0.8246915 -0.4320544
vn 0.6099379 -0.6605569 -0.4377677
vn 0.3530822 0.6399703 -0.6824741
vn -0.2197101 -0.2245576 -0.949369
vn -0.2197124 -0.2245599 -0.9493679
vn -0.2197102 -0.2245577 -0.949369
vn -0.2197079 -0.2245553 -0.94937
vn 0.2197101 -0.2245575 -0.949369
vn 0.2197102 -0.2245577 -0.949369
vn 0.2197124 -0.2245599 -0.9493679
vn 0.2197079 -0.2245553 -0.94937
vn -0.2197103 0.2245574 -0.949369
vn -0.2197103 0.2245575 -0.949369
vn -0.2197127 0.2245599 -0.9493678
vn -0.2197079 0.224555 -0.94937
vn 0.2197103 0.2245576 -0.949369
vn 0.2197127 0.2245601 -0.9493678
vn 0.2197103 0.2245576 -0.9493688
vn 0.2197079 0.2245551 -0.94937
vn -0.3530822 0.6399703 -0.6824741
vn 0.8858593 0.448673 -0.118093
vn 0.6994215 0.6981811 -0.1528159
vn -0.5913737 0.5322242 -0.6058173
vn -0.3530822 -0.6399702 -0.6824741
vn 0.6993877 -0.6982237 -0.1527763
vn 0.8858593 -0.448673 -0.1180929
vn -0.5913826 -0.532282 -0.6057579
vn -0.609938 0.6605611 -0.4377608
vn -0.5824822 0.7924527 -0.1809233
vn 0.3530822 -0.6399703 -0.6824741
vn -0.8858593 -0.448673 -0.118093
vn -0.6994246 -0.6982363 -0.1525495
vn 0.5912032 -0.5322624 -0.6059502
vn 0.6099381 0.660561 -0.4377609
vn 0.5823326 0.7925445 -0.1810031
vn 0.3530822 0.6399703 -0.6824741
vn -0.6993862 0.698266 -0.1525895
vn -0.8858593 0.448673 -0.1180929
vn 0.5912663 0.5323141 -0.6058432

vt 0.4652466 0.673951
vt 0.8973525 0.8004042
vt 0.4673817 0.8027973
vt 0.8952174 0.6715579
vt 0.4673817 0.6715579
vt 0.8952174 0.8027973
vt 0.7227032 0.06914729
vt 0.1893544 0.04746926
vt 0.7168495 0.04001474
vt 0.2020081 0.07564461
vt 0.4685968 0.8517544
vt 0.4733038 0.8224148
vt 0.9812924 0.8380436
vt 0.9938583 0.8068454
vt 0.4652466 0.8518186
vt 0.4699537 0.8224789
vt 0.974764 0.5073876
vt 0.4612183 0.5121987
vt 0.9682037 0.4766667
vt 0.447439 0.4815171
vt 0.9774074 0.5057321
vt 0.9715537 0.4765995
vt 0.447439 0.5593027
vt 0.4521461 0.5299631
vt 0.979528 0.516732
vt 0.9679886 0.5453818
vt 0.7157979 0.1091842
vt 0.2029588 0.1155836
vt 0.7099443 0.08005166
vt 0.1891796 0.08490199
vt 0.7191479 0.1091171
vt 0.7132941 0.07998449
vt 0.1891796 0.4233729
vt 0.1938866 0.3940333
vt 0.7212684 0.3808023
vt 0.709729 0.4094521
vt 0.4507892 0.6062804
vt 0.4554962 0.5769409
vt 0.9634848 0.5925697
vt 0.9760506 0.5613714
vt 0.4474391 0.6063447
vt 0.4521461 0.5770049
vt 0.7227032 0.03075898
vt 0.1893544 0.009080946
vt 0.7168495 0.001626432
vt 0.2020081 0.0372563
vt 0.6875727 0.2782058
vt 0.1924059 0.2837636
vt 0.6982418 0.2444716
vt 0.194971 0.2517344
vt 0.1919479 0.2534571
vt 0.1891796 0.2837191
vt 0.6996614 0.2890019
vt 0.2003238 0.3316081
vt 0.1898764 0.3025851
vt 0.7036141 0.3191322
vt 0.1891796 0.3000677
vt 0.201163 0.4712045
vt 0.1891796 0.4379146
vt 0.696167 0.4573457
vt 0.6923482 0.4254417
vt 0.6954364 0.4270446
vt 0.699389 0.4571747
vt 0.1919479 0.1693479
vt 0.7018736 0.1629351
vt 0.6925719 0.1923454
vt 0.1891796 0.19961
vt 0.7024711 0.1603924
vt 0.47723 0.6687995
vt 0.4652466 0.6355095
vt 0.972234 0.6549406
vt 0.9684152 0.6230367
vt 0.9715034 0.6246395
vt 0.9754561 0.6547697
vt 0.19446 0.2113239
vt 0.7043857 0.2049111
vt 0.6950841 0.2343214
vt 0.1916917 0.2415859
vt 0.7049833 0.2023684
vt 0.1891796 0.2417132
vt 0.1919481 0.2114512
vt 0.6880772 0.1504809
vt 0.1924059 0.157634
vt 0.6982418 0.118342
vt 0.194971 0.1256049
vt 0.1919479 0.1273276
vt 0.1891796 0.1575896
vt 0.6996614 0.335251
vt 0.2003238 0.3778571
vt 0.1898764 0.3488342
vt 0.703614 0.3653812
vt 0.1891796 0.3463168
vt 0.7061292 0.3654099
vt 0.7021764 0.3352797
vt 0.7244603 0.08381796
vt 0.7541484 0.08613533
vt 0.7546135 0.115109
vt 0.7249253 0.1127915
vt 0.7280157 0.07564461
vt 0.7581689 0.0443536
vt 0.7577038 0.0733273
vt 0.7284806 0.04667097
vt 0.9505602 0.9675065
vt 0.9181013 0.9963989
vt 0.9207817 0.9675457
vt 0.9478799 0.9963596
vt 0.5669335 0.9750049
vt 0.5371773 0.9738533
vt 0.5355765 0.9449201
vt 0.5653328 0.9460719
vt 0.7284806 0.04667097
vt 0.7280157 0.07564461
vt 0.7254616 0.07459098
vt 0.7276019 0.04387897
vt 0.5653328 0.9460719
vt 0.5694442 0.973852
vt 0.5669335 0.9750049
vt 0.5661015 0.9432475
vt 0.5355765 0.9449201
vt 0.5363453 0.9420958
vt 0.9478799 0.9963596
vt 0.9505602 0.9675065
vt 0.9530262 0.9687524
vt 0.9485425 0.9992107
vt 0.9181013 0.9963989
vt 0.9187641 0.99925
vt 0.7249253 0.1127915
vt 0.7219062 0.08487153
vt 0.7244603 0.08381796
vt 0.7240465 0.1155836

g VaultingHorse01_PhyMetal.obj
usemtl VaultingHorse01_PhyMetal
usemap VaultingHorse01_PhyMetal
f 1/1/1 3/3/3 2/2/2
f 2/2/2 4/4/4 1/1/1
f 5/5/5 1/1/1 4/4/4
f 3/3/3 6/6/6 2/2/2
f 7/7/7 9/9/9 8/8/8
f 7/7/7 8/8/8 10/10/10
f 11/11/11 13/13/13 12/12/12
f 14/14/14 12/12/12 13/13/13
f 12/12/12 15/15/15 11/11/11
f 12/12/12 16/16/16 15/15/15
f 17/17/17 19/19/19 18/18/18
f 20/20/20 18/18/18 19/19/19
f 19/19/19 17/17/17 21/21/21
f 19/19/19 21/21/21 22/22/22
f 23/23/23 25/25/25 24/24/24
f 23/23/23 26/26/26 25/25/25
f 27/27/27 29/29/29 28/28/28
f 30/30/30 28/28/28 29/29/29
f 29/29/29 27/27/27 31/31/31
f 29/29/29 31/31/31 32/32/32
f 33/33/33 35/35/35 34/34/34
f 33/33/33 36/36/36 35/35/35
f 37/37/37 39/39/39 38/38/38
f 40/40/40 38/38/38 39/39/39
f 38/38/38 41/41/41 37/37/37
f 38/38/38 42/42/42 41/41/41
f 43/43/43 45/45/45 44/44/44
f 43/43/43 44/44/44 46/46/46
f 47/47/47 49/49/49 48/48/48
f 50/50/50 48/48/48 49/49/49
f 48/48/48 50/50/50 51/51/51
f 48/48/48 51/51/51 52/52/52
f 53/53/53 55/55/55 54/54/54
f 56/56/56 53/53/53 54/54/54
f 53/53/53 57/57/57 55/55/55
f 58/58/58 60/60/60 59/59/59
f 61/61/61 59/59/59 60/60/60
f 60/60/60 62/62/62 61/61/61
f 60/60/60 63/63/63 62/62/62
f 64/64/64 66/66/66 65/65/65
f 67/67/67 66/66/66 64/64/64
f 64/64/64 65/65/65 68/68/68
f 69/69/69 71/71/71 70/70/70
f 72/72/72 70/70/70 71/71/71
f 71/71/71 73/73/73 72/72/72
f 71/71/71 74/74/74 73/73/73
f 75/75/75 77/77/77 76/76/76
f 78/78/78 77/77/77 75/75/75
f 75/75/75 76/76/76 79/79/79
f 80/80/80 78/78/78 75/75/75
f 80/80/80 75/75/75 81/81/81
f 82/82/82 84/84/84 83/83/83
f 85/85/85 83/83/83 84/84/84
f 83/83/83 85/85/85 86/86/86
f 83/83/83 86/86/86 87/87/87
f 88/88/88 90/90/90 89/89/89
f 91/91/91 88/88/88 89/89/89
f 88/88/88 92/92/92 90/90/90
f 93/93/93 88/88/88 91/91/91
f 93/93/93 94/94/94 88/88/88
f 95/95/95 97/97/97 96/96/96
f 97/97/97 95/95/95 98/98/98
f 99/99/99 101/101/101 100/100/100
f 100/100/100 102/102/102 99/99/99
f 103/103/103 105/105/105 104/104/104
f 104/104/104 106/106/106 103/103/103
f 107/107/107 109/109/109 108/108/108
f 109/109/109 107/107/107 110/110/110
f 111/111/111 113/113/113 112/112/112
f 111/111/111 114/114/114 113/113/113
f 115/115/115 117/117/117 116/116/116
f 115/115/115 116/116/116 118/118/118
f 119/119/119 115/115/115 118/118/118
f 119/119/119 118/118/118 120/120/120
f 121/121/121 123/123/123 122/122/122
f 121/121/121 124/124/124 123/123/123
f 125/125/125 124/124/124 121/121/121
f 125/125/125 126/126/126 124/124/124
f 127/127/127 129/129/129 128/128/128
f 127/127/127 128/128/128 130/130/130
