#WaterCooler_b.obj

v -0.18 -0.165 0
v 0.18 0.165 0
v -0.18 0.165 0
v 0.18 -0.165 0
v -0.18 -0.165 1.02
v 0.18 0.165 1.02
v 0.18 -0.165 1.02
v -0.18 0.165 1.02
v -0.18 -0.165 0
v 0.18 -0.165 1.02
v 0.18 -0.165 0
v -0.18 -0.165 1.02
v 0.18 -0.165 0
v 0.18 0.165 1.02
v 0.18 0.165 0
v 0.18 -0.165 1.02
v 0.18 0.165 0
v -0.18 0.165 1.02
v -0.18 0.165 0
v 0.18 0.165 1.02
v -0.18 0.165 0
v -0.18 -0.165 1.02
v -0.18 -0.165 0
v -0.18 0.165 1.02
v 3.096652E-06 0.08998139 1.018908
v 0.03078491 0.08455373 1.018908
v 0.03078491 0.08455373 1.031095
v 3.096652E-06 0.08998139 1.031095
v -0.0307787 0.08455373 1.018908
v -0.0307787 0.08455373 1.031095
v -0.05784778 0.06892541 1.018908
v -0.05784778 0.06892541 1.031095
v 3.096652E-06 0.08998139 1.031095
v 0.03078491 0.08455373 1.031095
v 0.02394451 0.06575988 1.036669
v 3.097526E-06 0.0699814 1.036669
v 0.04499824 0.0536045 1.036669
v 0.05785398 0.06892539 1.031095
v 0.06062488 0.03498139 1.036669
v 0.07794539 0.04498139 1.031095
v 0.06893965 0.01213676 1.036669
v 0.0886358 0.01560972 1.031095
v 0.06893964 -0.01217399 1.036669
v 0.08863579 -0.01564695 1.031095
v 0.06062488 -0.03501862 1.036669
v 0.07794538 -0.04501861 1.031095
v 0.04499822 -0.05364172 1.036669
v 0.05785397 -0.06896261 1.031095
v 0.0239445 -0.06579709 1.036669
v 0.03078489 -0.08459094 1.031095
v 3.080837E-06 -0.0700186 1.036669
v 3.075194E-06 -0.0900186 1.031095
v -0.02393833 -0.06579708 1.036669
v -0.03077874 -0.08459093 1.031095
v -0.04499205 -0.0536417 1.036669
v -0.0578478 -0.06896258 1.031095
v -0.06061869 -0.03501859 1.036669
v -0.07793919 -0.04501859 1.031095
v -0.06893345 -0.01217397 1.036669
v -0.0886296 -0.01564693 1.031095
v -0.06893344 0.01213677 1.036669
v -0.0886296 0.01560974 1.031095
v -0.06061868 0.0349814 1.036669
v -0.07793918 0.04498139 1.031095
v -0.04499203 0.05360452 1.036669
v -0.05784778 0.06892541 1.031095
v -0.02393831 0.06575988 1.036669
v -0.0307787 0.08455373 1.031095
v 3.097526E-06 0.0699814 1.036669
v 0.02394451 0.06575988 1.036669
v 0.02394451 0.06575988 1.018908
v 3.097526E-06 0.0699814 1.018908
v 0.04499824 0.0536045 1.018908
v 0.04499824 0.0536045 1.036669
v -0.02393831 0.06575988 1.036669
v -0.02393831 0.06575988 1.018908
v -0.04499203 0.05360452 1.036669
v -0.04499203 0.05360452 1.018908
v 0.03078491 0.08455373 1.018908
v 0.05785398 0.06892539 1.018908
v 0.05785398 0.06892539 1.031095
v 0.03078491 0.08455373 1.031095
v 0.05785398 0.06892539 1.018908
v 0.07794539 0.04498139 1.018908
v 0.07794539 0.04498139 1.031095
v 0.05785398 0.06892539 1.031095
v 0.0886358 0.01560972 1.031095
v 0.0886358 0.01560972 1.018908
v 0.04499824 0.0536045 1.036669
v 0.06062488 0.03498139 1.036669
v 0.06062488 0.03498139 1.018908
v 0.06893965 0.01213676 1.018908
v 0.06893965 0.01213676 1.036669
v 0.06893964 -0.01217399 1.018908
v 0.06893964 -0.01217399 1.036669
v 0.06062488 -0.03501862 1.018908
v 0.06062488 -0.03501862 1.036669
v 0.04499822 -0.05364172 1.018908
v 0.04499822 -0.05364172 1.036669
v 0.04499824 0.0536045 1.036669
v 0.06062488 0.03498139 1.018908
v 0.04499824 0.0536045 1.018908
v 0.0886358 0.01560972 1.018908
v 0.08863579 -0.01564695 1.018908
v 0.08863579 -0.01564695 1.031095
v 0.0886358 0.01560972 1.031095
v 0.07794538 -0.04501861 1.031095
v 0.07794538 -0.04501861 1.018908
v 0.05785397 -0.06896261 1.031095
v 0.05785397 -0.06896261 1.018908
v 0.05785397 -0.06896261 1.018908
v 0.03078489 -0.08459094 1.018908
v 0.03078489 -0.08459094 1.031095
v 0.05785397 -0.06896261 1.031095
v 0.04499822 -0.05364172 1.036669
v 0.0239445 -0.06579709 1.036669
v 0.0239445 -0.06579709 1.018908
v 3.080837E-06 -0.0700186 1.018908
v 3.080837E-06 -0.0700186 1.036669
v -0.02393833 -0.06579708 1.018908
v -0.02393833 -0.06579708 1.036669
v -0.04499205 -0.0536417 1.018908
v -0.04499205 -0.0536417 1.036669
v 0.04499822 -0.05364172 1.036669
v 0.0239445 -0.06579709 1.018908
v 0.04499822 -0.05364172 1.018908
v 0.03078489 -0.08459094 1.018908
v 3.075194E-06 -0.0900186 1.018908
v 3.075194E-06 -0.0900186 1.031095
v 0.03078489 -0.08459094 1.031095
v -0.03077874 -0.08459093 1.031095
v -0.03077874 -0.08459093 1.018908
v -0.0578478 -0.06896258 1.031095
v -0.0578478 -0.06896258 1.018908
v -0.0578478 -0.06896258 1.018908
v -0.07793919 -0.04501859 1.018908
v -0.07793919 -0.04501859 1.031095
v -0.0578478 -0.06896258 1.031095
v -0.0886296 -0.01564693 1.031095
v -0.0886296 -0.01564693 1.018908
v -0.04499205 -0.0536417 1.036669
v -0.06061869 -0.03501859 1.036669
v -0.06061869 -0.03501859 1.018908
v -0.04499205 -0.0536417 1.018908
v -0.06061869 -0.03501859 1.036669
v -0.06893345 -0.01217397 1.036669
v -0.06893345 -0.01217397 1.018908
v -0.06061869 -0.03501859 1.018908
v -0.06893344 0.01213677 1.018908
v -0.06893344 0.01213677 1.036669
v -0.06061868 0.0349814 1.018908
v -0.06061868 0.0349814 1.036669
v -0.04499203 0.05360452 1.018908
v -0.04499203 0.05360452 1.036669
v -0.0886296 -0.01564693 1.018908
v -0.0886296 0.01560974 1.018908
v -0.0886296 0.01560974 1.031095
v -0.0886296 -0.01564693 1.031095
v -0.07793918 0.04498139 1.031095
v -0.07793918 0.04498139 1.018908
v -0.05784778 0.06892541 1.031095
v -0.07793918 0.04498139 1.018908
v -0.05784778 0.06892541 1.018908
v -0.05784778 0.06892541 1.031095

vn 0 0 -1
vn 0 0 -1
vn 0 0 -1
vn 0 0 -1
vn 0 0 1
vn 0 0 1
vn 0 0 1
vn 0 0 1
vn 0 -1 0
vn 0 -1 0
vn 0 -1 0
vn 0 -1 0
vn 1 0 0
vn 1 0 0
vn 1 0 0
vn 1 0 0
vn 0 1 0
vn 0 1 0
vn 0 1 0
vn 0 1 0
vn -1 0 0
vn -1 0 0
vn -1 0 0
vn -1 0 0
vn 0 1 0
vn 0.3420203 0.9396926 0
vn 0.3420203 0.9396926 0
vn 0 1 0
vn -0.3420199 0.9396926 0
vn -0.34202 0.9396926 0
vn -0.6427876 0.7660444 0
vn -0.6427876 0.7660445 0
vn 0 0.2684504 0.9632936
vn 0.09181549 0.2522609 0.9632934
vn 0.09181549 0.2522608 0.9632934
vn 0 0.2684503 0.9632936
vn 0.1725566 0.2056449 0.9632934
vn 0.1725566 0.2056449 0.9632934
vn 0.2324849 0.1342252 0.9632934
vn 0.2324849 0.1342252 0.9632934
vn 0.2643721 0.04661589 0.9632934
vn 0.264372 0.0466159 0.9632936
vn 0.264372 -0.04661595 0.9632936
vn 0.264372 -0.04661597 0.9632936
vn 0.2324848 -0.1342252 0.9632936
vn 0.2324848 -0.1342252 0.9632936
vn 0.1725565 -0.205645 0.9632936
vn 0.1725565 -0.205645 0.9632936
vn 0.09181538 -0.2522609 0.9632936
vn 0.09181539 -0.2522609 0.9632934
vn 0 -0.2684504 0.9632934
vn 0 -0.2684504 0.9632936
vn -0.0918155 -0.2522608 0.9632936
vn -0.09181552 -0.2522608 0.9632936
vn -0.1725567 -0.2056449 0.9632934
vn -0.1725567 -0.2056449 0.9632934
vn -0.2324849 -0.1342252 0.9632934
vn -0.2324849 -0.1342252 0.9632934
vn -0.2643721 -0.04661589 0.9632936
vn -0.2643721 -0.04661589 0.9632936
vn -0.264372 0.04661597 0.9632936
vn -0.264372 0.04661596 0.9632936
vn -0.2324848 0.1342252 0.9632936
vn -0.2324848 0.1342252 0.9632936
vn -0.1725565 0.2056449 0.9632936
vn -0.1725565 0.2056449 0.9632936
vn -0.09181541 0.2522609 0.9632936
vn -0.0918154 0.2522609 0.9632936
vn 0 -1 0
vn -0.3420202 -0.9396926 0
vn -0.3420202 -0.9396926 0
vn 0 -1 0
vn -0.6427877 -0.7660444 0
vn -0.6427876 -0.7660444 0
vn 0.34202 -0.9396926 0
vn 0.34202 -0.9396926 0
vn 0.6427876 -0.7660444 0
vn 0.6427875 -0.7660445 0
vn 0.3420203 0.9396926 0
vn 0.6427876 0.7660444 0
vn 0.6427876 0.7660444 0
vn 0.3420203 0.9396926 0
vn 0.6427876 0.7660444 0
vn 0.8660253 0.5000001 0
vn 0.8660254 0.5000001 0
vn 0.6427876 0.7660444 0
vn 0.9848077 0.1736481 0
vn 0.9848077 0.1736481 0
vn -0.6427876 -0.7660444 0
vn -0.8660254 -0.5000001 0
vn -0.8660254 -0.5000001 0
vn -0.9848077 -0.1736481 0
vn -0.9848077 -0.1736481 0
vn -0.9848077 0.1736483 0
vn -0.9848077 0.1736484 0
vn -0.8660253 0.5000001 0
vn -0.8660253 0.5000001 0
vn -0.6427873 0.7660446 0
vn -0.6427874 0.7660446 0
vn -0.6427876 -0.7660444 0
vn -0.8660254 -0.5000001 0
vn -0.6427877 -0.7660444 0
vn 0.9848077 0.1736481 0
vn 0.9848077 -0.1736483 0
vn 0.9848077 -0.1736483 0
vn 0.9848077 0.1736481 0
vn 0.8660253 -0.5000001 0
vn 0.8660253 -0.5000001 0
vn 0.6427874 -0.7660446 0
vn 0.6427874 -0.7660447 0
vn 0.6427874 -0.7660447 0
vn 0.3420199 -0.9396927 0
vn 0.3420199 -0.9396926 0
vn 0.6427874 -0.7660446 0
vn -0.6427874 0.7660446 0
vn -0.3420199 0.9396926 0
vn -0.3420199 0.9396926 0
vn 0 1 0
vn 0 1 0
vn 0.3420205 0.9396926 0
vn 0.3420204 0.9396926 0
vn 0.6427877 0.7660443 0
vn 0.6427878 0.7660443 0
vn -0.6427874 0.7660446 0
vn -0.3420199 0.9396926 0
vn -0.6427873 0.7660446 0
vn 0.3420199 -0.9396927 0
vn 0 -1 0
vn 0 -1 0
vn 0.3420199 -0.9396926 0
vn -0.3420205 -0.9396926 0
vn -0.3420205 -0.9396926 0
vn -0.6427878 -0.7660443 0
vn -0.6427878 -0.7660443 0
vn -0.6427878 -0.7660443 0
vn -0.8660254 -0.4999999 0
vn -0.8660254 -0.4999999 0
vn -0.6427878 -0.7660443 0
vn -0.9848077 -0.173648 0
vn -0.9848077 -0.173648 0
vn 0.6427878 0.7660443 0
vn 0.8660254 0.4999999 0
vn 0.8660254 0.4999999 0
vn 0.6427877 0.7660443 0
vn 0.8660254 0.4999999 0
vn 0.9848078 0.173648 0
vn 0.9848078 0.173648 0
vn 0.8660254 0.4999999 0
vn 0.9848077 -0.1736483 0
vn 0.9848077 -0.1736483 0
vn 0.8660254 -0.5000001 0
vn 0.8660254 -0.5000001 0
vn 0.6427875 -0.7660445 0
vn 0.6427876 -0.7660444 0
vn -0.9848077 -0.173648 0
vn -0.9848077 0.1736482 0
vn -0.9848077 0.1736482 0
vn -0.9848077 -0.173648 0
vn -0.8660254 0.4999999 0
vn -0.8660254 0.5 0
vn -0.6427876 0.7660445 0
vn -0.8660254 0.5 0
vn -0.6427876 0.7660444 0
vn -0.6427876 0.7660445 0

vt 0.6937269 0.2553204
vt 0.4400576 0.0466224
vt 0.6937269 0.0466224
vt 0.4400576 0.2553204
vt 0.4614362 0.9954705
vt 0.689634 0.9079872
vt 0.689634 0.9954705
vt 0.4614362 0.9079872
vt 0.001180934 0.9978132
vt 0.3781478 0.002627015
vt 0.3781478 0.9978132
vt 0.001180934 0.002627015
vt 0.3906739 0.998905
vt 0.7017434 0.001381457
vt 0.7017434 0.998905
vt 0.3906739 0.001381457
vt 0.7089999 0.9978132
vt 0.9954317 0.002627015
vt 0.9954317 0.9978132
vt 0.7089999 0.002627015
vt 0.7015882 0.9984067
vt 0.3908293 0.001879811
vt 0.3908293 0.9984067
vt 0.7015882 0.001879811
vt 0.5656936 0.885586
vt 0.5261886 0.885586
vt 0.5261886 0.8699296
vt 0.5656936 0.8699296
vt 0.6051987 0.885586
vt 0.6051987 0.8699296
vt 0.6399389 0.885586
vt 0.6399389 0.8699296
vt 0.5656936 0.7585551
vt 0.6051987 0.765528
vt 0.5964199 0.7896723
vt 0.5656936 0.7842489
vt 0.62344 0.8052883
vt 0.6399389 0.7856056
vt 0.643495 0.8292133
vt 0.6657239 0.8163664
vt 0.654166 0.8585618
vt 0.6794438 0.8541
vt 0.654166 0.8897937
vt 0.6794438 0.8942554
vt 0.643495 0.9191421
vt 0.6657238 0.9319891
vt 0.62344 0.9430671
vt 0.6399389 0.9627498
vt 0.5964198 0.9586831
vt 0.6051986 0.9828275
vt 0.5656936 0.9641064
vt 0.5656936 0.9898003
vt 0.5349675 0.958683
vt 0.5261886 0.9828274
vt 0.5079474 0.9430671
vt 0.4914486 0.9627497
vt 0.4878924 0.919142
vt 0.4656635 0.931989
vt 0.4772213 0.8897936
vt 0.4519435 0.8942553
vt 0.4772213 0.8585618
vt 0.4519435 0.8541
vt 0.4878924 0.8292133
vt 0.4656635 0.8163664
vt 0.5079474 0.8052883
vt 0.4914486 0.7856055
vt 0.5349676 0.7896723
vt 0.5261887 0.765528
vt 0.5656936 0.8627692
vt 0.5964199 0.8627692
vt 0.5964199 0.885586
vt 0.5656936 0.885586
vt 0.62344 0.885586
vt 0.62344 0.8627692
vt 0.5349676 0.8627692
vt 0.5349676 0.885586
vt 0.5079474 0.8627692
vt 0.5079474 0.885586
vt 0.5261886 0.885586
vt 0.4914486 0.885586
vt 0.4914486 0.8699296
vt 0.5261886 0.8699296
vt 0.6541756 0.885586
vt 0.6234462 0.885586
vt 0.6234462 0.8699296
vt 0.6541756 0.8699296
vt 0.5857509 0.8699296
vt 0.5857509 0.885586
vt 0.4968745 0.8627692
vt 0.5207751 0.8627692
vt 0.5207751 0.885586
vt 0.5500937 0.885586
vt 0.5500937 0.8627692
vt 0.5812938 0.885586
vt 0.5812938 0.8627692
vt 0.6106124 0.885586
vt 0.6106124 0.8627692
vt 0.6345129 0.885586
vt 0.6345129 0.8627692
vt 0.4968745 0.8627692
vt 0.5207751 0.885586
vt 0.4968745 0.885586
vt 0.5857509 0.885586
vt 0.5456364 0.885586
vt 0.5456364 0.8699296
vt 0.5857509 0.8699296
vt 0.5079412 0.8699296
vt 0.5079412 0.885586
vt 0.4772117 0.8699296
vt 0.4772117 0.885586
vt 0.6399389 0.885586
vt 0.6051986 0.885586
vt 0.6051986 0.8699296
vt 0.6399389 0.8699296
vt 0.5079474 0.8627692
vt 0.5349676 0.8627692
vt 0.5349676 0.885586
vt 0.5656937 0.885586
vt 0.5656937 0.8627692
vt 0.5964199 0.885586
vt 0.5964199 0.8627692
vt 0.62344 0.885586
vt 0.62344 0.8627692
vt 0.5079474 0.8627692
vt 0.5349676 0.885586
vt 0.5079474 0.885586
vt 0.6051986 0.885586
vt 0.5656936 0.885586
vt 0.5656936 0.8699296
vt 0.6051986 0.8699296
vt 0.5261886 0.8699296
vt 0.5261886 0.885586
vt 0.4914486 0.8699296
vt 0.4914486 0.885586
vt 0.6541756 0.885586
vt 0.6234462 0.885586
vt 0.6234462 0.8699296
vt 0.6541756 0.8699296
vt 0.5857509 0.8699296
vt 0.5857509 0.885586
vt 0.4968745 0.8627692
vt 0.5207751 0.8627692
vt 0.5207751 0.885586
vt 0.4968745 0.885586
vt 0.5207751 0.8627692
vt 0.5500937 0.8627692
vt 0.5500937 0.885586
vt 0.5207751 0.885586
vt 0.5812938 0.885586
vt 0.5812938 0.8627692
vt 0.6106124 0.885586
vt 0.6106124 0.8627692
vt 0.6345129 0.885586
vt 0.6345129 0.8627692
vt 0.5857509 0.885586
vt 0.5456364 0.885586
vt 0.5456364 0.8699296
vt 0.5857509 0.8699296
vt 0.5079412 0.8699296
vt 0.5079412 0.885586
vt 0.4772117 0.8699296
vt 0.5079412 0.885586
vt 0.4772117 0.885586
vt 0.4772117 0.8699296

g WaterCooler_b.obj
usemtl WaterCooler_b
usemap WaterCooler_b
f 1/1/1 3/3/3 2/2/2
f 2/2/2 4/4/4 1/1/1
f 5/5/5 7/7/7 6/6/6
f 6/6/6 8/8/8 5/5/5
f 9/9/9 11/11/11 10/10/10
f 10/10/10 12/12/12 9/9/9
f 13/13/13 15/15/15 14/14/14
f 14/14/14 16/16/16 13/13/13
f 17/17/17 19/19/19 18/18/18
f 18/18/18 20/20/20 17/17/17
f 21/21/21 23/23/23 22/22/22
f 22/22/22 24/24/24 21/21/21
f 25/25/25 27/27/27 26/26/26
f 25/25/25 28/28/28 27/27/27
f 29/29/29 28/28/28 25/25/25
f 29/29/29 30/30/30 28/28/28
f 31/31/31 30/30/30 29/29/29
f 31/31/31 32/32/32 30/30/30
f 33/33/33 35/35/35 34/34/34
f 33/33/33 36/36/36 35/35/35
f 34/34/34 35/35/35 37/37/37
f 34/34/34 37/37/37 38/38/38
f 38/38/38 37/37/37 39/39/39
f 38/38/38 39/39/39 40/40/40
f 40/40/40 39/39/39 41/41/41
f 40/40/40 41/41/41 42/42/42
f 42/42/42 41/41/41 43/43/43
f 42/42/42 43/43/43 44/44/44
f 44/44/44 43/43/43 45/45/45
f 44/44/44 45/45/45 46/46/46
f 46/46/46 45/45/45 47/47/47
f 46/46/46 47/47/47 48/48/48
f 48/48/48 47/47/47 49/49/49
f 48/48/48 49/49/49 50/50/50
f 50/50/50 49/49/49 51/51/51
f 50/50/50 51/51/51 52/52/52
f 52/52/52 51/51/51 53/53/53
f 52/52/52 53/53/53 54/54/54
f 54/54/54 53/53/53 55/55/55
f 54/54/54 55/55/55 56/56/56
f 56/56/56 55/55/55 57/57/57
f 56/56/56 57/57/57 58/58/58
f 58/58/58 57/57/57 59/59/59
f 58/58/58 59/59/59 60/60/60
f 60/60/60 59/59/59 61/61/61
f 60/60/60 61/61/61 62/62/62
f 62/62/62 61/61/61 63/63/63
f 62/62/62 63/63/63 64/64/64
f 64/64/64 63/63/63 65/65/65
f 64/64/64 65/65/65 66/66/66
f 66/66/66 65/65/65 67/67/67
f 66/66/66 67/67/67 68/68/68
f 68/68/68 67/67/67 36/36/36
f 68/68/68 36/36/36 33/33/33
f 69/69/69 71/71/71 70/70/70
f 69/69/69 72/72/72 71/71/71
f 70/70/70 71/71/71 73/73/73
f 70/70/70 73/73/73 74/74/74
f 75/75/75 72/72/72 69/69/69
f 75/75/75 76/76/76 72/72/72
f 77/77/77 76/76/76 75/75/75
f 77/77/77 78/78/78 76/76/76
f 79/79/79 81/81/81 80/80/80
f 79/79/79 82/82/82 81/81/81
f 83/83/83 85/85/85 84/84/84
f 83/83/83 86/86/86 85/85/85
f 84/84/84 85/85/85 87/87/87
f 84/84/84 87/87/87 88/88/88
f 89/89/89 91/91/91 90/90/90
f 90/90/90 91/91/91 92/92/92
f 90/90/90 92/92/92 93/93/93
f 93/93/93 92/92/92 94/94/94
f 93/93/93 94/94/94 95/95/95
f 95/95/95 94/94/94 96/96/96
f 95/95/95 96/96/96 97/97/97
f 97/97/97 96/96/96 98/98/98
f 97/97/97 98/98/98 99/99/99
f 100/100/100 102/102/102 101/101/101
f 103/103/103 105/105/105 104/104/104
f 103/103/103 106/106/106 105/105/105
f 104/104/104 105/105/105 107/107/107
f 104/104/104 107/107/107 108/108/108
f 108/108/108 107/107/107 109/109/109
f 108/108/108 109/109/109 110/110/110
f 111/111/111 113/113/113 112/112/112
f 111/111/111 114/114/114 113/113/113
f 115/115/115 117/117/117 116/116/116
f 116/116/116 117/117/117 118/118/118
f 116/116/116 118/118/118 119/119/119
f 119/119/119 118/118/118 120/120/120
f 119/119/119 120/120/120 121/121/121
f 121/121/121 120/120/120 122/122/122
f 121/121/121 122/122/122 123/123/123
f 124/124/124 126/126/126 125/125/125
f 127/127/127 129/129/129 128/128/128
f 127/127/127 130/130/130 129/129/129
f 128/128/128 129/129/129 131/131/131
f 128/128/128 131/131/131 132/132/132
f 132/132/132 131/131/131 133/133/133
f 132/132/132 133/133/133 134/134/134
f 135/135/135 137/137/137 136/136/136
f 135/135/135 138/138/138 137/137/137
f 136/136/136 137/137/137 139/139/139
f 136/136/136 139/139/139 140/140/140
f 141/141/141 143/143/143 142/142/142
f 141/141/141 144/144/144 143/143/143
f 145/145/145 147/147/147 146/146/146
f 145/145/145 148/148/148 147/147/147
f 146/146/146 147/147/147 149/149/149
f 146/146/146 149/149/149 150/150/150
f 150/150/150 149/149/149 151/151/151
f 150/150/150 151/151/151 152/152/152
f 152/152/152 151/151/151 153/153/153
f 152/152/152 153/153/153 154/154/154
f 155/155/155 157/157/157 156/156/156
f 155/155/155 158/158/158 157/157/157
f 156/156/156 157/157/157 159/159/159
f 156/156/156 159/159/159 160/160/160
f 160/160/160 159/159/159 161/161/161
f 162/162/162 164/164/164 163/163/163
