#wite.bmp.obj

v 2.361438 0.4249415 -1.500124
v 2.310638 0.4244345 1.241552
v 2.310638 0.4249415 -1.500124
v 2.21869 0.4244345 1.317752
v 2.259838 0.4249415 -1.500124
v 2.107438 0.4244345 1.343152
v 2.107438 0.4249415 -1.500124
v 1.091438 0.4244345 1.343152
v 1.091438 0.4249415 -1.500124
v 0.939038 0.4244345 1.330452
v 0.939038 0.4249415 -1.500124
v 0.786638 0.4244345 1.292352
v 0.786638 0.4249415 -1.500124
v 0.640842 0.4244345 1.199896
v 0.685038 0.4249415 -1.500124
v 0.47879 0.4244345 1.080008
v 0.532638 0.4249415 -1.500124
v 0.278638 0.4244345 0.9494518
v 0.278638 0.4249415 -1.500124
v 0.02463803 0.4244344 0.8351519
v 0.02463803 0.4249415 -1.500124
v -0.227838 0.4244344 0.7330439
v -0.227838 0.4249415 -1.500124
v -0.481838 0.4244344 0.6822439
v -0.481838 0.4249415 -1.500124
v -0.786638 0.4244344 0.6476999
v -0.786638 0.4249415 -1.500124
v -1.193038 0.4244344 0.6314439
v -1.193038 0.4249415 -1.500124
v -1.599438 0.4244344 0.6314439
v -1.599438 0.4249415 -1.500124
v -1.802638 0.4244344 0.6314439
v -1.802638 0.4249415 -1.500124
v -1.951482 0.4244344 0.6156958
v -1.955038 0.4249415 -1.500124
v -2.085086 0.4244344 0.5877559
v -2.056638 0.4249415 -1.500124
v -2.215134 0.4249423 0.5140958
v -2.158238 0.4249415 -1.500124
v -2.281174 0.4249423 0.4338318
v -2.310638 0.4249415 -1.500124
v -2.329942 0.4249423 0.356616
v -2.310638 0.4249415 -1.500124
v -2.329942 0.4249423 0.356616
v -2.361438 0.4249415 -1.500124
v -2.361438 0.4249421 0.2428239
v -2.361438 0.4249415 -1.449324
v 2.361438 0.3736345 1.114552
v 2.310638 0.3741415 -1.500124
v 2.310638 0.3736345 1.241552
v 2.259838 0.3741415 -1.500124
v 2.21869 0.3736345 1.317752
v 2.107438 0.3741415 -1.500124
v 2.107438 0.3736345 1.343152
v 1.091438 0.3741415 -1.500124
v 1.091438 0.3736345 1.343152
v 0.939038 0.3741415 -1.500124
v 0.939038 0.3736345 1.330452
v 0.786638 0.3741415 -1.500124
v 0.786638 0.3736345 1.292352
v 0.685038 0.3741415 -1.500124
v 0.640842 0.3736345 1.199896
v 0.532638 0.3741415 -1.500124
v 0.47879 0.3736345 1.080008
v 0.278638 0.3741415 -1.500124
v 0.278638 0.3736345 0.9494518
v 0.02463803 0.3741415 -1.500124
v 0.02463803 0.3736344 0.8351519
v -0.227838 0.3741415 -1.500124
v -0.227838 0.3736344 0.7335518
v -0.481838 0.3741415 -1.500124
v -0.481838 0.3736344 0.6827518
v -0.786638 0.3741415 -1.500124
v -0.786638 0.3736344 0.6482079
v -1.193038 0.3741415 -1.500124
v -1.193038 0.3736344 0.6319518
v -1.599438 0.3741415 -1.500124
v -1.599438 0.3736344 0.6319518
v -1.802638 0.3741415 -1.500124
v -1.802638 0.3736344 0.6319518
v -1.955038 0.3741415 -1.500124
v -1.951482 0.3736344 0.6162038
v -2.056638 0.3741415 -1.500124
v -2.085086 0.3736344 0.5877559
v -2.158238 0.3741415 -1.500124
v -2.215134 0.3741423 0.5146039
v -2.310638 0.3741415 -1.500124
v -2.281174 0.3741423 0.4343399
v -2.361438 0.3741415 -1.500124
v -2.329942 0.3741423 0.356616
v -2.310638 0.3741415 -1.500124
v -2.361438 0.3741415 -1.500124
v -2.281174 0.3741423 0.4343399
v -2.361438 0.3741415 -1.449324
v -2.329942 0.3741423 0.356616
v -2.329942 0.3741423 0.356616
v -2.361438 0.3741415 -1.449324
v -2.361438 0.3741421 0.2433319
v 2.259838 -0.4249424 -1.347724
v 1.345438 -0.424942 -0.3317237
v 1.345438 -0.4249424 -1.347724
v 0.939038 -0.424942 -0.3317237
v 0.939038 -0.4249424 -1.347724
v 0.8856981 -0.4198621 -0.4500877
v 0.888238 -0.4249424 -1.347724
v 0.7983221 -0.4198621 -0.5369557
v 0.786638 -0.4249424 -1.347724
v 0.711454 -0.4198621 -0.6024877
v 0.735838 -0.4249424 -1.347724
v 0.609854 -0.4198621 -0.6314437
v 0.634238 -0.4249424 -1.347724
v 0.515366 -0.4198621 -0.6385557
v 0.532638 -0.4249424 -1.347724
v -1.05791 -0.4198621 -0.6385557
v -1.040638 -0.4249424 -1.347724
v -1.130554 -0.4198621 -0.6603997
v -1.142238 -0.4249424 -1.347724
v -1.217422 -0.4198622 -0.7111997
v -1.193038 -0.4249424 -1.347724
v -1.282954 -0.4198622 -0.7838437
v -1.294638 -0.4249424 -1.347724
v -1.326134 -0.4198622 -0.8925557
v -1.345438 -0.4249424 -1.347724
v -1.326134 -0.4198622 -0.8925557
v -1.345438 -0.4249422 -0.9921237
v -1.345438 -0.4249424 -1.347724
v -1.10109 0.2212344 0.909828
v -0.492506 0.2217421 -0.108204
v -0.9110979 0.2212346 0.982472
v -0.303022 0.2217421 -0.03555999
v -0.687578 0.2212344 0.9662159
v -0.11303 0.2222502 0.03759199
v -0.477266 0.2212346 0.986028
v 0.07493003 0.2222502 0.110236
v -0.281686 0.2212346 1.042924
v 0.264922 0.2222502 0.18288
v -0.09778997 0.2212346 1.131824
v 0.454406 0.2222502 0.256032
v 0.06985002 0.2212346 1.2573
v 0.64389 0.2217423 0.328676
v 0.225298 0.2212346 1.419352
v 0.833882 0.2217423 0.40132
v 0.41529 0.2212348 1.492504
v -0.682498 0.2217421 -0.180848
v -0.682498 0.1709421 -0.1808479
v -0.9110979 0.1704345 0.982472
v -0.492506 0.1709421 -0.108204
v -0.687578 0.1704345 0.9662159
v -0.303022 0.1709421 -0.03555999
v -0.477266 0.1704345 0.986028
v -0.11303 0.1714501 0.03759199
v -0.281686 0.1704345 1.042924
v 0.07493003 0.1714502 0.110236
v -0.09778997 0.1704345 1.131824
v 0.264922 0.1714502 0.18288
v 0.06985002 0.1704345 1.2573
v 0.454406 0.1714502 0.256032
v 0.225298 0.1704347 1.419352
v 0.64389 0.1704343 0.328676
v 0.41529 0.1704347 1.492504
v 0.833882 0.1704343 0.40132
v -1.10109 0.1704345 0.909828
v 0.833882 0.2308863 0.40132
v 0.8536941 0.2308863 0.409448
v 0.41529 0.2298707 1.492504
v 0.435102 0.2298707 1.500124
v 0.41529 0.1617987 1.492504
v 0.435102 0.1617987 1.500124
v 0.833882 0.1617983 0.40132
v 0.8536941 0.1617983 0.409448
v -0.70231 0.230378 -0.188468
v -0.682498 0.230378 -0.180848
v -1.120902 0.2298705 0.902208
v -1.10109 0.2298705 0.909828
v -1.120902 0.1617985 0.902208
v -1.10109 0.1617985 0.909828
v -0.70231 0.1623061 -0.1884679
v -0.682498 0.1623061 -0.1808479
v 2.259838 -0.03225743 1.139952
v 0.939038 -0.03225743 1.139952
v 2.259838 -0.03175 -0.3317239
v 0.939038 -0.03175 -0.3317239
v 2.361438 0.4244345 1.114552
v 2.361438 0.3741415 -1.500124
v 2.259838 -0.424942 -0.3317237

vn 5.715728E-06 1 0.0001850095
vn 0.0001975542 1 0.0001861335
vn 1.590882E-06 1 0.0001824555
vn 7.638203E-05 1 0.000181893
vn 5.108693E-07 1 0.0001791348
vn 1.826362E-05 1 0.0001792753
vn 0 1 0.0001782964
vn -7.227065E-06 1 0.0001782964
vn 0 1 0.0001786827
vn -2.790074E-05 1 0.0001786668
vn -7.770154E-07 1 0.0001802757
vn -6.898357E-05 1 0.0001800145
vn -1.976785E-06 1 0.0001845414
vn -0.0001205604 1 0.0001828449
vn -2.769654E-06 1 0.0001918516
vn -0.0001312953 1 0.0001883506
vn -3.318592E-06 1 0.0002013029
vn -0.0001111436 1 0.0001988179
vn -3.23794E-06 1 0.0002117064
vn -8.843026E-05 1 0.0002111105
vn -3.147282E-06 1 0.0002217737
vn -6.735817E-05 1 0.0002215977
vn -1.675109E-06 1 0.0002295424
vn -3.516401E-05 1 0.000229673
vn -1.181771E-06 1 0.0002340815
vn -1.713716E-05 1 0.0002343242
vn -5.663832E-07 1 0.0002369102
vn -4.222416E-06 1 0.0002371135
vn 0 1 0.0002379186
vn 0 1 0.0002379186
vn 0 1 0.0002379186
vn -1.214922E-05 1 0.0002379186
vn -5.627415E-07 1 0.0002387644
vn -3.576927E-05 1 0.000238792
vn -1.0197E-06 1 0.0002412314
vn 0.00138096 0.999999 0.0002602355
vn 7.724592E-05 1 0.0001283895
vn 0.002705625 0.9999963 0.0002125109
vn 0 1 0
vn 0 1 0
vn 0 1 0
vn 0 1 0
vn 0 1 0
vn 0 1 0
vn 0 1 0
vn -4.947663E-06 1 0
vn -1 0 0
vn -0.0004590065 -0.9999999 -0.0001849668
vn -2.858147E-06 -1 -0.0001893387
vn -0.0001946775 -1 -0.0001825294
vn -1.591647E-06 -1 -0.0001823974
vn -7.550111E-05 -1 -0.0001795605
vn -5.113169E-07 -1 -0.0001790798
vn -1.878735E-05 -1 -0.0001782964
vn 0 -1 -0.0001782964
vn 6.998183E-06 -1 -0.0001786715
vn 0 -1 -0.00017871
vn 2.765848E-05 -1 -0.0001801395
vn 7.770535E-07 -1 -0.00018036
vn 6.969197E-05 -1 -0.0001830129
vn 1.978135E-06 -1 -0.0001846877
vn 0.0001230441 -1 -0.0001880948
vn 2.775917E-06 -1 -0.0001921718
vn 0.0001364196 -1 -0.0001974343
vn 3.326616E-06 -1 -0.0002019746
vn 0.000119194 -1 -0.0002101885
vn 3.239077E-06 -1 -0.0002123945
vn 9.273515E-05 -1 -0.0002205192
vn 3.13207E-06 -1 -0.0002224423
vn 7.124765E-05 -1 -0.0002290441
vn 1.67469E-06 -1 -0.0002298749
vn 3.640675E-05 -1 -0.0002338539
vn 1.181463E-06 -1 -0.0002343592
vn 1.799051E-05 -1 -0.0002368145
vn 5.662222E-07 -1 -0.0002370691
vn 4.817041E-06 -1 -0.0002378619
vn 0 -1 -0.0002378619
vn 0 -1 -0.0002378619
vn 0 -1 -0.0002378619
vn 1.164284E-05 -1 -0.0002386941
vn 5.624174E-07 -1 -0.0002387881
vn 3.62748E-05 -1 -0.0002407618
vn 1.038602E-06 -1 -0.0002413019
vn -0.001353827 -0.999999 -0.0001939015
vn -7.741293E-05 -1 -0.0001207301
vn -0.002850643 -0.9999959 -8.010876E-05
vn 0 -1 0
vn -5.241848E-07 -1 0
vn 0 -1 0
vn 0 -1 0
vn 0 -1 0
vn 0 -1 0
vn -5.241848E-07 -1 0
vn 2.450168E-05 -1 0
vn 0 -1 0
vn 0 -1 0
vn 2.450168E-05 -1 0
vn 4.917396E-06 -1 0
vn 0 1 0
vn 0 1 0
vn 0 1 0
vn 0.0202076 0.9997959 0
vn 0.001799222 0.9999948 -0.002723066
vn 0.07319731 0.9973165 -0.001366621
vn 0.0001922075 0.9999824 -0.005940883
vn 0.00516606 0.9999695 -0.005859204
vn 0.0001748627 0.9999787 -0.006526294
vn 0.003608487 0.9999723 -0.006502375
vn 8.663223E-05 0.9999759 -0.006936567
vn 0.001207313 0.9999754 -0.006914656
vn 2.23804E-05 0.9999746 -0.007123494
vn 0.0002449638 0.9999746 -0.007122518
vn 0 0.9999744 -0.007163578
vn 0.0009778846 0.999974 -0.007139759
vn 7.196668E-05 0.9999737 -0.007266228
vn 0.002815482 0.9999697 -0.007250491
vn 0.0001869517 0.9999707 -0.007667191
vn 0.005365763 0.9999573 -0.007531628
vn 0.0003237191 0.9999645 -0.00843083
vn 0.009922616 0.9999189 -0.007979538
vn 0.0006840172 0.9999492 -0.01005162
vn 0.008549669 0.9999222 -0.009087717
vn -0.007100596 0.9999158 -0.0108591
vn 0.008549669 0.9999222 -0.009087717
vn -0.2544922 0.9670748 -5.27014E-07
vn -0.007100596 0.9999158 -0.0108591
vn -0.0001559518 0.9999999 0.0004054992
vn -0.0001554101 0.9999999 0.0004057667
vn -8.684267E-05 0.9999999 0.0004467313
vn -0.001316906 0.9999992 -1.717663E-05
vn -0.0001511273 0.9999998 0.0006381682
vn -0.001287889 0.9999992 0.0003278075
vn -0.0001860939 0.9999995 0.001006582
vn -0.0003570889 0.9999995 0.0009442173
vn -0.0003564965 0.9999995 0.0009444476
vn -0.0003663637 0.9999995 0.0009383674
vn -0.0005079244 0.9999995 0.0008479045
vn 0.0008039939 0.9999988 0.001347919
vn -0.0003092503 0.9999998 0.0005928652
vn 0.0007809467 0.9999992 0.001007056
vn -0.00023619 0.9999999 0.0003746729
vn -0.0001554008 0.9999999 0.0004058285
vn -0.0001569241 0.9999999 0.0004049179
vn -0.0001552127 0.9999999 0.0004059411
vn 0.000155183 -0.9999999 -0.0004058635
vn 7.5652E-05 -0.9999999 -0.0004363869
vn 0.0001501209 -0.9999999 -0.0004260048
vn 8.458714E-06 -0.9999999 -0.0004807148
vn 0.001262468 -0.9999992 -0.0002684173
vn 0.0003074953 -0.9999998 -0.0006740175
vn 0.001523437 -0.9999987 -0.0004939857
vn 0.0003678015 -0.9999995 -0.0009402093
vn 0.000367622 -0.9999995 -0.0009403066
vn 0.0005383203 -0.9999995 -0.0008717441
vn 0.0003657056 -0.9999995 -0.0009055916
vn 0.0006876214 -0.9999995 -0.0007693865
vn -0.001868081 -0.9999975 -0.001279667
vn -2.941152E-05 -1 -0.0003708965
vn -0.002335819 -0.9999969 -0.0008961119
vn 0 -1 0
vn 0 -1 0
vn 0.0001551832 -0.9999999 -0.0004058635
vn -0.0003299285 0.9999996 0.0008042007
vn -0.0003297252 0.9999996 0.0008042832
vn -0.0003122961 0.9999996 0.0008113371
vn -0.000312088 0.9999996 0.0008114213
vn 0 -1 0
vn 0 -1 0
vn 0 -1 0
vn 0 -1 0
vn -0.0001559554 0.9999999 0.0004054792
vn -0.0001559554 0.9999999 0.0004054793
vn -0.0001559534 0.9999999 0.000405479
vn -0.0001559534 0.9999999 0.0004054791
vn 0.0001559823 -0.9999999 -0.0004055566
vn 0.0001559823 -0.9999999 -0.0004055566
vn 0.000155983 -0.9999999 -0.0004055566
vn 0.000155983 -0.9999999 -0.0004055565
vn 0 1 0.0003447976
vn 0 1 0.0003447975
vn 0 1 0.0003447975
vn 0 1 0.0003447976
vn 0.0004847118 0.9999999 0.0001938847
vn 0 -1 -0.0001938848
vn 0 1 0

vt 0.988281 0
vt 0.976563 0.958824
vt 0.976563 0
vt 0.957031 0.988235
vt 0.964844 0
vt 0.933594 0.994118
vt 0.933594 0
vt 0.71875 0.994118
vt 0.71875 0
vt 0.6875 0.994118
vt 0.6875 0
vt 0.65625 0.976471
vt 0.65625 0
vt 0.625 0.947059
vt 0.632813 0
vt 0.589844 0.905882
vt 0.601563 0
vt 0.546875 0.858824
vt 0.546875 0
vt 0.492188 0.817647
vt 0.492188 0
vt 0.441406 0.782353
vt 0.441406 0
vt 0.386719 0.764706
vt 0.386719 0
vt 0.320313 0.752941
vt 0.320313 0
vt 0.238281 0.747059
vt 0.238281 0
vt 0.152344 0.747059
vt 0.152344 0
vt 0.109375 0.747059
vt 0.109375 0
vt 0.078125 0.741176
vt 0.074219 0
vt 0.046875 0.735294
vt 0.054688 0
vt 0.019531 0.705882
vt 0.03125 0
vt 0.007813 0.682353
vt 0 0
vt 0 0.652941
vt 0 0
vt 0 0.652941
vt 0 0
vt 0 0.611765
vt 0 0.02352899
vt 0.988281 0.917647
vt 0.976563 0
vt 0.976563 0.958824
vt 0.964844 0
vt 0.957031 0.988235
vt 0.933594 0
vt 0.933594 0.994118
vt 0.71875 0
vt 0.71875 0.994118
vt 0.6875 0
vt 0.6875 0.994118
vt 0.65625 0
vt 0.65625 0.976471
vt 0.632813 0
vt 0.625 0.947059
vt 0.601563 0
vt 0.589844 0.905882
vt 0.546875 0
vt 0.546875 0.858824
vt 0.492188 0
vt 0.492188 0.817647
vt 0.441406 0
vt 0.441406 0.782353
vt 0.386719 0
vt 0.386719 0.764706
vt 0.320313 0
vt 0.320313 0.752941
vt 0.238281 0
vt 0.238281 0.747059
vt 0.152344 0
vt 0.152344 0.747059
vt 0.109375 0
vt 0.109375 0.747059
vt 0.074219 0
vt 0.078125 0.741176
vt 0.054688 0
vt 0.046875 0.735294
vt 0.03125 0
vt 0.019531 0.705882
vt 0 0
vt 0.007813 0.682353
vt 0 0
vt 0 0.652941
vt 0 0
vt 0 0
vt 0.007813 0.682353
vt 0 0.02352899
vt 0 0.652941
vt 0 0.652941
vt 0 0.02352899
vt 0 0.611765
vt 0.988281 0
vt 0.734375 0.994118
vt 0.734375 0
vt 0.621094 0.994118
vt 0.621094 0
vt 0.605469 0.882353
vt 0.609375 0
vt 0.582031 0.794118
vt 0.578125 0
vt 0.558594 0.729412
vt 0.566406 0
vt 0.53125 0.705882
vt 0.539063 0
vt 0.503906 0.694118
vt 0.507813 0
vt 0.070313 0.694118
vt 0.074219 0
vt 0.050781 0.676471
vt 0.046875 0
vt 0.027344 0.623529
vt 0.03125 0
vt 0.007813 0.552941
vt 0.003906 0
vt 0 0.447059
vt 0 0
vt 0 0.447059
vt 0 0.352941
vt 0 0
vt 0.007813 0.105882
vt 0.121094 0.770588
vt 0.113281 0.094118
vt 0.222656 0.758824
vt 0.214844 0.135294
vt 0.328125 0.747059
vt 0.320313 0.158824
vt 0.433594 0.729412
vt 0.425781 0.152941
vt 0.535156 0.717647
vt 0.53125 0.129412
vt 0.640625 0.705882
vt 0.632813 0.08823502
vt 0.746094 0.694118
vt 0.738281 0.01764703
vt 0.847656 0.682353
vt 0.839844 0.005882025
vt 0.015625 0.782353
vt 0.015625 0.782353
vt 0.113281 0.094118
vt 0.121094 0.770588
vt 0.214844 0.135294
vt 0.222656 0.758824
vt 0.320313 0.158824
vt 0.328125 0.747059
vt 0.425781 0.152941
vt 0.433594 0.729412
vt 0.53125 0.129412
vt 0.535156 0.717647
vt 0.632813 0.08823502
vt 0.640625 0.705882
vt 0.738281 0.01764703
vt 0.746094 0.694118
vt 0.839844 0.005882025
vt 0.847656 0.682353
vt 0.007813 0.105882
vt 0.847656 0.682353
vt 0.859375 0.682353
vt 0.839844 0.005882025
vt 0.851563 0.005882025
vt 0.839844 0.005882025
vt 0.851563 0.005882025
vt 0.847656 0.682353
vt 0.859375 0.682353
vt 0.003906 0.782353
vt 0.015625 0.782353
vt 0 0.105882
vt 0.007813 0.105882
vt 0 0.105882
vt 0.007813 0.105882
vt 0.003906 0.782353
vt 0.015625 0.782353
vt 0 0
vt 0.988281 0
vt 0 0.994118
vt 0.988281 0.994118
vt 0.988281 0.917647
vt 0.988281 0
vt 0.988281 0.994118

g wite.bmp.obj
usemtl wite.bmp
usemap wite.bmp
f 1/1/1 3/3/3 2/2/2
f 2/2/2 3/3/3 4/4/4
f 3/3/3 5/5/5 4/4/4
f 4/4/4 5/5/5 6/6/6
f 5/5/5 7/7/7 6/6/6
f 6/6/6 7/7/7 8/8/8
f 7/7/7 9/9/9 8/8/8
f 8/8/8 9/9/9 10/10/10
f 9/9/9 11/11/11 10/10/10
f 10/10/10 11/11/11 12/12/12
f 11/11/11 13/13/13 12/12/12
f 12/12/12 13/13/13 14/14/14
f 13/13/13 15/15/15 14/14/14
f 14/14/14 15/15/15 16/16/16
f 15/15/15 17/17/17 16/16/16
f 16/16/16 17/17/17 18/18/18
f 17/17/17 19/19/19 18/18/18
f 18/18/18 19/19/19 20/20/20
f 19/19/19 21/21/21 20/20/20
f 20/20/20 21/21/21 22/22/22
f 21/21/21 23/23/23 22/22/22
f 22/22/22 23/23/23 24/24/24
f 23/23/23 25/25/25 24/24/24
f 24/24/24 25/25/25 26/26/26
f 25/25/25 27/27/27 26/26/26
f 26/26/26 27/27/27 28/28/28
f 27/27/27 29/29/29 28/28/28
f 28/28/28 29/29/29 30/30/30
f 29/29/29 31/31/31 30/30/30
f 30/30/30 31/31/31 32/32/32
f 31/31/31 33/33/33 32/32/32
f 32/32/32 33/33/33 34/34/34
f 33/33/33 35/35/35 34/34/34
f 34/34/34 35/35/35 36/36/36
f 35/35/35 37/37/37 36/36/36
f 36/36/36 37/37/37 38/38/38
f 37/37/37 39/39/39 38/38/38
f 38/38/38 39/39/39 40/40/40
f 39/39/39 41/41/41 40/40/40
f 40/40/40 41/41/41 42/42/42
f 43/43/43 45/45/45 44/44/44
f 44/44/44 45/45/45 46/46/46
f 45/45/45 47/47/47 46/46/46
f 48/48/48 50/50/50 49/49/49
f 49/49/49 50/50/50 51/51/51
f 50/50/50 52/52/52 51/51/51
f 51/51/51 52/52/52 53/53/53
f 52/52/52 54/54/54 53/53/53
f 53/53/53 54/54/54 55/55/55
f 54/54/54 56/56/56 55/55/55
f 55/55/55 56/56/56 57/57/57
f 56/56/56 58/58/58 57/57/57
f 57/57/57 58/58/58 59/59/59
f 58/58/58 60/60/60 59/59/59
f 59/59/59 60/60/60 61/61/61
f 60/60/60 62/62/62 61/61/61
f 61/61/61 62/62/62 63/63/63
f 62/62/62 64/64/64 63/63/63
f 63/63/63 64/64/64 65/65/65
f 64/64/64 66/66/66 65/65/65
f 65/65/65 66/66/66 67/67/67
f 66/66/66 68/68/68 67/67/67
f 67/67/67 68/68/68 69/69/69
f 68/68/68 70/70/70 69/69/69
f 69/69/69 70/70/70 71/71/71
f 70/70/70 72/72/72 71/71/71
f 71/71/71 72/72/72 73/73/73
f 72/72/72 74/74/74 73/73/73
f 73/73/73 74/74/74 75/75/75
f 74/74/74 76/76/76 75/75/75
f 75/75/75 76/76/76 77/77/77
f 76/76/76 78/78/78 77/77/77
f 77/77/77 78/78/78 79/79/79
f 78/78/78 80/80/80 79/79/79
f 79/79/79 80/80/80 81/81/81
f 80/80/80 82/82/82 81/81/81
f 81/81/81 82/82/82 83/83/83
f 82/82/82 84/84/84 83/83/83
f 83/83/83 84/84/84 85/85/85
f 84/84/84 86/86/86 85/85/85
f 85/85/85 86/86/86 87/87/87
f 86/86/86 88/88/88 87/87/87
f 88/88/88 90/90/90 89/89/89
f 91/91/91 93/93/93 92/92/92
f 92/92/92 95/95/95 94/94/94
f 96/96/96 98/98/98 97/97/97
f 99/99/99 101/101/101 100/100/100
f 100/100/100 101/101/101 102/102/102
f 101/101/101 103/103/103 102/102/102
f 102/102/102 103/103/103 104/104/104
f 103/103/103 105/105/105 104/104/104
f 104/104/104 105/105/105 106/106/106
f 105/105/105 107/107/107 106/106/106
f 106/106/106 107/107/107 108/108/108
f 107/107/107 109/109/109 108/108/108
f 108/108/108 109/109/109 110/110/110
f 109/109/109 111/111/111 110/110/110
f 110/110/110 111/111/111 112/112/112
f 111/111/111 113/113/113 112/112/112
f 112/112/112 113/113/113 114/114/114
f 113/113/113 115/115/115 114/114/114
f 114/114/114 115/115/115 116/116/116
f 115/115/115 117/117/117 116/116/116
f 116/116/116 117/117/117 118/118/118
f 117/117/117 119/119/119 118/118/118
f 118/118/118 119/119/119 120/120/120
f 119/119/119 121/121/121 120/120/120
f 120/120/120 121/121/121 122/122/122
f 121/121/121 123/123/123 122/122/122
f 124/124/124 126/126/126 125/125/125
f 127/127/127 129/129/129 128/128/128
f 128/128/128 129/129/129 130/130/130
f 129/129/129 131/131/131 130/130/130
f 130/130/130 131/131/131 132/132/132
f 131/131/131 133/133/133 132/132/132
f 132/132/132 133/133/133 134/134/134
f 133/133/133 135/135/135 134/134/134
f 134/134/134 135/135/135 136/136/136
f 135/135/135 137/137/137 136/136/136
f 136/136/136 137/137/137 138/138/138
f 137/137/137 139/139/139 138/138/138
f 138/138/138 139/139/139 140/140/140
f 139/139/139 141/141/141 140/140/140
f 140/140/140 141/141/141 142/142/142
f 141/141/141 143/143/143 142/142/142
f 144/144/144 127/127/127 128/128/128
f 145/145/145 147/147/147 146/146/146
f 146/146/146 147/147/147 148/148/148
f 147/147/147 149/149/149 148/148/148
f 148/148/148 149/149/149 150/150/150
f 149/149/149 151/151/151 150/150/150
f 150/150/150 151/151/151 152/152/152
f 151/151/151 153/153/153 152/152/152
f 152/152/152 153/153/153 154/154/154
f 153/153/153 155/155/155 154/154/154
f 154/154/154 155/155/155 156/156/156
f 155/155/155 157/157/157 156/156/156
f 156/156/156 157/157/157 158/158/158
f 157/157/157 159/159/159 158/158/158
f 158/158/158 159/159/159 160/160/160
f 159/159/159 161/161/161 160/160/160
f 162/162/162 145/145/145 146/146/146
f 163/163/163 165/165/165 164/164/164
f 164/164/164 165/165/165 166/166/166
f 167/167/167 169/169/169 168/168/168
f 168/168/168 169/169/169 170/170/170
f 171/171/171 173/173/173 172/172/172
f 172/172/172 173/173/173 174/174/174
f 175/175/175 177/177/177 176/176/176
f 176/176/176 177/177/177 178/178/178
f 179/179/179 181/181/181 180/180/180
f 180/180/180 181/181/181 182/182/182
f 1/1/1 2/2/2 183/183/183
f 48/48/48 49/49/49 184/184/184
f 100/100/100 185/185/185 99/99/99
